ISO-10303-21;
HEADER;
/* Generated by software containing ST-Developer
 * from STEP Tools, Inc. (www.steptools.com) 
 */

FILE_DESCRIPTION(
/* description */ (''),
/* implementation_level */ '2;1');

FILE_NAME(
/* name */ 'Bracket v5.step',
/* time_stamp */ '2026-07-29T20:42:28-04:00',
/* author */ (''),
/* organization */ (''),
/* preprocessor_version */ 'ST-DEVELOPER v20.1',
/* originating_system */ 'Autodesk Translation Framework v15.8.0.0',
/* authorisation */ '');

FILE_SCHEMA (('AUTOMOTIVE_DESIGN { 1 0 10303 214 3 1 1 }'));
ENDSEC;

DATA;
#10=MECHANICAL_DESIGN_GEOMETRIC_PRESENTATION_REPRESENTATION('',(#13),#1130);
#11=SHAPE_REPRESENTATION_RELATIONSHIP('SRR','None',#1137,#12);
#12=ADVANCED_BREP_SHAPE_REPRESENTATION('',(#14),#1129);
#13=STYLED_ITEM('',(#1146),#14);
#14=MANIFOLD_SOLID_BREP('Body1',#690);
#15=CYLINDRICAL_SURFACE('',#712,0.8115);
#16=CYLINDRICAL_SURFACE('',#714,0.8115);
#17=CYLINDRICAL_SURFACE('',#721,1.1);
#18=CYLINDRICAL_SURFACE('',#723,1.1);
#19=CYLINDRICAL_SURFACE('',#742,4.1);
#20=CYLINDRICAL_SURFACE('',#744,0.8115);
#21=CYLINDRICAL_SURFACE('',#746,0.8115);
#22=FACE_BOUND('',#86,.T.);
#23=FACE_BOUND('',#88,.T.);
#24=FACE_BOUND('',#96,.T.);
#25=FACE_BOUND('',#98,.T.);
#26=FACE_BOUND('',#103,.T.);
#27=FACE_BOUND('',#107,.T.);
#28=FACE_BOUND('',#112,.T.);
#29=FACE_BOUND('',#122,.T.);
#30=FACE_BOUND('',#123,.T.);
#31=FACE_BOUND('',#127,.T.);
#32=FACE_BOUND('',#128,.T.);
#33=FACE_BOUND('',#129,.T.);
#34=CIRCLE('',#705,0.8115);
#35=CIRCLE('',#707,0.8115);
#36=CIRCLE('',#713,0.8115);
#37=CIRCLE('',#715,0.8115);
#38=CIRCLE('',#717,1.1);
#39=CIRCLE('',#719,1.1);
#40=CIRCLE('',#722,1.1);
#41=CIRCLE('',#724,1.1);
#42=CIRCLE('',#728,0.8115);
#43=CIRCLE('',#729,0.8115);
#44=CIRCLE('',#731,0.8115);
#45=CIRCLE('',#732,0.8115);
#46=CIRCLE('',#733,4.1);
#47=CIRCLE('',#740,0.8115);
#48=CIRCLE('',#741,0.8115);
#49=CIRCLE('',#743,4.1);
#50=CIRCLE('',#745,0.8115);
#51=CIRCLE('',#747,0.8115);
#52=FACE_OUTER_BOUND('',#85,.T.);
#53=FACE_OUTER_BOUND('',#87,.T.);
#54=FACE_OUTER_BOUND('',#89,.T.);
#55=FACE_OUTER_BOUND('',#90,.T.);
#56=FACE_OUTER_BOUND('',#91,.T.);
#57=FACE_OUTER_BOUND('',#92,.T.);
#58=FACE_OUTER_BOUND('',#93,.T.);
#59=FACE_OUTER_BOUND('',#94,.T.);
#60=FACE_OUTER_BOUND('',#95,.T.);
#61=FACE_OUTER_BOUND('',#97,.T.);
#62=FACE_OUTER_BOUND('',#99,.T.);
#63=FACE_OUTER_BOUND('',#100,.T.);
#64=FACE_OUTER_BOUND('',#101,.T.);
#65=FACE_OUTER_BOUND('',#102,.T.);
#66=FACE_OUTER_BOUND('',#104,.T.);
#67=FACE_OUTER_BOUND('',#105,.T.);
#68=FACE_OUTER_BOUND('',#106,.T.);
#69=FACE_OUTER_BOUND('',#108,.T.);
#70=FACE_OUTER_BOUND('',#109,.T.);
#71=FACE_OUTER_BOUND('',#110,.T.);
#72=FACE_OUTER_BOUND('',#111,.T.);
#73=FACE_OUTER_BOUND('',#113,.T.);
#74=FACE_OUTER_BOUND('',#114,.T.);
#75=FACE_OUTER_BOUND('',#115,.T.);
#76=FACE_OUTER_BOUND('',#116,.T.);
#77=FACE_OUTER_BOUND('',#117,.T.);
#78=FACE_OUTER_BOUND('',#118,.T.);
#79=FACE_OUTER_BOUND('',#119,.T.);
#80=FACE_OUTER_BOUND('',#120,.T.);
#81=FACE_OUTER_BOUND('',#121,.T.);
#82=FACE_OUTER_BOUND('',#124,.T.);
#83=FACE_OUTER_BOUND('',#125,.T.);
#84=FACE_OUTER_BOUND('',#126,.T.);
#85=EDGE_LOOP('',(#441,#442,#443,#444));
#86=EDGE_LOOP('',(#445));
#87=EDGE_LOOP('',(#446,#447,#448,#449));
#88=EDGE_LOOP('',(#450));
#89=EDGE_LOOP('',(#451,#452,#453,#454,#455,#456,#457,#458,#459,#460));
#90=EDGE_LOOP('',(#461,#462,#463,#464,#465));
#91=EDGE_LOOP('',(#466,#467,#468,#469));
#92=EDGE_LOOP('',(#470,#471,#472,#473,#474,#475,#476,#477,#478,#479));
#93=EDGE_LOOP('',(#480,#481,#482,#483));
#94=EDGE_LOOP('',(#484,#485,#486,#487));
#95=EDGE_LOOP('',(#488,#489,#490,#491));
#96=EDGE_LOOP('',(#492));
#97=EDGE_LOOP('',(#493,#494,#495,#496));
#98=EDGE_LOOP('',(#497));
#99=EDGE_LOOP('',(#498,#499,#500,#501));
#100=EDGE_LOOP('',(#502,#503,#504,#505));
#101=EDGE_LOOP('',(#506,#507,#508,#509));
#102=EDGE_LOOP('',(#510,#511,#512,#513,#514,#515));
#103=EDGE_LOOP('',(#516));
#104=EDGE_LOOP('',(#517,#518,#519,#520));
#105=EDGE_LOOP('',(#521,#522,#523));
#106=EDGE_LOOP('',(#524,#525,#526,#527,#528,#529,#530,#531,#532,#533,#534,
#535,#536,#537,#538,#539,#540,#541,#542,#543,#544,#545));
#107=EDGE_LOOP('',(#546));
#108=EDGE_LOOP('',(#547,#548,#549,#550));
#109=EDGE_LOOP('',(#551,#552,#553,#554,#555));
#110=EDGE_LOOP('',(#556,#557,#558,#559));
#111=EDGE_LOOP('',(#560,#561,#562,#563,#564,#565));
#112=EDGE_LOOP('',(#566));
#113=EDGE_LOOP('',(#567,#568,#569,#570));
#114=EDGE_LOOP('',(#571,#572,#573));
#115=EDGE_LOOP('',(#574,#575,#576,#577));
#116=EDGE_LOOP('',(#578,#579,#580,#581,#582,#583));
#117=EDGE_LOOP('',(#584,#585,#586,#587,#588,#589));
#118=EDGE_LOOP('',(#590,#591,#592,#593));
#119=EDGE_LOOP('',(#594,#595,#596,#597));
#120=EDGE_LOOP('',(#598,#599,#600,#601));
#121=EDGE_LOOP('',(#602,#603,#604,#605,#606,#607,#608,#609));
#122=EDGE_LOOP('',(#610));
#123=EDGE_LOOP('',(#611));
#124=EDGE_LOOP('',(#612,#613,#614,#615));
#125=EDGE_LOOP('',(#616,#617,#618,#619));
#126=EDGE_LOOP('',(#620,#621,#622,#623,#624,#625,#626,#627));
#127=EDGE_LOOP('',(#628));
#128=EDGE_LOOP('',(#629));
#129=EDGE_LOOP('',(#630));
#130=LINE('',#940,#207);
#131=LINE('',#942,#208);
#132=LINE('',#944,#209);
#133=LINE('',#945,#210);
#134=LINE('',#951,#211);
#135=LINE('',#953,#212);
#136=LINE('',#955,#213);
#137=LINE('',#956,#214);
#138=LINE('',#961,#215);
#139=LINE('',#963,#216);
#140=LINE('',#965,#217);
#141=LINE('',#967,#218);
#142=LINE('',#969,#219);
#143=LINE('',#971,#220);
#144=LINE('',#973,#221);
#145=LINE('',#975,#222);
#146=LINE('',#976,#223);
#147=LINE('',#979,#224);
#148=LINE('',#981,#225);
#149=LINE('',#982,#226);
#150=LINE('',#985,#227);
#151=LINE('',#986,#228);
#152=LINE('',#989,#229);
#153=LINE('',#991,#230);
#154=LINE('',#993,#231);
#155=LINE('',#995,#232);
#156=LINE('',#997,#233);
#157=LINE('',#999,#234);
#158=LINE('',#1001,#235);
#159=LINE('',#1003,#236);
#160=LINE('',#1004,#237);
#161=LINE('',#1008,#238);
#162=LINE('',#1012,#239);
#163=LINE('',#1015,#240);
#164=LINE('',#1017,#241);
#165=LINE('',#1018,#242);
#166=LINE('',#1023,#243);
#167=LINE('',#1025,#244);
#168=LINE('',#1026,#245);
#169=LINE('',#1031,#246);
#170=LINE('',#1032,#247);
#171=LINE('',#1035,#248);
#172=LINE('',#1039,#249);
#173=LINE('',#1043,#250);
#174=LINE('',#1045,#251);
#175=LINE('',#1047,#252);
#176=LINE('',#1048,#253);
#177=LINE('',#1050,#254);
#178=LINE('',#1058,#255);
#179=LINE('',#1060,#256);
#180=LINE('',#1061,#257);
#181=LINE('',#1063,#258);
#182=LINE('',#1065,#259);
#183=LINE('',#1068,#260);
#184=LINE('',#1070,#261);
#185=LINE('',#1071,#262);
#186=LINE('',#1076,#263);
#187=LINE('',#1077,#264);
#188=LINE('',#1080,#265);
#189=LINE('',#1081,#266);
#190=LINE('',#1084,#267);
#191=LINE('',#1085,#268);
#192=LINE('',#1087,#269);
#193=LINE('',#1088,#270);
#194=LINE('',#1096,#271);
#195=LINE('',#1100,#272);
#196=LINE('',#1104,#273);
#197=LINE('',#1109,#274);
#198=LINE('',#1110,#275);
#199=LINE('',#1111,#276);
#200=LINE('',#1113,#277);
#201=LINE('',#1116,#278);
#202=LINE('',#1117,#279);
#203=LINE('',#1120,#280);
#204=LINE('',#1121,#281);
#205=LINE('',#1123,#282);
#206=LINE('',#1125,#283);
#207=VECTOR('',#759,10.);
#208=VECTOR('',#760,10.);
#209=VECTOR('',#761,10.);
#210=VECTOR('',#762,10.);
#211=VECTOR('',#767,10.);
#212=VECTOR('',#768,10.);
#213=VECTOR('',#769,10.);
#214=VECTOR('',#770,10.);
#215=VECTOR('',#775,10.);
#216=VECTOR('',#776,10.);
#217=VECTOR('',#777,10.);
#218=VECTOR('',#778,10.);
#219=VECTOR('',#779,10.);
#220=VECTOR('',#780,10.);
#221=VECTOR('',#781,10.);
#222=VECTOR('',#782,10.);
#223=VECTOR('',#783,10.);
#224=VECTOR('',#786,10.);
#225=VECTOR('',#787,10.);
#226=VECTOR('',#788,10.);
#227=VECTOR('',#791,10.);
#228=VECTOR('',#792,10.);
#229=VECTOR('',#795,10.);
#230=VECTOR('',#796,10.);
#231=VECTOR('',#797,10.);
#232=VECTOR('',#798,10.);
#233=VECTOR('',#799,10.);
#234=VECTOR('',#800,10.);
#235=VECTOR('',#801,10.);
#236=VECTOR('',#802,10.);
#237=VECTOR('',#803,10.);
#238=VECTOR('',#808,0.8);
#239=VECTOR('',#813,0.8);
#240=VECTOR('',#816,10.);
#241=VECTOR('',#817,10.);
#242=VECTOR('',#818,10.);
#243=VECTOR('',#823,10.);
#244=VECTOR('',#824,10.);
#245=VECTOR('',#825,10.);
#246=VECTOR('',#830,10.);
#247=VECTOR('',#831,10.);
#248=VECTOR('',#834,1.1);
#249=VECTOR('',#839,1.1);
#250=VECTOR('',#844,10.);
#251=VECTOR('',#845,10.);
#252=VECTOR('',#846,10.);
#253=VECTOR('',#847,10.);
#254=VECTOR('',#850,10.);
#255=VECTOR('',#861,10.);
#256=VECTOR('',#862,10.);
#257=VECTOR('',#863,10.);
#258=VECTOR('',#864,10.);
#259=VECTOR('',#865,10.);
#260=VECTOR('',#868,10.);
#261=VECTOR('',#869,10.);
#262=VECTOR('',#870,10.);
#263=VECTOR('',#875,10.);
#264=VECTOR('',#876,10.);
#265=VECTOR('',#879,10.);
#266=VECTOR('',#880,10.);
#267=VECTOR('',#883,10.);
#268=VECTOR('',#884,10.);
#269=VECTOR('',#887,10.);
#270=VECTOR('',#888,10.);
#271=VECTOR('',#899,4.1);
#272=VECTOR('',#904,1.1);
#273=VECTOR('',#909,1.1);
#274=VECTOR('',#914,10.);
#275=VECTOR('',#915,10.);
#276=VECTOR('',#916,10.);
#277=VECTOR('',#919,10.);
#278=VECTOR('',#922,10.);
#279=VECTOR('',#923,10.);
#280=VECTOR('',#926,10.);
#281=VECTOR('',#927,10.);
#282=VECTOR('',#930,10.);
#283=VECTOR('',#933,10.);
#284=VERTEX_POINT('',#938);
#285=VERTEX_POINT('',#939);
#286=VERTEX_POINT('',#941);
#287=VERTEX_POINT('',#943);
#288=VERTEX_POINT('',#946);
#289=VERTEX_POINT('',#949);
#290=VERTEX_POINT('',#950);
#291=VERTEX_POINT('',#952);
#292=VERTEX_POINT('',#954);
#293=VERTEX_POINT('',#957);
#294=VERTEX_POINT('',#960);
#295=VERTEX_POINT('',#962);
#296=VERTEX_POINT('',#964);
#297=VERTEX_POINT('',#966);
#298=VERTEX_POINT('',#968);
#299=VERTEX_POINT('',#970);
#300=VERTEX_POINT('',#972);
#301=VERTEX_POINT('',#974);
#302=VERTEX_POINT('',#978);
#303=VERTEX_POINT('',#980);
#304=VERTEX_POINT('',#984);
#305=VERTEX_POINT('',#988);
#306=VERTEX_POINT('',#990);
#307=VERTEX_POINT('',#992);
#308=VERTEX_POINT('',#994);
#309=VERTEX_POINT('',#996);
#310=VERTEX_POINT('',#998);
#311=VERTEX_POINT('',#1000);
#312=VERTEX_POINT('',#1002);
#313=VERTEX_POINT('',#1006);
#314=VERTEX_POINT('',#1010);
#315=VERTEX_POINT('',#1014);
#316=VERTEX_POINT('',#1016);
#317=VERTEX_POINT('',#1019);
#318=VERTEX_POINT('',#1022);
#319=VERTEX_POINT('',#1024);
#320=VERTEX_POINT('',#1027);
#321=VERTEX_POINT('',#1030);
#322=VERTEX_POINT('',#1034);
#323=VERTEX_POINT('',#1038);
#324=VERTEX_POINT('',#1042);
#325=VERTEX_POINT('',#1044);
#326=VERTEX_POINT('',#1046);
#327=VERTEX_POINT('',#1052);
#328=VERTEX_POINT('',#1057);
#329=VERTEX_POINT('',#1059);
#330=VERTEX_POINT('',#1062);
#331=VERTEX_POINT('',#1064);
#332=VERTEX_POINT('',#1066);
#333=VERTEX_POINT('',#1069);
#334=VERTEX_POINT('',#1072);
#335=VERTEX_POINT('',#1075);
#336=VERTEX_POINT('',#1079);
#337=VERTEX_POINT('',#1083);
#338=VERTEX_POINT('',#1091);
#339=VERTEX_POINT('',#1095);
#340=VERTEX_POINT('',#1099);
#341=VERTEX_POINT('',#1103);
#342=VERTEX_POINT('',#1107);
#343=VERTEX_POINT('',#1108);
#344=VERTEX_POINT('',#1115);
#345=VERTEX_POINT('',#1119);
#346=EDGE_CURVE('',#284,#285,#130,.T.);
#347=EDGE_CURVE('',#284,#286,#131,.T.);
#348=EDGE_CURVE('',#287,#286,#132,.T.);
#349=EDGE_CURVE('',#285,#287,#133,.T.);
#350=EDGE_CURVE('',#288,#288,#34,.T.);
#351=EDGE_CURVE('',#289,#290,#134,.T.);
#352=EDGE_CURVE('',#289,#291,#135,.T.);
#353=EDGE_CURVE('',#292,#291,#136,.T.);
#354=EDGE_CURVE('',#290,#292,#137,.T.);
#355=EDGE_CURVE('',#293,#293,#35,.T.);
#356=EDGE_CURVE('',#289,#294,#138,.T.);
#357=EDGE_CURVE('',#295,#290,#139,.T.);
#358=EDGE_CURVE('',#296,#295,#140,.T.);
#359=EDGE_CURVE('',#297,#296,#141,.T.);
#360=EDGE_CURVE('',#297,#298,#142,.T.);
#361=EDGE_CURVE('',#298,#299,#143,.T.);
#362=EDGE_CURVE('',#299,#300,#144,.T.);
#363=EDGE_CURVE('',#301,#300,#145,.T.);
#364=EDGE_CURVE('',#294,#301,#146,.T.);
#365=EDGE_CURVE('',#292,#302,#147,.T.);
#366=EDGE_CURVE('',#302,#303,#148,.T.);
#367=EDGE_CURVE('',#303,#295,#149,.T.);
#368=EDGE_CURVE('',#304,#291,#150,.T.);
#369=EDGE_CURVE('',#304,#302,#151,.T.);
#370=EDGE_CURVE('',#305,#286,#152,.T.);
#371=EDGE_CURVE('',#305,#306,#153,.T.);
#372=EDGE_CURVE('',#307,#306,#154,.T.);
#373=EDGE_CURVE('',#307,#308,#155,.T.);
#374=EDGE_CURVE('',#308,#309,#156,.T.);
#375=EDGE_CURVE('',#310,#309,#157,.T.);
#376=EDGE_CURVE('',#311,#310,#158,.T.);
#377=EDGE_CURVE('',#311,#312,#159,.T.);
#378=EDGE_CURVE('',#287,#312,#160,.T.);
#379=EDGE_CURVE('',#313,#313,#36,.T.);
#380=EDGE_CURVE('',#313,#288,#161,.T.);
#381=EDGE_CURVE('',#314,#314,#37,.T.);
#382=EDGE_CURVE('',#314,#293,#162,.T.);
#383=EDGE_CURVE('',#300,#315,#163,.T.);
#384=EDGE_CURVE('',#316,#299,#164,.T.);
#385=EDGE_CURVE('',#315,#316,#165,.T.);
#386=EDGE_CURVE('',#317,#317,#38,.T.);
#387=EDGE_CURVE('',#318,#307,#166,.T.);
#388=EDGE_CURVE('',#319,#318,#167,.T.);
#389=EDGE_CURVE('',#308,#319,#168,.T.);
#390=EDGE_CURVE('',#320,#320,#39,.T.);
#391=EDGE_CURVE('',#315,#321,#169,.T.);
#392=EDGE_CURVE('',#321,#301,#170,.T.);
#393=EDGE_CURVE('',#317,#322,#171,.T.);
#394=EDGE_CURVE('',#322,#322,#40,.T.);
#395=EDGE_CURVE('',#320,#323,#172,.T.);
#396=EDGE_CURVE('',#323,#323,#41,.T.);
#397=EDGE_CURVE('',#294,#324,#173,.T.);
#398=EDGE_CURVE('',#325,#321,#174,.T.);
#399=EDGE_CURVE('',#326,#325,#175,.T.);
#400=EDGE_CURVE('',#324,#326,#176,.T.);
#401=EDGE_CURVE('',#325,#316,#177,.T.);
#402=EDGE_CURVE('',#326,#327,#42,.F.);
#403=EDGE_CURVE('',#327,#324,#43,.F.);
#404=EDGE_CURVE('',#324,#326,#44,.F.);
#405=EDGE_CURVE('',#298,#328,#178,.T.);
#406=EDGE_CURVE('',#328,#329,#179,.T.);
#407=EDGE_CURVE('',#329,#309,#180,.T.);
#408=EDGE_CURVE('',#319,#330,#181,.T.);
#409=EDGE_CURVE('',#330,#331,#182,.T.);
#410=EDGE_CURVE('',#331,#332,#45,.F.);
#411=EDGE_CURVE('',#332,#305,#183,.T.);
#412=EDGE_CURVE('',#284,#333,#184,.T.);
#413=EDGE_CURVE('',#333,#304,#185,.T.);
#414=EDGE_CURVE('',#334,#334,#46,.T.);
#415=EDGE_CURVE('',#335,#285,#186,.T.);
#416=EDGE_CURVE('',#333,#335,#187,.T.);
#417=EDGE_CURVE('',#312,#336,#188,.T.);
#418=EDGE_CURVE('',#336,#335,#189,.T.);
#419=EDGE_CURVE('',#337,#318,#190,.T.);
#420=EDGE_CURVE('',#330,#337,#191,.T.);
#421=EDGE_CURVE('',#306,#337,#192,.T.);
#422=EDGE_CURVE('',#331,#332,#193,.T.);
#423=EDGE_CURVE('',#332,#338,#47,.F.);
#424=EDGE_CURVE('',#338,#331,#48,.F.);
#425=EDGE_CURVE('',#334,#339,#194,.T.);
#426=EDGE_CURVE('',#339,#339,#49,.T.);
#427=EDGE_CURVE('',#338,#340,#195,.T.);
#428=EDGE_CURVE('',#340,#340,#50,.F.);
#429=EDGE_CURVE('',#327,#341,#196,.T.);
#430=EDGE_CURVE('',#341,#341,#51,.F.);
#431=EDGE_CURVE('',#342,#343,#197,.T.);
#432=EDGE_CURVE('',#342,#329,#198,.T.);
#433=EDGE_CURVE('',#343,#328,#199,.T.);
#434=EDGE_CURVE('',#343,#297,#200,.T.);
#435=EDGE_CURVE('',#296,#344,#201,.T.);
#436=EDGE_CURVE('',#344,#303,#202,.T.);
#437=EDGE_CURVE('',#344,#345,#203,.T.);
#438=EDGE_CURVE('',#345,#336,#204,.T.);
#439=EDGE_CURVE('',#311,#345,#205,.T.);
#440=EDGE_CURVE('',#342,#310,#206,.T.);
#441=ORIENTED_EDGE('',*,*,#346,.F.);
#442=ORIENTED_EDGE('',*,*,#347,.T.);
#443=ORIENTED_EDGE('',*,*,#348,.F.);
#444=ORIENTED_EDGE('',*,*,#349,.F.);
#445=ORIENTED_EDGE('',*,*,#350,.F.);
#446=ORIENTED_EDGE('',*,*,#351,.F.);
#447=ORIENTED_EDGE('',*,*,#352,.T.);
#448=ORIENTED_EDGE('',*,*,#353,.F.);
#449=ORIENTED_EDGE('',*,*,#354,.F.);
#450=ORIENTED_EDGE('',*,*,#355,.F.);
#451=ORIENTED_EDGE('',*,*,#356,.F.);
#452=ORIENTED_EDGE('',*,*,#351,.T.);
#453=ORIENTED_EDGE('',*,*,#357,.F.);
#454=ORIENTED_EDGE('',*,*,#358,.F.);
#455=ORIENTED_EDGE('',*,*,#359,.F.);
#456=ORIENTED_EDGE('',*,*,#360,.T.);
#457=ORIENTED_EDGE('',*,*,#361,.T.);
#458=ORIENTED_EDGE('',*,*,#362,.T.);
#459=ORIENTED_EDGE('',*,*,#363,.F.);
#460=ORIENTED_EDGE('',*,*,#364,.F.);
#461=ORIENTED_EDGE('',*,*,#354,.T.);
#462=ORIENTED_EDGE('',*,*,#365,.T.);
#463=ORIENTED_EDGE('',*,*,#366,.T.);
#464=ORIENTED_EDGE('',*,*,#367,.T.);
#465=ORIENTED_EDGE('',*,*,#357,.T.);
#466=ORIENTED_EDGE('',*,*,#353,.T.);
#467=ORIENTED_EDGE('',*,*,#368,.F.);
#468=ORIENTED_EDGE('',*,*,#369,.T.);
#469=ORIENTED_EDGE('',*,*,#365,.F.);
#470=ORIENTED_EDGE('',*,*,#348,.T.);
#471=ORIENTED_EDGE('',*,*,#370,.F.);
#472=ORIENTED_EDGE('',*,*,#371,.T.);
#473=ORIENTED_EDGE('',*,*,#372,.F.);
#474=ORIENTED_EDGE('',*,*,#373,.T.);
#475=ORIENTED_EDGE('',*,*,#374,.T.);
#476=ORIENTED_EDGE('',*,*,#375,.F.);
#477=ORIENTED_EDGE('',*,*,#376,.F.);
#478=ORIENTED_EDGE('',*,*,#377,.T.);
#479=ORIENTED_EDGE('',*,*,#378,.F.);
#480=ORIENTED_EDGE('',*,*,#379,.F.);
#481=ORIENTED_EDGE('',*,*,#380,.T.);
#482=ORIENTED_EDGE('',*,*,#350,.T.);
#483=ORIENTED_EDGE('',*,*,#380,.F.);
#484=ORIENTED_EDGE('',*,*,#381,.F.);
#485=ORIENTED_EDGE('',*,*,#382,.T.);
#486=ORIENTED_EDGE('',*,*,#355,.T.);
#487=ORIENTED_EDGE('',*,*,#382,.F.);
#488=ORIENTED_EDGE('',*,*,#383,.F.);
#489=ORIENTED_EDGE('',*,*,#362,.F.);
#490=ORIENTED_EDGE('',*,*,#384,.F.);
#491=ORIENTED_EDGE('',*,*,#385,.F.);
#492=ORIENTED_EDGE('',*,*,#386,.F.);
#493=ORIENTED_EDGE('',*,*,#387,.F.);
#494=ORIENTED_EDGE('',*,*,#388,.F.);
#495=ORIENTED_EDGE('',*,*,#389,.F.);
#496=ORIENTED_EDGE('',*,*,#373,.F.);
#497=ORIENTED_EDGE('',*,*,#390,.F.);
#498=ORIENTED_EDGE('',*,*,#383,.T.);
#499=ORIENTED_EDGE('',*,*,#391,.T.);
#500=ORIENTED_EDGE('',*,*,#392,.T.);
#501=ORIENTED_EDGE('',*,*,#363,.T.);
#502=ORIENTED_EDGE('',*,*,#386,.T.);
#503=ORIENTED_EDGE('',*,*,#393,.T.);
#504=ORIENTED_EDGE('',*,*,#394,.F.);
#505=ORIENTED_EDGE('',*,*,#393,.F.);
#506=ORIENTED_EDGE('',*,*,#390,.T.);
#507=ORIENTED_EDGE('',*,*,#395,.T.);
#508=ORIENTED_EDGE('',*,*,#396,.F.);
#509=ORIENTED_EDGE('',*,*,#395,.F.);
#510=ORIENTED_EDGE('',*,*,#397,.F.);
#511=ORIENTED_EDGE('',*,*,#364,.T.);
#512=ORIENTED_EDGE('',*,*,#392,.F.);
#513=ORIENTED_EDGE('',*,*,#398,.F.);
#514=ORIENTED_EDGE('',*,*,#399,.F.);
#515=ORIENTED_EDGE('',*,*,#400,.F.);
#516=ORIENTED_EDGE('',*,*,#394,.T.);
#517=ORIENTED_EDGE('',*,*,#385,.T.);
#518=ORIENTED_EDGE('',*,*,#401,.F.);
#519=ORIENTED_EDGE('',*,*,#398,.T.);
#520=ORIENTED_EDGE('',*,*,#391,.F.);
#521=ORIENTED_EDGE('',*,*,#402,.T.);
#522=ORIENTED_EDGE('',*,*,#403,.T.);
#523=ORIENTED_EDGE('',*,*,#400,.T.);
#524=ORIENTED_EDGE('',*,*,#356,.T.);
#525=ORIENTED_EDGE('',*,*,#397,.T.);
#526=ORIENTED_EDGE('',*,*,#404,.T.);
#527=ORIENTED_EDGE('',*,*,#399,.T.);
#528=ORIENTED_EDGE('',*,*,#401,.T.);
#529=ORIENTED_EDGE('',*,*,#384,.T.);
#530=ORIENTED_EDGE('',*,*,#361,.F.);
#531=ORIENTED_EDGE('',*,*,#405,.T.);
#532=ORIENTED_EDGE('',*,*,#406,.T.);
#533=ORIENTED_EDGE('',*,*,#407,.T.);
#534=ORIENTED_EDGE('',*,*,#374,.F.);
#535=ORIENTED_EDGE('',*,*,#389,.T.);
#536=ORIENTED_EDGE('',*,*,#408,.T.);
#537=ORIENTED_EDGE('',*,*,#409,.T.);
#538=ORIENTED_EDGE('',*,*,#410,.T.);
#539=ORIENTED_EDGE('',*,*,#411,.T.);
#540=ORIENTED_EDGE('',*,*,#370,.T.);
#541=ORIENTED_EDGE('',*,*,#347,.F.);
#542=ORIENTED_EDGE('',*,*,#412,.T.);
#543=ORIENTED_EDGE('',*,*,#413,.T.);
#544=ORIENTED_EDGE('',*,*,#368,.T.);
#545=ORIENTED_EDGE('',*,*,#352,.F.);
#546=ORIENTED_EDGE('',*,*,#414,.T.);
#547=ORIENTED_EDGE('',*,*,#346,.T.);
#548=ORIENTED_EDGE('',*,*,#415,.F.);
#549=ORIENTED_EDGE('',*,*,#416,.F.);
#550=ORIENTED_EDGE('',*,*,#412,.F.);
#551=ORIENTED_EDGE('',*,*,#349,.T.);
#552=ORIENTED_EDGE('',*,*,#378,.T.);
#553=ORIENTED_EDGE('',*,*,#417,.T.);
#554=ORIENTED_EDGE('',*,*,#418,.T.);
#555=ORIENTED_EDGE('',*,*,#415,.T.);
#556=ORIENTED_EDGE('',*,*,#388,.T.);
#557=ORIENTED_EDGE('',*,*,#419,.F.);
#558=ORIENTED_EDGE('',*,*,#420,.F.);
#559=ORIENTED_EDGE('',*,*,#408,.F.);
#560=ORIENTED_EDGE('',*,*,#409,.F.);
#561=ORIENTED_EDGE('',*,*,#420,.T.);
#562=ORIENTED_EDGE('',*,*,#421,.F.);
#563=ORIENTED_EDGE('',*,*,#371,.F.);
#564=ORIENTED_EDGE('',*,*,#411,.F.);
#565=ORIENTED_EDGE('',*,*,#422,.F.);
#566=ORIENTED_EDGE('',*,*,#396,.T.);
#567=ORIENTED_EDGE('',*,*,#387,.T.);
#568=ORIENTED_EDGE('',*,*,#372,.T.);
#569=ORIENTED_EDGE('',*,*,#421,.T.);
#570=ORIENTED_EDGE('',*,*,#419,.T.);
#571=ORIENTED_EDGE('',*,*,#423,.T.);
#572=ORIENTED_EDGE('',*,*,#424,.T.);
#573=ORIENTED_EDGE('',*,*,#422,.T.);
#574=ORIENTED_EDGE('',*,*,#414,.F.);
#575=ORIENTED_EDGE('',*,*,#425,.T.);
#576=ORIENTED_EDGE('',*,*,#426,.T.);
#577=ORIENTED_EDGE('',*,*,#425,.F.);
#578=ORIENTED_EDGE('',*,*,#423,.F.);
#579=ORIENTED_EDGE('',*,*,#410,.F.);
#580=ORIENTED_EDGE('',*,*,#424,.F.);
#581=ORIENTED_EDGE('',*,*,#427,.T.);
#582=ORIENTED_EDGE('',*,*,#428,.T.);
#583=ORIENTED_EDGE('',*,*,#427,.F.);
#584=ORIENTED_EDGE('',*,*,#402,.F.);
#585=ORIENTED_EDGE('',*,*,#404,.F.);
#586=ORIENTED_EDGE('',*,*,#403,.F.);
#587=ORIENTED_EDGE('',*,*,#429,.T.);
#588=ORIENTED_EDGE('',*,*,#430,.T.);
#589=ORIENTED_EDGE('',*,*,#429,.F.);
#590=ORIENTED_EDGE('',*,*,#431,.F.);
#591=ORIENTED_EDGE('',*,*,#432,.T.);
#592=ORIENTED_EDGE('',*,*,#406,.F.);
#593=ORIENTED_EDGE('',*,*,#433,.F.);
#594=ORIENTED_EDGE('',*,*,#434,.F.);
#595=ORIENTED_EDGE('',*,*,#433,.T.);
#596=ORIENTED_EDGE('',*,*,#405,.F.);
#597=ORIENTED_EDGE('',*,*,#360,.F.);
#598=ORIENTED_EDGE('',*,*,#435,.F.);
#599=ORIENTED_EDGE('',*,*,#358,.T.);
#600=ORIENTED_EDGE('',*,*,#367,.F.);
#601=ORIENTED_EDGE('',*,*,#436,.F.);
#602=ORIENTED_EDGE('',*,*,#437,.F.);
#603=ORIENTED_EDGE('',*,*,#436,.T.);
#604=ORIENTED_EDGE('',*,*,#366,.F.);
#605=ORIENTED_EDGE('',*,*,#369,.F.);
#606=ORIENTED_EDGE('',*,*,#413,.F.);
#607=ORIENTED_EDGE('',*,*,#416,.T.);
#608=ORIENTED_EDGE('',*,*,#418,.F.);
#609=ORIENTED_EDGE('',*,*,#438,.F.);
#610=ORIENTED_EDGE('',*,*,#379,.T.);
#611=ORIENTED_EDGE('',*,*,#381,.T.);
#612=ORIENTED_EDGE('',*,*,#439,.T.);
#613=ORIENTED_EDGE('',*,*,#438,.T.);
#614=ORIENTED_EDGE('',*,*,#417,.F.);
#615=ORIENTED_EDGE('',*,*,#377,.F.);
#616=ORIENTED_EDGE('',*,*,#440,.T.);
#617=ORIENTED_EDGE('',*,*,#375,.T.);
#618=ORIENTED_EDGE('',*,*,#407,.F.);
#619=ORIENTED_EDGE('',*,*,#432,.F.);
#620=ORIENTED_EDGE('',*,*,#440,.F.);
#621=ORIENTED_EDGE('',*,*,#431,.T.);
#622=ORIENTED_EDGE('',*,*,#434,.T.);
#623=ORIENTED_EDGE('',*,*,#359,.T.);
#624=ORIENTED_EDGE('',*,*,#435,.T.);
#625=ORIENTED_EDGE('',*,*,#437,.T.);
#626=ORIENTED_EDGE('',*,*,#439,.F.);
#627=ORIENTED_EDGE('',*,*,#376,.T.);
#628=ORIENTED_EDGE('',*,*,#430,.F.);
#629=ORIENTED_EDGE('',*,*,#428,.F.);
#630=ORIENTED_EDGE('',*,*,#426,.F.);
#631=PLANE('',#704);
#632=PLANE('',#706);
#633=PLANE('',#708);
#634=PLANE('',#709);
#635=PLANE('',#710);
#636=PLANE('',#711);
#637=PLANE('',#716);
#638=PLANE('',#718);
#639=PLANE('',#720);
#640=PLANE('',#725);
#641=PLANE('',#726);
#642=PLANE('',#727);
#643=PLANE('',#730);
#644=PLANE('',#734);
#645=PLANE('',#735);
#646=PLANE('',#736);
#647=PLANE('',#737);
#648=PLANE('',#738);
#649=PLANE('',#739);
#650=PLANE('',#748);
#651=PLANE('',#749);
#652=PLANE('',#750);
#653=PLANE('',#751);
#654=PLANE('',#752);
#655=PLANE('',#753);
#656=PLANE('',#754);
#657=ADVANCED_FACE('',(#52,#22),#631,.F.);
#658=ADVANCED_FACE('',(#53,#23),#632,.F.);
#659=ADVANCED_FACE('',(#54),#633,.T.);
#660=ADVANCED_FACE('',(#55),#634,.T.);
#661=ADVANCED_FACE('',(#56),#635,.T.);
#662=ADVANCED_FACE('',(#57),#636,.T.);
#663=ADVANCED_FACE('',(#58),#15,.F.);
#664=ADVANCED_FACE('',(#59),#16,.F.);
#665=ADVANCED_FACE('',(#60,#24),#637,.T.);
#666=ADVANCED_FACE('',(#61,#25),#638,.F.);
#667=ADVANCED_FACE('',(#62),#639,.T.);
#668=ADVANCED_FACE('',(#63),#17,.F.);
#669=ADVANCED_FACE('',(#64),#18,.F.);
#670=ADVANCED_FACE('',(#65,#26),#640,.T.);
#671=ADVANCED_FACE('',(#66),#641,.T.);
#672=ADVANCED_FACE('',(#67),#642,.F.);
#673=ADVANCED_FACE('',(#68,#27),#643,.T.);
#674=ADVANCED_FACE('',(#69),#644,.T.);
#675=ADVANCED_FACE('',(#70),#645,.T.);
#676=ADVANCED_FACE('',(#71),#646,.T.);
#677=ADVANCED_FACE('',(#72,#28),#647,.T.);
#678=ADVANCED_FACE('',(#73),#648,.T.);
#679=ADVANCED_FACE('',(#74),#649,.F.);
#680=ADVANCED_FACE('',(#75),#19,.F.);
#681=ADVANCED_FACE('',(#76),#20,.F.);
#682=ADVANCED_FACE('',(#77),#21,.F.);
#683=ADVANCED_FACE('',(#78),#650,.T.);
#684=ADVANCED_FACE('',(#79),#651,.T.);
#685=ADVANCED_FACE('',(#80),#652,.T.);
#686=ADVANCED_FACE('',(#81,#29,#30),#653,.T.);
#687=ADVANCED_FACE('',(#82),#654,.T.);
#688=ADVANCED_FACE('',(#83),#655,.T.);
#689=ADVANCED_FACE('',(#84,#31,#32,#33),#656,.F.);
#690=CLOSED_SHELL('',(#657,#658,#659,#660,#661,#662,#663,#664,#665,#666,
#667,#668,#669,#670,#671,#672,#673,#674,#675,#676,#677,#678,#679,#680,#681,
#682,#683,#684,#685,#686,#687,#688,#689));
#691=DERIVED_UNIT_ELEMENT(#693,1.);
#692=DERIVED_UNIT_ELEMENT(#1132,-3.);
#693=(
MASS_UNIT()
NAMED_UNIT(*)
SI_UNIT(.KILO.,.GRAM.)
);
#694=DERIVED_UNIT((#691,#692));
#695=MEASURE_REPRESENTATION_ITEM('density measure',
POSITIVE_RATIO_MEASURE(7850.),#694);
#696=PROPERTY_DEFINITION_REPRESENTATION(#701,#698);
#697=PROPERTY_DEFINITION_REPRESENTATION(#702,#699);
#698=REPRESENTATION('material name',(#700),#1129);
#699=REPRESENTATION('density',(#695),#1129);
#700=DESCRIPTIVE_REPRESENTATION_ITEM('Steel','Steel');
#701=PROPERTY_DEFINITION('material property','material name',#1139);
#702=PROPERTY_DEFINITION('material property','density of part',#1139);
#703=AXIS2_PLACEMENT_3D('',#936,#755,#756);
#704=AXIS2_PLACEMENT_3D('',#937,#757,#758);
#705=AXIS2_PLACEMENT_3D('',#947,#763,#764);
#706=AXIS2_PLACEMENT_3D('',#948,#765,#766);
#707=AXIS2_PLACEMENT_3D('',#958,#771,#772);
#708=AXIS2_PLACEMENT_3D('',#959,#773,#774);
#709=AXIS2_PLACEMENT_3D('',#977,#784,#785);
#710=AXIS2_PLACEMENT_3D('',#983,#789,#790);
#711=AXIS2_PLACEMENT_3D('',#987,#793,#794);
#712=AXIS2_PLACEMENT_3D('',#1005,#804,#805);
#713=AXIS2_PLACEMENT_3D('',#1007,#806,#807);
#714=AXIS2_PLACEMENT_3D('',#1009,#809,#810);
#715=AXIS2_PLACEMENT_3D('',#1011,#811,#812);
#716=AXIS2_PLACEMENT_3D('',#1013,#814,#815);
#717=AXIS2_PLACEMENT_3D('',#1020,#819,#820);
#718=AXIS2_PLACEMENT_3D('',#1021,#821,#822);
#719=AXIS2_PLACEMENT_3D('',#1028,#826,#827);
#720=AXIS2_PLACEMENT_3D('',#1029,#828,#829);
#721=AXIS2_PLACEMENT_3D('',#1033,#832,#833);
#722=AXIS2_PLACEMENT_3D('',#1036,#835,#836);
#723=AXIS2_PLACEMENT_3D('',#1037,#837,#838);
#724=AXIS2_PLACEMENT_3D('',#1040,#840,#841);
#725=AXIS2_PLACEMENT_3D('',#1041,#842,#843);
#726=AXIS2_PLACEMENT_3D('',#1049,#848,#849);
#727=AXIS2_PLACEMENT_3D('',#1051,#851,#852);
#728=AXIS2_PLACEMENT_3D('',#1053,#853,#854);
#729=AXIS2_PLACEMENT_3D('',#1054,#855,#856);
#730=AXIS2_PLACEMENT_3D('',#1055,#857,#858);
#731=AXIS2_PLACEMENT_3D('',#1056,#859,#860);
#732=AXIS2_PLACEMENT_3D('',#1067,#866,#867);
#733=AXIS2_PLACEMENT_3D('',#1073,#871,#872);
#734=AXIS2_PLACEMENT_3D('',#1074,#873,#874);
#735=AXIS2_PLACEMENT_3D('',#1078,#877,#878);
#736=AXIS2_PLACEMENT_3D('',#1082,#881,#882);
#737=AXIS2_PLACEMENT_3D('',#1086,#885,#886);
#738=AXIS2_PLACEMENT_3D('',#1089,#889,#890);
#739=AXIS2_PLACEMENT_3D('',#1090,#891,#892);
#740=AXIS2_PLACEMENT_3D('',#1092,#893,#894);
#741=AXIS2_PLACEMENT_3D('',#1093,#895,#896);
#742=AXIS2_PLACEMENT_3D('',#1094,#897,#898);
#743=AXIS2_PLACEMENT_3D('',#1097,#900,#901);
#744=AXIS2_PLACEMENT_3D('',#1098,#902,#903);
#745=AXIS2_PLACEMENT_3D('',#1101,#905,#906);
#746=AXIS2_PLACEMENT_3D('',#1102,#907,#908);
#747=AXIS2_PLACEMENT_3D('',#1105,#910,#911);
#748=AXIS2_PLACEMENT_3D('',#1106,#912,#913);
#749=AXIS2_PLACEMENT_3D('',#1112,#917,#918);
#750=AXIS2_PLACEMENT_3D('',#1114,#920,#921);
#751=AXIS2_PLACEMENT_3D('',#1118,#924,#925);
#752=AXIS2_PLACEMENT_3D('',#1122,#928,#929);
#753=AXIS2_PLACEMENT_3D('',#1124,#931,#932);
#754=AXIS2_PLACEMENT_3D('',#1126,#934,#935);
#755=DIRECTION('axis',(0.,0.,1.));
#756=DIRECTION('refdir',(1.,0.,0.));
#757=DIRECTION('center_axis',(1.,0.,0.));
#758=DIRECTION('ref_axis',(0.,1.,0.));
#759=DIRECTION('',(0.,0.,-1.));
#760=DIRECTION('',(0.,1.,0.));
#761=DIRECTION('',(0.,0.,1.));
#762=DIRECTION('',(0.,1.,0.));
#763=DIRECTION('center_axis',(-1.,0.,0.));
#764=DIRECTION('ref_axis',(0.,1.,0.));
#765=DIRECTION('center_axis',(1.,0.,0.));
#766=DIRECTION('ref_axis',(0.,1.,0.));
#767=DIRECTION('',(0.,0.,-1.));
#768=DIRECTION('',(0.,1.,0.));
#769=DIRECTION('',(0.,0.,1.));
#770=DIRECTION('',(0.,1.,0.));
#771=DIRECTION('center_axis',(-1.,0.,0.));
#772=DIRECTION('ref_axis',(0.,1.,0.));
#773=DIRECTION('center_axis',(0.,-1.,0.));
#774=DIRECTION('ref_axis',(-1.,0.,0.));
#775=DIRECTION('',(-1.,0.,0.));
#776=DIRECTION('',(-1.,0.,0.));
#777=DIRECTION('',(0.,0.,-1.));
#778=DIRECTION('',(1.,0.,0.));
#779=DIRECTION('',(0.,0.,-1.));
#780=DIRECTION('',(1.,0.,0.));
#781=DIRECTION('',(0.,0.,-1.));
#782=DIRECTION('',(-1.,0.,0.));
#783=DIRECTION('',(0.,0.,-1.));
#784=DIRECTION('center_axis',(0.,0.,-1.));
#785=DIRECTION('ref_axis',(-1.,0.,0.));
#786=DIRECTION('',(1.,0.,0.));
#787=DIRECTION('',(0.,-1.,0.));
#788=DIRECTION('',(-0.707106781186549,-0.707106781186546,0.));
#789=DIRECTION('center_axis',(0.,1.,0.));
#790=DIRECTION('ref_axis',(1.,0.,0.));
#791=DIRECTION('',(-1.,0.,0.));
#792=DIRECTION('',(0.,0.,-1.));
#793=DIRECTION('center_axis',(0.,1.,0.));
#794=DIRECTION('ref_axis',(1.,0.,0.));
#795=DIRECTION('',(1.,0.,0.));
#796=DIRECTION('',(0.,0.,-1.));
#797=DIRECTION('',(1.,0.,0.));
#798=DIRECTION('',(0.,0.,1.));
#799=DIRECTION('',(-1.,0.,0.));
#800=DIRECTION('',(0.,0.,-1.));
#801=DIRECTION('',(-1.,0.,0.));
#802=DIRECTION('',(0.,0.,-1.));
#803=DIRECTION('',(1.,0.,0.));
#804=DIRECTION('center_axis',(-1.,0.,0.));
#805=DIRECTION('ref_axis',(0.,1.,0.));
#806=DIRECTION('center_axis',(-1.,-6.67840323571683E-17,0.));
#807=DIRECTION('ref_axis',(0.,1.,0.));
#808=DIRECTION('',(-1.,0.,0.));
#809=DIRECTION('center_axis',(-1.,0.,0.));
#810=DIRECTION('ref_axis',(0.,1.,0.));
#811=DIRECTION('center_axis',(-1.,-6.67840323571683E-17,0.));
#812=DIRECTION('ref_axis',(0.,1.,0.));
#813=DIRECTION('',(-1.,0.,0.));
#814=DIRECTION('center_axis',(-1.,0.,0.));
#815=DIRECTION('ref_axis',(0.,-1.,0.));
#816=DIRECTION('',(0.,1.,0.));
#817=DIRECTION('',(0.,-1.,0.));
#818=DIRECTION('',(0.,0.,1.));
#819=DIRECTION('center_axis',(-1.,0.,0.));
#820=DIRECTION('ref_axis',(0.,-1.,0.));
#821=DIRECTION('center_axis',(1.,0.,0.));
#822=DIRECTION('ref_axis',(0.,0.,-1.));
#823=DIRECTION('',(0.,1.,0.));
#824=DIRECTION('',(0.,0.,-1.));
#825=DIRECTION('',(0.,-1.,0.));
#826=DIRECTION('center_axis',(-1.,0.,0.));
#827=DIRECTION('ref_axis',(0.,-1.,0.));
#828=DIRECTION('center_axis',(0.,0.,-1.));
#829=DIRECTION('ref_axis',(-1.,0.,0.));
#830=DIRECTION('',(1.,0.,0.));
#831=DIRECTION('',(9.5229421785605E-18,-1.,0.));
#832=DIRECTION('center_axis',(1.,0.,0.));
#833=DIRECTION('ref_axis',(0.,-1.,0.));
#834=DIRECTION('',(1.,0.,0.));
#835=DIRECTION('center_axis',(-1.,-9.5229421785605E-18,0.));
#836=DIRECTION('ref_axis',(0.,-1.,0.));
#837=DIRECTION('center_axis',(1.,0.,0.));
#838=DIRECTION('ref_axis',(0.,-1.,0.));
#839=DIRECTION('',(1.,0.,0.));
#840=DIRECTION('center_axis',(-1.,0.,0.));
#841=DIRECTION('ref_axis',(0.,-1.,0.));
#842=DIRECTION('center_axis',(1.,9.5229421785605E-18,0.));
#843=DIRECTION('ref_axis',(9.5229421785605E-18,-1.,0.));
#844=DIRECTION('',(-9.5229421785605E-18,1.,0.));
#845=DIRECTION('',(0.,0.,-1.));
#846=DIRECTION('',(-9.5229421785605E-18,1.,0.));
#847=DIRECTION('',(-9.5229421785605E-18,1.,0.));
#848=DIRECTION('center_axis',(0.,1.,0.));
#849=DIRECTION('ref_axis',(1.,0.,0.));
#850=DIRECTION('',(-1.,0.,0.));
#851=DIRECTION('center_axis',(0.,0.,-1.));
#852=DIRECTION('ref_axis',(1.,0.,0.));
#853=DIRECTION('center_axis',(0.,0.,-1.));
#854=DIRECTION('ref_axis',(1.,0.,0.));
#855=DIRECTION('center_axis',(0.,0.,-1.));
#856=DIRECTION('ref_axis',(1.,0.,0.));
#857=DIRECTION('center_axis',(0.,0.,-1.));
#858=DIRECTION('ref_axis',(1.,0.,0.));
#859=DIRECTION('center_axis',(0.,0.,-1.));
#860=DIRECTION('ref_axis',(1.,0.,0.));
#861=DIRECTION('',(-0.707106781186548,0.707106781186547,0.));
#862=DIRECTION('',(-6.67840323571684E-17,1.,0.));
#863=DIRECTION('',(0.707106781186548,0.707106781186547,0.));
#864=DIRECTION('',(1.,0.,0.));
#865=DIRECTION('',(0.,1.,0.));
#866=DIRECTION('center_axis',(0.,0.,-1.));
#867=DIRECTION('ref_axis',(1.,0.,0.));
#868=DIRECTION('',(0.,1.,0.));
#869=DIRECTION('',(1.,0.,0.));
#870=DIRECTION('',(6.67840323571683E-17,-1.,0.));
#871=DIRECTION('center_axis',(0.,0.,1.));
#872=DIRECTION('ref_axis',(1.,0.,0.));
#873=DIRECTION('center_axis',(0.,-1.,0.));
#874=DIRECTION('ref_axis',(-1.,0.,0.));
#875=DIRECTION('',(-1.,0.,0.));
#876=DIRECTION('',(0.,0.,-1.));
#877=DIRECTION('center_axis',(0.,0.,-1.));
#878=DIRECTION('ref_axis',(-1.,0.,0.));
#879=DIRECTION('',(0.707106781186549,-0.707106781186546,0.));
#880=DIRECTION('',(0.,-1.,0.));
#881=DIRECTION('center_axis',(0.,-1.,0.));
#882=DIRECTION('ref_axis',(-1.,0.,0.));
#883=DIRECTION('',(-1.,0.,0.));
#884=DIRECTION('',(0.,0.,-1.));
#885=DIRECTION('center_axis',(1.,0.,0.));
#886=DIRECTION('ref_axis',(0.,-1.,0.));
#887=DIRECTION('',(0.,-1.,0.));
#888=DIRECTION('',(0.,1.,0.));
#889=DIRECTION('center_axis',(0.,0.,-1.));
#890=DIRECTION('ref_axis',(-1.,0.,0.));
#891=DIRECTION('center_axis',(0.,0.,-1.));
#892=DIRECTION('ref_axis',(1.,0.,0.));
#893=DIRECTION('center_axis',(0.,0.,-1.));
#894=DIRECTION('ref_axis',(1.,0.,0.));
#895=DIRECTION('center_axis',(0.,0.,-1.));
#896=DIRECTION('ref_axis',(1.,0.,0.));
#897=DIRECTION('center_axis',(0.,0.,-1.));
#898=DIRECTION('ref_axis',(1.,0.,0.));
#899=DIRECTION('',(0.,0.,1.));
#900=DIRECTION('center_axis',(0.,0.,1.));
#901=DIRECTION('ref_axis',(1.,0.,0.));
#902=DIRECTION('center_axis',(0.,0.,-1.));
#903=DIRECTION('ref_axis',(1.,0.,0.));
#904=DIRECTION('',(0.,0.,1.));
#905=DIRECTION('center_axis',(0.,0.,-1.));
#906=DIRECTION('ref_axis',(1.,0.,0.));
#907=DIRECTION('center_axis',(0.,0.,-1.));
#908=DIRECTION('ref_axis',(1.,0.,0.));
#909=DIRECTION('',(0.,0.,1.));
#910=DIRECTION('center_axis',(0.,0.,-1.));
#911=DIRECTION('ref_axis',(1.,0.,0.));
#912=DIRECTION('center_axis',(-1.,-6.67840323571684E-17,0.));
#913=DIRECTION('ref_axis',(-6.67840323571684E-17,1.,0.));
#914=DIRECTION('',(6.67840323571684E-17,-1.,0.));
#915=DIRECTION('',(0.,0.,-1.));
#916=DIRECTION('',(0.,0.,-1.));
#917=DIRECTION('center_axis',(-0.707106781186547,-0.707106781186548,0.));
#918=DIRECTION('ref_axis',(-0.707106781186548,0.707106781186547,0.));
#919=DIRECTION('',(0.707106781186548,-0.707106781186547,0.));
#920=DIRECTION('center_axis',(0.707106781186546,-0.707106781186549,0.));
#921=DIRECTION('ref_axis',(-0.707106781186549,-0.707106781186546,0.));
#922=DIRECTION('',(0.707106781186549,0.707106781186546,0.));
#923=DIRECTION('',(0.,0.,-1.));
#924=DIRECTION('center_axis',(1.,6.67840323571683E-17,0.));
#925=DIRECTION('ref_axis',(6.67840323571683E-17,-1.,0.));
#926=DIRECTION('',(-6.67840323571683E-17,1.,0.));
#927=DIRECTION('',(0.,0.,-1.));
#928=DIRECTION('center_axis',(0.707106781186547,0.707106781186548,0.));
#929=DIRECTION('ref_axis',(0.707106781186548,-0.707106781186547,0.));
#930=DIRECTION('',(0.707106781186548,-0.707106781186547,0.));
#931=DIRECTION('center_axis',(-0.707106781186547,0.707106781186548,0.));
#932=DIRECTION('ref_axis',(0.707106781186548,0.707106781186547,0.));
#933=DIRECTION('',(0.707106781186548,0.707106781186547,0.));
#934=DIRECTION('center_axis',(0.,0.,-1.));
#935=DIRECTION('ref_axis',(1.,0.,0.));
#936=CARTESIAN_POINT('',(0.,0.,0.));
#937=CARTESIAN_POINT('Origin',(1.86,-9.3121334918105,-12.5));
#938=CARTESIAN_POINT('',(1.86,4.31203946092654,-7.5));
#939=CARTESIAN_POINT('',(1.86,4.31203946092654,-12.5));
#940=CARTESIAN_POINT('',(1.86,4.31203946092654,-10.));
#941=CARTESIAN_POINT('',(1.86,9.31203946092654,-7.5));
#942=CARTESIAN_POINT('',(1.86,-4.65609025362624,-7.5));
#943=CARTESIAN_POINT('',(1.86,9.31203946092654,-12.5));
#944=CARTESIAN_POINT('',(1.86,9.31203946092654,-6.25));
#945=CARTESIAN_POINT('',(1.86,-1.25004701544198,-12.5));
#946=CARTESIAN_POINT('',(1.86,5.99451962652767,-10.));
#947=CARTESIAN_POINT('Origin',(1.86,6.80601962652767,-10.));
#948=CARTESIAN_POINT('Origin',(1.86,-9.3121334918105,-12.5));
#949=CARTESIAN_POINT('',(1.86,-9.31203946092654,-7.5));
#950=CARTESIAN_POINT('',(1.86,-9.31203946092654,-12.5));
#951=CARTESIAN_POINT('',(1.86,-9.31203946092654,-6.25));
#952=CARTESIAN_POINT('',(1.86,-4.31203946092654,-7.5));
#953=CARTESIAN_POINT('',(1.86,-4.65609025362624,-7.5));
#954=CARTESIAN_POINT('',(1.86,-4.31203946092654,-12.5));
#955=CARTESIAN_POINT('',(1.86,-4.31203946092654,-10.));
#956=CARTESIAN_POINT('',(1.86,-8.06208647636852,-12.5));
#957=CARTESIAN_POINT('',(1.86,-7.61751962652767,-9.99999986030161));
#958=CARTESIAN_POINT('Origin',(1.86,-6.80601962652767,-9.99999986030161));
#959=CARTESIAN_POINT('Origin',(4.6,-9.31203946092654,0.));
#960=CARTESIAN_POINT('',(-1.11022302462516E-15,-9.31203946092654,-7.5));
#961=CARTESIAN_POINT('',(-4.6,-9.31203946092654,-7.5));
#962=CARTESIAN_POINT('',(4.6,-9.31203946092654,-12.5));
#963=CARTESIAN_POINT('',(4.6,-9.31203946092654,-12.5));
#964=CARTESIAN_POINT('',(4.6,-9.31203946092654,0.));
#965=CARTESIAN_POINT('',(4.6,-9.31203946092654,0.));
#966=CARTESIAN_POINT('',(-4.6,-9.31203946092654,0.));
#967=CARTESIAN_POINT('',(-4.6,-9.31203946092654,0.));
#968=CARTESIAN_POINT('',(-4.6,-9.31203946092654,-7.5));
#969=CARTESIAN_POINT('',(-4.6,-9.31203946092654,0.));
#970=CARTESIAN_POINT('',(-2.6,-9.31203946092654,-7.5));
#971=CARTESIAN_POINT('',(-2.22044604925031E-15,-9.31203946092654,-7.5));
#972=CARTESIAN_POINT('',(-2.6,-9.31203946092654,-12.5));
#973=CARTESIAN_POINT('',(-2.6,-9.31203946092654,-5.));
#974=CARTESIAN_POINT('',(-1.11022302462516E-15,-9.31203946092654,-12.5));
#975=CARTESIAN_POINT('',(-4.6,-9.31203946092654,-12.5));
#976=CARTESIAN_POINT('',(-1.11022302462516E-15,-9.31203946092654,-7.5));
#977=CARTESIAN_POINT('Origin',(3.68,-6.81203946092654,-12.5));
#978=CARTESIAN_POINT('',(5.6,-4.31203946092654,-12.5));
#979=CARTESIAN_POINT('',(1.76,-4.31203946092654,-12.5));
#980=CARTESIAN_POINT('',(5.6,-8.31203946092654,-12.5));
#981=CARTESIAN_POINT('',(5.6,-4.31203946092654,-12.5));
#982=CARTESIAN_POINT('',(4.6,-9.31203946092654,-12.5));
#983=CARTESIAN_POINT('Origin',(1.76,-4.31203946092654,-7.5));
#984=CARTESIAN_POINT('',(5.6,-4.31203946092654,-7.5));
#985=CARTESIAN_POINT('',(0.879999999999999,-4.31203946092654,-7.5));
#986=CARTESIAN_POINT('',(5.6,-4.31203946092654,-7.5));
#987=CARTESIAN_POINT('Origin',(-4.6,9.31203946092654,0.));
#988=CARTESIAN_POINT('',(-5.55111512312578E-16,9.31203946092654,-7.5));
#989=CARTESIAN_POINT('',(4.6,9.31203946092654,-7.5));
#990=CARTESIAN_POINT('',(-5.55111512312578E-16,9.31203946092654,-12.5));
#991=CARTESIAN_POINT('',(-5.55111512312578E-16,9.31203946092654,-7.5));
#992=CARTESIAN_POINT('',(-2.6,9.31203946092654,-12.5));
#993=CARTESIAN_POINT('',(-5.55111512312578E-16,9.31203946092654,-12.5));
#994=CARTESIAN_POINT('',(-2.6,9.31203946092654,-7.5));
#995=CARTESIAN_POINT('',(-2.6,9.31203946092654,-5.71484722457651));
#996=CARTESIAN_POINT('',(-4.6,9.31203946092654,-7.5));
#997=CARTESIAN_POINT('',(-4.6,9.31203946092654,-7.5));
#998=CARTESIAN_POINT('',(-4.6,9.31203946092654,0.));
#999=CARTESIAN_POINT('',(-4.6,9.31203946092654,0.));
#1000=CARTESIAN_POINT('',(4.6,9.31203946092654,0.));
#1001=CARTESIAN_POINT('',(4.6,9.31203946092654,0.));
#1002=CARTESIAN_POINT('',(4.6,9.31203946092654,-12.5));
#1003=CARTESIAN_POINT('',(4.6,9.31203946092654,0.));
#1004=CARTESIAN_POINT('',(4.6,9.31203946092654,-12.5));
#1005=CARTESIAN_POINT('Origin',(5.6,6.80601962652767,-10.));
#1006=CARTESIAN_POINT('',(5.6,5.99451962652767,-10.));
#1007=CARTESIAN_POINT('Origin',(5.6,6.80601962652767,-10.));
#1008=CARTESIAN_POINT('',(5.6,5.99451962652767,-10.));
#1009=CARTESIAN_POINT('Origin',(5.6,-6.80601962652767,-9.99999986030161));
#1010=CARTESIAN_POINT('',(5.6,-7.61751962652767,-9.99999986030161));
#1011=CARTESIAN_POINT('Origin',(5.6,-6.80601962652767,-9.99999986030161));
#1012=CARTESIAN_POINT('',(5.6,-7.61751962652767,-9.99999986030161));
#1013=CARTESIAN_POINT('Origin',(-2.6,-6.812,-10.));
#1014=CARTESIAN_POINT('',(-2.6,-4.31196053907346,-12.5));
#1015=CARTESIAN_POINT('',(-2.6,-6.812,-12.5));
#1016=CARTESIAN_POINT('',(-2.6,-4.31196053907346,-7.5));
#1017=CARTESIAN_POINT('',(-2.6,-9.31203946092654,-7.5));
#1018=CARTESIAN_POINT('',(-2.6,-4.31196053907346,-8.75));
#1019=CARTESIAN_POINT('',(-2.6,-5.712,-10.));
#1020=CARTESIAN_POINT('Origin',(-2.6,-6.812,-10.));
#1021=CARTESIAN_POINT('Origin',(-2.6,6.81203946092654,-11.429694449153));
#1022=CARTESIAN_POINT('',(-2.6,4.31203946092654,-12.5));
#1023=CARTESIAN_POINT('',(-2.6,6.81203946092654,-12.5));
#1024=CARTESIAN_POINT('',(-2.6,4.31203946092654,-7.5));
#1025=CARTESIAN_POINT('',(-2.6,4.31203946092654,-9.46484722457651));
#1026=CARTESIAN_POINT('',(-2.6,9.31203946092654,-7.5));
#1027=CARTESIAN_POINT('',(-2.6,7.91203946092654,-10.));
#1028=CARTESIAN_POINT('Origin',(-2.6,6.81203946092654,-10.));
#1029=CARTESIAN_POINT('Origin',(-2.3,-6.812,-12.5));
#1030=CARTESIAN_POINT('',(-1.1578384870862E-15,-4.31196053907346,-12.5));
#1031=CARTESIAN_POINT('',(-1.1578384870862E-15,-4.31196053907346,-12.5));
#1032=CARTESIAN_POINT('',(-1.11022302462516E-15,-9.31203946092654,-12.5));
#1033=CARTESIAN_POINT('Origin',(-4.6,-6.812,-10.));
#1034=CARTESIAN_POINT('',(-5.55111512312578E-16,-5.712,-10.));
#1035=CARTESIAN_POINT('',(-4.6,-5.712,-10.));
#1036=CARTESIAN_POINT('Origin',(-1.11022302462516E-15,-6.812,-10.));
#1037=CARTESIAN_POINT('Origin',(-4.6,6.81203946092654,-10.));
#1038=CARTESIAN_POINT('',(-5.55111512312578E-16,7.91203946092654,-10.));
#1039=CARTESIAN_POINT('',(-4.6,7.91203946092654,-10.));
#1040=CARTESIAN_POINT('Origin',(-5.55111512312578E-16,6.81203946092654,
-10.));
#1041=CARTESIAN_POINT('Origin',(-1.1578384870862E-15,-4.31196053907346,
-7.5));
#1042=CARTESIAN_POINT('',(-1.1272266136691E-15,-7.5265,-7.5));
#1043=CARTESIAN_POINT('',(-1.17836976253112E-15,-2.15598026953673,-7.5));
#1044=CARTESIAN_POINT('',(-1.1578384870862E-15,-4.31196053907346,-7.5));
#1045=CARTESIAN_POINT('',(-1.1578384870862E-15,-4.31196053907346,-7.5));
#1046=CARTESIAN_POINT('',(-1.1426823488249E-15,-5.9035,-7.5));
#1047=CARTESIAN_POINT('',(-1.17836976253112E-15,-2.15598026953673,-7.5));
#1048=CARTESIAN_POINT('',(-1.11022302462516E-15,-9.31203946092654,-7.5));
#1049=CARTESIAN_POINT('Origin',(-4.6,-4.31196053907346,-7.5));
#1050=CARTESIAN_POINT('',(-2.3,-4.31196053907346,-7.5));
#1051=CARTESIAN_POINT('Origin',(-2.3,-6.812,-7.5));
#1052=CARTESIAN_POINT('',(-0.8115,-6.715,-7.5));
#1053=CARTESIAN_POINT('Origin',(0.,-6.715,-7.5));
#1054=CARTESIAN_POINT('Origin',(0.,-6.715,-7.5));
#1055=CARTESIAN_POINT('Origin',(-1.11022302462516E-15,0.,-7.5));
#1056=CARTESIAN_POINT('Origin',(0.,-6.715,-7.5));
#1057=CARTESIAN_POINT('',(-5.6,-8.31203946092654,-7.5));
#1058=CARTESIAN_POINT('',(-5.6,-8.31203946092654,-7.5));
#1059=CARTESIAN_POINT('',(-5.6,8.31203946092654,-7.5));
#1060=CARTESIAN_POINT('',(-5.6,8.31203946092654,-7.5));
#1061=CARTESIAN_POINT('',(-5.6,8.31203946092654,-7.5));
#1062=CARTESIAN_POINT('',(-5.55111512312578E-16,4.31203946092654,-7.5));
#1063=CARTESIAN_POINT('',(-8.32667268468867E-16,4.31203946092654,-7.5));
#1064=CARTESIAN_POINT('',(-5.55111512312578E-16,5.9035,-7.5));
#1065=CARTESIAN_POINT('',(-5.55111512312578E-16,4.65601973046327,-7.5));
#1066=CARTESIAN_POINT('',(-5.55111512312578E-16,7.5265,-7.5));
#1067=CARTESIAN_POINT('Origin',(0.,6.715,-7.5));
#1068=CARTESIAN_POINT('',(-5.55111512312578E-16,4.65601973046327,-7.5));
#1069=CARTESIAN_POINT('',(5.6,4.31203946092654,-7.5));
#1070=CARTESIAN_POINT('',(2.8,4.31203946092654,-7.5));
#1071=CARTESIAN_POINT('',(5.6,-8.31203946092654,-7.5));
#1072=CARTESIAN_POINT('',(-4.1,5.02105187650415E-16,-7.5));
#1073=CARTESIAN_POINT('Origin',(0.,0.,-7.5));
#1074=CARTESIAN_POINT('Origin',(5.6,4.31203946092654,-7.5));
#1075=CARTESIAN_POINT('',(5.6,4.31203946092654,-12.5));
#1076=CARTESIAN_POINT('',(4.6,4.31203946092654,-12.5));
#1077=CARTESIAN_POINT('',(5.6,4.31203946092654,-7.5));
#1078=CARTESIAN_POINT('Origin',(3.68,6.81203946092654,-12.5));
#1079=CARTESIAN_POINT('',(5.6,8.31203946092654,-12.5));
#1080=CARTESIAN_POINT('',(4.6,9.31203946092654,-12.5));
#1081=CARTESIAN_POINT('',(5.6,4.31203946092654,-12.5));
#1082=CARTESIAN_POINT('Origin',(-5.55111512312578E-16,4.31203946092654,
-7.5));
#1083=CARTESIAN_POINT('',(-5.55111512312578E-16,4.31203946092654,-12.5));
#1084=CARTESIAN_POINT('',(-4.6,4.31203946092654,-12.5));
#1085=CARTESIAN_POINT('',(-5.55111512312578E-16,4.31203946092654,-7.5));
#1086=CARTESIAN_POINT('Origin',(-5.55111512312578E-16,9.31203946092654,
-7.5));
#1087=CARTESIAN_POINT('',(-5.55111512312578E-16,4.31203946092654,-12.5));
#1088=CARTESIAN_POINT('',(-5.55111512312578E-16,4.31203946092654,-7.5));
#1089=CARTESIAN_POINT('Origin',(-2.3,6.81203946092654,-12.5));
#1090=CARTESIAN_POINT('Origin',(-2.3,6.81203946092654,-7.5));
#1091=CARTESIAN_POINT('',(-0.8115,6.715,-7.5));
#1092=CARTESIAN_POINT('Origin',(0.,6.715,-7.5));
#1093=CARTESIAN_POINT('Origin',(0.,6.715,-7.5));
#1094=CARTESIAN_POINT('Origin',(0.,0.,0.));
#1095=CARTESIAN_POINT('',(-4.1,5.02105187650415E-16,0.));
#1096=CARTESIAN_POINT('',(-4.1,5.02105187650415E-16,0.));
#1097=CARTESIAN_POINT('Origin',(0.,0.,0.));
#1098=CARTESIAN_POINT('Origin',(0.,6.715,0.));
#1099=CARTESIAN_POINT('',(-0.8115,6.715,0.));
#1100=CARTESIAN_POINT('',(-0.8115,6.715,0.));
#1101=CARTESIAN_POINT('Origin',(0.,6.715,0.));
#1102=CARTESIAN_POINT('Origin',(0.,-6.715,0.));
#1103=CARTESIAN_POINT('',(-0.8115,-6.715,0.));
#1104=CARTESIAN_POINT('',(-0.8115,-6.715,0.));
#1105=CARTESIAN_POINT('Origin',(0.,-6.715,0.));
#1106=CARTESIAN_POINT('Origin',(-5.6,-8.31203946092654,0.));
#1107=CARTESIAN_POINT('',(-5.6,8.31203946092654,0.));
#1108=CARTESIAN_POINT('',(-5.6,-8.31203946092654,0.));
#1109=CARTESIAN_POINT('',(-5.6,8.31203946092654,0.));
#1110=CARTESIAN_POINT('',(-5.6,8.31203946092654,0.));
#1111=CARTESIAN_POINT('',(-5.6,-8.31203946092654,0.));
#1112=CARTESIAN_POINT('Origin',(-4.6,-9.31203946092654,0.));
#1113=CARTESIAN_POINT('',(-5.6,-8.31203946092654,0.));
#1114=CARTESIAN_POINT('Origin',(5.6,-8.31203946092654,0.));
#1115=CARTESIAN_POINT('',(5.6,-8.31203946092654,0.));
#1116=CARTESIAN_POINT('',(4.6,-9.31203946092654,0.));
#1117=CARTESIAN_POINT('',(5.6,-8.31203946092654,0.));
#1118=CARTESIAN_POINT('Origin',(5.6,8.31203946092654,0.));
#1119=CARTESIAN_POINT('',(5.6,8.31203946092654,0.));
#1120=CARTESIAN_POINT('',(5.6,-8.31203946092654,0.));
#1121=CARTESIAN_POINT('',(5.6,8.31203946092654,0.));
#1122=CARTESIAN_POINT('Origin',(4.6,9.31203946092654,0.));
#1123=CARTESIAN_POINT('',(4.6,9.31203946092654,0.));
#1124=CARTESIAN_POINT('Origin',(-5.6,8.31203946092654,0.));
#1125=CARTESIAN_POINT('',(-5.6,8.31203946092654,0.));
#1126=CARTESIAN_POINT('Origin',(-1.11022302462516E-15,0.,0.));
#1127=UNCERTAINTY_MEASURE_WITH_UNIT(LENGTH_MEASURE(0.01),#1131,
'DISTANCE_ACCURACY_VALUE',
'Maximum model space distance between geometric entities at asserted c
onnectivities');
#1128=UNCERTAINTY_MEASURE_WITH_UNIT(LENGTH_MEASURE(0.01),#1131,
'DISTANCE_ACCURACY_VALUE',
'Maximum model space distance between geometric entities at asserted c
onnectivities');
#1129=(
GEOMETRIC_REPRESENTATION_CONTEXT(3)
GLOBAL_UNCERTAINTY_ASSIGNED_CONTEXT((#1127))
GLOBAL_UNIT_ASSIGNED_CONTEXT((#1131,#1133,#1134))
REPRESENTATION_CONTEXT('','3D')
);
#1130=(
GEOMETRIC_REPRESENTATION_CONTEXT(3)
GLOBAL_UNCERTAINTY_ASSIGNED_CONTEXT((#1128))
GLOBAL_UNIT_ASSIGNED_CONTEXT((#1131,#1133,#1134))
REPRESENTATION_CONTEXT('','3D')
);
#1131=(
LENGTH_UNIT()
NAMED_UNIT(*)
SI_UNIT(.MILLI.,.METRE.)
);
#1132=(
LENGTH_UNIT()
NAMED_UNIT(*)
SI_UNIT($,.METRE.)
);
#1133=(
NAMED_UNIT(*)
PLANE_ANGLE_UNIT()
SI_UNIT($,.RADIAN.)
);
#1134=(
NAMED_UNIT(*)
SI_UNIT($,.STERADIAN.)
SOLID_ANGLE_UNIT()
);
#1135=SHAPE_DEFINITION_REPRESENTATION(#1136,#1137);
#1136=PRODUCT_DEFINITION_SHAPE('',$,#1139);
#1137=SHAPE_REPRESENTATION('',(#703),#1129);
#1138=PRODUCT_DEFINITION_CONTEXT('part definition',#1143,'design');
#1139=PRODUCT_DEFINITION('Bracket','Bracket v5',#1140,#1138);
#1140=PRODUCT_DEFINITION_FORMATION('',$,#1145);
#1141=PRODUCT_RELATED_PRODUCT_CATEGORY('Bracket v5','Bracket v5',(#1145));
#1142=APPLICATION_PROTOCOL_DEFINITION('international standard',
'automotive_design',2009,#1143);
#1143=APPLICATION_CONTEXT(
'Core Data for Automotive Mechanical Design Process');
#1144=PRODUCT_CONTEXT('part definition',#1143,'mechanical');
#1145=PRODUCT('Bracket','Bracket v5',$,(#1144));
#1146=PRESENTATION_STYLE_ASSIGNMENT((#1147));
#1147=SURFACE_STYLE_USAGE(.BOTH.,#1148);
#1148=SURFACE_SIDE_STYLE('',(#1149));
#1149=SURFACE_STYLE_FILL_AREA(#1150);
#1150=FILL_AREA_STYLE('Steel - Satin',(#1151));
#1151=FILL_AREA_STYLE_COLOUR('Steel - Satin',#1152);
#1152=COLOUR_RGB('Steel - Satin',0.627450980392157,0.627450980392157,0.627450980392157);
ENDSEC;
END-ISO-10303-21;
