ISO-10303-21;
HEADER;
FILE_DESCRIPTION(('FreeCAD Model'),'2;1');
FILE_NAME('Open CASCADE Shape Model','2026-08-06T08:13:20',('FreeCAD'),(
    'FreeCAD'),'Open CASCADE STEP processor 7.8','FreeCAD','Unknown');
FILE_SCHEMA(('AUTOMOTIVE_DESIGN { 1 0 10303 214 1 1 1 1 }'));
ENDSEC;
DATA;
#1 = APPLICATION_PROTOCOL_DEFINITION('international standard',
  'automotive_design',2000,#2);
#2 = APPLICATION_CONTEXT(
  'core data for automotive mechanical design processes');
#3 = SHAPE_DEFINITION_REPRESENTATION(#4,#10);
#4 = PRODUCT_DEFINITION_SHAPE('','',#5);
#5 = PRODUCT_DEFINITION('design','',#6,#9);
#6 = PRODUCT_DEFINITION_FORMATION('','',#7);
#7 = PRODUCT('Open CASCADE STEP translator 7.8 1',
  'Open CASCADE STEP translator 7.8 1','',(#8));
#8 = PRODUCT_CONTEXT('',#2,'mechanical');
#9 = PRODUCT_DEFINITION_CONTEXT('part definition',#2,'design');
#10 = ADVANCED_BREP_SHAPE_REPRESENTATION('',(#11,#15),#1240);
#11 = AXIS2_PLACEMENT_3D('',#12,#13,#14);
#12 = CARTESIAN_POINT('',(0.,0.,0.));
#13 = DIRECTION('',(0.,0.,1.));
#14 = DIRECTION('',(1.,0.,-0.));
#15 = MANIFOLD_SOLID_BREP('',#16);
#16 = CLOSED_SHELL('',(#17,#57,#88,#139,#170,#201,#226,#269,#300,#331,
    #362,#393,#424,#487,#509,#592,#610,#650,#681,#712,#743,#774,#783,
    #814,#836,#867,#898,#929,#992,#1055,#1077,#1142,#1155,#1164,#1198));
#17 = ADVANCED_FACE('',(#18),#52,.T.);
#18 = FACE_BOUND('',#19,.T.);
#19 = EDGE_LOOP('',(#20,#30,#38,#46));
#20 = ORIENTED_EDGE('',*,*,#21,.F.);
#21 = EDGE_CURVE('',#22,#24,#26,.T.);
#22 = VERTEX_POINT('',#23);
#23 = CARTESIAN_POINT('',(12.778248088551,-1.565125608925,0.));
#24 = VERTEX_POINT('',#25);
#25 = CARTESIAN_POINT('',(18.698765822652,-12.7,0.));
#26 = LINE('',#27,#28);
#27 = CARTESIAN_POINT('',(11.746358074287,0.375577250229,0.));
#28 = VECTOR('',#29,1.);
#29 = DIRECTION('',(0.469471562786,-0.882947592859,0.));
#30 = ORIENTED_EDGE('',*,*,#31,.F.);
#31 = EDGE_CURVE('',#32,#22,#34,.T.);
#32 = VERTEX_POINT('',#33);
#33 = CARTESIAN_POINT('',(12.778248088551,-1.565125608925,25.4));
#34 = LINE('',#35,#36);
#35 = CARTESIAN_POINT('',(12.778248088551,-1.565125608925,0.));
#36 = VECTOR('',#37,1.);
#37 = DIRECTION('',(0.,0.,-1.));
#38 = ORIENTED_EDGE('',*,*,#39,.T.);
#39 = EDGE_CURVE('',#32,#40,#42,.T.);
#40 = VERTEX_POINT('',#41);
#41 = CARTESIAN_POINT('',(18.698765822652,-12.7,25.4));
#42 = LINE('',#43,#44);
#43 = CARTESIAN_POINT('',(11.746358074287,0.375577250229,25.4));
#44 = VECTOR('',#45,1.);
#45 = DIRECTION('',(0.469471562786,-0.882947592859,0.));
#46 = ORIENTED_EDGE('',*,*,#47,.F.);
#47 = EDGE_CURVE('',#24,#40,#48,.T.);
#48 = LINE('',#49,#50);
#49 = CARTESIAN_POINT('',(18.698765822652,-12.7,0.));
#50 = VECTOR('',#51,1.);
#51 = DIRECTION('',(0.,-0.,1.));
#52 = PLANE('',#53);
#53 = AXIS2_PLACEMENT_3D('',#54,#55,#56);
#54 = CARTESIAN_POINT('',(11.746358074287,0.375577250229,0.));
#55 = DIRECTION('',(0.882947592859,0.469471562786,0.));
#56 = DIRECTION('',(0.,0.,1.));
#57 = ADVANCED_FACE('',(#58),#83,.F.);
#58 = FACE_BOUND('',#59,.F.);
#59 = EDGE_LOOP('',(#60,#68,#76,#82));
#60 = ORIENTED_EDGE('',*,*,#61,.F.);
#61 = EDGE_CURVE('',#62,#24,#64,.T.);
#62 = VERTEX_POINT('',#63);
#63 = CARTESIAN_POINT('',(16.88665374155,-12.7,0.));
#64 = LINE('',#65,#66);
#65 = CARTESIAN_POINT('',(-18.415,-12.7,0.));
#66 = VECTOR('',#67,1.);
#67 = DIRECTION('',(1.,0.,-0.));
#68 = ORIENTED_EDGE('',*,*,#69,.T.);
#69 = EDGE_CURVE('',#62,#70,#72,.T.);
#70 = VERTEX_POINT('',#71);
#71 = CARTESIAN_POINT('',(16.88665374155,-12.7,25.4));
#72 = LINE('',#73,#74);
#73 = CARTESIAN_POINT('',(16.88665374155,-12.7,0.));
#74 = VECTOR('',#75,1.);
#75 = DIRECTION('',(0.,-0.,1.));
#76 = ORIENTED_EDGE('',*,*,#77,.T.);
#77 = EDGE_CURVE('',#70,#40,#78,.T.);
#78 = LINE('',#79,#80);
#79 = CARTESIAN_POINT('',(-18.415,-12.7,25.4));
#80 = VECTOR('',#81,1.);
#81 = DIRECTION('',(1.,0.,-0.));
#82 = ORIENTED_EDGE('',*,*,#47,.F.);
#83 = PLANE('',#84);
#84 = AXIS2_PLACEMENT_3D('',#85,#86,#87);
#85 = CARTESIAN_POINT('',(-18.415,-12.7,0.));
#86 = DIRECTION('',(-0.,1.,0.));
#87 = DIRECTION('',(0.,0.,1.));
#88 = ADVANCED_FACE('',(#89,#123),#134,.T.);
#89 = FACE_BOUND('',#90,.T.);
#90 = EDGE_LOOP('',(#91,#101,#109,#117));
#91 = ORIENTED_EDGE('',*,*,#92,.F.);
#92 = EDGE_CURVE('',#93,#95,#97,.T.);
#93 = VERTEX_POINT('',#94);
#94 = CARTESIAN_POINT('',(-5.479311504778,0.8,0.));
#95 = VERTEX_POINT('',#96);
#96 = CARTESIAN_POINT('',(10.559311504778,0.8,0.));
#97 = LINE('',#98,#99);
#98 = CARTESIAN_POINT('',(-5.96,0.8,0.));
#99 = VECTOR('',#100,1.);
#100 = DIRECTION('',(1.,0.,-0.));
#101 = ORIENTED_EDGE('',*,*,#102,.T.);
#102 = EDGE_CURVE('',#93,#103,#105,.T.);
#103 = VERTEX_POINT('',#104);
#104 = CARTESIAN_POINT('',(-5.479311504778,0.8,25.4));
#105 = LINE('',#106,#107);
#106 = CARTESIAN_POINT('',(-5.479311504778,0.8,0.));
#107 = VECTOR('',#108,1.);
#108 = DIRECTION('',(0.,0.,1.));
#109 = ORIENTED_EDGE('',*,*,#110,.T.);
#110 = EDGE_CURVE('',#103,#111,#113,.T.);
#111 = VERTEX_POINT('',#112);
#112 = CARTESIAN_POINT('',(10.559311504778,0.8,25.4));
#113 = LINE('',#114,#115);
#114 = CARTESIAN_POINT('',(-5.96,0.8,25.4));
#115 = VECTOR('',#116,1.);
#116 = DIRECTION('',(1.,0.,-0.));
#117 = ORIENTED_EDGE('',*,*,#118,.F.);
#118 = EDGE_CURVE('',#95,#111,#119,.T.);
#119 = LINE('',#120,#121);
#120 = CARTESIAN_POINT('',(10.559311504778,0.8,0.));
#121 = VECTOR('',#122,1.);
#122 = DIRECTION('',(0.,0.,1.));
#123 = FACE_BOUND('',#124,.T.);
#124 = EDGE_LOOP('',(#125));
#125 = ORIENTED_EDGE('',*,*,#126,.F.);
#126 = EDGE_CURVE('',#127,#127,#129,.T.);
#127 = VERTEX_POINT('',#128);
#128 = CARTESIAN_POINT('',(2.54,0.8,23.45));
#129 = CIRCLE('',#130,1.85);
#130 = AXIS2_PLACEMENT_3D('',#131,#132,#133);
#131 = CARTESIAN_POINT('',(2.54,0.8,21.6));
#132 = DIRECTION('',(0.,1.,0.));
#133 = DIRECTION('',(0.,-0.,1.));
#134 = PLANE('',#135);
#135 = AXIS2_PLACEMENT_3D('',#136,#137,#138);
#136 = CARTESIAN_POINT('',(-5.96,0.8,0.));
#137 = DIRECTION('',(-0.,1.,0.));
#138 = DIRECTION('',(0.,0.,1.));
#139 = ADVANCED_FACE('',(#140),#165,.F.);
#140 = FACE_BOUND('',#141,.F.);
#141 = EDGE_LOOP('',(#142,#150,#151,#159));
#142 = ORIENTED_EDGE('',*,*,#143,.F.);
#143 = EDGE_CURVE('',#93,#144,#146,.T.);
#144 = VERTEX_POINT('',#145);
#145 = CARTESIAN_POINT('',(-11.80665374155,12.7,0.));
#146 = LINE('',#147,#148);
#147 = CARTESIAN_POINT('',(-5.253641925713,0.375577250229,0.));
#148 = VECTOR('',#149,1.);
#149 = DIRECTION('',(-0.469471562786,0.882947592859,0.));
#150 = ORIENTED_EDGE('',*,*,#102,.T.);
#151 = ORIENTED_EDGE('',*,*,#152,.T.);
#152 = EDGE_CURVE('',#103,#153,#155,.T.);
#153 = VERTEX_POINT('',#154);
#154 = CARTESIAN_POINT('',(-11.80665374155,12.7,25.4));
#155 = LINE('',#156,#157);
#156 = CARTESIAN_POINT('',(-5.253641925713,0.375577250229,25.4));
#157 = VECTOR('',#158,1.);
#158 = DIRECTION('',(-0.469471562786,0.882947592859,0.));
#159 = ORIENTED_EDGE('',*,*,#160,.T.);
#160 = EDGE_CURVE('',#153,#144,#161,.T.);
#161 = LINE('',#162,#163);
#162 = CARTESIAN_POINT('',(-11.80665374155,12.7,0.));
#163 = VECTOR('',#164,1.);
#164 = DIRECTION('',(-0.,0.,-1.));
#165 = PLANE('',#166);
#166 = AXIS2_PLACEMENT_3D('',#167,#168,#169);
#167 = CARTESIAN_POINT('',(-5.253641925713,0.375577250229,0.));
#168 = DIRECTION('',(-0.882947592859,-0.469471562786,0.));
#169 = DIRECTION('',(0.,0.,1.));
#170 = ADVANCED_FACE('',(#171),#196,.T.);
#171 = FACE_BOUND('',#172,.T.);
#172 = EDGE_LOOP('',(#173,#181,#182,#190));
#173 = ORIENTED_EDGE('',*,*,#174,.F.);
#174 = EDGE_CURVE('',#95,#175,#177,.T.);
#175 = VERTEX_POINT('',#176);
#176 = CARTESIAN_POINT('',(16.88665374155,12.7,0.));
#177 = LINE('',#178,#179);
#178 = CARTESIAN_POINT('',(10.333641925713,0.375577250229,0.));
#179 = VECTOR('',#180,1.);
#180 = DIRECTION('',(0.469471562786,0.882947592859,0.));
#181 = ORIENTED_EDGE('',*,*,#118,.T.);
#182 = ORIENTED_EDGE('',*,*,#183,.T.);
#183 = EDGE_CURVE('',#111,#184,#186,.T.);
#184 = VERTEX_POINT('',#185);
#185 = CARTESIAN_POINT('',(16.88665374155,12.7,25.4));
#186 = LINE('',#187,#188);
#187 = CARTESIAN_POINT('',(10.333641925713,0.375577250229,25.4));
#188 = VECTOR('',#189,1.);
#189 = DIRECTION('',(0.469471562786,0.882947592859,0.));
#190 = ORIENTED_EDGE('',*,*,#191,.T.);
#191 = EDGE_CURVE('',#184,#175,#192,.T.);
#192 = LINE('',#193,#194);
#193 = CARTESIAN_POINT('',(16.88665374155,12.7,0.));
#194 = VECTOR('',#195,1.);
#195 = DIRECTION('',(0.,0.,-1.));
#196 = PLANE('',#197);
#197 = AXIS2_PLACEMENT_3D('',#198,#199,#200);
#198 = CARTESIAN_POINT('',(10.333641925713,0.375577250229,0.));
#199 = DIRECTION('',(-0.882947592859,0.469471562786,0.));
#200 = DIRECTION('',(0.,0.,1.));
#201 = ADVANCED_FACE('',(#202),#221,.F.);
#202 = FACE_BOUND('',#203,.F.);
#203 = EDGE_LOOP('',(#204,#205,#213,#220));
#204 = ORIENTED_EDGE('',*,*,#126,.F.);
#205 = ORIENTED_EDGE('',*,*,#206,.F.);
#206 = EDGE_CURVE('',#207,#127,#209,.T.);
#207 = VERTEX_POINT('',#208);
#208 = CARTESIAN_POINT('',(2.54,-0.8,23.45));
#209 = LINE('',#210,#211);
#210 = CARTESIAN_POINT('',(2.54,-14.7,23.45));
#211 = VECTOR('',#212,1.);
#212 = DIRECTION('',(0.,1.,0.));
#213 = ORIENTED_EDGE('',*,*,#214,.T.);
#214 = EDGE_CURVE('',#207,#207,#215,.T.);
#215 = CIRCLE('',#216,1.85);
#216 = AXIS2_PLACEMENT_3D('',#217,#218,#219);
#217 = CARTESIAN_POINT('',(2.54,-0.8,21.6));
#218 = DIRECTION('',(0.,1.,0.));
#219 = DIRECTION('',(0.,-0.,1.));
#220 = ORIENTED_EDGE('',*,*,#206,.T.);
#221 = CYLINDRICAL_SURFACE('',#222,1.85);
#222 = AXIS2_PLACEMENT_3D('',#223,#224,#225);
#223 = CARTESIAN_POINT('',(2.54,-14.7,21.6));
#224 = DIRECTION('',(0.,1.,0.));
#225 = DIRECTION('',(0.,-0.,1.));
#226 = ADVANCED_FACE('',(#227,#261),#264,.F.);
#227 = FACE_BOUND('',#228,.F.);
#228 = EDGE_LOOP('',(#229,#239,#247,#255));
#229 = ORIENTED_EDGE('',*,*,#230,.F.);
#230 = EDGE_CURVE('',#231,#233,#235,.T.);
#231 = VERTEX_POINT('',#232);
#232 = CARTESIAN_POINT('',(-5.479311504778,-0.8,0.));
#233 = VERTEX_POINT('',#234);
#234 = CARTESIAN_POINT('',(10.559311504778,-0.8,0.));
#235 = LINE('',#236,#237);
#236 = CARTESIAN_POINT('',(-5.96,-0.8,0.));
#237 = VECTOR('',#238,1.);
#238 = DIRECTION('',(1.,0.,-0.));
#239 = ORIENTED_EDGE('',*,*,#240,.F.);
#240 = EDGE_CURVE('',#241,#231,#243,.T.);
#241 = VERTEX_POINT('',#242);
#242 = CARTESIAN_POINT('',(-5.479311504778,-0.8,25.4));
#243 = LINE('',#244,#245);
#244 = CARTESIAN_POINT('',(-5.479311504778,-0.8,0.));
#245 = VECTOR('',#246,1.);
#246 = DIRECTION('',(0.,0.,-1.));
#247 = ORIENTED_EDGE('',*,*,#248,.T.);
#248 = EDGE_CURVE('',#241,#249,#251,.T.);
#249 = VERTEX_POINT('',#250);
#250 = CARTESIAN_POINT('',(10.559311504778,-0.8,25.4));
#251 = LINE('',#252,#253);
#252 = CARTESIAN_POINT('',(-5.96,-0.8,25.4));
#253 = VECTOR('',#254,1.);
#254 = DIRECTION('',(1.,0.,-0.));
#255 = ORIENTED_EDGE('',*,*,#256,.T.);
#256 = EDGE_CURVE('',#249,#233,#257,.T.);
#257 = LINE('',#258,#259);
#258 = CARTESIAN_POINT('',(10.559311504778,-0.8,0.));
#259 = VECTOR('',#260,1.);
#260 = DIRECTION('',(0.,0.,-1.));
#261 = FACE_BOUND('',#262,.F.);
#262 = EDGE_LOOP('',(#263));
#263 = ORIENTED_EDGE('',*,*,#214,.F.);
#264 = PLANE('',#265);
#265 = AXIS2_PLACEMENT_3D('',#266,#267,#268);
#266 = CARTESIAN_POINT('',(-5.96,-0.8,0.));
#267 = DIRECTION('',(-0.,1.,0.));
#268 = DIRECTION('',(0.,0.,1.));
#269 = ADVANCED_FACE('',(#270),#295,.T.);
#270 = FACE_BOUND('',#271,.T.);
#271 = EDGE_LOOP('',(#272,#280,#281,#289));
#272 = ORIENTED_EDGE('',*,*,#273,.F.);
#273 = EDGE_CURVE('',#231,#274,#276,.T.);
#274 = VERTEX_POINT('',#275);
#275 = CARTESIAN_POINT('',(-11.80665374155,-12.7,0.));
#276 = LINE('',#277,#278);
#277 = CARTESIAN_POINT('',(-5.253641925713,-0.375577250229,0.));
#278 = VECTOR('',#279,1.);
#279 = DIRECTION('',(-0.469471562786,-0.882947592859,0.));
#280 = ORIENTED_EDGE('',*,*,#240,.F.);
#281 = ORIENTED_EDGE('',*,*,#282,.T.);
#282 = EDGE_CURVE('',#241,#283,#285,.T.);
#283 = VERTEX_POINT('',#284);
#284 = CARTESIAN_POINT('',(-11.80665374155,-12.7,25.4));
#285 = LINE('',#286,#287);
#286 = CARTESIAN_POINT('',(-5.253641925713,-0.375577250229,25.4));
#287 = VECTOR('',#288,1.);
#288 = DIRECTION('',(-0.469471562786,-0.882947592859,0.));
#289 = ORIENTED_EDGE('',*,*,#290,.F.);
#290 = EDGE_CURVE('',#274,#283,#291,.T.);
#291 = LINE('',#292,#293);
#292 = CARTESIAN_POINT('',(-11.80665374155,-12.7,0.));
#293 = VECTOR('',#294,1.);
#294 = DIRECTION('',(-0.,-0.,1.));
#295 = PLANE('',#296);
#296 = AXIS2_PLACEMENT_3D('',#297,#298,#299);
#297 = CARTESIAN_POINT('',(-5.253641925713,-0.375577250229,0.));
#298 = DIRECTION('',(0.882947592859,-0.469471562786,0.));
#299 = DIRECTION('',(0.,0.,1.));
#300 = ADVANCED_FACE('',(#301),#326,.F.);
#301 = FACE_BOUND('',#302,.F.);
#302 = EDGE_LOOP('',(#303,#311,#319,#325));
#303 = ORIENTED_EDGE('',*,*,#304,.F.);
#304 = EDGE_CURVE('',#305,#274,#307,.T.);
#305 = VERTEX_POINT('',#306);
#306 = CARTESIAN_POINT('',(-13.61876582265,-12.7,0.));
#307 = LINE('',#308,#309);
#308 = CARTESIAN_POINT('',(-18.415,-12.7,0.));
#309 = VECTOR('',#310,1.);
#310 = DIRECTION('',(1.,0.,-0.));
#311 = ORIENTED_EDGE('',*,*,#312,.T.);
#312 = EDGE_CURVE('',#305,#313,#315,.T.);
#313 = VERTEX_POINT('',#314);
#314 = CARTESIAN_POINT('',(-13.61876582265,-12.7,25.4));
#315 = LINE('',#316,#317);
#316 = CARTESIAN_POINT('',(-13.61876582265,-12.7,0.));
#317 = VECTOR('',#318,1.);
#318 = DIRECTION('',(-0.,-0.,1.));
#319 = ORIENTED_EDGE('',*,*,#320,.T.);
#320 = EDGE_CURVE('',#313,#283,#321,.T.);
#321 = LINE('',#322,#323);
#322 = CARTESIAN_POINT('',(-18.415,-12.7,25.4));
#323 = VECTOR('',#324,1.);
#324 = DIRECTION('',(1.,0.,-0.));
#325 = ORIENTED_EDGE('',*,*,#290,.F.);
#326 = PLANE('',#327);
#327 = AXIS2_PLACEMENT_3D('',#328,#329,#330);
#328 = CARTESIAN_POINT('',(-18.415,-12.7,0.));
#329 = DIRECTION('',(-0.,1.,0.));
#330 = DIRECTION('',(0.,0.,1.));
#331 = ADVANCED_FACE('',(#332),#357,.F.);
#332 = FACE_BOUND('',#333,.F.);
#333 = EDGE_LOOP('',(#334,#342,#350,#356));
#334 = ORIENTED_EDGE('',*,*,#335,.F.);
#335 = EDGE_CURVE('',#336,#305,#338,.T.);
#336 = VERTEX_POINT('',#337);
#337 = CARTESIAN_POINT('',(-7.698248088551,-1.565125608925,0.));
#338 = LINE('',#339,#340);
#339 = CARTESIAN_POINT('',(-6.666358074287,0.375577250229,0.));
#340 = VECTOR('',#341,1.);
#341 = DIRECTION('',(-0.469471562786,-0.882947592859,0.));
#342 = ORIENTED_EDGE('',*,*,#343,.T.);
#343 = EDGE_CURVE('',#336,#344,#346,.T.);
#344 = VERTEX_POINT('',#345);
#345 = CARTESIAN_POINT('',(-7.698248088551,-1.565125608925,25.4));
#346 = LINE('',#347,#348);
#347 = CARTESIAN_POINT('',(-7.698248088551,-1.565125608925,0.));
#348 = VECTOR('',#349,1.);
#349 = DIRECTION('',(0.,0.,1.));
#350 = ORIENTED_EDGE('',*,*,#351,.T.);
#351 = EDGE_CURVE('',#344,#313,#352,.T.);
#352 = LINE('',#353,#354);
#353 = CARTESIAN_POINT('',(-6.666358074287,0.375577250229,25.4));
#354 = VECTOR('',#355,1.);
#355 = DIRECTION('',(-0.469471562786,-0.882947592859,0.));
#356 = ORIENTED_EDGE('',*,*,#312,.F.);
#357 = PLANE('',#358);
#358 = AXIS2_PLACEMENT_3D('',#359,#360,#361);
#359 = CARTESIAN_POINT('',(-6.666358074287,0.375577250229,0.));
#360 = DIRECTION('',(0.882947592859,-0.469471562786,0.));
#361 = DIRECTION('',(0.,0.,1.));
#362 = ADVANCED_FACE('',(#363),#388,.T.);
#363 = FACE_BOUND('',#364,.T.);
#364 = EDGE_LOOP('',(#365,#373,#374,#382));
#365 = ORIENTED_EDGE('',*,*,#366,.F.);
#366 = EDGE_CURVE('',#336,#367,#369,.T.);
#367 = VERTEX_POINT('',#368);
#368 = CARTESIAN_POINT('',(-18.415,-5.894974436919,0.));
#369 = LINE('',#370,#371);
#370 = CARTESIAN_POINT('',(-5.660314725267,-0.741747083653,0.));
#371 = VECTOR('',#372,1.);
#372 = DIRECTION('',(-0.927183854567,-0.374606593416,0.));
#373 = ORIENTED_EDGE('',*,*,#343,.T.);
#374 = ORIENTED_EDGE('',*,*,#375,.T.);
#375 = EDGE_CURVE('',#344,#376,#378,.T.);
#376 = VERTEX_POINT('',#377);
#377 = CARTESIAN_POINT('',(-18.415,-5.894974436919,25.4));
#378 = LINE('',#379,#380);
#379 = CARTESIAN_POINT('',(-5.660314725267,-0.741747083653,25.4));
#380 = VECTOR('',#381,1.);
#381 = DIRECTION('',(-0.927183854567,-0.374606593416,0.));
#382 = ORIENTED_EDGE('',*,*,#383,.F.);
#383 = EDGE_CURVE('',#367,#376,#384,.T.);
#384 = LINE('',#385,#386);
#385 = CARTESIAN_POINT('',(-18.415,-5.894974436919,0.));
#386 = VECTOR('',#387,1.);
#387 = DIRECTION('',(0.,0.,1.));
#388 = PLANE('',#389);
#389 = AXIS2_PLACEMENT_3D('',#390,#391,#392);
#390 = CARTESIAN_POINT('',(-5.660314725267,-0.741747083653,0.));
#391 = DIRECTION('',(0.374606593416,-0.927183854567,0.));
#392 = DIRECTION('',(0.,0.,1.));
#393 = ADVANCED_FACE('',(#394),#419,.F.);
#394 = FACE_BOUND('',#395,.F.);
#395 = EDGE_LOOP('',(#396,#404,#405,#413));
#396 = ORIENTED_EDGE('',*,*,#397,.F.);
#397 = EDGE_CURVE('',#376,#398,#400,.T.);
#398 = VERTEX_POINT('',#399);
#399 = CARTESIAN_POINT('',(-18.415,-4.169318848635,25.4));
#400 = LINE('',#401,#402);
#401 = CARTESIAN_POINT('',(-18.415,-12.7,25.4));
#402 = VECTOR('',#403,1.);
#403 = DIRECTION('',(-0.,1.,0.));
#404 = ORIENTED_EDGE('',*,*,#383,.F.);
#405 = ORIENTED_EDGE('',*,*,#406,.T.);
#406 = EDGE_CURVE('',#367,#407,#409,.T.);
#407 = VERTEX_POINT('',#408);
#408 = CARTESIAN_POINT('',(-18.415,-4.169318848635,0.));
#409 = LINE('',#410,#411);
#410 = CARTESIAN_POINT('',(-18.415,-12.7,0.));
#411 = VECTOR('',#412,1.);
#412 = DIRECTION('',(-0.,1.,0.));
#413 = ORIENTED_EDGE('',*,*,#414,.T.);
#414 = EDGE_CURVE('',#407,#398,#415,.T.);
#415 = LINE('',#416,#417);
#416 = CARTESIAN_POINT('',(-18.415,-4.169318848635,0.));
#417 = VECTOR('',#418,1.);
#418 = DIRECTION('',(0.,0.,1.));
#419 = PLANE('',#420);
#420 = AXIS2_PLACEMENT_3D('',#421,#422,#423);
#421 = CARTESIAN_POINT('',(-18.415,-12.7,0.));
#422 = DIRECTION('',(1.,0.,-0.));
#423 = DIRECTION('',(0.,0.,1.));
#424 = ADVANCED_FACE('',(#425),#482,.F.);
#425 = FACE_BOUND('',#426,.F.);
#426 = EDGE_LOOP('',(#427,#437,#445,#451,#452,#460,#468,#476));
#427 = ORIENTED_EDGE('',*,*,#428,.F.);
#428 = EDGE_CURVE('',#429,#431,#433,.T.);
#429 = VERTEX_POINT('',#430);
#430 = CARTESIAN_POINT('',(-8.095573730043,-5.551115123126E-17,0.));
#431 = VERTEX_POINT('',#432);
#432 = CARTESIAN_POINT('',(-9.019543452203,-0.37330799963,0.));
#433 = LINE('',#434,#435);
#434 = CARTESIAN_POINT('',(-6.259685274733,0.741747083653,0.));
#435 = VECTOR('',#436,1.);
#436 = DIRECTION('',(-0.927183854567,-0.374606593416,0.));
#437 = ORIENTED_EDGE('',*,*,#438,.F.);
#438 = EDGE_CURVE('',#439,#429,#441,.T.);
#439 = VERTEX_POINT('',#440);
#440 = CARTESIAN_POINT('',(-8.095573730043,-5.551115123126E-17,25.4));
#441 = LINE('',#442,#443);
#442 = CARTESIAN_POINT('',(-8.095573730043,1.110223024625E-16,0.));
#443 = VECTOR('',#444,1.);
#444 = DIRECTION('',(0.,-0.,-1.));
#445 = ORIENTED_EDGE('',*,*,#446,.T.);
#446 = EDGE_CURVE('',#439,#398,#447,.T.);
#447 = LINE('',#448,#449);
#448 = CARTESIAN_POINT('',(-6.259685274733,0.741747083653,25.4));
#449 = VECTOR('',#450,1.);
#450 = DIRECTION('',(-0.927183854567,-0.374606593416,0.));
#451 = ORIENTED_EDGE('',*,*,#414,.F.);
#452 = ORIENTED_EDGE('',*,*,#453,.F.);
#453 = EDGE_CURVE('',#454,#407,#456,.T.);
#454 = VERTEX_POINT('',#455);
#455 = CARTESIAN_POINT('',(-10.72105425868,-1.060762988991,0.));
#456 = LINE('',#457,#458);
#457 = CARTESIAN_POINT('',(-6.259685274733,0.741747083653,0.));
#458 = VECTOR('',#459,1.);
#459 = DIRECTION('',(-0.927183854567,-0.374606593416,0.));
#460 = ORIENTED_EDGE('',*,*,#461,.T.);
#461 = EDGE_CURVE('',#454,#462,#464,.T.);
#462 = VERTEX_POINT('',#463);
#463 = CARTESIAN_POINT('',(-10.72105425868,-1.060762988991,4.));
#464 = LINE('',#465,#466);
#465 = CARTESIAN_POINT('',(-10.72105425868,-1.060762988991,-3.2));
#466 = VECTOR('',#467,1.);
#467 = DIRECTION('',(0.,0.,1.));
#468 = ORIENTED_EDGE('',*,*,#469,.F.);
#469 = EDGE_CURVE('',#470,#462,#472,.T.);
#470 = VERTEX_POINT('',#471);
#471 = CARTESIAN_POINT('',(-9.019543452203,-0.37330799963,4.));
#472 = LINE('',#473,#474);
#473 = CARTESIAN_POINT('',(-8.064992065088,1.235579467148E-02,4.));
#474 = VECTOR('',#475,1.);
#475 = DIRECTION('',(-0.927183854567,-0.374606593416,0.));
#476 = ORIENTED_EDGE('',*,*,#477,.F.);
#477 = EDGE_CURVE('',#431,#470,#478,.T.);
#478 = LINE('',#479,#480);
#479 = CARTESIAN_POINT('',(-9.019543452203,-0.37330799963,-3.2));
#480 = VECTOR('',#481,1.);
#481 = DIRECTION('',(0.,0.,1.));
#482 = PLANE('',#483);
#483 = AXIS2_PLACEMENT_3D('',#484,#485,#486);
#484 = CARTESIAN_POINT('',(-6.259685274733,0.741747083653,0.));
#485 = DIRECTION('',(0.374606593416,-0.927183854567,0.));
#486 = DIRECTION('',(0.,0.,1.));
#487 = ADVANCED_FACE('',(#488),#504,.F.);
#488 = FACE_BOUND('',#489,.F.);
#489 = EDGE_LOOP('',(#490,#496,#497,#503));
#490 = ORIENTED_EDGE('',*,*,#491,.F.);
#491 = EDGE_CURVE('',#233,#62,#492,.T.);
#492 = LINE('',#493,#494);
#493 = CARTESIAN_POINT('',(10.333641925713,-0.375577250229,0.));
#494 = VECTOR('',#495,1.);
#495 = DIRECTION('',(0.469471562786,-0.882947592859,0.));
#496 = ORIENTED_EDGE('',*,*,#256,.F.);
#497 = ORIENTED_EDGE('',*,*,#498,.T.);
#498 = EDGE_CURVE('',#249,#70,#499,.T.);
#499 = LINE('',#500,#501);
#500 = CARTESIAN_POINT('',(10.333641925713,-0.375577250229,25.4));
#501 = VECTOR('',#502,1.);
#502 = DIRECTION('',(0.469471562786,-0.882947592859,0.));
#503 = ORIENTED_EDGE('',*,*,#69,.F.);
#504 = PLANE('',#505);
#505 = AXIS2_PLACEMENT_3D('',#506,#507,#508);
#506 = CARTESIAN_POINT('',(10.333641925713,-0.375577250229,0.));
#507 = DIRECTION('',(0.882947592859,0.469471562786,0.));
#508 = DIRECTION('',(0.,0.,1.));
#509 = ADVANCED_FACE('',(#510),#587,.T.);
#510 = FACE_BOUND('',#511,.T.);
#511 = EDGE_LOOP('',(#512,#522,#529,#530,#537,#538,#547,#555,#564,#572,
    #579,#580));
#512 = ORIENTED_EDGE('',*,*,#513,.T.);
#513 = EDGE_CURVE('',#514,#516,#518,.T.);
#514 = VERTEX_POINT('',#515);
#515 = CARTESIAN_POINT('',(-8.96,-2.939152317954E-16,-3.2));
#516 = VERTEX_POINT('',#517);
#517 = CARTESIAN_POINT('',(-8.96,-2.939152317954E-16,4.));
#518 = LINE('',#519,#520);
#519 = CARTESIAN_POINT('',(-8.96,-2.939152317954E-16,-3.2));
#520 = VECTOR('',#521,1.);
#521 = DIRECTION('',(0.,0.,1.));
#522 = ORIENTED_EDGE('',*,*,#523,.F.);
#523 = EDGE_CURVE('',#470,#516,#524,.T.);
#524 = CIRCLE('',#525,1.2);
#525 = AXIS2_PLACEMENT_3D('',#526,#527,#528);
#526 = CARTESIAN_POINT('',(-10.16,0.,4.));
#527 = DIRECTION('',(0.,0.,1.));
#528 = DIRECTION('',(1.,0.,-0.));
#529 = ORIENTED_EDGE('',*,*,#477,.F.);
#530 = ORIENTED_EDGE('',*,*,#531,.F.);
#531 = EDGE_CURVE('',#454,#431,#532,.T.);
#532 = CIRCLE('',#533,1.2);
#533 = AXIS2_PLACEMENT_3D('',#534,#535,#536);
#534 = CARTESIAN_POINT('',(-10.16,0.,0.));
#535 = DIRECTION('',(0.,0.,1.));
#536 = DIRECTION('',(1.,0.,-0.));
#537 = ORIENTED_EDGE('',*,*,#461,.T.);
#538 = ORIENTED_EDGE('',*,*,#539,.F.);
#539 = EDGE_CURVE('',#540,#462,#542,.T.);
#540 = VERTEX_POINT('',#541);
#541 = CARTESIAN_POINT('',(-10.72105425868,1.060762988991,4.));
#542 = CIRCLE('',#543,1.2);
#543 = AXIS2_PLACEMENT_3D('',#544,#545,#546);
#544 = CARTESIAN_POINT('',(-10.16,0.,4.));
#545 = DIRECTION('',(0.,0.,1.));
#546 = DIRECTION('',(1.,0.,-0.));
#547 = ORIENTED_EDGE('',*,*,#548,.F.);
#548 = EDGE_CURVE('',#549,#540,#551,.T.);
#549 = VERTEX_POINT('',#550);
#550 = CARTESIAN_POINT('',(-10.72105425868,1.060762988991,0.));
#551 = LINE('',#552,#553);
#552 = CARTESIAN_POINT('',(-10.72105425868,1.060762988991,-3.2));
#553 = VECTOR('',#554,1.);
#554 = DIRECTION('',(0.,0.,1.));
#555 = ORIENTED_EDGE('',*,*,#556,.F.);
#556 = EDGE_CURVE('',#557,#549,#559,.T.);
#557 = VERTEX_POINT('',#558);
#558 = CARTESIAN_POINT('',(-9.019543452203,0.37330799963,0.));
#559 = CIRCLE('',#560,1.2);
#560 = AXIS2_PLACEMENT_3D('',#561,#562,#563);
#561 = CARTESIAN_POINT('',(-10.16,0.,0.));
#562 = DIRECTION('',(0.,0.,1.));
#563 = DIRECTION('',(1.,0.,-0.));
#564 = ORIENTED_EDGE('',*,*,#565,.T.);
#565 = EDGE_CURVE('',#557,#566,#568,.T.);
#566 = VERTEX_POINT('',#567);
#567 = CARTESIAN_POINT('',(-9.019543452203,0.37330799963,4.));
#568 = LINE('',#569,#570);
#569 = CARTESIAN_POINT('',(-9.019543452203,0.37330799963,-3.2));
#570 = VECTOR('',#571,1.);
#571 = DIRECTION('',(0.,0.,1.));
#572 = ORIENTED_EDGE('',*,*,#573,.F.);
#573 = EDGE_CURVE('',#516,#566,#574,.T.);
#574 = CIRCLE('',#575,1.2);
#575 = AXIS2_PLACEMENT_3D('',#576,#577,#578);
#576 = CARTESIAN_POINT('',(-10.16,0.,4.));
#577 = DIRECTION('',(0.,0.,1.));
#578 = DIRECTION('',(1.,0.,-0.));
#579 = ORIENTED_EDGE('',*,*,#513,.F.);
#580 = ORIENTED_EDGE('',*,*,#581,.T.);
#581 = EDGE_CURVE('',#514,#514,#582,.T.);
#582 = CIRCLE('',#583,1.2);
#583 = AXIS2_PLACEMENT_3D('',#584,#585,#586);
#584 = CARTESIAN_POINT('',(-10.16,0.,-3.2));
#585 = DIRECTION('',(0.,0.,1.));
#586 = DIRECTION('',(1.,0.,-0.));
#587 = CYLINDRICAL_SURFACE('',#588,1.2);
#588 = AXIS2_PLACEMENT_3D('',#589,#590,#591);
#589 = CARTESIAN_POINT('',(-10.16,0.,-3.2));
#590 = DIRECTION('',(0.,0.,1.));
#591 = DIRECTION('',(1.,0.,-0.));
#592 = ADVANCED_FACE('',(#593),#605,.T.);
#593 = FACE_BOUND('',#594,.T.);
#594 = EDGE_LOOP('',(#595,#596,#597,#603,#604));
#595 = ORIENTED_EDGE('',*,*,#523,.T.);
#596 = ORIENTED_EDGE('',*,*,#573,.T.);
#597 = ORIENTED_EDGE('',*,*,#598,.T.);
#598 = EDGE_CURVE('',#566,#540,#599,.T.);
#599 = LINE('',#600,#601);
#600 = CARTESIAN_POINT('',(-8.064992065088,-1.235579467148E-02,4.));
#601 = VECTOR('',#602,1.);
#602 = DIRECTION('',(-0.927183854567,0.374606593416,0.));
#603 = ORIENTED_EDGE('',*,*,#539,.T.);
#604 = ORIENTED_EDGE('',*,*,#469,.F.);
#605 = PLANE('',#606);
#606 = AXIS2_PLACEMENT_3D('',#607,#608,#609);
#607 = CARTESIAN_POINT('',(-10.16,0.,4.));
#608 = DIRECTION('',(0.,0.,1.));
#609 = DIRECTION('',(1.,0.,-0.));
#610 = ADVANCED_FACE('',(#611),#645,.T.);
#611 = FACE_BOUND('',#612,.T.);
#612 = EDGE_LOOP('',(#613,#619,#620,#628,#636,#642,#643,#644));
#613 = ORIENTED_EDGE('',*,*,#614,.F.);
#614 = EDGE_CURVE('',#429,#557,#615,.T.);
#615 = LINE('',#616,#617);
#616 = CARTESIAN_POINT('',(-6.259685274733,-0.741747083653,0.));
#617 = VECTOR('',#618,1.);
#618 = DIRECTION('',(-0.927183854567,0.374606593416,0.));
#619 = ORIENTED_EDGE('',*,*,#438,.F.);
#620 = ORIENTED_EDGE('',*,*,#621,.T.);
#621 = EDGE_CURVE('',#439,#622,#624,.T.);
#622 = VERTEX_POINT('',#623);
#623 = CARTESIAN_POINT('',(-18.415,4.169318848635,25.4));
#624 = LINE('',#625,#626);
#625 = CARTESIAN_POINT('',(-6.259685274733,-0.741747083653,25.4));
#626 = VECTOR('',#627,1.);
#627 = DIRECTION('',(-0.927183854567,0.374606593416,0.));
#628 = ORIENTED_EDGE('',*,*,#629,.F.);
#629 = EDGE_CURVE('',#630,#622,#632,.T.);
#630 = VERTEX_POINT('',#631);
#631 = CARTESIAN_POINT('',(-18.415,4.169318848635,0.));
#632 = LINE('',#633,#634);
#633 = CARTESIAN_POINT('',(-18.415,4.169318848635,0.));
#634 = VECTOR('',#635,1.);
#635 = DIRECTION('',(0.,0.,1.));
#636 = ORIENTED_EDGE('',*,*,#637,.F.);
#637 = EDGE_CURVE('',#549,#630,#638,.T.);
#638 = LINE('',#639,#640);
#639 = CARTESIAN_POINT('',(-6.259685274733,-0.741747083653,0.));
#640 = VECTOR('',#641,1.);
#641 = DIRECTION('',(-0.927183854567,0.374606593416,0.));
#642 = ORIENTED_EDGE('',*,*,#548,.T.);
#643 = ORIENTED_EDGE('',*,*,#598,.F.);
#644 = ORIENTED_EDGE('',*,*,#565,.F.);
#645 = PLANE('',#646);
#646 = AXIS2_PLACEMENT_3D('',#647,#648,#649);
#647 = CARTESIAN_POINT('',(-6.259685274733,-0.741747083653,0.));
#648 = DIRECTION('',(-0.374606593416,-0.927183854567,0.));
#649 = DIRECTION('',(0.,0.,1.));
#650 = ADVANCED_FACE('',(#651),#676,.T.);
#651 = FACE_BOUND('',#652,.T.);
#652 = EDGE_LOOP('',(#653,#661,#669,#675));
#653 = ORIENTED_EDGE('',*,*,#654,.F.);
#654 = EDGE_CURVE('',#655,#144,#657,.T.);
#655 = VERTEX_POINT('',#656);
#656 = CARTESIAN_POINT('',(-13.61876582265,12.7,0.));
#657 = LINE('',#658,#659);
#658 = CARTESIAN_POINT('',(-18.415,12.7,0.));
#659 = VECTOR('',#660,1.);
#660 = DIRECTION('',(1.,0.,-0.));
#661 = ORIENTED_EDGE('',*,*,#662,.F.);
#662 = EDGE_CURVE('',#663,#655,#665,.T.);
#663 = VERTEX_POINT('',#664);
#664 = CARTESIAN_POINT('',(-13.61876582265,12.7,25.4));
#665 = LINE('',#666,#667);
#666 = CARTESIAN_POINT('',(-13.61876582265,12.7,0.));
#667 = VECTOR('',#668,1.);
#668 = DIRECTION('',(-0.,0.,-1.));
#669 = ORIENTED_EDGE('',*,*,#670,.T.);
#670 = EDGE_CURVE('',#663,#153,#671,.T.);
#671 = LINE('',#672,#673);
#672 = CARTESIAN_POINT('',(-18.415,12.7,25.4));
#673 = VECTOR('',#674,1.);
#674 = DIRECTION('',(1.,0.,-0.));
#675 = ORIENTED_EDGE('',*,*,#160,.T.);
#676 = PLANE('',#677);
#677 = AXIS2_PLACEMENT_3D('',#678,#679,#680);
#678 = CARTESIAN_POINT('',(-18.415,12.7,0.));
#679 = DIRECTION('',(-0.,1.,0.));
#680 = DIRECTION('',(0.,0.,1.));
#681 = ADVANCED_FACE('',(#682),#707,.T.);
#682 = FACE_BOUND('',#683,.T.);
#683 = EDGE_LOOP('',(#684,#692,#693,#701));
#684 = ORIENTED_EDGE('',*,*,#685,.F.);
#685 = EDGE_CURVE('',#175,#686,#688,.T.);
#686 = VERTEX_POINT('',#687);
#687 = CARTESIAN_POINT('',(18.698765822652,12.7,0.));
#688 = LINE('',#689,#690);
#689 = CARTESIAN_POINT('',(-18.415,12.7,0.));
#690 = VECTOR('',#691,1.);
#691 = DIRECTION('',(1.,0.,-0.));
#692 = ORIENTED_EDGE('',*,*,#191,.F.);
#693 = ORIENTED_EDGE('',*,*,#694,.T.);
#694 = EDGE_CURVE('',#184,#695,#697,.T.);
#695 = VERTEX_POINT('',#696);
#696 = CARTESIAN_POINT('',(18.698765822652,12.7,25.4));
#697 = LINE('',#698,#699);
#698 = CARTESIAN_POINT('',(-18.415,12.7,25.4));
#699 = VECTOR('',#700,1.);
#700 = DIRECTION('',(1.,0.,-0.));
#701 = ORIENTED_EDGE('',*,*,#702,.T.);
#702 = EDGE_CURVE('',#695,#686,#703,.T.);
#703 = LINE('',#704,#705);
#704 = CARTESIAN_POINT('',(18.698765822652,12.7,0.));
#705 = VECTOR('',#706,1.);
#706 = DIRECTION('',(0.,0.,-1.));
#707 = PLANE('',#708);
#708 = AXIS2_PLACEMENT_3D('',#709,#710,#711);
#709 = CARTESIAN_POINT('',(-18.415,12.7,0.));
#710 = DIRECTION('',(-0.,1.,0.));
#711 = DIRECTION('',(0.,0.,1.));
#712 = ADVANCED_FACE('',(#713),#738,.F.);
#713 = FACE_BOUND('',#714,.F.);
#714 = EDGE_LOOP('',(#715,#723,#731,#737));
#715 = ORIENTED_EDGE('',*,*,#716,.F.);
#716 = EDGE_CURVE('',#717,#686,#719,.T.);
#717 = VERTEX_POINT('',#718);
#718 = CARTESIAN_POINT('',(12.778248088551,1.565125608925,0.));
#719 = LINE('',#720,#721);
#720 = CARTESIAN_POINT('',(11.746358074287,-0.375577250229,0.));
#721 = VECTOR('',#722,1.);
#722 = DIRECTION('',(0.469471562786,0.882947592859,0.));
#723 = ORIENTED_EDGE('',*,*,#724,.T.);
#724 = EDGE_CURVE('',#717,#725,#727,.T.);
#725 = VERTEX_POINT('',#726);
#726 = CARTESIAN_POINT('',(12.778248088551,1.565125608925,25.4));
#727 = LINE('',#728,#729);
#728 = CARTESIAN_POINT('',(12.778248088551,1.565125608925,0.));
#729 = VECTOR('',#730,1.);
#730 = DIRECTION('',(0.,0.,1.));
#731 = ORIENTED_EDGE('',*,*,#732,.T.);
#732 = EDGE_CURVE('',#725,#695,#733,.T.);
#733 = LINE('',#734,#735);
#734 = CARTESIAN_POINT('',(11.746358074287,-0.375577250229,25.4));
#735 = VECTOR('',#736,1.);
#736 = DIRECTION('',(0.469471562786,0.882947592859,0.));
#737 = ORIENTED_EDGE('',*,*,#702,.T.);
#738 = PLANE('',#739);
#739 = AXIS2_PLACEMENT_3D('',#740,#741,#742);
#740 = CARTESIAN_POINT('',(11.746358074287,-0.375577250229,0.));
#741 = DIRECTION('',(-0.882947592859,0.469471562786,0.));
#742 = DIRECTION('',(0.,0.,1.));
#743 = ADVANCED_FACE('',(#744),#769,.T.);
#744 = FACE_BOUND('',#745,.T.);
#745 = EDGE_LOOP('',(#746,#754,#762,#768));
#746 = ORIENTED_EDGE('',*,*,#747,.F.);
#747 = EDGE_CURVE('',#748,#655,#750,.T.);
#748 = VERTEX_POINT('',#749);
#749 = CARTESIAN_POINT('',(-7.698248088551,1.565125608925,0.));
#750 = LINE('',#751,#752);
#751 = CARTESIAN_POINT('',(-6.666358074287,-0.375577250229,0.));
#752 = VECTOR('',#753,1.);
#753 = DIRECTION('',(-0.469471562786,0.882947592859,0.));
#754 = ORIENTED_EDGE('',*,*,#755,.F.);
#755 = EDGE_CURVE('',#756,#748,#758,.T.);
#756 = VERTEX_POINT('',#757);
#757 = CARTESIAN_POINT('',(-7.698248088551,1.565125608925,25.4));
#758 = LINE('',#759,#760);
#759 = CARTESIAN_POINT('',(-7.698248088551,1.565125608925,0.));
#760 = VECTOR('',#761,1.);
#761 = DIRECTION('',(0.,0.,-1.));
#762 = ORIENTED_EDGE('',*,*,#763,.T.);
#763 = EDGE_CURVE('',#756,#663,#764,.T.);
#764 = LINE('',#765,#766);
#765 = CARTESIAN_POINT('',(-6.666358074287,-0.375577250229,25.4));
#766 = VECTOR('',#767,1.);
#767 = DIRECTION('',(-0.469471562786,0.882947592859,0.));
#768 = ORIENTED_EDGE('',*,*,#662,.T.);
#769 = PLANE('',#770);
#770 = AXIS2_PLACEMENT_3D('',#771,#772,#773);
#771 = CARTESIAN_POINT('',(-6.666358074287,-0.375577250229,0.));
#772 = DIRECTION('',(-0.882947592859,-0.469471562786,0.));
#773 = DIRECTION('',(0.,0.,1.));
#774 = ADVANCED_FACE('',(#775),#778,.F.);
#775 = FACE_BOUND('',#776,.T.);
#776 = EDGE_LOOP('',(#777));
#777 = ORIENTED_EDGE('',*,*,#581,.F.);
#778 = PLANE('',#779);
#779 = AXIS2_PLACEMENT_3D('',#780,#781,#782);
#780 = CARTESIAN_POINT('',(-10.16,0.,-3.2));
#781 = DIRECTION('',(0.,0.,1.));
#782 = DIRECTION('',(1.,0.,-0.));
#783 = ADVANCED_FACE('',(#784),#809,.F.);
#784 = FACE_BOUND('',#785,.F.);
#785 = EDGE_LOOP('',(#786,#794,#795,#803));
#786 = ORIENTED_EDGE('',*,*,#787,.F.);
#787 = EDGE_CURVE('',#622,#788,#790,.T.);
#788 = VERTEX_POINT('',#789);
#789 = CARTESIAN_POINT('',(-18.415,5.894974436919,25.4));
#790 = LINE('',#791,#792);
#791 = CARTESIAN_POINT('',(-18.415,-12.7,25.4));
#792 = VECTOR('',#793,1.);
#793 = DIRECTION('',(-0.,1.,0.));
#794 = ORIENTED_EDGE('',*,*,#629,.F.);
#795 = ORIENTED_EDGE('',*,*,#796,.T.);
#796 = EDGE_CURVE('',#630,#797,#799,.T.);
#797 = VERTEX_POINT('',#798);
#798 = CARTESIAN_POINT('',(-18.415,5.894974436919,0.));
#799 = LINE('',#800,#801);
#800 = CARTESIAN_POINT('',(-18.415,-12.7,0.));
#801 = VECTOR('',#802,1.);
#802 = DIRECTION('',(-0.,1.,0.));
#803 = ORIENTED_EDGE('',*,*,#804,.T.);
#804 = EDGE_CURVE('',#797,#788,#805,.T.);
#805 = LINE('',#806,#807);
#806 = CARTESIAN_POINT('',(-18.415,5.894974436919,0.));
#807 = VECTOR('',#808,1.);
#808 = DIRECTION('',(0.,0.,1.));
#809 = PLANE('',#810);
#810 = AXIS2_PLACEMENT_3D('',#811,#812,#813);
#811 = CARTESIAN_POINT('',(-18.415,-12.7,0.));
#812 = DIRECTION('',(1.,0.,-0.));
#813 = DIRECTION('',(0.,0.,1.));
#814 = ADVANCED_FACE('',(#815),#831,.F.);
#815 = FACE_BOUND('',#816,.F.);
#816 = EDGE_LOOP('',(#817,#823,#824,#830));
#817 = ORIENTED_EDGE('',*,*,#818,.F.);
#818 = EDGE_CURVE('',#748,#797,#819,.T.);
#819 = LINE('',#820,#821);
#820 = CARTESIAN_POINT('',(-5.660314725267,0.741747083653,0.));
#821 = VECTOR('',#822,1.);
#822 = DIRECTION('',(-0.927183854567,0.374606593416,0.));
#823 = ORIENTED_EDGE('',*,*,#755,.F.);
#824 = ORIENTED_EDGE('',*,*,#825,.T.);
#825 = EDGE_CURVE('',#756,#788,#826,.T.);
#826 = LINE('',#827,#828);
#827 = CARTESIAN_POINT('',(-5.660314725267,0.741747083653,25.4));
#828 = VECTOR('',#829,1.);
#829 = DIRECTION('',(-0.927183854567,0.374606593416,0.));
#830 = ORIENTED_EDGE('',*,*,#804,.F.);
#831 = PLANE('',#832);
#832 = AXIS2_PLACEMENT_3D('',#833,#834,#835);
#833 = CARTESIAN_POINT('',(-5.660314725267,0.741747083653,0.));
#834 = DIRECTION('',(-0.374606593416,-0.927183854567,0.));
#835 = DIRECTION('',(0.,0.,1.));
#836 = ADVANCED_FACE('',(#837),#862,.T.);
#837 = FACE_BOUND('',#838,.T.);
#838 = EDGE_LOOP('',(#839,#847,#848,#856));
#839 = ORIENTED_EDGE('',*,*,#840,.F.);
#840 = EDGE_CURVE('',#717,#841,#843,.T.);
#841 = VERTEX_POINT('',#842);
#842 = CARTESIAN_POINT('',(23.495,5.894974436919,0.));
#843 = LINE('',#844,#845);
#844 = CARTESIAN_POINT('',(10.740314725267,0.741747083653,0.));
#845 = VECTOR('',#846,1.);
#846 = DIRECTION('',(0.927183854567,0.374606593416,0.));
#847 = ORIENTED_EDGE('',*,*,#724,.T.);
#848 = ORIENTED_EDGE('',*,*,#849,.T.);
#849 = EDGE_CURVE('',#725,#850,#852,.T.);
#850 = VERTEX_POINT('',#851);
#851 = CARTESIAN_POINT('',(23.495,5.894974436919,25.4));
#852 = LINE('',#853,#854);
#853 = CARTESIAN_POINT('',(10.740314725267,0.741747083653,25.4));
#854 = VECTOR('',#855,1.);
#855 = DIRECTION('',(0.927183854567,0.374606593416,0.));
#856 = ORIENTED_EDGE('',*,*,#857,.T.);
#857 = EDGE_CURVE('',#850,#841,#858,.T.);
#858 = LINE('',#859,#860);
#859 = CARTESIAN_POINT('',(23.495,5.894974436919,0.));
#860 = VECTOR('',#861,1.);
#861 = DIRECTION('',(-0.,0.,-1.));
#862 = PLANE('',#863);
#863 = AXIS2_PLACEMENT_3D('',#864,#865,#866);
#864 = CARTESIAN_POINT('',(10.740314725267,0.741747083653,0.));
#865 = DIRECTION('',(-0.374606593416,0.927183854567,0.));
#866 = DIRECTION('',(0.,0.,1.));
#867 = ADVANCED_FACE('',(#868),#893,.F.);
#868 = FACE_BOUND('',#869,.F.);
#869 = EDGE_LOOP('',(#870,#878,#879,#887));
#870 = ORIENTED_EDGE('',*,*,#871,.F.);
#871 = EDGE_CURVE('',#22,#872,#874,.T.);
#872 = VERTEX_POINT('',#873);
#873 = CARTESIAN_POINT('',(23.495,-5.894974436919,0.));
#874 = LINE('',#875,#876);
#875 = CARTESIAN_POINT('',(10.740314725267,-0.741747083653,0.));
#876 = VECTOR('',#877,1.);
#877 = DIRECTION('',(0.927183854567,-0.374606593416,0.));
#878 = ORIENTED_EDGE('',*,*,#31,.F.);
#879 = ORIENTED_EDGE('',*,*,#880,.T.);
#880 = EDGE_CURVE('',#32,#881,#883,.T.);
#881 = VERTEX_POINT('',#882);
#882 = CARTESIAN_POINT('',(23.495,-5.894974436919,25.4));
#883 = LINE('',#884,#885);
#884 = CARTESIAN_POINT('',(10.740314725267,-0.741747083653,25.4));
#885 = VECTOR('',#886,1.);
#886 = DIRECTION('',(0.927183854567,-0.374606593416,0.));
#887 = ORIENTED_EDGE('',*,*,#888,.T.);
#888 = EDGE_CURVE('',#881,#872,#889,.T.);
#889 = LINE('',#890,#891);
#890 = CARTESIAN_POINT('',(23.495,-5.894974436919,0.));
#891 = VECTOR('',#892,1.);
#892 = DIRECTION('',(-0.,0.,-1.));
#893 = PLANE('',#894);
#894 = AXIS2_PLACEMENT_3D('',#895,#896,#897);
#895 = CARTESIAN_POINT('',(10.740314725267,-0.741747083653,0.));
#896 = DIRECTION('',(0.374606593416,0.927183854567,0.));
#897 = DIRECTION('',(0.,0.,1.));
#898 = ADVANCED_FACE('',(#899),#924,.T.);
#899 = FACE_BOUND('',#900,.T.);
#900 = EDGE_LOOP('',(#901,#909,#917,#923));
#901 = ORIENTED_EDGE('',*,*,#902,.F.);
#902 = EDGE_CURVE('',#903,#850,#905,.T.);
#903 = VERTEX_POINT('',#904);
#904 = CARTESIAN_POINT('',(23.495,4.169318848635,25.4));
#905 = LINE('',#906,#907);
#906 = CARTESIAN_POINT('',(23.495,-12.7,25.4));
#907 = VECTOR('',#908,1.);
#908 = DIRECTION('',(-0.,1.,0.));
#909 = ORIENTED_EDGE('',*,*,#910,.T.);
#910 = EDGE_CURVE('',#903,#911,#913,.T.);
#911 = VERTEX_POINT('',#912);
#912 = CARTESIAN_POINT('',(23.495,4.169318848635,0.));
#913 = LINE('',#914,#915);
#914 = CARTESIAN_POINT('',(23.495,4.169318848635,0.));
#915 = VECTOR('',#916,1.);
#916 = DIRECTION('',(-0.,0.,-1.));
#917 = ORIENTED_EDGE('',*,*,#918,.T.);
#918 = EDGE_CURVE('',#911,#841,#919,.T.);
#919 = LINE('',#920,#921);
#920 = CARTESIAN_POINT('',(23.495,-12.7,0.));
#921 = VECTOR('',#922,1.);
#922 = DIRECTION('',(-0.,1.,0.));
#923 = ORIENTED_EDGE('',*,*,#857,.F.);
#924 = PLANE('',#925);
#925 = AXIS2_PLACEMENT_3D('',#926,#927,#928);
#926 = CARTESIAN_POINT('',(23.495,-12.7,0.));
#927 = DIRECTION('',(1.,0.,-0.));
#928 = DIRECTION('',(0.,0.,1.));
#929 = ADVANCED_FACE('',(#930),#987,.F.);
#930 = FACE_BOUND('',#931,.F.);
#931 = EDGE_LOOP('',(#932,#942,#950,#956,#957,#965,#973,#981));
#932 = ORIENTED_EDGE('',*,*,#933,.F.);
#933 = EDGE_CURVE('',#934,#936,#938,.T.);
#934 = VERTEX_POINT('',#935);
#935 = CARTESIAN_POINT('',(13.175573730043,-1.110223024625E-16,0.));
#936 = VERTEX_POINT('',#937);
#937 = CARTESIAN_POINT('',(14.099543452203,0.37330799963,0.));
#938 = LINE('',#939,#940);
#939 = CARTESIAN_POINT('',(11.339685274733,-0.741747083653,0.));
#940 = VECTOR('',#941,1.);
#941 = DIRECTION('',(0.927183854567,0.374606593416,0.));
#942 = ORIENTED_EDGE('',*,*,#943,.F.);
#943 = EDGE_CURVE('',#944,#934,#946,.T.);
#944 = VERTEX_POINT('',#945);
#945 = CARTESIAN_POINT('',(13.175573730043,-1.110223024625E-16,25.4));
#946 = LINE('',#947,#948);
#947 = CARTESIAN_POINT('',(13.175573730043,0.,0.));
#948 = VECTOR('',#949,1.);
#949 = DIRECTION('',(0.,0.,-1.));
#950 = ORIENTED_EDGE('',*,*,#951,.T.);
#951 = EDGE_CURVE('',#944,#903,#952,.T.);
#952 = LINE('',#953,#954);
#953 = CARTESIAN_POINT('',(11.339685274733,-0.741747083653,25.4));
#954 = VECTOR('',#955,1.);
#955 = DIRECTION('',(0.927183854567,0.374606593416,0.));
#956 = ORIENTED_EDGE('',*,*,#910,.T.);
#957 = ORIENTED_EDGE('',*,*,#958,.F.);
#958 = EDGE_CURVE('',#959,#911,#961,.T.);
#959 = VERTEX_POINT('',#960);
#960 = CARTESIAN_POINT('',(15.801054258684,1.060762988991,0.));
#961 = LINE('',#962,#963);
#962 = CARTESIAN_POINT('',(11.339685274733,-0.741747083653,0.));
#963 = VECTOR('',#964,1.);
#964 = DIRECTION('',(0.927183854567,0.374606593416,0.));
#965 = ORIENTED_EDGE('',*,*,#966,.T.);
#966 = EDGE_CURVE('',#959,#967,#969,.T.);
#967 = VERTEX_POINT('',#968);
#968 = CARTESIAN_POINT('',(15.801054258684,1.060762988991,4.));
#969 = LINE('',#970,#971);
#970 = CARTESIAN_POINT('',(15.801054258684,1.060762988991,-3.2));
#971 = VECTOR('',#972,1.);
#972 = DIRECTION('',(0.,0.,1.));
#973 = ORIENTED_EDGE('',*,*,#974,.F.);
#974 = EDGE_CURVE('',#975,#967,#977,.T.);
#975 = VERTEX_POINT('',#976);
#976 = CARTESIAN_POINT('',(14.099543452203,0.37330799963,4.));
#977 = LINE('',#978,#979);
#978 = CARTESIAN_POINT('',(13.144992065088,-1.235579467148E-02,4.));
#979 = VECTOR('',#980,1.);
#980 = DIRECTION('',(0.927183854567,0.374606593416,-0.));
#981 = ORIENTED_EDGE('',*,*,#982,.F.);
#982 = EDGE_CURVE('',#936,#975,#983,.T.);
#983 = LINE('',#984,#985);
#984 = CARTESIAN_POINT('',(14.099543452203,0.37330799963,-3.2));
#985 = VECTOR('',#986,1.);
#986 = DIRECTION('',(0.,0.,1.));
#987 = PLANE('',#988);
#988 = AXIS2_PLACEMENT_3D('',#989,#990,#991);
#989 = CARTESIAN_POINT('',(11.339685274733,-0.741747083653,0.));
#990 = DIRECTION('',(-0.374606593416,0.927183854567,0.));
#991 = DIRECTION('',(0.,0.,1.));
#992 = ADVANCED_FACE('',(#993),#1050,.T.);
#993 = FACE_BOUND('',#994,.T.);
#994 = EDGE_LOOP('',(#995,#1003,#1004,#1012,#1020,#1028,#1036,#1044));
#995 = ORIENTED_EDGE('',*,*,#996,.F.);
#996 = EDGE_CURVE('',#934,#997,#999,.T.);
#997 = VERTEX_POINT('',#998);
#998 = CARTESIAN_POINT('',(14.099543452203,-0.37330799963,0.));
#999 = LINE('',#1000,#1001);
#1000 = CARTESIAN_POINT('',(11.339685274733,0.741747083653,0.));
#1001 = VECTOR('',#1002,1.);
#1002 = DIRECTION('',(0.927183854567,-0.374606593416,0.));
#1003 = ORIENTED_EDGE('',*,*,#943,.F.);
#1004 = ORIENTED_EDGE('',*,*,#1005,.T.);
#1005 = EDGE_CURVE('',#944,#1006,#1008,.T.);
#1006 = VERTEX_POINT('',#1007);
#1007 = CARTESIAN_POINT('',(23.495,-4.169318848635,25.4));
#1008 = LINE('',#1009,#1010);
#1009 = CARTESIAN_POINT('',(11.339685274733,0.741747083653,25.4));
#1010 = VECTOR('',#1011,1.);
#1011 = DIRECTION('',(0.927183854567,-0.374606593416,0.));
#1012 = ORIENTED_EDGE('',*,*,#1013,.T.);
#1013 = EDGE_CURVE('',#1006,#1014,#1016,.T.);
#1014 = VERTEX_POINT('',#1015);
#1015 = CARTESIAN_POINT('',(23.495,-4.169318848635,0.));
#1016 = LINE('',#1017,#1018);
#1017 = CARTESIAN_POINT('',(23.495,-4.169318848635,0.));
#1018 = VECTOR('',#1019,1.);
#1019 = DIRECTION('',(-0.,0.,-1.));
#1020 = ORIENTED_EDGE('',*,*,#1021,.F.);
#1021 = EDGE_CURVE('',#1022,#1014,#1024,.T.);
#1022 = VERTEX_POINT('',#1023);
#1023 = CARTESIAN_POINT('',(15.801054258684,-1.060762988991,0.));
#1024 = LINE('',#1025,#1026);
#1025 = CARTESIAN_POINT('',(11.339685274733,0.741747083653,0.));
#1026 = VECTOR('',#1027,1.);
#1027 = DIRECTION('',(0.927183854567,-0.374606593416,0.));
#1028 = ORIENTED_EDGE('',*,*,#1029,.T.);
#1029 = EDGE_CURVE('',#1022,#1030,#1032,.T.);
#1030 = VERTEX_POINT('',#1031);
#1031 = CARTESIAN_POINT('',(15.801054258684,-1.060762988991,4.));
#1032 = LINE('',#1033,#1034);
#1033 = CARTESIAN_POINT('',(15.801054258684,-1.060762988991,-3.2));
#1034 = VECTOR('',#1035,1.);
#1035 = DIRECTION('',(0.,0.,1.));
#1036 = ORIENTED_EDGE('',*,*,#1037,.F.);
#1037 = EDGE_CURVE('',#1038,#1030,#1040,.T.);
#1038 = VERTEX_POINT('',#1039);
#1039 = CARTESIAN_POINT('',(14.099543452203,-0.37330799963,4.));
#1040 = LINE('',#1041,#1042);
#1041 = CARTESIAN_POINT('',(13.144992065088,1.235579467148E-02,4.));
#1042 = VECTOR('',#1043,1.);
#1043 = DIRECTION('',(0.927183854567,-0.374606593416,0.));
#1044 = ORIENTED_EDGE('',*,*,#1045,.F.);
#1045 = EDGE_CURVE('',#997,#1038,#1046,.T.);
#1046 = LINE('',#1047,#1048);
#1047 = CARTESIAN_POINT('',(14.099543452203,-0.37330799963,-3.2));
#1048 = VECTOR('',#1049,1.);
#1049 = DIRECTION('',(0.,0.,1.));
#1050 = PLANE('',#1051);
#1051 = AXIS2_PLACEMENT_3D('',#1052,#1053,#1054);
#1052 = CARTESIAN_POINT('',(11.339685274733,0.741747083653,0.));
#1053 = DIRECTION('',(0.374606593416,0.927183854567,0.));
#1054 = DIRECTION('',(0.,0.,1.));
#1055 = ADVANCED_FACE('',(#1056),#1072,.T.);
#1056 = FACE_BOUND('',#1057,.T.);
#1057 = EDGE_LOOP('',(#1058,#1064,#1065,#1071));
#1058 = ORIENTED_EDGE('',*,*,#1059,.F.);
#1059 = EDGE_CURVE('',#881,#1006,#1060,.T.);
#1060 = LINE('',#1061,#1062);
#1061 = CARTESIAN_POINT('',(23.495,-12.7,25.4));
#1062 = VECTOR('',#1063,1.);
#1063 = DIRECTION('',(-0.,1.,0.));
#1064 = ORIENTED_EDGE('',*,*,#888,.T.);
#1065 = ORIENTED_EDGE('',*,*,#1066,.T.);
#1066 = EDGE_CURVE('',#872,#1014,#1067,.T.);
#1067 = LINE('',#1068,#1069);
#1068 = CARTESIAN_POINT('',(23.495,-12.7,0.));
#1069 = VECTOR('',#1070,1.);
#1070 = DIRECTION('',(-0.,1.,0.));
#1071 = ORIENTED_EDGE('',*,*,#1013,.F.);
#1072 = PLANE('',#1073);
#1073 = AXIS2_PLACEMENT_3D('',#1074,#1075,#1076);
#1074 = CARTESIAN_POINT('',(23.495,-12.7,0.));
#1075 = DIRECTION('',(1.,0.,-0.));
#1076 = DIRECTION('',(0.,0.,1.));
#1077 = ADVANCED_FACE('',(#1078),#1137,.T.);
#1078 = FACE_BOUND('',#1079,.T.);
#1079 = EDGE_LOOP('',(#1080,#1090,#1097,#1098,#1105,#1106,#1113,#1114,
    #1121,#1122,#1129,#1130));
#1080 = ORIENTED_EDGE('',*,*,#1081,.T.);
#1081 = EDGE_CURVE('',#1082,#1084,#1086,.T.);
#1082 = VERTEX_POINT('',#1083);
#1083 = CARTESIAN_POINT('',(16.44,-2.939152317954E-16,-3.2));
#1084 = VERTEX_POINT('',#1085);
#1085 = CARTESIAN_POINT('',(16.44,-2.939152317954E-16,4.));
#1086 = LINE('',#1087,#1088);
#1087 = CARTESIAN_POINT('',(16.44,-2.939152317954E-16,-3.2));
#1088 = VECTOR('',#1089,1.);
#1089 = DIRECTION('',(0.,0.,1.));
#1090 = ORIENTED_EDGE('',*,*,#1091,.F.);
#1091 = EDGE_CURVE('',#1030,#1084,#1092,.T.);
#1092 = CIRCLE('',#1093,1.2);
#1093 = AXIS2_PLACEMENT_3D('',#1094,#1095,#1096);
#1094 = CARTESIAN_POINT('',(15.24,0.,4.));
#1095 = DIRECTION('',(0.,0.,1.));
#1096 = DIRECTION('',(1.,0.,-0.));
#1097 = ORIENTED_EDGE('',*,*,#1029,.F.);
#1098 = ORIENTED_EDGE('',*,*,#1099,.F.);
#1099 = EDGE_CURVE('',#997,#1022,#1100,.T.);
#1100 = CIRCLE('',#1101,1.2);
#1101 = AXIS2_PLACEMENT_3D('',#1102,#1103,#1104);
#1102 = CARTESIAN_POINT('',(15.24,0.,0.));
#1103 = DIRECTION('',(0.,0.,1.));
#1104 = DIRECTION('',(1.,0.,-0.));
#1105 = ORIENTED_EDGE('',*,*,#1045,.T.);
#1106 = ORIENTED_EDGE('',*,*,#1107,.F.);
#1107 = EDGE_CURVE('',#975,#1038,#1108,.T.);
#1108 = CIRCLE('',#1109,1.2);
#1109 = AXIS2_PLACEMENT_3D('',#1110,#1111,#1112);
#1110 = CARTESIAN_POINT('',(15.24,0.,4.));
#1111 = DIRECTION('',(0.,0.,1.));
#1112 = DIRECTION('',(1.,0.,-0.));
#1113 = ORIENTED_EDGE('',*,*,#982,.F.);
#1114 = ORIENTED_EDGE('',*,*,#1115,.F.);
#1115 = EDGE_CURVE('',#959,#936,#1116,.T.);
#1116 = CIRCLE('',#1117,1.2);
#1117 = AXIS2_PLACEMENT_3D('',#1118,#1119,#1120);
#1118 = CARTESIAN_POINT('',(15.24,0.,0.));
#1119 = DIRECTION('',(0.,0.,1.));
#1120 = DIRECTION('',(1.,0.,-0.));
#1121 = ORIENTED_EDGE('',*,*,#966,.T.);
#1122 = ORIENTED_EDGE('',*,*,#1123,.F.);
#1123 = EDGE_CURVE('',#1084,#967,#1124,.T.);
#1124 = CIRCLE('',#1125,1.2);
#1125 = AXIS2_PLACEMENT_3D('',#1126,#1127,#1128);
#1126 = CARTESIAN_POINT('',(15.24,0.,4.));
#1127 = DIRECTION('',(0.,0.,1.));
#1128 = DIRECTION('',(1.,0.,-0.));
#1129 = ORIENTED_EDGE('',*,*,#1081,.F.);
#1130 = ORIENTED_EDGE('',*,*,#1131,.T.);
#1131 = EDGE_CURVE('',#1082,#1082,#1132,.T.);
#1132 = CIRCLE('',#1133,1.2);
#1133 = AXIS2_PLACEMENT_3D('',#1134,#1135,#1136);
#1134 = CARTESIAN_POINT('',(15.24,0.,-3.2));
#1135 = DIRECTION('',(0.,0.,1.));
#1136 = DIRECTION('',(1.,0.,-0.));
#1137 = CYLINDRICAL_SURFACE('',#1138,1.2);
#1138 = AXIS2_PLACEMENT_3D('',#1139,#1140,#1141);
#1139 = CARTESIAN_POINT('',(15.24,0.,-3.2));
#1140 = DIRECTION('',(0.,0.,1.));
#1141 = DIRECTION('',(1.,0.,-0.));
#1142 = ADVANCED_FACE('',(#1143),#1150,.T.);
#1143 = FACE_BOUND('',#1144,.T.);
#1144 = EDGE_LOOP('',(#1145,#1146,#1147,#1148,#1149));
#1145 = ORIENTED_EDGE('',*,*,#1091,.T.);
#1146 = ORIENTED_EDGE('',*,*,#1123,.T.);
#1147 = ORIENTED_EDGE('',*,*,#974,.F.);
#1148 = ORIENTED_EDGE('',*,*,#1107,.T.);
#1149 = ORIENTED_EDGE('',*,*,#1037,.T.);
#1150 = PLANE('',#1151);
#1151 = AXIS2_PLACEMENT_3D('',#1152,#1153,#1154);
#1152 = CARTESIAN_POINT('',(15.24,0.,4.));
#1153 = DIRECTION('',(0.,0.,1.));
#1154 = DIRECTION('',(1.,0.,-0.));
#1155 = ADVANCED_FACE('',(#1156),#1159,.F.);
#1156 = FACE_BOUND('',#1157,.T.);
#1157 = EDGE_LOOP('',(#1158));
#1158 = ORIENTED_EDGE('',*,*,#1131,.F.);
#1159 = PLANE('',#1160);
#1160 = AXIS2_PLACEMENT_3D('',#1161,#1162,#1163);
#1161 = CARTESIAN_POINT('',(15.24,0.,-3.2));
#1162 = DIRECTION('',(0.,0.,1.));
#1163 = DIRECTION('',(1.,0.,-0.));
#1164 = ADVANCED_FACE('',(#1165),#1193,.T.);
#1165 = FACE_BOUND('',#1166,.T.);
#1166 = EDGE_LOOP('',(#1167,#1168,#1169,#1170,#1171,#1172,#1173,#1174,
    #1175,#1176,#1177,#1178,#1179,#1180,#1181,#1182,#1183,#1184,#1185,
    #1186,#1187,#1188,#1189,#1190,#1191,#1192));
#1167 = ORIENTED_EDGE('',*,*,#110,.F.);
#1168 = ORIENTED_EDGE('',*,*,#152,.T.);
#1169 = ORIENTED_EDGE('',*,*,#670,.F.);
#1170 = ORIENTED_EDGE('',*,*,#763,.F.);
#1171 = ORIENTED_EDGE('',*,*,#825,.T.);
#1172 = ORIENTED_EDGE('',*,*,#787,.F.);
#1173 = ORIENTED_EDGE('',*,*,#621,.F.);
#1174 = ORIENTED_EDGE('',*,*,#446,.T.);
#1175 = ORIENTED_EDGE('',*,*,#397,.F.);
#1176 = ORIENTED_EDGE('',*,*,#375,.F.);
#1177 = ORIENTED_EDGE('',*,*,#351,.T.);
#1178 = ORIENTED_EDGE('',*,*,#320,.T.);
#1179 = ORIENTED_EDGE('',*,*,#282,.F.);
#1180 = ORIENTED_EDGE('',*,*,#248,.T.);
#1181 = ORIENTED_EDGE('',*,*,#498,.T.);
#1182 = ORIENTED_EDGE('',*,*,#77,.T.);
#1183 = ORIENTED_EDGE('',*,*,#39,.F.);
#1184 = ORIENTED_EDGE('',*,*,#880,.T.);
#1185 = ORIENTED_EDGE('',*,*,#1059,.T.);
#1186 = ORIENTED_EDGE('',*,*,#1005,.F.);
#1187 = ORIENTED_EDGE('',*,*,#951,.T.);
#1188 = ORIENTED_EDGE('',*,*,#902,.T.);
#1189 = ORIENTED_EDGE('',*,*,#849,.F.);
#1190 = ORIENTED_EDGE('',*,*,#732,.T.);
#1191 = ORIENTED_EDGE('',*,*,#694,.F.);
#1192 = ORIENTED_EDGE('',*,*,#183,.F.);
#1193 = PLANE('',#1194);
#1194 = AXIS2_PLACEMENT_3D('',#1195,#1196,#1197);
#1195 = CARTESIAN_POINT('',(2.54,-4.710733431101E-16,25.4));
#1196 = DIRECTION('',(0.,0.,1.));
#1197 = DIRECTION('',(1.,0.,-0.));
#1198 = ADVANCED_FACE('',(#1199),#1235,.T.);
#1199 = FACE_BOUND('',#1200,.T.);
#1200 = EDGE_LOOP('',(#1201,#1202,#1203,#1204,#1205,#1206,#1207,#1208,
    #1209,#1210,#1211,#1212,#1213,#1214,#1215,#1216,#1217,#1218,#1219,
    #1220,#1221,#1222,#1223,#1224,#1225,#1226,#1227,#1228,#1229,#1230,
    #1231,#1232,#1233,#1234));
#1201 = ORIENTED_EDGE('',*,*,#92,.T.);
#1202 = ORIENTED_EDGE('',*,*,#174,.T.);
#1203 = ORIENTED_EDGE('',*,*,#685,.T.);
#1204 = ORIENTED_EDGE('',*,*,#716,.F.);
#1205 = ORIENTED_EDGE('',*,*,#840,.T.);
#1206 = ORIENTED_EDGE('',*,*,#918,.F.);
#1207 = ORIENTED_EDGE('',*,*,#958,.F.);
#1208 = ORIENTED_EDGE('',*,*,#1115,.T.);
#1209 = ORIENTED_EDGE('',*,*,#933,.F.);
#1210 = ORIENTED_EDGE('',*,*,#996,.T.);
#1211 = ORIENTED_EDGE('',*,*,#1099,.T.);
#1212 = ORIENTED_EDGE('',*,*,#1021,.T.);
#1213 = ORIENTED_EDGE('',*,*,#1066,.F.);
#1214 = ORIENTED_EDGE('',*,*,#871,.F.);
#1215 = ORIENTED_EDGE('',*,*,#21,.T.);
#1216 = ORIENTED_EDGE('',*,*,#61,.F.);
#1217 = ORIENTED_EDGE('',*,*,#491,.F.);
#1218 = ORIENTED_EDGE('',*,*,#230,.F.);
#1219 = ORIENTED_EDGE('',*,*,#273,.T.);
#1220 = ORIENTED_EDGE('',*,*,#304,.F.);
#1221 = ORIENTED_EDGE('',*,*,#335,.F.);
#1222 = ORIENTED_EDGE('',*,*,#366,.T.);
#1223 = ORIENTED_EDGE('',*,*,#406,.T.);
#1224 = ORIENTED_EDGE('',*,*,#453,.F.);
#1225 = ORIENTED_EDGE('',*,*,#531,.T.);
#1226 = ORIENTED_EDGE('',*,*,#428,.F.);
#1227 = ORIENTED_EDGE('',*,*,#614,.T.);
#1228 = ORIENTED_EDGE('',*,*,#556,.T.);
#1229 = ORIENTED_EDGE('',*,*,#637,.T.);
#1230 = ORIENTED_EDGE('',*,*,#796,.T.);
#1231 = ORIENTED_EDGE('',*,*,#818,.F.);
#1232 = ORIENTED_EDGE('',*,*,#747,.T.);
#1233 = ORIENTED_EDGE('',*,*,#654,.T.);
#1234 = ORIENTED_EDGE('',*,*,#143,.F.);
#1235 = PLANE('',#1236);
#1236 = AXIS2_PLACEMENT_3D('',#1237,#1238,#1239);
#1237 = CARTESIAN_POINT('',(2.54,-1.173311081445E-16,0.));
#1238 = DIRECTION('',(-0.,-0.,-1.));
#1239 = DIRECTION('',(-1.,0.,0.));
#1240 = ( GEOMETRIC_REPRESENTATION_CONTEXT(3) 
GLOBAL_UNCERTAINTY_ASSIGNED_CONTEXT((#1244)) 
GLOBAL_UNIT_ASSIGNED_CONTEXT((#1241,#1242,#1243)) REPRESENTATION_CONTEXT
('Context #1','3D Context with UNIT and UNCERTAINTY') );
#1241 = ( LENGTH_UNIT() NAMED_UNIT(*) SI_UNIT(.MILLI.,.METRE.) );
#1242 = ( NAMED_UNIT(*) PLANE_ANGLE_UNIT() SI_UNIT($,.RADIAN.) );
#1243 = ( NAMED_UNIT(*) SI_UNIT($,.STERADIAN.) SOLID_ANGLE_UNIT() );
#1244 = UNCERTAINTY_MEASURE_WITH_UNIT(LENGTH_MEASURE(1.E-07),#1241,
  'distance_accuracy_value','confusion accuracy');
#1245 = PRODUCT_RELATED_PRODUCT_CATEGORY('part',$,(#7));
ENDSEC;
END-ISO-10303-21;
