%TF.GenerationSoftware,KiCad,Pcbnew,10.0.3*%
%TF.CreationDate,2026-07-01T10:53:49-04:00*%
%TF.ProjectId,pm22V,706d3232-562e-46b6-9963-61645f706362,rev?*%
%TF.SameCoordinates,Original*%
%TF.FileFunction,Copper,L2,Bot*%
%TF.FilePolarity,Positive*%
%FSLAX46Y46*%
G04 Gerber Fmt 4.6, Leading zero omitted, Abs format (unit mm)*
G04 Created by KiCad (PCBNEW 10.0.3) date 2026-07-01 10:53:49*
%MOMM*%
%LPD*%
G01*
G04 APERTURE LIST*
G04 Aperture macros list*
%AMRoundRect*
0 Rectangle with rounded corners*
0 $1 Rounding radius*
0 $2 $3 $4 $5 $6 $7 $8 $9 X,Y pos of 4 corners*
0 Add a 4 corners polygon primitive as box body*
4,1,4,$2,$3,$4,$5,$6,$7,$8,$9,$2,$3,0*
0 Add four circle primitives for the rounded corners*
1,1,$1+$1,$2,$3*
1,1,$1+$1,$4,$5*
1,1,$1+$1,$6,$7*
1,1,$1+$1,$8,$9*
0 Add four rect primitives between the rounded corners*
20,1,$1+$1,$2,$3,$4,$5,0*
20,1,$1+$1,$4,$5,$6,$7,0*
20,1,$1+$1,$6,$7,$8,$9,0*
20,1,$1+$1,$8,$9,$2,$3,0*%
G04 Aperture macros list end*
%TA.AperFunction,ComponentPad*%
%ADD10R,2.000000X1.905000*%
%TD*%
%TA.AperFunction,ComponentPad*%
%ADD11O,2.000000X1.905000*%
%TD*%
%TA.AperFunction,ComponentPad*%
%ADD12RoundRect,0.250001X-0.949999X-0.949999X0.949999X-0.949999X0.949999X0.949999X-0.949999X0.949999X0*%
%TD*%
%TA.AperFunction,ComponentPad*%
%ADD13C,2.400000*%
%TD*%
%TA.AperFunction,ComponentPad*%
%ADD14R,2.800000X2.800000*%
%TD*%
%TA.AperFunction,ComponentPad*%
%ADD15C,2.800000*%
%TD*%
%TA.AperFunction,ComponentPad*%
%ADD16RoundRect,0.249999X0.850001X-0.850001X0.850001X0.850001X-0.850001X0.850001X-0.850001X-0.850001X0*%
%TD*%
%TA.AperFunction,ComponentPad*%
%ADD17C,2.200000*%
%TD*%
%TA.AperFunction,ComponentPad*%
%ADD18C,6.000000*%
%TD*%
%TA.AperFunction,ComponentPad*%
%ADD19RoundRect,0.250001X0.949999X0.949999X-0.949999X0.949999X-0.949999X-0.949999X0.949999X-0.949999X0*%
%TD*%
%TA.AperFunction,ComponentPad*%
%ADD20RoundRect,0.249999X-0.850001X0.850001X-0.850001X-0.850001X0.850001X-0.850001X0.850001X0.850001X0*%
%TD*%
%TA.AperFunction,ComponentPad*%
%ADD21RoundRect,0.250000X1.050000X1.050000X-1.050000X1.050000X-1.050000X-1.050000X1.050000X-1.050000X0*%
%TD*%
%TA.AperFunction,ComponentPad*%
%ADD22C,2.600000*%
%TD*%
%TA.AperFunction,ComponentPad*%
%ADD23C,5.000000*%
%TD*%
%TA.AperFunction,ComponentPad*%
%ADD24RoundRect,0.249999X0.525001X-0.525001X0.525001X0.525001X-0.525001X0.525001X-0.525001X-0.525001X0*%
%TD*%
%TA.AperFunction,ComponentPad*%
%ADD25C,1.550000*%
%TD*%
%TA.AperFunction,ViaPad*%
%ADD26C,0.800000*%
%TD*%
%TA.AperFunction,Conductor*%
%ADD27C,2.500000*%
%TD*%
%TA.AperFunction,Conductor*%
%ADD28C,1.500000*%
%TD*%
G04 APERTURE END LIST*
D10*
%TO.P,Q1,1,D_1*%
%TO.N,/RAW22+*%
X146000000Y-71920000D03*
D11*
%TO.P,Q1,2,G_2*%
%TO.N,Net-(D3-K)*%
X146000000Y-74460000D03*
%TO.P,Q1,3,S_3*%
%TO.N,/+18VNF*%
X146000000Y-77000000D03*
%TD*%
D12*
%TO.P,C10,1*%
%TO.N,/RAW22+*%
X196300000Y-123500000D03*
D13*
%TO.P,C10,2*%
%TO.N,GND*%
X203800000Y-123500000D03*
%TD*%
%TO.P,R2,1*%
%TO.N,/RAW22+*%
X107000000Y-50140000D03*
%TO.P,R2,2*%
%TO.N,/+18VNF*%
X107000000Y-95860000D03*
%TD*%
D14*
%TO.P,D1,1,+_1*%
%TO.N,/RAW22+*%
X205000000Y-91600000D03*
D15*
%TO.P,D1,2*%
%TO.N,+18Vac*%
X205000000Y-80000000D03*
%TO.P,D1,3*%
%TO.N,-18Vac*%
X187000000Y-80000000D03*
%TO.P,D1,4,-_4*%
%TO.N,/RAW22-*%
X187000000Y-98000000D03*
%TD*%
D16*
%TO.P,D2,1,K_1*%
%TO.N,/-18VNF*%
X176000000Y-118000000D03*
D17*
%TO.P,D2,2,A_2*%
%TO.N,Net-(D2-A)*%
X176000000Y-107840000D03*
%TD*%
D13*
%TO.P,R3,1*%
%TO.N,/RAW22-*%
X128000000Y-62280000D03*
%TO.P,R3,2*%
%TO.N,/-18VNF*%
X128000000Y-108000000D03*
%TD*%
D18*
%TO.P,HS1,1*%
%TO.N,N/C*%
X150000000Y-87000000D03*
X150000000Y-61600000D03*
%TD*%
D19*
%TO.P,C4,1*%
%TO.N,GND*%
X103500000Y-109000000D03*
D13*
%TO.P,C4,2*%
%TO.N,/-18VNF*%
X96000000Y-109000000D03*
%TD*%
D20*
%TO.P,D3,1,K_1*%
%TO.N,Net-(D3-K)*%
X159000000Y-68920000D03*
D17*
%TO.P,D3,2,A_2*%
%TO.N,/+18VNF*%
X159000000Y-79080000D03*
%TD*%
D12*
%TO.P,C5,1*%
%TO.N,+18V*%
X77522220Y-117000000D03*
D13*
%TO.P,C5,2*%
%TO.N,GND*%
X85022220Y-117000000D03*
%TD*%
D12*
%TO.P,C3,1*%
%TO.N,/+18VNF*%
X96522220Y-131000000D03*
D13*
%TO.P,C3,2*%
%TO.N,GND*%
X104022220Y-131000000D03*
%TD*%
D18*
%TO.P,HS2,1*%
%TO.N,N/C*%
X167000000Y-125000000D03*
X167000000Y-99600000D03*
%TD*%
D21*
%TO.P,J5,1,Pin_1_1*%
%TO.N,-18Vac*%
X209000000Y-65000000D03*
D22*
%TO.P,J5,2,Pin_2_2*%
%TO.N,GND*%
X203920000Y-65000000D03*
%TO.P,J5,3,Pin_3_3*%
%TO.N,+18Vac*%
X198840000Y-65000000D03*
%TD*%
D10*
%TO.P,Q2,1,D_1*%
%TO.N,/RAW22-*%
X163000000Y-109920000D03*
D11*
%TO.P,Q2,2,G_2*%
%TO.N,Net-(D2-A)*%
X163000000Y-112460000D03*
%TO.P,Q2,3,S_3*%
%TO.N,/-18VNF*%
X163000000Y-115000000D03*
%TD*%
D12*
%TO.P,C9,1*%
%TO.N,GND*%
X144100000Y-126200000D03*
D13*
%TO.P,C9,2*%
%TO.N,/RAW22-*%
X151600000Y-126200000D03*
%TD*%
D19*
%TO.P,C6,1*%
%TO.N,GND*%
X85500000Y-85000000D03*
D13*
%TO.P,C6,2*%
%TO.N,-18V*%
X78000000Y-85000000D03*
%TD*%
D23*
%TO.P,J6,P1,P1_P1*%
%TO.N,unconnected-(J6-PadP1)*%
X62830000Y-131830000D03*
%TO.P,J6,P2,P2_P2*%
%TO.N,unconnected-(J6-PadP2)*%
X62830000Y-124210000D03*
%TO.P,J6,P3,P3_P3*%
%TO.N,unconnected-(J6-PadP3)*%
X62830000Y-116590000D03*
%TO.P,J6,P4,P4_P4*%
%TO.N,unconnected-(J6-PadP4)*%
X62830000Y-108970000D03*
%TO.P,J6,P5,P5_P5*%
%TO.N,+18V*%
X62830000Y-81030000D03*
%TO.P,J6,P6,P6_P6*%
%TO.N,GND*%
X62830000Y-73410000D03*
%TO.P,J6,P7,P7_P7*%
%TO.N,-18V*%
X62830000Y-65790000D03*
%TO.P,J6,P8,P8_P8*%
%TO.N,GND*%
X62830000Y-58170000D03*
D24*
%TO.P,J6,a13,a13_a13*%
%TO.N,unconnected-(J6-Pada13)*%
X60290000Y-103890000D03*
D25*
%TO.P,J6,a14,a14_a14*%
%TO.N,unconnected-(J6-Pada14)*%
X60290000Y-101350000D03*
%TO.P,J6,a15,a15_a15*%
%TO.N,unconnected-(J6-Pada15)*%
X60290000Y-98810000D03*
%TO.P,J6,a16,a16_a16*%
%TO.N,unconnected-(J6-Pada16)*%
X60290000Y-96270000D03*
%TO.P,J6,a17,a17_a17*%
%TO.N,unconnected-(J6-Pada17)*%
X60290000Y-93730000D03*
%TO.P,J6,a18,a18_a18*%
%TO.N,unconnected-(J6-Pada18)*%
X60290000Y-91190000D03*
%TO.P,J6,a19,a19_a19*%
%TO.N,unconnected-(J6-Pada19)*%
X60290000Y-88650000D03*
%TO.P,J6,a20,a20_a20*%
%TO.N,unconnected-(J6-Pada20)*%
X60290000Y-86110000D03*
%TO.P,J6,b13,b13_b13*%
%TO.N,unconnected-(J6-Padb13)*%
X62830000Y-103890000D03*
%TO.P,J6,b14,b14_b14*%
%TO.N,unconnected-(J6-Padb14)*%
X62830000Y-101350000D03*
%TO.P,J6,b15,b15_b15*%
%TO.N,unconnected-(J6-Padb15)*%
X62830000Y-98810000D03*
%TO.P,J6,b16,b16_b16*%
%TO.N,unconnected-(J6-Padb16)*%
X62830000Y-96270000D03*
%TO.P,J6,b17,b17_b17*%
%TO.N,unconnected-(J6-Padb17)*%
X62830000Y-93730000D03*
%TO.P,J6,b18,b18_b18*%
%TO.N,unconnected-(J6-Padb18)*%
X62830000Y-91190000D03*
%TO.P,J6,b19,b19_b19*%
%TO.N,unconnected-(J6-Padb19)*%
X62830000Y-88650000D03*
%TO.P,J6,b20,b20_b20*%
%TO.N,unconnected-(J6-Padb20)*%
X62830000Y-86110000D03*
%TO.P,J6,c13,c13_c13*%
%TO.N,unconnected-(J6-Padc13)*%
X65370000Y-103890000D03*
%TO.P,J6,c14,c14_c14*%
%TO.N,unconnected-(J6-Padc14)*%
X65370000Y-101350000D03*
%TO.P,J6,c15,c15_c15*%
%TO.N,unconnected-(J6-Padc15)*%
X65370000Y-98810000D03*
%TO.P,J6,c16,c16_c16*%
%TO.N,unconnected-(J6-Padc16)*%
X65370000Y-96270000D03*
%TO.P,J6,c17,c17_c17*%
%TO.N,unconnected-(J6-Padc17)*%
X65370000Y-93730000D03*
%TO.P,J6,c18,c18_c18*%
%TO.N,unconnected-(J6-Padc18)*%
X65370000Y-91190000D03*
%TO.P,J6,c19,c19_c19*%
%TO.N,unconnected-(J6-Padc19)*%
X65370000Y-88650000D03*
%TO.P,J6,c20,c20_c20*%
%TO.N,unconnected-(J6-Padc20)*%
X65370000Y-86110000D03*
%TD*%
D26*
%TO.N,GND*%
X66700000Y-61600000D03*
X190300000Y-67100000D03*
X158000000Y-122600000D03*
X82300000Y-50200000D03*
X117500000Y-78300000D03*
X113500000Y-141300000D03*
X203200000Y-52100000D03*
X66500000Y-49600000D03*
X186300000Y-110900000D03*
X113300000Y-121300000D03*
X77900000Y-105700000D03*
X201000000Y-89500000D03*
X131400000Y-126000000D03*
X176200000Y-66900000D03*
X208300000Y-110800000D03*
X184500000Y-140900000D03*
X97700000Y-50400000D03*
X96900000Y-75600000D03*
X134300000Y-52200000D03*
X97400000Y-63400000D03*
X117100000Y-94800000D03*
X157800000Y-140500000D03*
X154200000Y-53500000D03*
X175100000Y-54000000D03*
X190700000Y-85600000D03*
X66500000Y-54600000D03*
X73300000Y-127100000D03*
X137300000Y-91700000D03*
X81400000Y-74300000D03*
X81200000Y-55300000D03*
X165400000Y-66800000D03*
X212000000Y-96900000D03*
X185200000Y-127500000D03*
X116700000Y-64500000D03*
X192000000Y-100400000D03*
X97300000Y-98500000D03*
X97300000Y-89200000D03*
X97500000Y-56600000D03*
X141300000Y-105700000D03*
X208900000Y-128600000D03*
X131200000Y-140200000D03*
X83000000Y-95200000D03*
X93300000Y-119100000D03*
X196100000Y-83700000D03*
X93100000Y-140500000D03*
X209100000Y-141100000D03*
X74300000Y-139500000D03*
X81200000Y-63200000D03*
%TD*%
%TO.N,/RAW22+*%
D27*
X146000000Y-71920000D02*
X142620000Y-71920000D01*
X120840000Y-50140000D02*
X107000000Y-50140000D01*
X142620000Y-71920000D02*
X120840000Y-50140000D01*
%TO.N,Net-(D3-K)*%
D28*
X153460000Y-74460000D02*
X159000000Y-68920000D01*
X146000000Y-74460000D02*
X153460000Y-74460000D01*
%TO.N,/+18VNF*%
D27*
X146000000Y-77000000D02*
X156920000Y-77000000D01*
X99600000Y-128300000D02*
X99222220Y-128300000D01*
X99222220Y-128300000D02*
X96522220Y-131000000D01*
X99600000Y-101900000D02*
X99600000Y-128300000D01*
X125860000Y-77000000D02*
X107000000Y-95860000D01*
X146000000Y-77000000D02*
X125860000Y-77000000D01*
X156920000Y-77000000D02*
X159000000Y-79080000D01*
X105640000Y-95860000D02*
X99600000Y-101900000D01*
X107000000Y-95860000D02*
X105640000Y-95860000D01*
%TO.N,-18Vac*%
D28*
X206000000Y-74000000D02*
X193000000Y-74000000D01*
X193000000Y-74000000D02*
X187000000Y-80000000D01*
X209000000Y-65000000D02*
X209000000Y-71000000D01*
X209000000Y-71000000D02*
X206000000Y-74000000D01*
%TO.N,/RAW22-*%
D27*
X163000000Y-109920000D02*
X160480000Y-109920000D01*
X160480000Y-109920000D02*
X151600000Y-118800000D01*
X151600000Y-118800000D02*
X151600000Y-126200000D01*
%TD*%
%TA.AperFunction,Conductor*%
%TO.N,GND*%
G36*
X212685370Y-45080346D02*
G01*
X212984148Y-45166423D01*
X212997272Y-45171016D01*
X213295215Y-45294427D01*
X213307737Y-45300456D01*
X213590006Y-45456461D01*
X213601779Y-45463859D01*
X213864789Y-45650475D01*
X213875649Y-45659135D01*
X214116127Y-45874039D01*
X214125960Y-45883872D01*
X214340859Y-46124344D01*
X214349528Y-46135216D01*
X214536139Y-46398219D01*
X214543538Y-46409993D01*
X214699539Y-46692255D01*
X214705572Y-46704784D01*
X214828983Y-47002727D01*
X214833576Y-47015851D01*
X214919654Y-47314630D01*
X214924500Y-47348958D01*
X214924500Y-142651040D01*
X214919654Y-142685368D01*
X214833576Y-142984148D01*
X214828983Y-142997272D01*
X214705572Y-143295215D01*
X214699539Y-143307744D01*
X214543538Y-143590006D01*
X214536139Y-143601780D01*
X214349528Y-143864783D01*
X214340859Y-143875655D01*
X214125960Y-144116127D01*
X214116127Y-144125960D01*
X213875655Y-144340859D01*
X213864783Y-144349528D01*
X213601780Y-144536139D01*
X213590006Y-144543538D01*
X213307744Y-144699539D01*
X213295215Y-144705572D01*
X212997272Y-144828983D01*
X212984148Y-144833576D01*
X212685370Y-144919654D01*
X212651042Y-144924500D01*
X57348958Y-144924500D01*
X57314630Y-144919654D01*
X57015851Y-144833576D01*
X57002727Y-144828983D01*
X56704784Y-144705572D01*
X56692255Y-144699539D01*
X56409993Y-144543538D01*
X56398219Y-144536139D01*
X56135216Y-144349528D01*
X56124344Y-144340859D01*
X55883872Y-144125960D01*
X55874039Y-144116127D01*
X55659140Y-143875655D01*
X55650475Y-143864789D01*
X55463859Y-143601779D01*
X55456461Y-143590006D01*
X55300460Y-143307744D01*
X55294427Y-143295215D01*
X55171016Y-142997272D01*
X55166423Y-142984148D01*
X55080346Y-142685368D01*
X55075500Y-142651040D01*
X55075500Y-139337805D01*
X56324500Y-139337805D01*
X56324500Y-139562194D01*
X56359599Y-139783805D01*
X56428938Y-139997206D01*
X56530805Y-140197128D01*
X56662683Y-140378644D01*
X56662687Y-140378649D01*
X56821350Y-140537312D01*
X56821355Y-140537316D01*
X56979683Y-140652347D01*
X57002875Y-140669197D01*
X57130264Y-140734105D01*
X57202793Y-140771061D01*
X57202795Y-140771061D01*
X57202798Y-140771063D01*
X57317184Y-140808229D01*
X57416194Y-140840400D01*
X57637806Y-140875500D01*
X57637811Y-140875500D01*
X57862194Y-140875500D01*
X58083805Y-140840400D01*
X58297202Y-140771063D01*
X58497125Y-140669197D01*
X58678651Y-140537311D01*
X58837311Y-140378651D01*
X58969197Y-140197125D01*
X59071063Y-139997202D01*
X59140400Y-139783805D01*
X59175500Y-139562194D01*
X59175500Y-139337805D01*
X59140400Y-139116194D01*
X59071061Y-138902793D01*
X59034105Y-138830264D01*
X58969197Y-138702875D01*
X58952347Y-138679683D01*
X58837316Y-138521355D01*
X58837312Y-138521350D01*
X58678649Y-138362687D01*
X58678644Y-138362683D01*
X58497128Y-138230805D01*
X58497127Y-138230804D01*
X58497125Y-138230803D01*
X58434692Y-138198992D01*
X58297206Y-138128938D01*
X58083805Y-138059599D01*
X57862194Y-138024500D01*
X57862189Y-138024500D01*
X57637811Y-138024500D01*
X57637806Y-138024500D01*
X57416194Y-138059599D01*
X57202793Y-138128938D01*
X57002871Y-138230805D01*
X56821355Y-138362683D01*
X56821350Y-138362687D01*
X56662687Y-138521350D01*
X56662683Y-138521355D01*
X56530805Y-138702871D01*
X56428938Y-138902793D01*
X56359599Y-139116194D01*
X56324500Y-139337805D01*
X55075500Y-139337805D01*
X55075500Y-131667106D01*
X59929500Y-131667106D01*
X59929500Y-131992893D01*
X59965974Y-132316604D01*
X59965976Y-132316620D01*
X60038467Y-132634226D01*
X60038471Y-132634238D01*
X60146066Y-132941725D01*
X60287413Y-133235234D01*
X60287415Y-133235237D01*
X60460739Y-133511081D01*
X60663857Y-133765783D01*
X60894217Y-133996143D01*
X61148919Y-134199261D01*
X61424763Y-134372585D01*
X61718278Y-134513935D01*
X61949217Y-134594744D01*
X62025761Y-134621528D01*
X62025773Y-134621532D01*
X62343383Y-134694024D01*
X62667106Y-134730499D01*
X62667107Y-134730500D01*
X62667111Y-134730500D01*
X62992893Y-134730500D01*
X62992893Y-134730499D01*
X63316617Y-134694024D01*
X63634227Y-134621532D01*
X63941722Y-134513935D01*
X64235237Y-134372585D01*
X64511081Y-134199261D01*
X64765783Y-133996143D01*
X64996143Y-133765783D01*
X65199261Y-133511081D01*
X65372585Y-133235237D01*
X65513935Y-132941722D01*
X65621532Y-132634227D01*
X65694024Y-132316617D01*
X65730500Y-131992889D01*
X65730500Y-131667111D01*
X65694024Y-131343383D01*
X65621532Y-131025773D01*
X65612514Y-131000000D01*
X65579687Y-130906186D01*
X65567061Y-130870103D01*
X94871720Y-130870103D01*
X94871720Y-131129896D01*
X94912360Y-131386493D01*
X94915650Y-131396615D01*
X94921720Y-131434937D01*
X94921720Y-132015701D01*
X94924621Y-132052567D01*
X94924622Y-132052573D01*
X94970473Y-132210392D01*
X94970475Y-132210395D01*
X95054137Y-132351861D01*
X95054143Y-132351869D01*
X95170350Y-132468076D01*
X95170354Y-132468079D01*
X95170356Y-132468081D01*
X95311823Y-132551744D01*
X95311824Y-132551744D01*
X95311827Y-132551746D01*
X95469646Y-132597597D01*
X95469649Y-132597597D01*
X95469651Y-132597598D01*
X95506526Y-132600500D01*
X96087282Y-132600500D01*
X96125601Y-132606569D01*
X96135726Y-132609859D01*
X96157048Y-132613236D01*
X96392323Y-132650500D01*
X96392324Y-132650500D01*
X96652116Y-132650500D01*
X96652117Y-132650500D01*
X96908713Y-132609859D01*
X96918839Y-132606569D01*
X96957158Y-132600500D01*
X97537906Y-132600500D01*
X97537914Y-132600500D01*
X97574789Y-132597598D01*
X97574791Y-132597597D01*
X97574793Y-132597597D01*
X97732612Y-132551746D01*
X97732613Y-132551745D01*
X97732617Y-132551744D01*
X97874084Y-132468081D01*
X97990301Y-132351864D01*
X98073964Y-132210397D01*
X98073965Y-132210392D01*
X98073966Y-132210392D01*
X98119817Y-132052573D01*
X98119818Y-132052567D01*
X98122719Y-132015701D01*
X98122720Y-132015694D01*
X98122720Y-131785020D01*
X98142405Y-131717981D01*
X98159034Y-131697344D01*
X98967803Y-130888575D01*
X102322220Y-130888575D01*
X102322220Y-131111424D01*
X102351305Y-131332354D01*
X102351308Y-131332367D01*
X102408983Y-131547618D01*
X102494265Y-131753502D01*
X102494274Y-131753520D01*
X102605684Y-131946491D01*
X102605693Y-131946504D01*
X102656260Y-132012403D01*
X102656263Y-132012403D01*
X103457607Y-131211059D01*
X103463109Y-131231591D01*
X103542101Y-131368408D01*
X103653812Y-131480119D01*
X103790629Y-131559111D01*
X103811160Y-131564612D01*
X103009815Y-132365955D01*
X103009815Y-132365956D01*
X103075727Y-132416533D01*
X103268705Y-132527949D01*
X103268717Y-132527954D01*
X103474601Y-132613236D01*
X103689852Y-132670911D01*
X103689865Y-132670914D01*
X103910795Y-132700000D01*
X104133645Y-132700000D01*
X104354574Y-132670914D01*
X104354587Y-132670911D01*
X104569838Y-132613236D01*
X104775722Y-132527954D01*
X104775734Y-132527949D01*
X104968718Y-132416530D01*
X105034623Y-132365957D01*
X105034624Y-132365956D01*
X104233279Y-131564612D01*
X104253811Y-131559111D01*
X104390628Y-131480119D01*
X104502339Y-131368408D01*
X104581331Y-131231591D01*
X104586832Y-131211059D01*
X105388176Y-132012404D01*
X105388177Y-132012403D01*
X105438750Y-131946498D01*
X105550169Y-131753514D01*
X105550174Y-131753502D01*
X105635456Y-131547618D01*
X105693131Y-131332367D01*
X105693134Y-131332354D01*
X105722220Y-131111424D01*
X105722220Y-130888575D01*
X105693134Y-130667645D01*
X105693131Y-130667632D01*
X105635456Y-130452381D01*
X105550174Y-130246497D01*
X105550169Y-130246485D01*
X105438753Y-130053507D01*
X105388176Y-129987595D01*
X105388175Y-129987595D01*
X104586832Y-130788939D01*
X104581331Y-130768409D01*
X104502339Y-130631592D01*
X104390628Y-130519881D01*
X104253811Y-130440889D01*
X104233278Y-130435387D01*
X105034623Y-129634043D01*
X105034623Y-129634040D01*
X104968724Y-129583473D01*
X104968711Y-129583464D01*
X104775740Y-129472054D01*
X104775722Y-129472045D01*
X104569838Y-129386763D01*
X104354587Y-129329088D01*
X104354574Y-129329085D01*
X104133645Y-129300000D01*
X103910795Y-129300000D01*
X103689865Y-129329085D01*
X103689852Y-129329088D01*
X103474601Y-129386763D01*
X103268717Y-129472045D01*
X103268699Y-129472054D01*
X103075731Y-129583462D01*
X103009815Y-129634042D01*
X103811161Y-130435387D01*
X103790629Y-130440889D01*
X103653812Y-130519881D01*
X103542101Y-130631592D01*
X103463109Y-130768409D01*
X103457607Y-130788940D01*
X102656262Y-129987595D01*
X102605682Y-130053511D01*
X102494274Y-130246479D01*
X102494265Y-130246497D01*
X102408983Y-130452381D01*
X102351308Y-130667632D01*
X102351305Y-130667645D01*
X102322220Y-130888575D01*
X98967803Y-130888575D01*
X99910507Y-129945870D01*
X99971828Y-129912387D01*
X99978782Y-129911081D01*
X99986493Y-129909860D01*
X100233572Y-129829579D01*
X100465051Y-129711634D01*
X100675229Y-129558931D01*
X100858931Y-129375229D01*
X101011634Y-129165051D01*
X101129579Y-128933572D01*
X101209860Y-128686493D01*
X101232539Y-128543298D01*
X101250500Y-128429902D01*
X101250500Y-125200014D01*
X142400000Y-125200014D01*
X142400000Y-125950000D01*
X143551518Y-125950000D01*
X143540889Y-125968409D01*
X143500000Y-126121009D01*
X143500000Y-126278991D01*
X143540889Y-126431591D01*
X143551518Y-126450000D01*
X142400000Y-126450000D01*
X142400000Y-127199985D01*
X142410493Y-127302689D01*
X142410494Y-127302696D01*
X142465641Y-127469118D01*
X142465643Y-127469123D01*
X142557684Y-127618344D01*
X142681655Y-127742315D01*
X142830876Y-127834356D01*
X142830881Y-127834358D01*
X142997303Y-127889505D01*
X142997310Y-127889506D01*
X143100014Y-127899999D01*
X143100027Y-127900000D01*
X143850000Y-127900000D01*
X143850000Y-126748482D01*
X143868409Y-126759111D01*
X144021009Y-126800000D01*
X144178991Y-126800000D01*
X144331591Y-126759111D01*
X144350000Y-126748482D01*
X144350000Y-127900000D01*
X145099973Y-127900000D01*
X145099985Y-127899999D01*
X145202689Y-127889506D01*
X145202696Y-127889505D01*
X145369118Y-127834358D01*
X145369123Y-127834356D01*
X145518344Y-127742315D01*
X145642315Y-127618344D01*
X145734356Y-127469123D01*
X145734358Y-127469118D01*
X145789505Y-127302696D01*
X145789506Y-127302689D01*
X145799999Y-127199985D01*
X145800000Y-127199972D01*
X145800000Y-126450000D01*
X144648482Y-126450000D01*
X144659111Y-126431591D01*
X144700000Y-126278991D01*
X144700000Y-126121009D01*
X144659111Y-125968409D01*
X144648482Y-125950000D01*
X145800000Y-125950000D01*
X145800000Y-125200027D01*
X145799999Y-125200014D01*
X145789506Y-125097310D01*
X145789505Y-125097303D01*
X145734358Y-124930881D01*
X145734356Y-124930876D01*
X145642315Y-124781655D01*
X145518344Y-124657684D01*
X145369123Y-124565643D01*
X145369118Y-124565641D01*
X145202696Y-124510494D01*
X145202689Y-124510493D01*
X145099985Y-124500000D01*
X144350000Y-124500000D01*
X144350000Y-125651517D01*
X144331591Y-125640889D01*
X144178991Y-125600000D01*
X144021009Y-125600000D01*
X143868409Y-125640889D01*
X143850000Y-125651517D01*
X143850000Y-124500000D01*
X143100014Y-124500000D01*
X142997310Y-124510493D01*
X142997303Y-124510494D01*
X142830881Y-124565641D01*
X142830876Y-124565643D01*
X142681655Y-124657684D01*
X142557684Y-124781655D01*
X142465643Y-124930876D01*
X142465641Y-124930881D01*
X142410494Y-125097303D01*
X142410493Y-125097310D01*
X142400000Y-125200014D01*
X101250500Y-125200014D01*
X101250500Y-118670097D01*
X149949500Y-118670097D01*
X149949500Y-126329902D01*
X149990140Y-126586493D01*
X150070422Y-126833576D01*
X150188368Y-127065054D01*
X150277111Y-127187198D01*
X150341069Y-127275229D01*
X150524771Y-127458931D01*
X150734949Y-127611634D01*
X150882445Y-127686787D01*
X150966423Y-127729577D01*
X150966425Y-127729577D01*
X150966428Y-127729579D01*
X151213507Y-127809860D01*
X151345706Y-127830797D01*
X151470098Y-127850500D01*
X151470103Y-127850500D01*
X151729902Y-127850500D01*
X151843298Y-127832539D01*
X151986493Y-127809860D01*
X152233572Y-127729579D01*
X152465051Y-127611634D01*
X152675229Y-127458931D01*
X152858931Y-127275229D01*
X153011634Y-127065051D01*
X153129579Y-126833572D01*
X153209860Y-126586493D01*
X153234394Y-126431591D01*
X153250500Y-126329902D01*
X153250500Y-124832944D01*
X163599500Y-124832944D01*
X163599500Y-125167056D01*
X163609344Y-125267004D01*
X163632247Y-125499548D01*
X163632250Y-125499565D01*
X163697425Y-125827230D01*
X163697428Y-125827241D01*
X163794418Y-126146977D01*
X163922278Y-126455656D01*
X163922280Y-126455661D01*
X164079769Y-126750303D01*
X164079780Y-126750321D01*
X164265393Y-127028109D01*
X164265403Y-127028123D01*
X164477361Y-127286395D01*
X164713604Y-127522638D01*
X164713609Y-127522642D01*
X164713610Y-127522643D01*
X164971882Y-127734601D01*
X165249685Y-127920224D01*
X165249694Y-127920229D01*
X165249696Y-127920230D01*
X165544338Y-128077719D01*
X165544340Y-128077719D01*
X165544346Y-128077723D01*
X165853024Y-128205582D01*
X166172749Y-128302569D01*
X166172755Y-128302570D01*
X166172758Y-128302571D01*
X166172769Y-128302574D01*
X166378243Y-128343444D01*
X166500441Y-128367751D01*
X166832944Y-128400500D01*
X166832947Y-128400500D01*
X167167053Y-128400500D01*
X167167056Y-128400500D01*
X167499559Y-128367751D01*
X167661757Y-128335487D01*
X167827230Y-128302574D01*
X167827241Y-128302571D01*
X167827241Y-128302570D01*
X167827251Y-128302569D01*
X168146976Y-128205582D01*
X168455654Y-128077723D01*
X168750315Y-127920224D01*
X169028118Y-127734601D01*
X169286390Y-127522643D01*
X169522643Y-127286390D01*
X169734601Y-127028118D01*
X169920224Y-126750315D01*
X170077723Y-126455654D01*
X170205582Y-126146976D01*
X170302569Y-125827251D01*
X170302571Y-125827241D01*
X170302574Y-125827230D01*
X170347772Y-125600000D01*
X170367751Y-125499559D01*
X170400500Y-125167056D01*
X170400500Y-124832944D01*
X170367751Y-124500441D01*
X170342379Y-124372889D01*
X170302574Y-124172769D01*
X170302571Y-124172758D01*
X170302570Y-124172755D01*
X170302569Y-124172749D01*
X170205582Y-123853024D01*
X170077723Y-123544346D01*
X170003654Y-123405773D01*
X169920230Y-123249696D01*
X169920229Y-123249694D01*
X169920224Y-123249685D01*
X169734601Y-122971882D01*
X169522643Y-122713610D01*
X169522642Y-122713609D01*
X169522638Y-122713604D01*
X169293332Y-122484298D01*
X194699500Y-122484298D01*
X194699500Y-124515701D01*
X194702401Y-124552567D01*
X194702402Y-124552573D01*
X194748253Y-124710392D01*
X194748255Y-124710395D01*
X194831917Y-124851861D01*
X194831923Y-124851869D01*
X194948130Y-124968076D01*
X194948134Y-124968079D01*
X194948136Y-124968081D01*
X195089603Y-125051744D01*
X195089604Y-125051744D01*
X195089607Y-125051746D01*
X195247426Y-125097597D01*
X195247429Y-125097597D01*
X195247431Y-125097598D01*
X195284306Y-125100500D01*
X195284314Y-125100500D01*
X197315686Y-125100500D01*
X197315694Y-125100500D01*
X197352569Y-125097598D01*
X197352571Y-125097597D01*
X197352573Y-125097597D01*
X197510392Y-125051746D01*
X197510393Y-125051745D01*
X197510397Y-125051744D01*
X197651864Y-124968081D01*
X197768081Y-124851864D01*
X197851744Y-124710397D01*
X197851745Y-124710392D01*
X197851746Y-124710392D01*
X197897597Y-124552573D01*
X197897598Y-124552567D01*
X197900499Y-124515701D01*
X197900500Y-124515694D01*
X197900500Y-123388575D01*
X202100000Y-123388575D01*
X202100000Y-123611424D01*
X202129085Y-123832354D01*
X202129088Y-123832367D01*
X202186763Y-124047618D01*
X202272045Y-124253502D01*
X202272054Y-124253520D01*
X202383464Y-124446491D01*
X202383473Y-124446504D01*
X202434040Y-124512403D01*
X202434043Y-124512403D01*
X203235387Y-123711059D01*
X203240889Y-123731591D01*
X203319881Y-123868408D01*
X203431592Y-123980119D01*
X203568409Y-124059111D01*
X203588940Y-124064612D01*
X202787595Y-124865955D01*
X202787595Y-124865956D01*
X202853507Y-124916533D01*
X203046485Y-125027949D01*
X203046497Y-125027954D01*
X203252381Y-125113236D01*
X203467632Y-125170911D01*
X203467645Y-125170914D01*
X203688575Y-125200000D01*
X203911425Y-125200000D01*
X204132354Y-125170914D01*
X204132367Y-125170911D01*
X204347618Y-125113236D01*
X204553502Y-125027954D01*
X204553514Y-125027949D01*
X204746498Y-124916530D01*
X204812403Y-124865957D01*
X204812404Y-124865956D01*
X204011059Y-124064612D01*
X204031591Y-124059111D01*
X204168408Y-123980119D01*
X204280119Y-123868408D01*
X204359111Y-123731591D01*
X204364612Y-123711059D01*
X205165956Y-124512404D01*
X205165957Y-124512403D01*
X205216530Y-124446498D01*
X205327949Y-124253514D01*
X205327954Y-124253502D01*
X205413236Y-124047618D01*
X205470911Y-123832367D01*
X205470914Y-123832354D01*
X205500000Y-123611424D01*
X205500000Y-123388575D01*
X205470914Y-123167645D01*
X205470911Y-123167632D01*
X205413236Y-122952381D01*
X205327954Y-122746497D01*
X205327949Y-122746485D01*
X205216533Y-122553507D01*
X205165956Y-122487595D01*
X205165955Y-122487595D01*
X204364612Y-123288939D01*
X204359111Y-123268409D01*
X204280119Y-123131592D01*
X204168408Y-123019881D01*
X204031591Y-122940889D01*
X204011058Y-122935387D01*
X204812403Y-122134043D01*
X204812403Y-122134040D01*
X204746504Y-122083473D01*
X204746491Y-122083464D01*
X204553520Y-121972054D01*
X204553502Y-121972045D01*
X204347618Y-121886763D01*
X204132367Y-121829088D01*
X204132354Y-121829085D01*
X203911425Y-121800000D01*
X203688575Y-121800000D01*
X203467645Y-121829085D01*
X203467632Y-121829088D01*
X203252381Y-121886763D01*
X203046497Y-121972045D01*
X203046479Y-121972054D01*
X202853511Y-122083462D01*
X202787595Y-122134042D01*
X203588941Y-122935387D01*
X203568409Y-122940889D01*
X203431592Y-123019881D01*
X203319881Y-123131592D01*
X203240889Y-123268409D01*
X203235387Y-123288940D01*
X202434042Y-122487595D01*
X202383462Y-122553511D01*
X202272054Y-122746479D01*
X202272045Y-122746497D01*
X202186763Y-122952381D01*
X202129088Y-123167632D01*
X202129085Y-123167645D01*
X202100000Y-123388575D01*
X197900500Y-123388575D01*
X197900500Y-122484306D01*
X197897598Y-122447431D01*
X197897597Y-122447426D01*
X197851746Y-122289607D01*
X197851744Y-122289604D01*
X197851744Y-122289603D01*
X197809854Y-122218772D01*
X197768085Y-122148141D01*
X197768076Y-122148130D01*
X197651869Y-122031923D01*
X197651861Y-122031917D01*
X197510395Y-121948255D01*
X197510392Y-121948253D01*
X197352573Y-121902402D01*
X197352567Y-121902401D01*
X197315701Y-121899500D01*
X197315694Y-121899500D01*
X195284306Y-121899500D01*
X195284298Y-121899500D01*
X195247432Y-121902401D01*
X195247426Y-121902402D01*
X195089607Y-121948253D01*
X195089604Y-121948255D01*
X194948138Y-122031917D01*
X194948130Y-122031923D01*
X194831923Y-122148130D01*
X194831917Y-122148138D01*
X194748255Y-122289604D01*
X194748253Y-122289607D01*
X194702402Y-122447426D01*
X194702401Y-122447432D01*
X194699500Y-122484298D01*
X169293332Y-122484298D01*
X169286395Y-122477361D01*
X169028123Y-122265403D01*
X169028122Y-122265402D01*
X169028118Y-122265399D01*
X168750315Y-122079776D01*
X168750310Y-122079773D01*
X168750303Y-122079769D01*
X168455661Y-121922280D01*
X168455656Y-121922278D01*
X168407671Y-121902402D01*
X168365247Y-121884829D01*
X168146977Y-121794418D01*
X167827241Y-121697428D01*
X167827230Y-121697425D01*
X167499565Y-121632250D01*
X167499548Y-121632247D01*
X167248108Y-121607483D01*
X167167056Y-121599500D01*
X166832944Y-121599500D01*
X166757982Y-121606883D01*
X166500451Y-121632247D01*
X166500434Y-121632250D01*
X166172769Y-121697425D01*
X166172758Y-121697428D01*
X165853022Y-121794418D01*
X165544343Y-121922278D01*
X165544338Y-121922280D01*
X165249696Y-122079769D01*
X165249678Y-122079780D01*
X164971890Y-122265393D01*
X164971876Y-122265403D01*
X164713604Y-122477361D01*
X164477361Y-122713604D01*
X164265403Y-122971876D01*
X164265393Y-122971890D01*
X164079780Y-123249678D01*
X164079769Y-123249696D01*
X163922280Y-123544338D01*
X163922278Y-123544343D01*
X163794418Y-123853022D01*
X163697428Y-124172758D01*
X163697425Y-124172769D01*
X163632250Y-124500434D01*
X163632247Y-124500451D01*
X163606883Y-124757982D01*
X163599500Y-124832944D01*
X153250500Y-124832944D01*
X153250500Y-119535021D01*
X153270185Y-119467982D01*
X153286819Y-119447340D01*
X155649862Y-117084297D01*
X174499500Y-117084297D01*
X174499500Y-118915682D01*
X174499501Y-118915707D01*
X174502402Y-118952570D01*
X174548254Y-119110394D01*
X174548255Y-119110397D01*
X174631916Y-119251861D01*
X174631923Y-119251870D01*
X174748129Y-119368076D01*
X174748138Y-119368083D01*
X174770879Y-119381532D01*
X174889601Y-119451744D01*
X174931223Y-119463836D01*
X175047425Y-119497597D01*
X175047428Y-119497597D01*
X175047430Y-119497598D01*
X175084305Y-119500500D01*
X176915694Y-119500499D01*
X176952570Y-119497598D01*
X177110399Y-119451744D01*
X177251865Y-119368081D01*
X177368081Y-119251865D01*
X177451744Y-119110399D01*
X177497598Y-118952570D01*
X177500500Y-118915695D01*
X177500499Y-117084306D01*
X177497598Y-117047430D01*
X177451744Y-116889601D01*
X177368081Y-116748135D01*
X177368079Y-116748133D01*
X177368076Y-116748129D01*
X177251870Y-116631923D01*
X177251861Y-116631916D01*
X177110397Y-116548255D01*
X177110394Y-116548254D01*
X176952574Y-116502402D01*
X176952568Y-116502401D01*
X176915695Y-116499500D01*
X175084317Y-116499500D01*
X175084292Y-116499501D01*
X175047429Y-116502402D01*
X174889605Y-116548254D01*
X174889602Y-116548255D01*
X174748138Y-116631916D01*
X174748129Y-116631923D01*
X174631923Y-116748129D01*
X174631916Y-116748138D01*
X174548255Y-116889602D01*
X174548254Y-116889605D01*
X174502402Y-117047425D01*
X174502401Y-117047431D01*
X174499500Y-117084297D01*
X155649862Y-117084297D01*
X161127340Y-111606819D01*
X161188663Y-111573334D01*
X161215021Y-111570500D01*
X161684865Y-111570500D01*
X161751904Y-111590185D01*
X161797659Y-111642989D01*
X161807603Y-111712147D01*
X161795350Y-111750795D01*
X161698624Y-111940627D01*
X161698623Y-111940630D01*
X161632815Y-112143170D01*
X161599500Y-112353511D01*
X161599500Y-112566488D01*
X161632815Y-112776829D01*
X161698623Y-112979369D01*
X161698624Y-112979372D01*
X161795310Y-113169127D01*
X161920489Y-113341421D01*
X162071079Y-113492011D01*
X162243373Y-113617190D01*
X162247790Y-113619440D01*
X162247938Y-113619516D01*
X162298733Y-113667491D01*
X162315527Y-113735313D01*
X162292988Y-113801447D01*
X162247938Y-113840484D01*
X162243372Y-113842810D01*
X162156310Y-113906065D01*
X162071079Y-113967989D01*
X162071077Y-113967991D01*
X162071076Y-113967991D01*
X161920491Y-114118576D01*
X161920491Y-114118577D01*
X161920489Y-114118579D01*
X161866729Y-114192572D01*
X161795310Y-114290872D01*
X161698624Y-114480627D01*
X161698623Y-114480630D01*
X161632815Y-114683170D01*
X161599500Y-114893511D01*
X161599500Y-115106488D01*
X161632815Y-115316829D01*
X161698623Y-115519369D01*
X161698624Y-115519372D01*
X161764236Y-115648141D01*
X161795310Y-115709127D01*
X161920489Y-115881421D01*
X162071079Y-116032011D01*
X162243373Y-116157190D01*
X162336442Y-116204611D01*
X162433127Y-116253875D01*
X162433130Y-116253876D01*
X162534400Y-116286780D01*
X162635672Y-116319685D01*
X162733092Y-116335114D01*
X162846012Y-116353000D01*
X162846017Y-116353000D01*
X163153988Y-116353000D01*
X163255958Y-116336848D01*
X163364328Y-116319685D01*
X163566872Y-116253875D01*
X163756627Y-116157190D01*
X163928921Y-116032011D01*
X164079511Y-115881421D01*
X164204690Y-115709127D01*
X164301375Y-115519372D01*
X164367185Y-115316828D01*
X164384348Y-115208458D01*
X164400500Y-115106488D01*
X164400500Y-114893511D01*
X164381118Y-114771146D01*
X164367185Y-114683172D01*
X164301375Y-114480628D01*
X164301375Y-114480627D01*
X164204689Y-114290872D01*
X164079511Y-114118579D01*
X163928921Y-113967989D01*
X163756627Y-113842810D01*
X163752066Y-113840486D01*
X163701269Y-113792514D01*
X163684472Y-113724693D01*
X163707007Y-113658557D01*
X163752066Y-113619514D01*
X163752297Y-113619396D01*
X163756627Y-113617190D01*
X163928921Y-113492011D01*
X164079511Y-113341421D01*
X164204690Y-113169127D01*
X164301375Y-112979372D01*
X164367185Y-112776828D01*
X164384348Y-112668458D01*
X164400500Y-112566488D01*
X164400500Y-112353511D01*
X164381118Y-112231146D01*
X164367185Y-112143172D01*
X164301375Y-111940628D01*
X164301375Y-111940627D01*
X164247058Y-111834025D01*
X164204690Y-111750873D01*
X164079511Y-111578579D01*
X163981234Y-111480302D01*
X163947749Y-111418979D01*
X163952733Y-111349287D01*
X163994605Y-111293354D01*
X164049516Y-111270148D01*
X164125304Y-111258146D01*
X164238342Y-111200550D01*
X164328050Y-111110842D01*
X164385646Y-110997804D01*
X164385646Y-110997802D01*
X164385647Y-110997801D01*
X164396282Y-110930647D01*
X164400500Y-110904019D01*
X164400499Y-110836674D01*
X164414013Y-110780380D01*
X164529579Y-110553572D01*
X164609860Y-110306493D01*
X164642139Y-110102689D01*
X164650500Y-110049902D01*
X164650500Y-109790097D01*
X164622669Y-109614383D01*
X164609860Y-109533507D01*
X164529579Y-109286428D01*
X164529577Y-109286425D01*
X164529577Y-109286423D01*
X164414014Y-109059620D01*
X164400499Y-109003325D01*
X164400499Y-108935982D01*
X164398128Y-108921009D01*
X164385646Y-108842196D01*
X164328050Y-108729158D01*
X164328046Y-108729154D01*
X164328045Y-108729152D01*
X164238347Y-108639454D01*
X164238344Y-108639452D01*
X164238342Y-108639450D01*
X164161517Y-108600305D01*
X164125301Y-108581852D01*
X164031524Y-108567000D01*
X164031519Y-108567000D01*
X163986044Y-108567000D01*
X163919005Y-108547315D01*
X163913158Y-108543318D01*
X163865051Y-108508366D01*
X163633576Y-108390422D01*
X163386493Y-108310140D01*
X163129902Y-108269500D01*
X163129897Y-108269500D01*
X160350103Y-108269500D01*
X160350098Y-108269500D01*
X160093506Y-108310140D01*
X159846423Y-108390422D01*
X159614945Y-108508368D01*
X159404774Y-108661066D01*
X159404768Y-108661071D01*
X150341071Y-117724768D01*
X150341071Y-117724769D01*
X150341069Y-117724771D01*
X150320195Y-117753502D01*
X150188365Y-117934948D01*
X150070420Y-118166426D01*
X150070418Y-118166432D01*
X150054554Y-118215260D01*
X150054554Y-118215261D01*
X149990140Y-118413505D01*
X149949500Y-118670097D01*
X101250500Y-118670097D01*
X101250500Y-108000014D01*
X101800000Y-108000014D01*
X101800000Y-108750000D01*
X102951518Y-108750000D01*
X102940889Y-108768409D01*
X102900000Y-108921009D01*
X102900000Y-109078991D01*
X102940889Y-109231591D01*
X102951518Y-109250000D01*
X101800000Y-109250000D01*
X101800000Y-109999985D01*
X101810493Y-110102689D01*
X101810494Y-110102696D01*
X101865641Y-110269118D01*
X101865643Y-110269123D01*
X101957684Y-110418344D01*
X102081655Y-110542315D01*
X102230876Y-110634356D01*
X102230881Y-110634358D01*
X102397303Y-110689505D01*
X102397310Y-110689506D01*
X102500014Y-110699999D01*
X102500027Y-110700000D01*
X103250000Y-110700000D01*
X103250000Y-109548482D01*
X103268409Y-109559111D01*
X103421009Y-109600000D01*
X103578991Y-109600000D01*
X103731591Y-109559111D01*
X103750000Y-109548482D01*
X103750000Y-110700000D01*
X104499973Y-110700000D01*
X104499985Y-110699999D01*
X104602689Y-110689506D01*
X104602696Y-110689505D01*
X104769118Y-110634358D01*
X104769123Y-110634356D01*
X104918344Y-110542315D01*
X105042315Y-110418344D01*
X105134356Y-110269123D01*
X105134358Y-110269118D01*
X105189505Y-110102696D01*
X105189506Y-110102689D01*
X105199999Y-109999985D01*
X105200000Y-109999972D01*
X105200000Y-109250000D01*
X104048482Y-109250000D01*
X104059111Y-109231591D01*
X104100000Y-109078991D01*
X104100000Y-108921009D01*
X104059111Y-108768409D01*
X104048482Y-108750000D01*
X105200000Y-108750000D01*
X105200000Y-108000027D01*
X105199999Y-108000014D01*
X105189506Y-107897307D01*
X105189506Y-107897306D01*
X105181796Y-107874038D01*
X126399500Y-107874038D01*
X126399500Y-108125962D01*
X126409859Y-108191368D01*
X126438910Y-108374785D01*
X126516760Y-108614383D01*
X126585861Y-108750000D01*
X126620260Y-108817512D01*
X126631132Y-108838848D01*
X126779201Y-109042649D01*
X126779205Y-109042654D01*
X126957345Y-109220794D01*
X126957350Y-109220798D01*
X127122107Y-109340500D01*
X127161155Y-109368870D01*
X127304184Y-109441747D01*
X127385616Y-109483239D01*
X127385618Y-109483239D01*
X127385621Y-109483241D01*
X127625215Y-109561090D01*
X127874038Y-109600500D01*
X127874039Y-109600500D01*
X128125961Y-109600500D01*
X128125962Y-109600500D01*
X128374785Y-109561090D01*
X128614379Y-109483241D01*
X128838845Y-109368870D01*
X129042656Y-109220793D01*
X129220793Y-109042656D01*
X129368870Y-108838845D01*
X129483241Y-108614379D01*
X129561090Y-108374785D01*
X129600500Y-108125962D01*
X129600500Y-107874038D01*
X129598003Y-107858274D01*
X129578706Y-107736433D01*
X129576404Y-107721902D01*
X174499500Y-107721902D01*
X174499500Y-107958097D01*
X174536446Y-108191368D01*
X174609433Y-108415996D01*
X174676344Y-108547315D01*
X174716657Y-108626433D01*
X174855483Y-108817510D01*
X175022490Y-108984517D01*
X175213567Y-109123343D01*
X175312991Y-109174002D01*
X175424003Y-109230566D01*
X175424005Y-109230566D01*
X175424008Y-109230568D01*
X175544412Y-109269689D01*
X175648631Y-109303553D01*
X175881903Y-109340500D01*
X175881908Y-109340500D01*
X176118097Y-109340500D01*
X176351368Y-109303553D01*
X176404073Y-109286428D01*
X176575992Y-109230568D01*
X176786433Y-109123343D01*
X176977510Y-108984517D01*
X177144517Y-108817510D01*
X177283343Y-108626433D01*
X177390568Y-108415992D01*
X177463553Y-108191368D01*
X177473912Y-108125962D01*
X177500500Y-107958097D01*
X177500500Y-107721902D01*
X177463553Y-107488631D01*
X177405672Y-107310493D01*
X177390568Y-107264008D01*
X177390566Y-107264005D01*
X177390566Y-107264003D01*
X177283342Y-107053566D01*
X177269284Y-107034217D01*
X177144517Y-106862490D01*
X176977510Y-106695483D01*
X176786433Y-106556657D01*
X176708129Y-106516759D01*
X176575996Y-106449433D01*
X176351368Y-106376446D01*
X176118097Y-106339500D01*
X176118092Y-106339500D01*
X175881908Y-106339500D01*
X175881903Y-106339500D01*
X175648631Y-106376446D01*
X175424003Y-106449433D01*
X175213566Y-106556657D01*
X175111064Y-106631130D01*
X175022490Y-106695483D01*
X175022488Y-106695485D01*
X175022487Y-106695485D01*
X174855485Y-106862487D01*
X174855485Y-106862488D01*
X174855483Y-106862490D01*
X174795862Y-106944550D01*
X174716657Y-107053566D01*
X174609433Y-107264003D01*
X174536446Y-107488631D01*
X174499500Y-107721902D01*
X129576404Y-107721902D01*
X129561090Y-107625214D01*
X129506656Y-107457684D01*
X129483241Y-107385621D01*
X129483239Y-107385618D01*
X129483239Y-107385616D01*
X129421276Y-107264008D01*
X129368870Y-107161155D01*
X129290702Y-107053566D01*
X129220798Y-106957350D01*
X129220794Y-106957345D01*
X129042654Y-106779205D01*
X129042649Y-106779201D01*
X128838848Y-106631132D01*
X128838847Y-106631131D01*
X128838845Y-106631130D01*
X128768747Y-106595413D01*
X128614383Y-106516760D01*
X128374785Y-106438910D01*
X128302196Y-106427413D01*
X128125962Y-106399500D01*
X127874038Y-106399500D01*
X127749626Y-106419205D01*
X127625214Y-106438910D01*
X127385616Y-106516760D01*
X127161151Y-106631132D01*
X126957350Y-106779201D01*
X126957345Y-106779205D01*
X126779205Y-106957345D01*
X126779201Y-106957350D01*
X126631132Y-107161151D01*
X126516760Y-107385616D01*
X126438910Y-107625214D01*
X126438910Y-107625215D01*
X126399500Y-107874038D01*
X105181796Y-107874038D01*
X105134358Y-107730881D01*
X105134356Y-107730876D01*
X105042315Y-107581655D01*
X104918344Y-107457684D01*
X104769123Y-107365643D01*
X104769118Y-107365641D01*
X104602696Y-107310494D01*
X104602689Y-107310493D01*
X104499985Y-107300000D01*
X103750000Y-107300000D01*
X103750000Y-108451517D01*
X103731591Y-108440889D01*
X103578991Y-108400000D01*
X103421009Y-108400000D01*
X103268409Y-108440889D01*
X103250000Y-108451517D01*
X103250000Y-107300000D01*
X102500014Y-107300000D01*
X102397310Y-107310493D01*
X102397303Y-107310494D01*
X102230881Y-107365641D01*
X102230876Y-107365643D01*
X102081655Y-107457684D01*
X101957684Y-107581655D01*
X101865643Y-107730876D01*
X101865641Y-107730881D01*
X101810494Y-107897303D01*
X101810493Y-107897310D01*
X101800000Y-108000014D01*
X101250500Y-108000014D01*
X101250500Y-102635022D01*
X101270185Y-102567983D01*
X101286819Y-102547341D01*
X104401216Y-99432944D01*
X163599500Y-99432944D01*
X163599500Y-99767056D01*
X163609344Y-99867004D01*
X163632247Y-100099548D01*
X163632250Y-100099565D01*
X163697425Y-100427230D01*
X163697428Y-100427241D01*
X163794418Y-100746977D01*
X163922278Y-101055656D01*
X163922280Y-101055661D01*
X164079769Y-101350303D01*
X164079780Y-101350321D01*
X164265393Y-101628109D01*
X164265403Y-101628123D01*
X164477361Y-101886395D01*
X164713604Y-102122638D01*
X164713609Y-102122642D01*
X164713610Y-102122643D01*
X164971882Y-102334601D01*
X165249685Y-102520224D01*
X165249694Y-102520229D01*
X165249696Y-102520230D01*
X165544338Y-102677719D01*
X165544340Y-102677719D01*
X165544346Y-102677723D01*
X165853024Y-102805582D01*
X166172749Y-102902569D01*
X166172755Y-102902570D01*
X166172758Y-102902571D01*
X166172769Y-102902574D01*
X166378243Y-102943444D01*
X166500441Y-102967751D01*
X166832944Y-103000500D01*
X166832947Y-103000500D01*
X167167053Y-103000500D01*
X167167056Y-103000500D01*
X167499559Y-102967751D01*
X167661757Y-102935487D01*
X167827230Y-102902574D01*
X167827241Y-102902571D01*
X167827241Y-102902570D01*
X167827251Y-102902569D01*
X168146976Y-102805582D01*
X168455654Y-102677723D01*
X168750315Y-102520224D01*
X169028118Y-102334601D01*
X169286390Y-102122643D01*
X169522643Y-101886390D01*
X169734601Y-101628118D01*
X169920224Y-101350315D01*
X170077723Y-101055654D01*
X170205582Y-100746976D01*
X170302569Y-100427251D01*
X170302571Y-100427241D01*
X170302574Y-100427230D01*
X170335714Y-100260619D01*
X170367751Y-100099559D01*
X170400500Y-99767056D01*
X170400500Y-99432944D01*
X170367751Y-99100441D01*
X170328381Y-98902513D01*
X170302574Y-98772769D01*
X170302571Y-98772758D01*
X170302570Y-98772755D01*
X170302569Y-98772749D01*
X170205582Y-98453024D01*
X170077723Y-98144346D01*
X170024199Y-98044210D01*
X169966565Y-97936383D01*
X169937494Y-97881995D01*
X185199500Y-97881995D01*
X185199500Y-98118004D01*
X185199501Y-98118020D01*
X185202966Y-98144343D01*
X185230307Y-98352014D01*
X185257372Y-98453022D01*
X185291394Y-98579993D01*
X185381714Y-98798045D01*
X185381719Y-98798056D01*
X185442028Y-98902513D01*
X185499727Y-99002450D01*
X185499729Y-99002453D01*
X185499730Y-99002454D01*
X185643406Y-99189697D01*
X185643412Y-99189704D01*
X185810295Y-99356587D01*
X185810302Y-99356593D01*
X185909805Y-99432944D01*
X185997550Y-99500273D01*
X186128344Y-99575787D01*
X186201943Y-99618280D01*
X186201948Y-99618282D01*
X186201951Y-99618284D01*
X186420007Y-99708606D01*
X186647986Y-99769693D01*
X186881989Y-99800500D01*
X186881996Y-99800500D01*
X187118004Y-99800500D01*
X187118011Y-99800500D01*
X187352014Y-99769693D01*
X187579993Y-99708606D01*
X187798049Y-99618284D01*
X188002450Y-99500273D01*
X188189699Y-99356592D01*
X188356592Y-99189699D01*
X188500273Y-99002450D01*
X188618284Y-98798049D01*
X188708606Y-98579993D01*
X188769693Y-98352014D01*
X188800500Y-98118011D01*
X188800500Y-97881989D01*
X188769693Y-97647986D01*
X188708606Y-97420007D01*
X188618284Y-97201951D01*
X188618282Y-97201948D01*
X188618280Y-97201943D01*
X188570351Y-97118928D01*
X188500273Y-96997550D01*
X188441001Y-96920306D01*
X188356593Y-96810302D01*
X188356587Y-96810295D01*
X188189704Y-96643412D01*
X188189697Y-96643406D01*
X188002454Y-96499730D01*
X188002453Y-96499729D01*
X188002450Y-96499727D01*
X187920957Y-96452677D01*
X187798056Y-96381719D01*
X187798045Y-96381714D01*
X187579993Y-96291394D01*
X187359265Y-96232250D01*
X187352014Y-96230307D01*
X187352013Y-96230306D01*
X187352010Y-96230306D01*
X187118020Y-96199501D01*
X187118017Y-96199500D01*
X187118011Y-96199500D01*
X186881989Y-96199500D01*
X186881983Y-96199500D01*
X186881979Y-96199501D01*
X186647989Y-96230306D01*
X186420006Y-96291394D01*
X186201954Y-96381714D01*
X186201943Y-96381719D01*
X185997545Y-96499730D01*
X185810302Y-96643406D01*
X185810295Y-96643412D01*
X185643412Y-96810295D01*
X185643406Y-96810302D01*
X185499730Y-96997545D01*
X185381719Y-97201943D01*
X185381714Y-97201954D01*
X185291394Y-97420006D01*
X185230306Y-97647989D01*
X185199501Y-97881979D01*
X185199500Y-97881995D01*
X169937494Y-97881995D01*
X169920230Y-97849696D01*
X169920229Y-97849694D01*
X169920224Y-97849685D01*
X169734601Y-97571882D01*
X169522643Y-97313610D01*
X169522642Y-97313609D01*
X169522638Y-97313604D01*
X169286395Y-97077361D01*
X169028123Y-96865403D01*
X169028122Y-96865402D01*
X169028118Y-96865399D01*
X168750315Y-96679776D01*
X168750310Y-96679773D01*
X168750303Y-96679769D01*
X168455661Y-96522280D01*
X168455656Y-96522278D01*
X168401213Y-96499727D01*
X168365247Y-96484829D01*
X168146977Y-96394418D01*
X167827241Y-96297428D01*
X167827230Y-96297425D01*
X167499565Y-96232250D01*
X167499548Y-96232247D01*
X167248108Y-96207483D01*
X167167056Y-96199500D01*
X166832944Y-96199500D01*
X166757982Y-96206883D01*
X166500451Y-96232247D01*
X166500434Y-96232250D01*
X166172769Y-96297425D01*
X166172758Y-96297428D01*
X165853022Y-96394418D01*
X165544343Y-96522278D01*
X165544338Y-96522280D01*
X165249696Y-96679769D01*
X165249678Y-96679780D01*
X164971890Y-96865393D01*
X164971876Y-96865403D01*
X164713604Y-97077361D01*
X164477361Y-97313604D01*
X164265403Y-97571876D01*
X164265393Y-97571890D01*
X164079780Y-97849678D01*
X164079769Y-97849696D01*
X163922280Y-98144338D01*
X163922278Y-98144343D01*
X163794418Y-98453022D01*
X163697428Y-98772758D01*
X163697425Y-98772769D01*
X163632250Y-99100434D01*
X163632247Y-99100451D01*
X163623457Y-99189704D01*
X163599500Y-99432944D01*
X104401216Y-99432944D01*
X106287341Y-97546819D01*
X106348664Y-97513334D01*
X106375022Y-97510500D01*
X107129902Y-97510500D01*
X107272450Y-97487922D01*
X107386493Y-97469860D01*
X107547558Y-97417526D01*
X107572977Y-97409267D01*
X107572978Y-97409267D01*
X107616060Y-97395268D01*
X107633573Y-97389579D01*
X107865051Y-97271635D01*
X108075229Y-97118931D01*
X118361213Y-86832947D01*
X146599500Y-86832947D01*
X146599500Y-87167052D01*
X146632247Y-87499548D01*
X146632250Y-87499565D01*
X146697425Y-87827230D01*
X146697428Y-87827241D01*
X146794418Y-88146977D01*
X146922278Y-88455656D01*
X146922280Y-88455661D01*
X147079769Y-88750303D01*
X147079773Y-88750310D01*
X147079776Y-88750315D01*
X147192574Y-88919129D01*
X147265393Y-89028109D01*
X147265403Y-89028123D01*
X147477361Y-89286395D01*
X147713604Y-89522638D01*
X147713609Y-89522642D01*
X147713610Y-89522643D01*
X147971882Y-89734601D01*
X148249685Y-89920224D01*
X148249694Y-89920229D01*
X148249696Y-89920230D01*
X148544338Y-90077719D01*
X148544340Y-90077719D01*
X148544346Y-90077723D01*
X148853024Y-90205582D01*
X149172749Y-90302569D01*
X149172755Y-90302570D01*
X149172758Y-90302571D01*
X149172769Y-90302574D01*
X149378243Y-90343444D01*
X149500441Y-90367751D01*
X149832944Y-90400500D01*
X149832947Y-90400500D01*
X150167053Y-90400500D01*
X150167056Y-90400500D01*
X150499559Y-90367751D01*
X150661757Y-90335487D01*
X150827230Y-90302574D01*
X150827241Y-90302571D01*
X150827241Y-90302570D01*
X150827251Y-90302569D01*
X151146976Y-90205582D01*
X151236560Y-90168475D01*
X203199500Y-90168475D01*
X203199500Y-93031517D01*
X203210292Y-93099657D01*
X203214354Y-93125304D01*
X203271950Y-93238342D01*
X203271952Y-93238344D01*
X203271954Y-93238347D01*
X203361652Y-93328045D01*
X203361654Y-93328046D01*
X203361658Y-93328050D01*
X203474694Y-93385645D01*
X203474698Y-93385647D01*
X203568475Y-93400499D01*
X203568481Y-93400500D01*
X206431518Y-93400499D01*
X206525304Y-93385646D01*
X206638342Y-93328050D01*
X206728050Y-93238342D01*
X206785646Y-93125304D01*
X206785646Y-93125302D01*
X206785647Y-93125301D01*
X206800499Y-93031524D01*
X206800500Y-93031519D01*
X206800499Y-90168482D01*
X206785646Y-90074696D01*
X206728050Y-89961658D01*
X206728046Y-89961654D01*
X206728045Y-89961652D01*
X206638347Y-89871954D01*
X206638344Y-89871952D01*
X206638342Y-89871950D01*
X206551018Y-89827456D01*
X206525301Y-89814352D01*
X206431524Y-89799500D01*
X203568482Y-89799500D01*
X203487519Y-89812323D01*
X203474696Y-89814354D01*
X203361658Y-89871950D01*
X203361657Y-89871951D01*
X203361652Y-89871954D01*
X203271954Y-89961652D01*
X203271951Y-89961657D01*
X203214352Y-90074698D01*
X203199500Y-90168475D01*
X151236560Y-90168475D01*
X151455654Y-90077723D01*
X151472031Y-90068969D01*
X151499568Y-90054251D01*
X151688557Y-89953234D01*
X151750315Y-89920224D01*
X152028118Y-89734601D01*
X152286390Y-89522643D01*
X152522643Y-89286390D01*
X152734601Y-89028118D01*
X152920224Y-88750315D01*
X153077723Y-88455654D01*
X153205582Y-88146976D01*
X153302569Y-87827251D01*
X153302571Y-87827241D01*
X153302574Y-87827230D01*
X153355605Y-87560619D01*
X153367751Y-87499559D01*
X153400500Y-87167056D01*
X153400500Y-86832944D01*
X153367751Y-86500441D01*
X153331594Y-86318667D01*
X153302574Y-86172769D01*
X153302571Y-86172758D01*
X153302570Y-86172755D01*
X153302569Y-86172749D01*
X153205582Y-85853024D01*
X153077723Y-85544346D01*
X153050761Y-85493904D01*
X152920230Y-85249696D01*
X152920229Y-85249694D01*
X152920224Y-85249685D01*
X152734601Y-84971882D01*
X152522643Y-84713610D01*
X152522642Y-84713609D01*
X152522638Y-84713604D01*
X152286395Y-84477361D01*
X152028123Y-84265403D01*
X152028122Y-84265402D01*
X152028118Y-84265399D01*
X151750315Y-84079776D01*
X151750310Y-84079773D01*
X151750303Y-84079769D01*
X151455661Y-83922280D01*
X151455656Y-83922278D01*
X151395378Y-83897310D01*
X151212435Y-83821532D01*
X151146977Y-83794418D01*
X150827241Y-83697428D01*
X150827230Y-83697425D01*
X150499565Y-83632250D01*
X150499548Y-83632247D01*
X150248108Y-83607483D01*
X150167056Y-83599500D01*
X149832944Y-83599500D01*
X149757982Y-83606883D01*
X149500451Y-83632247D01*
X149500434Y-83632250D01*
X149172769Y-83697425D01*
X149172758Y-83697428D01*
X148853022Y-83794418D01*
X148544343Y-83922278D01*
X148544338Y-83922280D01*
X148249696Y-84079769D01*
X148249678Y-84079780D01*
X147971890Y-84265393D01*
X147971876Y-84265403D01*
X147713604Y-84477361D01*
X147477361Y-84713604D01*
X147265403Y-84971876D01*
X147265393Y-84971890D01*
X147079780Y-85249678D01*
X147079769Y-85249696D01*
X146922280Y-85544338D01*
X146922278Y-85544343D01*
X146794418Y-85853022D01*
X146697428Y-86172758D01*
X146697425Y-86172769D01*
X146632250Y-86500434D01*
X146632247Y-86500451D01*
X146599500Y-86832947D01*
X118361213Y-86832947D01*
X126507341Y-78686819D01*
X126568664Y-78653334D01*
X126595022Y-78650500D01*
X145870103Y-78650500D01*
X156184978Y-78650500D01*
X156252017Y-78670185D01*
X156272659Y-78686819D01*
X157924771Y-80338931D01*
X158134949Y-80491635D01*
X158236502Y-80543379D01*
X158366426Y-80609579D01*
X158366429Y-80609580D01*
X158489967Y-80649719D01*
X158613507Y-80689859D01*
X158870103Y-80730500D01*
X158870104Y-80730500D01*
X159129896Y-80730500D01*
X159129897Y-80730500D01*
X159386492Y-80689859D01*
X159633572Y-80609579D01*
X159865051Y-80491635D01*
X160075229Y-80338931D01*
X160258931Y-80155229D01*
X160411635Y-79945051D01*
X160443764Y-79881995D01*
X185199500Y-79881995D01*
X185199500Y-80118004D01*
X185199501Y-80118020D01*
X185230306Y-80352010D01*
X185291394Y-80579993D01*
X185381714Y-80798045D01*
X185381719Y-80798056D01*
X185421589Y-80867111D01*
X185499727Y-81002450D01*
X185499729Y-81002453D01*
X185499730Y-81002454D01*
X185643406Y-81189697D01*
X185643412Y-81189704D01*
X185810295Y-81356587D01*
X185810301Y-81356592D01*
X185997550Y-81500273D01*
X186128918Y-81576118D01*
X186201943Y-81618280D01*
X186201948Y-81618282D01*
X186201951Y-81618284D01*
X186420007Y-81708606D01*
X186647986Y-81769693D01*
X186881989Y-81800500D01*
X186881996Y-81800500D01*
X187118004Y-81800500D01*
X187118011Y-81800500D01*
X187352014Y-81769693D01*
X187579993Y-81708606D01*
X187798049Y-81618284D01*
X188002450Y-81500273D01*
X188189699Y-81356592D01*
X188356592Y-81189699D01*
X188500273Y-81002450D01*
X188618284Y-80798049D01*
X188708606Y-80579993D01*
X188769693Y-80352014D01*
X188800500Y-80118011D01*
X188800500Y-79881995D01*
X203199500Y-79881995D01*
X203199500Y-80118004D01*
X203199501Y-80118020D01*
X203230306Y-80352010D01*
X203291394Y-80579993D01*
X203381714Y-80798045D01*
X203381719Y-80798056D01*
X203421589Y-80867111D01*
X203499727Y-81002450D01*
X203499729Y-81002453D01*
X203499730Y-81002454D01*
X203643406Y-81189697D01*
X203643412Y-81189704D01*
X203810295Y-81356587D01*
X203810301Y-81356592D01*
X203997550Y-81500273D01*
X204128918Y-81576118D01*
X204201943Y-81618280D01*
X204201948Y-81618282D01*
X204201951Y-81618284D01*
X204420007Y-81708606D01*
X204647986Y-81769693D01*
X204881989Y-81800500D01*
X204881996Y-81800500D01*
X205118004Y-81800500D01*
X205118011Y-81800500D01*
X205352014Y-81769693D01*
X205579993Y-81708606D01*
X205798049Y-81618284D01*
X206002450Y-81500273D01*
X206189699Y-81356592D01*
X206356592Y-81189699D01*
X206500273Y-81002450D01*
X206618284Y-80798049D01*
X206708606Y-80579993D01*
X206769693Y-80352014D01*
X206800500Y-80118011D01*
X206800500Y-79881989D01*
X206769693Y-79647986D01*
X206708606Y-79420007D01*
X206618284Y-79201951D01*
X206618282Y-79201948D01*
X206618280Y-79201943D01*
X206576118Y-79128918D01*
X206500273Y-78997550D01*
X206356592Y-78810301D01*
X206356587Y-78810295D01*
X206189704Y-78643412D01*
X206189697Y-78643406D01*
X206002454Y-78499730D01*
X206002453Y-78499729D01*
X206002450Y-78499727D01*
X205910130Y-78446426D01*
X205798056Y-78381719D01*
X205798045Y-78381714D01*
X205579993Y-78291394D01*
X205352010Y-78230306D01*
X205118020Y-78199501D01*
X205118017Y-78199500D01*
X205118011Y-78199500D01*
X204881989Y-78199500D01*
X204881983Y-78199500D01*
X204881979Y-78199501D01*
X204647989Y-78230306D01*
X204420006Y-78291394D01*
X204201954Y-78381714D01*
X204201943Y-78381719D01*
X203997545Y-78499730D01*
X203810302Y-78643406D01*
X203810295Y-78643412D01*
X203643412Y-78810295D01*
X203643406Y-78810302D01*
X203499730Y-78997545D01*
X203381719Y-79201943D01*
X203381714Y-79201954D01*
X203291394Y-79420006D01*
X203230306Y-79647989D01*
X203199501Y-79881979D01*
X203199500Y-79881995D01*
X188800500Y-79881995D01*
X188800500Y-79881989D01*
X188800500Y-79877929D01*
X188802492Y-79877929D01*
X188808429Y-79851768D01*
X188815955Y-79817962D01*
X188816166Y-79817680D01*
X188816205Y-79817512D01*
X188816544Y-79817178D01*
X188836814Y-79790237D01*
X193440234Y-75186819D01*
X193501557Y-75153334D01*
X193527915Y-75150500D01*
X205904319Y-75150500D01*
X205904343Y-75150501D01*
X205909454Y-75150501D01*
X206090545Y-75150501D01*
X206090546Y-75150501D01*
X206269409Y-75122171D01*
X206441639Y-75066211D01*
X206602994Y-74983996D01*
X206609358Y-74979372D01*
X206749501Y-74877553D01*
X206877553Y-74749501D01*
X206877554Y-74749499D01*
X206884614Y-74742439D01*
X206884620Y-74742431D01*
X209744518Y-71882532D01*
X209744537Y-71882516D01*
X209749498Y-71877554D01*
X209749501Y-71877553D01*
X209877553Y-71749501D01*
X209983996Y-71602994D01*
X210066211Y-71441639D01*
X210122172Y-71269409D01*
X210150501Y-71090551D01*
X210150501Y-70905052D01*
X210150500Y-70905037D01*
X210150500Y-66791300D01*
X210170185Y-66724261D01*
X210222989Y-66678506D01*
X210239893Y-66672227D01*
X210310398Y-66651744D01*
X210451865Y-66568081D01*
X210568081Y-66451865D01*
X210651744Y-66310398D01*
X210697598Y-66152569D01*
X210700500Y-66115694D01*
X210700500Y-63884306D01*
X210697598Y-63847431D01*
X210695755Y-63841089D01*
X210660213Y-63718751D01*
X210651744Y-63689602D01*
X210568081Y-63548135D01*
X210568079Y-63548133D01*
X210568076Y-63548129D01*
X210451870Y-63431923D01*
X210451862Y-63431917D01*
X210367727Y-63382160D01*
X210310398Y-63348256D01*
X210310397Y-63348255D01*
X210310396Y-63348255D01*
X210310393Y-63348254D01*
X210152573Y-63302402D01*
X210152567Y-63302401D01*
X210115701Y-63299500D01*
X210115694Y-63299500D01*
X207884306Y-63299500D01*
X207884298Y-63299500D01*
X207847432Y-63302401D01*
X207847426Y-63302402D01*
X207689606Y-63348254D01*
X207689603Y-63348255D01*
X207548137Y-63431917D01*
X207548129Y-63431923D01*
X207431923Y-63548129D01*
X207431917Y-63548137D01*
X207348255Y-63689603D01*
X207348254Y-63689606D01*
X207302402Y-63847426D01*
X207302401Y-63847432D01*
X207299500Y-63884298D01*
X207299500Y-66115701D01*
X207302401Y-66152567D01*
X207302402Y-66152573D01*
X207348254Y-66310393D01*
X207348255Y-66310396D01*
X207431917Y-66451862D01*
X207431923Y-66451870D01*
X207548129Y-66568076D01*
X207548133Y-66568079D01*
X207548135Y-66568081D01*
X207689602Y-66651744D01*
X207760096Y-66672224D01*
X207818980Y-66709829D01*
X207848187Y-66773301D01*
X207849500Y-66791300D01*
X207849500Y-70472085D01*
X207829815Y-70539124D01*
X207813181Y-70559766D01*
X205559766Y-72813181D01*
X205498443Y-72846666D01*
X205472085Y-72849500D01*
X193095681Y-72849500D01*
X193095657Y-72849499D01*
X193090546Y-72849499D01*
X192909453Y-72849499D01*
X192849832Y-72858942D01*
X192730589Y-72877829D01*
X192558363Y-72933787D01*
X192558360Y-72933788D01*
X192397002Y-73016006D01*
X192250505Y-73122441D01*
X192250500Y-73122445D01*
X192122444Y-73250502D01*
X187209764Y-78163181D01*
X187148441Y-78196666D01*
X187122083Y-78199500D01*
X187118011Y-78199500D01*
X186881989Y-78199500D01*
X186881983Y-78199500D01*
X186881979Y-78199501D01*
X186647989Y-78230306D01*
X186420006Y-78291394D01*
X186201954Y-78381714D01*
X186201943Y-78381719D01*
X185997545Y-78499730D01*
X185810302Y-78643406D01*
X185810295Y-78643412D01*
X185643412Y-78810295D01*
X185643406Y-78810302D01*
X185499730Y-78997545D01*
X185381719Y-79201943D01*
X185381714Y-79201954D01*
X185291394Y-79420006D01*
X185230306Y-79647989D01*
X185199501Y-79881979D01*
X185199500Y-79881995D01*
X160443764Y-79881995D01*
X160529579Y-79713572D01*
X160609859Y-79466492D01*
X160650500Y-79209897D01*
X160650500Y-78950103D01*
X160609859Y-78693507D01*
X160529579Y-78446427D01*
X160529579Y-78446426D01*
X160423620Y-78238471D01*
X160411635Y-78214949D01*
X160258931Y-78004771D01*
X157995229Y-75741069D01*
X157785051Y-75588365D01*
X157553573Y-75470420D01*
X157553567Y-75470418D01*
X157472245Y-75443996D01*
X157472244Y-75443996D01*
X157306493Y-75390140D01*
X157271407Y-75384583D01*
X157049902Y-75349500D01*
X157049897Y-75349500D01*
X154496914Y-75349500D01*
X154429875Y-75329815D01*
X154384120Y-75277011D01*
X154374176Y-75207853D01*
X154403201Y-75144297D01*
X154409233Y-75137819D01*
X159090234Y-70456818D01*
X159151557Y-70423333D01*
X159177915Y-70420499D01*
X159915682Y-70420499D01*
X159915694Y-70420499D01*
X159952570Y-70417598D01*
X160110399Y-70371744D01*
X160251865Y-70288081D01*
X160368081Y-70171865D01*
X160451744Y-70030399D01*
X160497598Y-69872570D01*
X160500500Y-69835695D01*
X160500499Y-68004306D01*
X160497598Y-67967430D01*
X160451744Y-67809601D01*
X160368081Y-67668135D01*
X160368079Y-67668133D01*
X160368076Y-67668129D01*
X160251870Y-67551923D01*
X160251861Y-67551916D01*
X160110397Y-67468255D01*
X160110394Y-67468254D01*
X159952574Y-67422402D01*
X159952568Y-67422401D01*
X159915695Y-67419500D01*
X158084317Y-67419500D01*
X158084292Y-67419501D01*
X158047429Y-67422402D01*
X157889605Y-67468254D01*
X157889602Y-67468255D01*
X157748138Y-67551916D01*
X157748129Y-67551923D01*
X157631923Y-67668129D01*
X157631916Y-67668138D01*
X157548255Y-67809602D01*
X157548254Y-67809605D01*
X157502402Y-67967425D01*
X157502401Y-67967431D01*
X157499500Y-68004297D01*
X157499500Y-68742084D01*
X157479815Y-68809123D01*
X157463181Y-68829765D01*
X153019766Y-73273181D01*
X152958443Y-73306666D01*
X152932085Y-73309500D01*
X147427080Y-73309500D01*
X147360041Y-73289815D01*
X147314286Y-73237011D01*
X147304342Y-73167853D01*
X147323894Y-73119677D01*
X147323619Y-73119537D01*
X147325255Y-73116324D01*
X147326761Y-73112616D01*
X147328048Y-73110844D01*
X147328050Y-73110842D01*
X147385646Y-72997804D01*
X147385646Y-72997802D01*
X147385647Y-72997801D01*
X147400075Y-72906702D01*
X147400500Y-72904019D01*
X147400499Y-72836674D01*
X147414013Y-72780380D01*
X147529579Y-72553572D01*
X147609860Y-72306493D01*
X147645048Y-72084321D01*
X147650500Y-72049902D01*
X147650500Y-71790097D01*
X147620865Y-71602994D01*
X147609860Y-71533507D01*
X147529579Y-71286428D01*
X147529577Y-71286425D01*
X147529577Y-71286423D01*
X147414014Y-71059620D01*
X147400499Y-71003325D01*
X147400499Y-70935982D01*
X147385646Y-70842196D01*
X147328050Y-70729158D01*
X147328046Y-70729154D01*
X147328045Y-70729152D01*
X147238347Y-70639454D01*
X147238344Y-70639452D01*
X147238342Y-70639450D01*
X147161517Y-70600305D01*
X147125301Y-70581852D01*
X147031524Y-70567000D01*
X147031519Y-70567000D01*
X146986044Y-70567000D01*
X146919005Y-70547315D01*
X146913158Y-70543318D01*
X146865051Y-70508366D01*
X146633576Y-70390422D01*
X146386493Y-70310140D01*
X146129902Y-70269500D01*
X146129897Y-70269500D01*
X143355022Y-70269500D01*
X143287983Y-70249815D01*
X143267341Y-70233181D01*
X134467107Y-61432947D01*
X146599500Y-61432947D01*
X146599500Y-61767052D01*
X146632247Y-62099548D01*
X146632250Y-62099565D01*
X146697425Y-62427230D01*
X146697428Y-62427241D01*
X146794418Y-62746977D01*
X146922278Y-63055656D01*
X146922280Y-63055661D01*
X147079769Y-63350303D01*
X147079780Y-63350321D01*
X147265393Y-63628109D01*
X147265403Y-63628123D01*
X147477361Y-63886395D01*
X147713604Y-64122638D01*
X147713609Y-64122642D01*
X147713610Y-64122643D01*
X147971882Y-64334601D01*
X148249685Y-64520224D01*
X148249694Y-64520229D01*
X148249696Y-64520230D01*
X148544338Y-64677719D01*
X148544340Y-64677719D01*
X148544346Y-64677723D01*
X148853024Y-64805582D01*
X149172749Y-64902569D01*
X149172755Y-64902570D01*
X149172758Y-64902571D01*
X149172769Y-64902574D01*
X149340722Y-64935981D01*
X149500441Y-64967751D01*
X149832944Y-65000500D01*
X149832947Y-65000500D01*
X150167053Y-65000500D01*
X150167056Y-65000500D01*
X150499559Y-64967751D01*
X150661757Y-64935487D01*
X150827230Y-64902574D01*
X150827241Y-64902571D01*
X150827241Y-64902570D01*
X150827251Y-64902569D01*
X150873469Y-64888549D01*
X197139500Y-64888549D01*
X197139500Y-65111450D01*
X197139501Y-65111466D01*
X197168594Y-65332452D01*
X197168595Y-65332457D01*
X197168596Y-65332463D01*
X197190538Y-65414351D01*
X197226290Y-65547780D01*
X197226293Y-65547790D01*
X197259149Y-65627111D01*
X197311595Y-65753726D01*
X197423052Y-65946774D01*
X197423057Y-65946780D01*
X197423058Y-65946782D01*
X197558751Y-66123622D01*
X197558757Y-66123629D01*
X197716370Y-66281242D01*
X197716377Y-66281248D01*
X197842294Y-66377867D01*
X197893226Y-66416948D01*
X198086274Y-66528405D01*
X198292219Y-66613710D01*
X198507537Y-66671404D01*
X198728543Y-66700500D01*
X198728550Y-66700500D01*
X198951450Y-66700500D01*
X198951457Y-66700500D01*
X199172463Y-66671404D01*
X199387781Y-66613710D01*
X199593726Y-66528405D01*
X199786774Y-66416948D01*
X199805295Y-66402735D01*
X199950981Y-66290949D01*
X199950981Y-66290948D01*
X199963624Y-66281247D01*
X200121247Y-66123624D01*
X200256948Y-65946774D01*
X200368405Y-65753726D01*
X200453710Y-65547781D01*
X200511404Y-65332463D01*
X200540500Y-65111457D01*
X200540500Y-64888543D01*
X200539642Y-64882028D01*
X200539640Y-64882014D01*
X202120000Y-64882014D01*
X202120000Y-65117985D01*
X202150799Y-65351914D01*
X202211870Y-65579837D01*
X202302160Y-65797819D01*
X202302165Y-65797828D01*
X202420144Y-66002171D01*
X202420145Y-66002172D01*
X202482721Y-66083723D01*
X203318958Y-65247487D01*
X203343978Y-65307890D01*
X203415112Y-65414351D01*
X203505649Y-65504888D01*
X203612110Y-65576022D01*
X203672511Y-65601041D01*
X202836275Y-66437277D01*
X202917827Y-66499854D01*
X202917828Y-66499855D01*
X203122171Y-66617834D01*
X203122180Y-66617839D01*
X203340163Y-66708129D01*
X203340161Y-66708129D01*
X203568085Y-66769200D01*
X203802014Y-66799999D01*
X203802029Y-66800000D01*
X204037971Y-66800000D01*
X204037985Y-66799999D01*
X204271914Y-66769200D01*
X204499837Y-66708129D01*
X204717819Y-66617839D01*
X204717828Y-66617834D01*
X204922181Y-66499850D01*
X205003723Y-66437279D01*
X205003723Y-66437276D01*
X204167487Y-65601041D01*
X204227890Y-65576022D01*
X204334351Y-65504888D01*
X204424888Y-65414351D01*
X204496022Y-65307890D01*
X204521041Y-65247488D01*
X205357276Y-66083723D01*
X205357279Y-66083723D01*
X205419850Y-66002181D01*
X205537834Y-65797828D01*
X205537839Y-65797819D01*
X205628129Y-65579837D01*
X205689200Y-65351914D01*
X205719999Y-65117985D01*
X205720000Y-65117971D01*
X205720000Y-64882028D01*
X205719999Y-64882014D01*
X205689200Y-64648085D01*
X205628129Y-64420162D01*
X205537839Y-64202180D01*
X205537834Y-64202171D01*
X205419855Y-63997828D01*
X205419854Y-63997827D01*
X205357277Y-63916275D01*
X204521041Y-64752511D01*
X204496022Y-64692110D01*
X204424888Y-64585649D01*
X204334351Y-64495112D01*
X204227890Y-64423978D01*
X204167488Y-64398958D01*
X205003723Y-63562721D01*
X204922172Y-63500145D01*
X204922171Y-63500144D01*
X204717828Y-63382165D01*
X204717819Y-63382160D01*
X204499836Y-63291870D01*
X204499838Y-63291870D01*
X204271914Y-63230799D01*
X204037985Y-63200000D01*
X203802014Y-63200000D01*
X203568085Y-63230799D01*
X203340162Y-63291870D01*
X203122180Y-63382160D01*
X203122171Y-63382165D01*
X202917828Y-63500144D01*
X202917818Y-63500150D01*
X202836275Y-63562720D01*
X202836275Y-63562721D01*
X203672512Y-64398958D01*
X203612110Y-64423978D01*
X203505649Y-64495112D01*
X203415112Y-64585649D01*
X203343978Y-64692110D01*
X203318958Y-64752512D01*
X202482721Y-63916275D01*
X202482720Y-63916275D01*
X202420150Y-63997818D01*
X202420144Y-63997828D01*
X202302165Y-64202171D01*
X202302160Y-64202180D01*
X202211870Y-64420162D01*
X202150799Y-64648085D01*
X202120000Y-64882014D01*
X200539640Y-64882014D01*
X200512818Y-64678278D01*
X200511404Y-64667537D01*
X200453710Y-64452219D01*
X200368405Y-64246274D01*
X200256948Y-64053226D01*
X200214432Y-63997818D01*
X200121248Y-63876377D01*
X200121242Y-63876370D01*
X199963625Y-63718753D01*
X199950980Y-63709051D01*
X199950979Y-63709050D01*
X199786782Y-63583058D01*
X199786780Y-63583057D01*
X199786774Y-63583052D01*
X199593726Y-63471595D01*
X199593722Y-63471593D01*
X199387790Y-63386293D01*
X199387783Y-63386291D01*
X199387781Y-63386290D01*
X199172463Y-63328596D01*
X199172457Y-63328595D01*
X199172452Y-63328594D01*
X198951466Y-63299501D01*
X198951463Y-63299500D01*
X198951457Y-63299500D01*
X198728543Y-63299500D01*
X198728537Y-63299500D01*
X198728533Y-63299501D01*
X198507547Y-63328594D01*
X198507540Y-63328595D01*
X198507537Y-63328596D01*
X198426458Y-63350321D01*
X198292219Y-63386290D01*
X198292209Y-63386293D01*
X198086277Y-63471593D01*
X198086273Y-63471595D01*
X197893226Y-63583052D01*
X197893217Y-63583058D01*
X197716377Y-63718751D01*
X197716370Y-63718757D01*
X197558757Y-63876370D01*
X197558751Y-63876377D01*
X197423058Y-64053217D01*
X197423052Y-64053226D01*
X197311595Y-64246273D01*
X197311593Y-64246277D01*
X197226293Y-64452209D01*
X197226290Y-64452219D01*
X197168597Y-64667534D01*
X197168594Y-64667547D01*
X197139501Y-64888533D01*
X197139500Y-64888549D01*
X150873469Y-64888549D01*
X151146976Y-64805582D01*
X151455654Y-64677723D01*
X151750315Y-64520224D01*
X152028118Y-64334601D01*
X152286390Y-64122643D01*
X152522643Y-63886390D01*
X152734601Y-63628118D01*
X152920224Y-63350315D01*
X153077723Y-63055654D01*
X153205582Y-62746976D01*
X153302569Y-62427251D01*
X153302571Y-62427241D01*
X153302574Y-62427230D01*
X153356914Y-62154038D01*
X153367751Y-62099559D01*
X153400500Y-61767056D01*
X153400500Y-61432944D01*
X153367751Y-61100441D01*
X153330095Y-60911130D01*
X153302574Y-60772769D01*
X153302571Y-60772758D01*
X153302570Y-60772755D01*
X153302569Y-60772749D01*
X153205582Y-60453024D01*
X153077723Y-60144346D01*
X153058321Y-60108048D01*
X152920230Y-59849696D01*
X152920229Y-59849694D01*
X152920224Y-59849685D01*
X152734601Y-59571882D01*
X152522643Y-59313610D01*
X152522642Y-59313609D01*
X152522638Y-59313604D01*
X152286395Y-59077361D01*
X152028123Y-58865403D01*
X152028122Y-58865402D01*
X152028118Y-58865399D01*
X151750315Y-58679776D01*
X151750310Y-58679773D01*
X151750303Y-58679769D01*
X151455661Y-58522280D01*
X151455656Y-58522278D01*
X151146977Y-58394418D01*
X150827241Y-58297428D01*
X150827230Y-58297425D01*
X150499565Y-58232250D01*
X150499548Y-58232247D01*
X150248108Y-58207483D01*
X150167056Y-58199500D01*
X149832944Y-58199500D01*
X149757982Y-58206883D01*
X149500451Y-58232247D01*
X149500434Y-58232250D01*
X149172769Y-58297425D01*
X149172758Y-58297428D01*
X148853022Y-58394418D01*
X148544343Y-58522278D01*
X148544338Y-58522280D01*
X148249696Y-58679769D01*
X148249678Y-58679780D01*
X147971890Y-58865393D01*
X147971876Y-58865403D01*
X147713604Y-59077361D01*
X147477361Y-59313604D01*
X147265403Y-59571876D01*
X147265393Y-59571890D01*
X147079780Y-59849678D01*
X147079769Y-59849696D01*
X146922280Y-60144338D01*
X146922278Y-60144343D01*
X146794418Y-60453022D01*
X146697428Y-60772758D01*
X146697425Y-60772769D01*
X146632250Y-61100434D01*
X146632247Y-61100451D01*
X146599500Y-61432947D01*
X134467107Y-61432947D01*
X121915231Y-48881071D01*
X121915229Y-48881069D01*
X121705051Y-48728365D01*
X121473573Y-48610420D01*
X121473567Y-48610418D01*
X121376592Y-48578910D01*
X121376591Y-48578910D01*
X121226493Y-48530140D01*
X120969902Y-48489500D01*
X120969897Y-48489500D01*
X106870103Y-48489500D01*
X106870098Y-48489500D01*
X106613506Y-48530140D01*
X106366423Y-48610422D01*
X106134945Y-48728368D01*
X105924774Y-48881066D01*
X105924768Y-48881071D01*
X105741071Y-49064768D01*
X105741066Y-49064774D01*
X105588368Y-49274945D01*
X105470422Y-49506423D01*
X105390140Y-49753506D01*
X105349500Y-50010097D01*
X105349500Y-50269902D01*
X105390140Y-50526493D01*
X105470422Y-50773576D01*
X105588368Y-51005054D01*
X105655320Y-51097206D01*
X105741069Y-51215229D01*
X105924771Y-51398931D01*
X106134949Y-51551634D01*
X106282445Y-51626787D01*
X106366423Y-51669577D01*
X106366425Y-51669577D01*
X106366428Y-51669579D01*
X106613507Y-51749860D01*
X106745706Y-51770797D01*
X106870098Y-51790500D01*
X106870103Y-51790500D01*
X120104978Y-51790500D01*
X120172017Y-51810185D01*
X120192659Y-51826819D01*
X141361068Y-72995228D01*
X141361069Y-72995229D01*
X141544771Y-73178931D01*
X141754949Y-73331634D01*
X141902445Y-73406787D01*
X141986423Y-73449577D01*
X141986425Y-73449577D01*
X141986428Y-73449579D01*
X142233507Y-73529860D01*
X142365706Y-73550797D01*
X142490098Y-73570500D01*
X142490103Y-73570500D01*
X142749897Y-73570500D01*
X144684865Y-73570500D01*
X144751904Y-73590185D01*
X144797659Y-73642989D01*
X144807603Y-73712147D01*
X144795350Y-73750795D01*
X144698624Y-73940627D01*
X144698623Y-73940630D01*
X144632815Y-74143170D01*
X144599500Y-74353511D01*
X144599500Y-74566488D01*
X144632815Y-74776829D01*
X144698623Y-74979368D01*
X144698624Y-74979371D01*
X144698625Y-74979372D01*
X144782658Y-75144297D01*
X144795350Y-75169205D01*
X144808246Y-75237874D01*
X144781970Y-75302615D01*
X144724863Y-75342872D01*
X144684865Y-75349500D01*
X125995032Y-75349500D01*
X125995008Y-75349499D01*
X125989897Y-75349499D01*
X125730103Y-75349499D01*
X125730098Y-75349499D01*
X125516324Y-75383358D01*
X125516322Y-75383358D01*
X125508591Y-75384583D01*
X125473507Y-75390140D01*
X125307756Y-75443996D01*
X125305959Y-75444579D01*
X125305931Y-75444588D01*
X125226432Y-75470418D01*
X124994948Y-75588365D01*
X124875034Y-75675488D01*
X124784771Y-75741069D01*
X124784769Y-75741071D01*
X124784768Y-75741071D01*
X106352659Y-94173181D01*
X106291336Y-94206666D01*
X106264978Y-94209500D01*
X105510098Y-94209500D01*
X105253506Y-94250140D01*
X105170571Y-94277087D01*
X105087636Y-94304035D01*
X105087635Y-94304035D01*
X105006432Y-94330418D01*
X105006426Y-94330420D01*
X104774948Y-94448365D01*
X104655034Y-94535488D01*
X104564771Y-94601069D01*
X104564769Y-94601071D01*
X104564768Y-94601071D01*
X98341071Y-100824768D01*
X98341071Y-100824769D01*
X98341069Y-100824771D01*
X98275488Y-100915034D01*
X98188365Y-101034948D01*
X98069973Y-101267304D01*
X98068913Y-101271066D01*
X97990140Y-101513502D01*
X97990140Y-101513505D01*
X97949500Y-101770097D01*
X97949500Y-127187198D01*
X97929815Y-127254237D01*
X97913181Y-127274879D01*
X95824879Y-129363181D01*
X95763556Y-129396666D01*
X95737198Y-129399500D01*
X95506518Y-129399500D01*
X95469652Y-129402401D01*
X95469646Y-129402402D01*
X95311827Y-129448253D01*
X95311824Y-129448255D01*
X95170358Y-129531917D01*
X95170350Y-129531923D01*
X95054143Y-129648130D01*
X95054137Y-129648138D01*
X94970475Y-129789604D01*
X94970473Y-129789607D01*
X94924622Y-129947426D01*
X94924621Y-129947432D01*
X94921720Y-129984298D01*
X94921720Y-130565062D01*
X94915651Y-130603379D01*
X94912361Y-130613503D01*
X94871720Y-130870103D01*
X65567061Y-130870103D01*
X65560841Y-130852329D01*
X65513935Y-130718278D01*
X65372585Y-130424763D01*
X65199261Y-130148919D01*
X64996143Y-129894217D01*
X64765783Y-129663857D01*
X64746069Y-129648136D01*
X64701097Y-129612272D01*
X64511081Y-129460739D01*
X64235237Y-129287415D01*
X64235234Y-129287413D01*
X63941725Y-129146066D01*
X63634238Y-129038471D01*
X63634226Y-129038467D01*
X63316620Y-128965976D01*
X63316604Y-128965974D01*
X62992893Y-128929500D01*
X62992889Y-128929500D01*
X62667111Y-128929500D01*
X62667107Y-128929500D01*
X62343395Y-128965974D01*
X62343379Y-128965976D01*
X62025773Y-129038467D01*
X62025761Y-129038471D01*
X61718274Y-129146066D01*
X61424765Y-129287413D01*
X61148920Y-129460738D01*
X60894217Y-129663856D01*
X60663856Y-129894217D01*
X60460738Y-130148920D01*
X60287413Y-130424765D01*
X60146066Y-130718274D01*
X60038471Y-131025761D01*
X60038467Y-131025773D01*
X59965976Y-131343379D01*
X59965974Y-131343395D01*
X59929500Y-131667106D01*
X55075500Y-131667106D01*
X55075500Y-124047106D01*
X59929500Y-124047106D01*
X59929500Y-124372893D01*
X59965974Y-124696604D01*
X59965976Y-124696620D01*
X60038467Y-125014226D01*
X60038471Y-125014238D01*
X60146066Y-125321725D01*
X60287413Y-125615234D01*
X60287415Y-125615237D01*
X60460739Y-125891081D01*
X60663857Y-126145783D01*
X60894217Y-126376143D01*
X61148919Y-126579261D01*
X61424763Y-126752585D01*
X61718278Y-126893935D01*
X61949217Y-126974744D01*
X62025761Y-127001528D01*
X62025773Y-127001532D01*
X62343383Y-127074024D01*
X62667106Y-127110499D01*
X62667107Y-127110500D01*
X62667111Y-127110500D01*
X62992893Y-127110500D01*
X62992893Y-127110499D01*
X63316617Y-127074024D01*
X63634227Y-127001532D01*
X63941722Y-126893935D01*
X64235237Y-126752585D01*
X64511081Y-126579261D01*
X64765783Y-126376143D01*
X64996143Y-126145783D01*
X65199261Y-125891081D01*
X65372585Y-125615237D01*
X65513935Y-125321722D01*
X65621532Y-125014227D01*
X65694024Y-124696617D01*
X65730500Y-124372889D01*
X65730500Y-124047111D01*
X65694024Y-123723383D01*
X65621532Y-123405773D01*
X65513935Y-123098278D01*
X65372585Y-122804763D01*
X65199261Y-122528919D01*
X64996143Y-122274217D01*
X64765783Y-122043857D01*
X64511081Y-121840739D01*
X64283007Y-121697431D01*
X64235234Y-121667413D01*
X63941725Y-121526066D01*
X63634238Y-121418471D01*
X63634226Y-121418467D01*
X63316620Y-121345976D01*
X63316604Y-121345974D01*
X62992893Y-121309500D01*
X62992889Y-121309500D01*
X62667111Y-121309500D01*
X62667107Y-121309500D01*
X62343395Y-121345974D01*
X62343379Y-121345976D01*
X62025773Y-121418467D01*
X62025761Y-121418471D01*
X61718274Y-121526066D01*
X61424765Y-121667413D01*
X61148920Y-121840738D01*
X60894217Y-122043856D01*
X60663856Y-122274217D01*
X60460738Y-122528920D01*
X60287413Y-122804765D01*
X60146066Y-123098274D01*
X60038471Y-123405761D01*
X60038467Y-123405773D01*
X59965976Y-123723379D01*
X59965974Y-123723395D01*
X59929500Y-124047106D01*
X55075500Y-124047106D01*
X55075500Y-116427106D01*
X59929500Y-116427106D01*
X59929500Y-116752893D01*
X59965974Y-117076604D01*
X59965976Y-117076620D01*
X60038467Y-117394226D01*
X60038471Y-117394238D01*
X60146066Y-117701725D01*
X60287413Y-117995234D01*
X60287415Y-117995237D01*
X60460739Y-118271081D01*
X60663857Y-118525783D01*
X60894217Y-118756143D01*
X61148919Y-118959261D01*
X61424763Y-119132585D01*
X61718278Y-119273935D01*
X61949217Y-119354744D01*
X62025761Y-119381528D01*
X62025773Y-119381532D01*
X62343383Y-119454024D01*
X62667106Y-119490499D01*
X62667107Y-119490500D01*
X62667111Y-119490500D01*
X62992893Y-119490500D01*
X62992893Y-119490499D01*
X63316617Y-119454024D01*
X63634227Y-119381532D01*
X63941722Y-119273935D01*
X64235237Y-119132585D01*
X64511081Y-118959261D01*
X64765783Y-118756143D01*
X64996143Y-118525783D01*
X65199261Y-118271081D01*
X65372585Y-117995237D01*
X65513935Y-117701722D01*
X65621532Y-117394227D01*
X65694024Y-117076617D01*
X65730500Y-116752889D01*
X65730500Y-116427111D01*
X65694024Y-116103383D01*
X65682641Y-116053511D01*
X65672588Y-116009463D01*
X65666844Y-115984298D01*
X75921720Y-115984298D01*
X75921720Y-118015701D01*
X75924621Y-118052567D01*
X75924622Y-118052573D01*
X75970473Y-118210392D01*
X75970475Y-118210395D01*
X76054137Y-118351861D01*
X76054143Y-118351869D01*
X76170350Y-118468076D01*
X76170354Y-118468079D01*
X76170356Y-118468081D01*
X76311823Y-118551744D01*
X76311824Y-118551744D01*
X76311827Y-118551746D01*
X76469646Y-118597597D01*
X76469649Y-118597597D01*
X76469651Y-118597598D01*
X76506526Y-118600500D01*
X76506534Y-118600500D01*
X78537906Y-118600500D01*
X78537914Y-118600500D01*
X78574789Y-118597598D01*
X78574791Y-118597597D01*
X78574793Y-118597597D01*
X78732612Y-118551746D01*
X78732613Y-118551745D01*
X78732617Y-118551744D01*
X78874084Y-118468081D01*
X78990301Y-118351864D01*
X79073964Y-118210397D01*
X79073965Y-118210392D01*
X79073966Y-118210392D01*
X79119817Y-118052573D01*
X79119818Y-118052567D01*
X79122719Y-118015701D01*
X79122720Y-118015694D01*
X79122720Y-116888575D01*
X83322220Y-116888575D01*
X83322220Y-117111424D01*
X83351305Y-117332354D01*
X83351308Y-117332367D01*
X83408983Y-117547618D01*
X83494265Y-117753502D01*
X83494274Y-117753520D01*
X83605684Y-117946491D01*
X83605693Y-117946504D01*
X83656260Y-118012403D01*
X83656263Y-118012403D01*
X84457607Y-117211059D01*
X84463109Y-117231591D01*
X84542101Y-117368408D01*
X84653812Y-117480119D01*
X84790629Y-117559111D01*
X84811160Y-117564612D01*
X84009815Y-118365955D01*
X84009815Y-118365956D01*
X84075727Y-118416533D01*
X84268705Y-118527949D01*
X84268717Y-118527954D01*
X84474601Y-118613236D01*
X84689852Y-118670911D01*
X84689865Y-118670914D01*
X84910795Y-118700000D01*
X85133645Y-118700000D01*
X85354574Y-118670914D01*
X85354587Y-118670911D01*
X85569838Y-118613236D01*
X85775722Y-118527954D01*
X85775734Y-118527949D01*
X85968718Y-118416530D01*
X86034623Y-118365957D01*
X86034624Y-118365956D01*
X85233279Y-117564612D01*
X85253811Y-117559111D01*
X85390628Y-117480119D01*
X85502339Y-117368408D01*
X85581331Y-117231591D01*
X85586832Y-117211059D01*
X86388176Y-118012404D01*
X86388177Y-118012403D01*
X86438750Y-117946498D01*
X86550169Y-117753514D01*
X86550174Y-117753502D01*
X86635456Y-117547618D01*
X86693131Y-117332367D01*
X86693134Y-117332354D01*
X86722220Y-117111424D01*
X86722220Y-116888575D01*
X86693134Y-116667645D01*
X86693131Y-116667632D01*
X86635456Y-116452381D01*
X86550174Y-116246497D01*
X86550169Y-116246485D01*
X86438753Y-116053507D01*
X86388176Y-115987595D01*
X86388175Y-115987595D01*
X85586832Y-116788939D01*
X85581331Y-116768409D01*
X85502339Y-116631592D01*
X85390628Y-116519881D01*
X85253811Y-116440889D01*
X85233278Y-116435387D01*
X86034623Y-115634043D01*
X86034623Y-115634040D01*
X85968724Y-115583473D01*
X85968711Y-115583464D01*
X85775740Y-115472054D01*
X85775722Y-115472045D01*
X85569838Y-115386763D01*
X85354587Y-115329088D01*
X85354574Y-115329085D01*
X85133645Y-115300000D01*
X84910795Y-115300000D01*
X84689865Y-115329085D01*
X84689852Y-115329088D01*
X84474601Y-115386763D01*
X84268717Y-115472045D01*
X84268699Y-115472054D01*
X84075731Y-115583462D01*
X84009815Y-115634042D01*
X84811161Y-116435387D01*
X84790629Y-116440889D01*
X84653812Y-116519881D01*
X84542101Y-116631592D01*
X84463109Y-116768409D01*
X84457607Y-116788940D01*
X83656262Y-115987595D01*
X83605682Y-116053511D01*
X83494274Y-116246479D01*
X83494265Y-116246497D01*
X83408983Y-116452381D01*
X83351308Y-116667632D01*
X83351305Y-116667645D01*
X83322220Y-116888575D01*
X79122720Y-116888575D01*
X79122720Y-115984306D01*
X79119818Y-115947431D01*
X79100641Y-115881423D01*
X79073966Y-115789607D01*
X79073964Y-115789604D01*
X79073964Y-115789603D01*
X79026371Y-115709127D01*
X78990305Y-115648141D01*
X78990296Y-115648130D01*
X78874089Y-115531923D01*
X78874081Y-115531917D01*
X78732615Y-115448255D01*
X78732612Y-115448253D01*
X78574793Y-115402402D01*
X78574787Y-115402401D01*
X78537921Y-115399500D01*
X78537914Y-115399500D01*
X76506526Y-115399500D01*
X76506518Y-115399500D01*
X76469652Y-115402401D01*
X76469646Y-115402402D01*
X76311827Y-115448253D01*
X76311824Y-115448255D01*
X76170358Y-115531917D01*
X76170350Y-115531923D01*
X76054143Y-115648130D01*
X76054137Y-115648138D01*
X75970475Y-115789604D01*
X75970473Y-115789607D01*
X75924622Y-115947426D01*
X75924621Y-115947432D01*
X75921720Y-115984298D01*
X65666844Y-115984298D01*
X65621531Y-115785769D01*
X65621528Y-115785761D01*
X65594712Y-115709127D01*
X65513935Y-115478278D01*
X65372585Y-115184763D01*
X65199261Y-114908919D01*
X64996143Y-114654217D01*
X64765783Y-114423857D01*
X64511081Y-114220739D01*
X64235237Y-114047415D01*
X64235234Y-114047413D01*
X63941725Y-113906066D01*
X63634238Y-113798471D01*
X63634226Y-113798467D01*
X63316620Y-113725976D01*
X63316604Y-113725974D01*
X62992893Y-113689500D01*
X62992889Y-113689500D01*
X62667111Y-113689500D01*
X62667107Y-113689500D01*
X62343395Y-113725974D01*
X62343379Y-113725976D01*
X62025773Y-113798467D01*
X62025761Y-113798471D01*
X61718274Y-113906066D01*
X61424765Y-114047413D01*
X61148920Y-114220738D01*
X60894217Y-114423856D01*
X60663856Y-114654217D01*
X60460738Y-114908920D01*
X60287413Y-115184765D01*
X60146066Y-115478274D01*
X60038471Y-115785761D01*
X60038467Y-115785773D01*
X59965976Y-116103379D01*
X59965974Y-116103395D01*
X59929500Y-116427106D01*
X55075500Y-116427106D01*
X55075500Y-108807106D01*
X59929500Y-108807106D01*
X59929500Y-109132893D01*
X59965974Y-109456604D01*
X59965976Y-109456620D01*
X60038467Y-109774226D01*
X60038471Y-109774238D01*
X60146066Y-110081725D01*
X60287413Y-110375234D01*
X60287415Y-110375237D01*
X60460739Y-110651081D01*
X60663857Y-110905783D01*
X60894217Y-111136143D01*
X61148919Y-111339261D01*
X61424763Y-111512585D01*
X61718278Y-111653935D01*
X61884639Y-111712147D01*
X62025761Y-111761528D01*
X62025773Y-111761532D01*
X62343383Y-111834024D01*
X62667106Y-111870499D01*
X62667107Y-111870500D01*
X62667111Y-111870500D01*
X62992893Y-111870500D01*
X62992893Y-111870499D01*
X63316617Y-111834024D01*
X63634227Y-111761532D01*
X63941722Y-111653935D01*
X64235237Y-111512585D01*
X64511081Y-111339261D01*
X64765783Y-111136143D01*
X64996143Y-110905783D01*
X65199261Y-110651081D01*
X65372585Y-110375237D01*
X65513935Y-110081722D01*
X65621532Y-109774227D01*
X65694024Y-109456617D01*
X65730500Y-109132889D01*
X65730500Y-108874038D01*
X94399500Y-108874038D01*
X94399500Y-109125961D01*
X94438910Y-109374785D01*
X94516760Y-109614383D01*
X94631132Y-109838848D01*
X94779201Y-110042649D01*
X94779205Y-110042654D01*
X94957345Y-110220794D01*
X94957350Y-110220798D01*
X95075300Y-110306493D01*
X95161155Y-110368870D01*
X95304184Y-110441747D01*
X95385616Y-110483239D01*
X95385618Y-110483239D01*
X95385621Y-110483241D01*
X95625215Y-110561090D01*
X95874038Y-110600500D01*
X95874039Y-110600500D01*
X96125961Y-110600500D01*
X96125962Y-110600500D01*
X96374785Y-110561090D01*
X96614379Y-110483241D01*
X96838845Y-110368870D01*
X97042656Y-110220793D01*
X97220793Y-110042656D01*
X97368870Y-109838845D01*
X97483241Y-109614379D01*
X97561090Y-109374785D01*
X97600500Y-109125962D01*
X97600500Y-108874038D01*
X97561090Y-108625215D01*
X97483241Y-108385621D01*
X97483239Y-108385618D01*
X97483239Y-108385616D01*
X97384264Y-108191368D01*
X97368870Y-108161155D01*
X97251804Y-108000027D01*
X97220798Y-107957350D01*
X97220794Y-107957345D01*
X97042654Y-107779205D01*
X97042649Y-107779201D01*
X96838848Y-107631132D01*
X96838847Y-107631131D01*
X96838845Y-107631130D01*
X96741745Y-107581655D01*
X96614383Y-107516760D01*
X96374785Y-107438910D01*
X96125962Y-107399500D01*
X95874038Y-107399500D01*
X95749626Y-107419205D01*
X95625214Y-107438910D01*
X95385616Y-107516760D01*
X95161151Y-107631132D01*
X94957350Y-107779201D01*
X94957345Y-107779205D01*
X94779205Y-107957345D01*
X94779201Y-107957350D01*
X94631132Y-108161151D01*
X94516760Y-108385616D01*
X94438910Y-108625214D01*
X94399500Y-108874038D01*
X65730500Y-108874038D01*
X65730500Y-108807111D01*
X65694024Y-108483383D01*
X65621532Y-108165773D01*
X65513935Y-107858278D01*
X65372585Y-107564763D01*
X65199261Y-107288919D01*
X64996143Y-107034217D01*
X64765783Y-106803857D01*
X64511081Y-106600739D01*
X64235237Y-106427415D01*
X64235234Y-106427413D01*
X63941725Y-106286066D01*
X63634238Y-106178471D01*
X63634226Y-106178467D01*
X63316620Y-106105976D01*
X63316604Y-106105974D01*
X62992893Y-106069500D01*
X62992889Y-106069500D01*
X62667111Y-106069500D01*
X62667107Y-106069500D01*
X62343395Y-106105974D01*
X62343379Y-106105976D01*
X62025773Y-106178467D01*
X62025761Y-106178471D01*
X61718274Y-106286066D01*
X61424765Y-106427413D01*
X61148920Y-106600738D01*
X60894217Y-106803856D01*
X60663856Y-107034217D01*
X60460738Y-107288920D01*
X60287413Y-107564765D01*
X60146066Y-107858274D01*
X60038471Y-108165761D01*
X60038467Y-108165773D01*
X59965976Y-108483379D01*
X59965974Y-108483395D01*
X59929500Y-108807106D01*
X55075500Y-108807106D01*
X55075500Y-86017486D01*
X59114500Y-86017486D01*
X59114500Y-86202513D01*
X59143445Y-86385265D01*
X59200619Y-86561232D01*
X59200620Y-86561235D01*
X59237878Y-86634356D01*
X59284622Y-86726096D01*
X59393379Y-86875787D01*
X59524213Y-87006621D01*
X59673904Y-87115378D01*
X59754763Y-87156577D01*
X59838764Y-87199379D01*
X59838767Y-87199380D01*
X59926750Y-87227967D01*
X60014736Y-87256555D01*
X60019798Y-87257356D01*
X60020872Y-87257527D01*
X60084007Y-87287456D01*
X60120938Y-87346768D01*
X60119940Y-87416630D01*
X60081330Y-87474863D01*
X60020872Y-87502473D01*
X60014734Y-87503445D01*
X59838767Y-87560619D01*
X59838764Y-87560620D01*
X59673903Y-87644622D01*
X59588499Y-87706672D01*
X59524213Y-87753379D01*
X59524211Y-87753381D01*
X59524210Y-87753381D01*
X59393381Y-87884210D01*
X59393381Y-87884211D01*
X59393379Y-87884213D01*
X59346672Y-87948499D01*
X59284622Y-88033903D01*
X59200620Y-88198764D01*
X59200619Y-88198767D01*
X59143445Y-88374734D01*
X59114500Y-88557486D01*
X59114500Y-88742513D01*
X59143445Y-88925265D01*
X59200619Y-89101232D01*
X59200620Y-89101235D01*
X59284622Y-89266096D01*
X59393379Y-89415787D01*
X59524213Y-89546621D01*
X59673904Y-89655378D01*
X59754763Y-89696577D01*
X59838764Y-89739379D01*
X59838767Y-89739380D01*
X59926750Y-89767967D01*
X60014736Y-89796555D01*
X60019798Y-89797356D01*
X60020872Y-89797527D01*
X60084007Y-89827456D01*
X60120938Y-89886768D01*
X60119940Y-89956630D01*
X60081330Y-90014863D01*
X60020872Y-90042473D01*
X60014734Y-90043445D01*
X59838767Y-90100619D01*
X59838764Y-90100620D01*
X59673903Y-90184622D01*
X59588499Y-90246672D01*
X59524213Y-90293379D01*
X59524211Y-90293381D01*
X59524210Y-90293381D01*
X59393381Y-90424210D01*
X59393381Y-90424211D01*
X59393379Y-90424213D01*
X59346672Y-90488499D01*
X59284622Y-90573903D01*
X59200620Y-90738764D01*
X59200619Y-90738767D01*
X59143445Y-90914734D01*
X59114500Y-91097486D01*
X59114500Y-91282513D01*
X59143445Y-91465265D01*
X59200619Y-91641232D01*
X59200620Y-91641235D01*
X59284622Y-91806096D01*
X59393379Y-91955787D01*
X59524213Y-92086621D01*
X59673904Y-92195378D01*
X59754763Y-92236577D01*
X59838764Y-92279379D01*
X59838767Y-92279380D01*
X59926750Y-92307967D01*
X60014736Y-92336555D01*
X60019798Y-92337356D01*
X60020872Y-92337527D01*
X60084007Y-92367456D01*
X60120938Y-92426768D01*
X60119940Y-92496630D01*
X60081330Y-92554863D01*
X60020872Y-92582473D01*
X60014734Y-92583445D01*
X59838767Y-92640619D01*
X59838764Y-92640620D01*
X59673903Y-92724622D01*
X59588499Y-92786672D01*
X59524213Y-92833379D01*
X59524211Y-92833381D01*
X59524210Y-92833381D01*
X59393381Y-92964210D01*
X59393381Y-92964211D01*
X59393379Y-92964213D01*
X59346672Y-93028499D01*
X59284622Y-93113903D01*
X59200620Y-93278764D01*
X59200619Y-93278767D01*
X59143445Y-93454734D01*
X59114500Y-93637486D01*
X59114500Y-93822513D01*
X59143445Y-94005265D01*
X59200619Y-94181232D01*
X59200620Y-94181235D01*
X59263191Y-94304035D01*
X59284622Y-94346096D01*
X59393379Y-94495787D01*
X59524213Y-94626621D01*
X59673904Y-94735378D01*
X59754763Y-94776577D01*
X59838764Y-94819379D01*
X59838767Y-94819380D01*
X59926750Y-94847967D01*
X60014736Y-94876555D01*
X60019798Y-94877356D01*
X60020872Y-94877527D01*
X60084007Y-94907456D01*
X60120938Y-94966768D01*
X60119940Y-95036630D01*
X60081330Y-95094863D01*
X60020872Y-95122473D01*
X60014734Y-95123445D01*
X59838767Y-95180619D01*
X59838764Y-95180620D01*
X59673903Y-95264622D01*
X59588499Y-95326672D01*
X59524213Y-95373379D01*
X59524211Y-95373381D01*
X59524210Y-95373381D01*
X59393381Y-95504210D01*
X59393381Y-95504211D01*
X59393379Y-95504213D01*
X59346672Y-95568499D01*
X59284622Y-95653903D01*
X59200620Y-95818764D01*
X59200619Y-95818767D01*
X59143445Y-95994734D01*
X59114500Y-96177486D01*
X59114500Y-96362513D01*
X59143445Y-96545265D01*
X59200619Y-96721232D01*
X59200620Y-96721235D01*
X59245999Y-96810295D01*
X59284622Y-96886096D01*
X59393379Y-97035787D01*
X59524213Y-97166621D01*
X59673904Y-97275378D01*
X59748927Y-97313604D01*
X59838764Y-97359379D01*
X59838767Y-97359380D01*
X59926750Y-97387967D01*
X60014736Y-97416555D01*
X60019798Y-97417356D01*
X60020872Y-97417527D01*
X60084007Y-97447456D01*
X60120938Y-97506768D01*
X60119940Y-97576630D01*
X60081330Y-97634863D01*
X60020872Y-97662473D01*
X60014734Y-97663445D01*
X59838767Y-97720619D01*
X59838764Y-97720620D01*
X59673903Y-97804622D01*
X59611890Y-97849678D01*
X59524213Y-97913379D01*
X59524211Y-97913381D01*
X59524210Y-97913381D01*
X59393381Y-98044210D01*
X59393381Y-98044211D01*
X59393379Y-98044213D01*
X59346672Y-98108499D01*
X59284622Y-98193903D01*
X59200620Y-98358764D01*
X59200619Y-98358767D01*
X59143445Y-98534734D01*
X59114500Y-98717486D01*
X59114500Y-98902513D01*
X59143445Y-99085265D01*
X59200619Y-99261232D01*
X59200620Y-99261235D01*
X59249208Y-99356593D01*
X59284622Y-99426096D01*
X59393379Y-99575787D01*
X59524213Y-99706621D01*
X59673904Y-99815378D01*
X59754763Y-99856577D01*
X59838764Y-99899379D01*
X59838767Y-99899380D01*
X59926750Y-99927967D01*
X60014736Y-99956555D01*
X60019798Y-99957356D01*
X60020872Y-99957527D01*
X60084007Y-99987456D01*
X60120938Y-100046768D01*
X60119940Y-100116630D01*
X60081330Y-100174863D01*
X60020872Y-100202473D01*
X60014734Y-100203445D01*
X59838767Y-100260619D01*
X59838764Y-100260620D01*
X59673903Y-100344622D01*
X59588499Y-100406672D01*
X59524213Y-100453379D01*
X59524211Y-100453381D01*
X59524210Y-100453381D01*
X59393381Y-100584210D01*
X59393381Y-100584211D01*
X59393379Y-100584213D01*
X59346672Y-100648499D01*
X59284622Y-100733903D01*
X59200620Y-100898764D01*
X59200619Y-100898767D01*
X59143445Y-101074734D01*
X59143445Y-101074736D01*
X59114500Y-101257486D01*
X59114500Y-101442514D01*
X59125744Y-101513505D01*
X59143445Y-101625265D01*
X59200619Y-101801232D01*
X59200620Y-101801235D01*
X59244012Y-101886395D01*
X59284622Y-101966096D01*
X59393379Y-102115787D01*
X59524213Y-102246621D01*
X59673904Y-102355378D01*
X59754763Y-102396577D01*
X59838764Y-102439379D01*
X59838770Y-102439381D01*
X59940914Y-102472569D01*
X59998590Y-102512006D01*
X60025789Y-102576364D01*
X60013875Y-102645211D01*
X59966631Y-102696687D01*
X59902598Y-102714500D01*
X59699318Y-102714500D01*
X59699292Y-102714501D01*
X59662429Y-102717402D01*
X59504605Y-102763254D01*
X59504602Y-102763255D01*
X59363138Y-102846916D01*
X59363129Y-102846923D01*
X59246923Y-102963129D01*
X59246916Y-102963138D01*
X59163255Y-103104602D01*
X59163254Y-103104605D01*
X59117402Y-103262425D01*
X59117401Y-103262431D01*
X59114500Y-103299297D01*
X59114500Y-104480682D01*
X59114501Y-104480707D01*
X59117402Y-104517570D01*
X59163254Y-104675394D01*
X59163255Y-104675397D01*
X59246916Y-104816861D01*
X59246923Y-104816870D01*
X59363129Y-104933076D01*
X59363133Y-104933079D01*
X59363135Y-104933081D01*
X59504601Y-105016744D01*
X59546223Y-105028836D01*
X59662425Y-105062597D01*
X59662428Y-105062597D01*
X59662430Y-105062598D01*
X59699305Y-105065500D01*
X60880694Y-105065499D01*
X60917570Y-105062598D01*
X61075399Y-105016744D01*
X61216865Y-104933081D01*
X61333081Y-104816865D01*
X61416744Y-104675399D01*
X61462598Y-104517570D01*
X61465500Y-104480695D01*
X61465499Y-104277402D01*
X61485183Y-104210365D01*
X61537987Y-104164610D01*
X61607145Y-104154666D01*
X61670701Y-104183691D01*
X61707430Y-104239085D01*
X61740621Y-104341235D01*
X61740620Y-104341235D01*
X61824622Y-104506096D01*
X61933379Y-104655787D01*
X62064213Y-104786621D01*
X62213904Y-104895378D01*
X62287890Y-104933076D01*
X62378764Y-104979379D01*
X62378767Y-104979380D01*
X62466750Y-105007967D01*
X62554736Y-105036555D01*
X62737486Y-105065500D01*
X62737487Y-105065500D01*
X62922513Y-105065500D01*
X62922514Y-105065500D01*
X63105264Y-105036555D01*
X63281235Y-104979379D01*
X63446096Y-104895378D01*
X63595787Y-104786621D01*
X63726621Y-104655787D01*
X63835378Y-104506096D01*
X63919379Y-104341235D01*
X63976555Y-104165264D01*
X63977527Y-104159126D01*
X64007455Y-104095994D01*
X64066766Y-104059062D01*
X64136629Y-104060058D01*
X64194862Y-104098667D01*
X64222472Y-104159126D01*
X64223445Y-104165264D01*
X64223446Y-104165269D01*
X64280619Y-104341232D01*
X64280620Y-104341235D01*
X64364622Y-104506096D01*
X64473379Y-104655787D01*
X64604213Y-104786621D01*
X64753904Y-104895378D01*
X64827890Y-104933076D01*
X64918764Y-104979379D01*
X64918767Y-104979380D01*
X65006750Y-105007967D01*
X65094736Y-105036555D01*
X65277486Y-105065500D01*
X65277487Y-105065500D01*
X65462513Y-105065500D01*
X65462514Y-105065500D01*
X65645264Y-105036555D01*
X65821235Y-104979379D01*
X65986096Y-104895378D01*
X66135787Y-104786621D01*
X66266621Y-104655787D01*
X66375378Y-104506096D01*
X66459379Y-104341235D01*
X66516555Y-104165264D01*
X66545500Y-103982514D01*
X66545500Y-103797486D01*
X66516555Y-103614736D01*
X66459379Y-103438765D01*
X66459379Y-103438764D01*
X66416577Y-103354763D01*
X66375378Y-103273904D01*
X66266621Y-103124213D01*
X66135787Y-102993379D01*
X65986096Y-102884622D01*
X65821235Y-102800620D01*
X65821232Y-102800619D01*
X65645269Y-102743446D01*
X65645265Y-102743445D01*
X65645264Y-102743445D01*
X65639126Y-102742472D01*
X65575994Y-102712545D01*
X65539062Y-102653234D01*
X65540058Y-102583371D01*
X65578667Y-102525138D01*
X65639126Y-102497527D01*
X65645264Y-102496555D01*
X65821235Y-102439379D01*
X65986096Y-102355378D01*
X66135787Y-102246621D01*
X66266621Y-102115787D01*
X66375378Y-101966096D01*
X66459379Y-101801235D01*
X66516555Y-101625264D01*
X66545500Y-101442514D01*
X66545500Y-101257486D01*
X66516555Y-101074736D01*
X66459379Y-100898765D01*
X66459379Y-100898764D01*
X66382039Y-100746977D01*
X66375378Y-100733904D01*
X66266621Y-100584213D01*
X66135787Y-100453379D01*
X65986096Y-100344622D01*
X65821235Y-100260620D01*
X65821232Y-100260619D01*
X65645269Y-100203446D01*
X65645265Y-100203445D01*
X65645264Y-100203445D01*
X65639126Y-100202472D01*
X65575994Y-100172545D01*
X65539062Y-100113234D01*
X65540058Y-100043371D01*
X65578667Y-99985138D01*
X65639126Y-99957527D01*
X65645264Y-99956555D01*
X65821235Y-99899379D01*
X65986096Y-99815378D01*
X66135787Y-99706621D01*
X66266621Y-99575787D01*
X66375378Y-99426096D01*
X66459379Y-99261235D01*
X66516555Y-99085264D01*
X66545500Y-98902514D01*
X66545500Y-98717486D01*
X66516555Y-98534736D01*
X66459379Y-98358765D01*
X66459379Y-98358764D01*
X66375377Y-98193903D01*
X66266621Y-98044213D01*
X66135787Y-97913379D01*
X65986096Y-97804622D01*
X65821235Y-97720620D01*
X65821232Y-97720619D01*
X65645269Y-97663446D01*
X65645265Y-97663445D01*
X65645264Y-97663445D01*
X65639126Y-97662472D01*
X65575994Y-97632545D01*
X65539062Y-97573234D01*
X65540058Y-97503371D01*
X65578667Y-97445138D01*
X65639126Y-97417527D01*
X65645264Y-97416555D01*
X65821235Y-97359379D01*
X65986096Y-97275378D01*
X66135787Y-97166621D01*
X66266621Y-97035787D01*
X66375378Y-96886096D01*
X66459379Y-96721235D01*
X66516555Y-96545264D01*
X66545500Y-96362514D01*
X66545500Y-96177486D01*
X66516555Y-95994736D01*
X66459379Y-95818765D01*
X66459379Y-95818764D01*
X66375377Y-95653903D01*
X66266621Y-95504213D01*
X66135787Y-95373379D01*
X65986096Y-95264622D01*
X65821235Y-95180620D01*
X65821232Y-95180619D01*
X65645269Y-95123446D01*
X65645265Y-95123445D01*
X65645264Y-95123445D01*
X65639126Y-95122472D01*
X65575994Y-95092545D01*
X65539062Y-95033234D01*
X65540058Y-94963371D01*
X65578667Y-94905138D01*
X65639126Y-94877527D01*
X65645264Y-94876555D01*
X65821235Y-94819379D01*
X65986096Y-94735378D01*
X66135787Y-94626621D01*
X66266621Y-94495787D01*
X66375378Y-94346096D01*
X66459379Y-94181235D01*
X66516555Y-94005264D01*
X66545500Y-93822514D01*
X66545500Y-93637486D01*
X66516555Y-93454736D01*
X66459379Y-93278765D01*
X66459379Y-93278764D01*
X66416577Y-93194763D01*
X66375378Y-93113904D01*
X66266621Y-92964213D01*
X66135787Y-92833379D01*
X65986096Y-92724622D01*
X65821235Y-92640620D01*
X65821232Y-92640619D01*
X65645269Y-92583446D01*
X65645265Y-92583445D01*
X65645264Y-92583445D01*
X65639126Y-92582472D01*
X65575994Y-92552545D01*
X65539062Y-92493234D01*
X65540058Y-92423371D01*
X65578667Y-92365138D01*
X65639126Y-92337527D01*
X65645264Y-92336555D01*
X65821235Y-92279379D01*
X65986096Y-92195378D01*
X66135787Y-92086621D01*
X66266621Y-91955787D01*
X66375378Y-91806096D01*
X66459379Y-91641235D01*
X66516555Y-91465264D01*
X66545500Y-91282514D01*
X66545500Y-91097486D01*
X66516555Y-90914736D01*
X66459379Y-90738765D01*
X66459379Y-90738764D01*
X66375377Y-90573903D01*
X66266621Y-90424213D01*
X66135787Y-90293379D01*
X65986096Y-90184622D01*
X65954406Y-90168475D01*
X65821235Y-90100620D01*
X65821232Y-90100619D01*
X65645269Y-90043446D01*
X65645265Y-90043445D01*
X65645264Y-90043445D01*
X65639126Y-90042472D01*
X65575994Y-90012545D01*
X65539062Y-89953234D01*
X65540058Y-89883371D01*
X65578667Y-89825138D01*
X65639126Y-89797527D01*
X65645264Y-89796555D01*
X65821235Y-89739379D01*
X65986096Y-89655378D01*
X66135787Y-89546621D01*
X66266621Y-89415787D01*
X66375378Y-89266096D01*
X66459379Y-89101235D01*
X66516555Y-88925264D01*
X66545500Y-88742514D01*
X66545500Y-88557486D01*
X66516555Y-88374736D01*
X66459379Y-88198765D01*
X66459379Y-88198764D01*
X66375377Y-88033903D01*
X66266621Y-87884213D01*
X66135787Y-87753379D01*
X65986096Y-87644622D01*
X65821235Y-87560620D01*
X65821232Y-87560619D01*
X65645269Y-87503446D01*
X65645265Y-87503445D01*
X65645264Y-87503445D01*
X65639126Y-87502472D01*
X65575994Y-87472545D01*
X65539062Y-87413234D01*
X65540058Y-87343371D01*
X65578667Y-87285138D01*
X65639126Y-87257527D01*
X65645264Y-87256555D01*
X65821235Y-87199379D01*
X65986096Y-87115378D01*
X66135787Y-87006621D01*
X66266621Y-86875787D01*
X66375378Y-86726096D01*
X66459379Y-86561235D01*
X66516555Y-86385264D01*
X66545500Y-86202514D01*
X66545500Y-86017486D01*
X66516555Y-85834736D01*
X66459379Y-85658765D01*
X66459379Y-85658764D01*
X66408603Y-85559111D01*
X66375378Y-85493904D01*
X66266621Y-85344213D01*
X66135787Y-85213379D01*
X65986096Y-85104622D01*
X65821235Y-85020620D01*
X65821232Y-85020619D01*
X65718059Y-84987097D01*
X65645265Y-84963445D01*
X65553889Y-84948972D01*
X65462514Y-84934500D01*
X65277486Y-84934500D01*
X65216569Y-84944148D01*
X65094734Y-84963445D01*
X64918767Y-85020619D01*
X64918764Y-85020620D01*
X64753903Y-85104622D01*
X64668499Y-85166672D01*
X64604213Y-85213379D01*
X64604211Y-85213381D01*
X64604210Y-85213381D01*
X64473381Y-85344210D01*
X64473381Y-85344211D01*
X64473379Y-85344213D01*
X64451167Y-85374785D01*
X64364622Y-85493903D01*
X64280620Y-85658764D01*
X64280619Y-85658767D01*
X64223445Y-85834734D01*
X64222473Y-85840872D01*
X64192544Y-85904007D01*
X64133232Y-85940938D01*
X64063370Y-85939940D01*
X64005137Y-85901330D01*
X63977527Y-85840872D01*
X63977206Y-85838845D01*
X63976555Y-85834736D01*
X63919379Y-85658765D01*
X63919379Y-85658764D01*
X63868603Y-85559111D01*
X63835378Y-85493904D01*
X63726621Y-85344213D01*
X63595787Y-85213379D01*
X63446096Y-85104622D01*
X63281235Y-85020620D01*
X63281232Y-85020619D01*
X63105265Y-84963445D01*
X63013889Y-84948972D01*
X62922514Y-84934500D01*
X62737486Y-84934500D01*
X62676569Y-84944148D01*
X62554734Y-84963445D01*
X62378767Y-85020619D01*
X62378764Y-85020620D01*
X62213903Y-85104622D01*
X62128499Y-85166672D01*
X62064213Y-85213379D01*
X62064211Y-85213381D01*
X62064210Y-85213381D01*
X61933381Y-85344210D01*
X61933381Y-85344211D01*
X61933379Y-85344213D01*
X61911167Y-85374785D01*
X61824622Y-85493903D01*
X61740620Y-85658764D01*
X61740619Y-85658767D01*
X61683445Y-85834734D01*
X61682473Y-85840872D01*
X61652544Y-85904007D01*
X61593232Y-85940938D01*
X61523370Y-85939940D01*
X61465137Y-85901330D01*
X61437527Y-85840872D01*
X61437206Y-85838845D01*
X61436555Y-85834736D01*
X61379379Y-85658765D01*
X61379379Y-85658764D01*
X61328603Y-85559111D01*
X61295378Y-85493904D01*
X61186621Y-85344213D01*
X61055787Y-85213379D01*
X60906096Y-85104622D01*
X60741235Y-85020620D01*
X60741232Y-85020619D01*
X60565265Y-84963445D01*
X60473889Y-84948972D01*
X60382514Y-84934500D01*
X60197486Y-84934500D01*
X60136569Y-84944148D01*
X60014734Y-84963445D01*
X59838767Y-85020619D01*
X59838764Y-85020620D01*
X59673903Y-85104622D01*
X59588499Y-85166672D01*
X59524213Y-85213379D01*
X59524211Y-85213381D01*
X59524210Y-85213381D01*
X59393381Y-85344210D01*
X59393381Y-85344211D01*
X59393379Y-85344213D01*
X59371167Y-85374785D01*
X59284622Y-85493903D01*
X59200620Y-85658764D01*
X59200619Y-85658767D01*
X59143445Y-85834734D01*
X59114500Y-86017486D01*
X55075500Y-86017486D01*
X55075500Y-84874038D01*
X76399500Y-84874038D01*
X76399500Y-85125962D01*
X76413346Y-85213379D01*
X76438910Y-85374785D01*
X76516760Y-85614383D01*
X76595413Y-85768747D01*
X76629036Y-85834736D01*
X76631132Y-85838848D01*
X76779201Y-86042649D01*
X76779205Y-86042654D01*
X76957345Y-86220794D01*
X76957350Y-86220798D01*
X77038915Y-86280058D01*
X77161155Y-86368870D01*
X77304184Y-86441747D01*
X77385616Y-86483239D01*
X77385618Y-86483239D01*
X77385621Y-86483241D01*
X77625215Y-86561090D01*
X77874038Y-86600500D01*
X77874039Y-86600500D01*
X78125961Y-86600500D01*
X78125962Y-86600500D01*
X78374785Y-86561090D01*
X78614379Y-86483241D01*
X78838845Y-86368870D01*
X79042656Y-86220793D01*
X79220793Y-86042656D01*
X79368870Y-85838845D01*
X79483241Y-85614379D01*
X79561090Y-85374785D01*
X79600500Y-85125962D01*
X79600500Y-84874038D01*
X79561090Y-84625215D01*
X79483241Y-84385621D01*
X79483239Y-84385618D01*
X79483239Y-84385616D01*
X79421982Y-84265393D01*
X79368870Y-84161155D01*
X79302461Y-84069750D01*
X79251796Y-84000014D01*
X83800000Y-84000014D01*
X83800000Y-84750000D01*
X84951518Y-84750000D01*
X84940889Y-84768409D01*
X84900000Y-84921009D01*
X84900000Y-85078991D01*
X84940889Y-85231591D01*
X84951518Y-85250000D01*
X83800000Y-85250000D01*
X83800000Y-85999985D01*
X83810493Y-86102689D01*
X83810494Y-86102696D01*
X83865641Y-86269118D01*
X83865643Y-86269123D01*
X83957684Y-86418344D01*
X84081655Y-86542315D01*
X84230876Y-86634356D01*
X84230881Y-86634358D01*
X84397303Y-86689505D01*
X84397310Y-86689506D01*
X84500014Y-86699999D01*
X84500027Y-86700000D01*
X85250000Y-86700000D01*
X85250000Y-85548482D01*
X85268409Y-85559111D01*
X85421009Y-85600000D01*
X85578991Y-85600000D01*
X85731591Y-85559111D01*
X85750000Y-85548482D01*
X85750000Y-86700000D01*
X86499973Y-86700000D01*
X86499985Y-86699999D01*
X86602689Y-86689506D01*
X86602696Y-86689505D01*
X86769118Y-86634358D01*
X86769123Y-86634356D01*
X86918344Y-86542315D01*
X87042315Y-86418344D01*
X87134356Y-86269123D01*
X87134358Y-86269118D01*
X87189505Y-86102696D01*
X87189506Y-86102689D01*
X87199999Y-85999985D01*
X87200000Y-85999972D01*
X87200000Y-85250000D01*
X86048482Y-85250000D01*
X86059111Y-85231591D01*
X86100000Y-85078991D01*
X86100000Y-84921009D01*
X86059111Y-84768409D01*
X86048482Y-84750000D01*
X87200000Y-84750000D01*
X87200000Y-84000027D01*
X87199999Y-84000014D01*
X87189506Y-83897310D01*
X87189505Y-83897303D01*
X87134358Y-83730881D01*
X87134356Y-83730876D01*
X87042315Y-83581655D01*
X86918344Y-83457684D01*
X86769123Y-83365643D01*
X86769118Y-83365641D01*
X86602696Y-83310494D01*
X86602689Y-83310493D01*
X86499985Y-83300000D01*
X85750000Y-83300000D01*
X85750000Y-84451517D01*
X85731591Y-84440889D01*
X85578991Y-84400000D01*
X85421009Y-84400000D01*
X85268409Y-84440889D01*
X85250000Y-84451517D01*
X85250000Y-83300000D01*
X84500014Y-83300000D01*
X84397310Y-83310493D01*
X84397303Y-83310494D01*
X84230881Y-83365641D01*
X84230876Y-83365643D01*
X84081655Y-83457684D01*
X83957684Y-83581655D01*
X83865643Y-83730876D01*
X83865641Y-83730881D01*
X83810494Y-83897303D01*
X83810493Y-83897310D01*
X83800000Y-84000014D01*
X79251796Y-84000014D01*
X79220798Y-83957349D01*
X79042654Y-83779205D01*
X79042649Y-83779201D01*
X78838848Y-83631132D01*
X78838847Y-83631131D01*
X78838845Y-83631130D01*
X78723944Y-83572585D01*
X78614383Y-83516760D01*
X78374785Y-83438910D01*
X78125962Y-83399500D01*
X77874038Y-83399500D01*
X77749626Y-83419205D01*
X77625214Y-83438910D01*
X77385616Y-83516760D01*
X77161151Y-83631132D01*
X76957350Y-83779201D01*
X76957345Y-83779205D01*
X76779205Y-83957345D01*
X76779201Y-83957350D01*
X76631132Y-84161151D01*
X76516760Y-84385616D01*
X76473135Y-84519881D01*
X76438910Y-84625215D01*
X76399500Y-84874038D01*
X55075500Y-84874038D01*
X55075500Y-80867106D01*
X59929500Y-80867106D01*
X59929500Y-81192893D01*
X59965974Y-81516604D01*
X59965976Y-81516620D01*
X60038467Y-81834226D01*
X60038471Y-81834238D01*
X60146066Y-82141725D01*
X60287413Y-82435234D01*
X60287415Y-82435237D01*
X60460739Y-82711081D01*
X60663857Y-82965783D01*
X60894217Y-83196143D01*
X61148919Y-83399261D01*
X61424763Y-83572585D01*
X61718278Y-83713935D01*
X61904815Y-83779207D01*
X62025761Y-83821528D01*
X62025773Y-83821532D01*
X62343383Y-83894024D01*
X62667106Y-83930499D01*
X62667107Y-83930500D01*
X62667111Y-83930500D01*
X62992893Y-83930500D01*
X62992893Y-83930499D01*
X63316617Y-83894024D01*
X63634227Y-83821532D01*
X63941722Y-83713935D01*
X64235237Y-83572585D01*
X64511081Y-83399261D01*
X64765783Y-83196143D01*
X64996143Y-82965783D01*
X65199261Y-82711081D01*
X65372585Y-82435237D01*
X65513935Y-82141722D01*
X65621532Y-81834227D01*
X65694024Y-81516617D01*
X65730500Y-81192889D01*
X65730500Y-80867111D01*
X65694024Y-80543383D01*
X65621532Y-80225773D01*
X65513935Y-79918278D01*
X65372585Y-79624763D01*
X65199261Y-79348919D01*
X64996143Y-79094217D01*
X64765783Y-78863857D01*
X64511081Y-78660739D01*
X64254836Y-78499730D01*
X64235234Y-78487413D01*
X63941725Y-78346066D01*
X63634238Y-78238471D01*
X63634226Y-78238467D01*
X63316620Y-78165976D01*
X63316604Y-78165974D01*
X62992893Y-78129500D01*
X62992889Y-78129500D01*
X62667111Y-78129500D01*
X62667107Y-78129500D01*
X62343395Y-78165974D01*
X62343379Y-78165976D01*
X62025773Y-78238467D01*
X62025761Y-78238471D01*
X61718274Y-78346066D01*
X61424765Y-78487413D01*
X61148920Y-78660738D01*
X60894217Y-78863856D01*
X60663856Y-79094217D01*
X60460738Y-79348920D01*
X60287413Y-79624765D01*
X60146066Y-79918274D01*
X60038471Y-80225761D01*
X60038467Y-80225773D01*
X59965976Y-80543379D01*
X59965974Y-80543395D01*
X59929500Y-80867106D01*
X55075500Y-80867106D01*
X55075500Y-73241519D01*
X59830000Y-73241519D01*
X59830000Y-73578480D01*
X59867725Y-73913297D01*
X59867727Y-73913313D01*
X59942705Y-74241814D01*
X59942709Y-74241826D01*
X60053995Y-74559862D01*
X60200191Y-74863440D01*
X60379461Y-75148747D01*
X60538397Y-75348048D01*
X61571544Y-74314901D01*
X61647726Y-74419757D01*
X61820243Y-74592274D01*
X61925097Y-74668454D01*
X60891950Y-75701601D01*
X61091252Y-75860538D01*
X61376559Y-76039808D01*
X61680137Y-76186004D01*
X61998173Y-76297290D01*
X61998185Y-76297294D01*
X62326686Y-76372272D01*
X62326702Y-76372274D01*
X62661519Y-76409999D01*
X62661521Y-76410000D01*
X62998479Y-76410000D01*
X62998480Y-76409999D01*
X63333297Y-76372274D01*
X63333313Y-76372272D01*
X63661814Y-76297294D01*
X63661826Y-76297290D01*
X63979862Y-76186004D01*
X64283440Y-76039808D01*
X64568747Y-75860538D01*
X64768048Y-75701600D01*
X63734902Y-74668455D01*
X63839757Y-74592274D01*
X64012274Y-74419757D01*
X64088455Y-74314902D01*
X65121600Y-75348048D01*
X65280538Y-75148747D01*
X65459808Y-74863440D01*
X65606004Y-74559862D01*
X65717290Y-74241826D01*
X65717294Y-74241814D01*
X65792272Y-73913313D01*
X65792274Y-73913297D01*
X65829999Y-73578480D01*
X65830000Y-73578478D01*
X65830000Y-73241521D01*
X65829999Y-73241519D01*
X65792274Y-72906702D01*
X65792272Y-72906686D01*
X65717294Y-72578185D01*
X65717290Y-72578173D01*
X65606004Y-72260137D01*
X65459808Y-71956559D01*
X65280538Y-71671252D01*
X65121601Y-71471950D01*
X64088454Y-72505096D01*
X64012274Y-72400243D01*
X63839757Y-72227726D01*
X63734901Y-72151543D01*
X64768048Y-71118397D01*
X64568747Y-70959461D01*
X64283440Y-70780191D01*
X63979862Y-70633995D01*
X63661826Y-70522709D01*
X63661814Y-70522705D01*
X63333313Y-70447727D01*
X63333297Y-70447725D01*
X62998480Y-70410000D01*
X62661519Y-70410000D01*
X62326702Y-70447725D01*
X62326686Y-70447727D01*
X61998185Y-70522705D01*
X61998173Y-70522709D01*
X61680137Y-70633995D01*
X61376559Y-70780191D01*
X61091252Y-70959461D01*
X60891950Y-71118397D01*
X61925097Y-72151544D01*
X61820243Y-72227726D01*
X61647726Y-72400243D01*
X61571544Y-72505097D01*
X60538397Y-71471950D01*
X60379461Y-71671252D01*
X60200191Y-71956559D01*
X60053995Y-72260137D01*
X59942709Y-72578173D01*
X59942705Y-72578185D01*
X59867727Y-72906686D01*
X59867725Y-72906702D01*
X59830000Y-73241519D01*
X55075500Y-73241519D01*
X55075500Y-65627106D01*
X59929500Y-65627106D01*
X59929500Y-65952893D01*
X59965974Y-66276604D01*
X59965976Y-66276620D01*
X60038467Y-66594226D01*
X60038471Y-66594238D01*
X60146066Y-66901725D01*
X60287413Y-67195234D01*
X60287415Y-67195237D01*
X60460739Y-67471081D01*
X60663857Y-67725783D01*
X60894217Y-67956143D01*
X61148919Y-68159261D01*
X61424763Y-68332585D01*
X61718278Y-68473935D01*
X61949217Y-68554744D01*
X62025761Y-68581528D01*
X62025773Y-68581532D01*
X62343383Y-68654024D01*
X62667106Y-68690499D01*
X62667107Y-68690500D01*
X62667111Y-68690500D01*
X62992893Y-68690500D01*
X62992893Y-68690499D01*
X63316617Y-68654024D01*
X63634227Y-68581532D01*
X63941722Y-68473935D01*
X64235237Y-68332585D01*
X64511081Y-68159261D01*
X64765783Y-67956143D01*
X64996143Y-67725783D01*
X65199261Y-67471081D01*
X65372585Y-67195237D01*
X65513935Y-66901722D01*
X65621532Y-66594227D01*
X65694024Y-66276617D01*
X65730500Y-65952889D01*
X65730500Y-65627111D01*
X65694024Y-65303383D01*
X65621532Y-64985773D01*
X65513935Y-64678278D01*
X65372585Y-64384763D01*
X65199261Y-64108919D01*
X64996143Y-63854217D01*
X64765783Y-63623857D01*
X64511081Y-63420739D01*
X64235237Y-63247415D01*
X64235234Y-63247413D01*
X63941725Y-63106066D01*
X63634238Y-62998471D01*
X63634226Y-62998467D01*
X63316620Y-62925976D01*
X63316604Y-62925974D01*
X62992893Y-62889500D01*
X62992889Y-62889500D01*
X62667111Y-62889500D01*
X62667107Y-62889500D01*
X62343395Y-62925974D01*
X62343379Y-62925976D01*
X62025773Y-62998467D01*
X62025761Y-62998471D01*
X61718274Y-63106066D01*
X61424765Y-63247413D01*
X61148920Y-63420738D01*
X60894217Y-63623856D01*
X60663856Y-63854217D01*
X60460738Y-64108920D01*
X60287413Y-64384765D01*
X60146066Y-64678274D01*
X60038471Y-64985761D01*
X60038467Y-64985773D01*
X59965976Y-65303379D01*
X59965974Y-65303395D01*
X59929500Y-65627106D01*
X55075500Y-65627106D01*
X55075500Y-62154038D01*
X126399500Y-62154038D01*
X126399500Y-62405961D01*
X126438910Y-62654785D01*
X126516760Y-62894383D01*
X126532857Y-62925974D01*
X126624618Y-63106065D01*
X126631132Y-63118848D01*
X126779201Y-63322649D01*
X126779205Y-63322654D01*
X126957345Y-63500794D01*
X126957350Y-63500798D01*
X127070564Y-63583052D01*
X127161155Y-63648870D01*
X127279265Y-63709050D01*
X127385616Y-63763239D01*
X127385618Y-63763239D01*
X127385621Y-63763241D01*
X127625215Y-63841090D01*
X127874038Y-63880500D01*
X127874039Y-63880500D01*
X128125961Y-63880500D01*
X128125962Y-63880500D01*
X128374785Y-63841090D01*
X128614379Y-63763241D01*
X128838845Y-63648870D01*
X129042656Y-63500793D01*
X129220793Y-63322656D01*
X129368870Y-63118845D01*
X129483241Y-62894379D01*
X129561090Y-62654785D01*
X129600500Y-62405962D01*
X129600500Y-62154038D01*
X129561090Y-61905215D01*
X129483241Y-61665621D01*
X129483239Y-61665618D01*
X129483239Y-61665616D01*
X129441747Y-61584184D01*
X129368870Y-61441155D01*
X129349952Y-61415117D01*
X129220798Y-61237350D01*
X129220794Y-61237345D01*
X129042654Y-61059205D01*
X129042649Y-61059201D01*
X128838848Y-60911132D01*
X128838847Y-60911131D01*
X128838845Y-60911130D01*
X128768747Y-60875413D01*
X128614383Y-60796760D01*
X128374785Y-60718910D01*
X128125962Y-60679500D01*
X127874038Y-60679500D01*
X127749626Y-60699205D01*
X127625214Y-60718910D01*
X127385616Y-60796760D01*
X127161151Y-60911132D01*
X126957350Y-61059201D01*
X126957345Y-61059205D01*
X126779205Y-61237345D01*
X126779201Y-61237350D01*
X126631132Y-61441151D01*
X126516760Y-61665616D01*
X126438910Y-61905214D01*
X126399500Y-62154038D01*
X55075500Y-62154038D01*
X55075500Y-58001519D01*
X59830000Y-58001519D01*
X59830000Y-58338480D01*
X59867725Y-58673297D01*
X59867727Y-58673313D01*
X59942705Y-59001814D01*
X59942709Y-59001826D01*
X60053995Y-59319862D01*
X60200191Y-59623440D01*
X60379461Y-59908747D01*
X60538397Y-60108048D01*
X61571544Y-59074901D01*
X61647726Y-59179757D01*
X61820243Y-59352274D01*
X61925097Y-59428454D01*
X60891950Y-60461601D01*
X61091252Y-60620538D01*
X61376559Y-60799808D01*
X61680137Y-60946004D01*
X61998173Y-61057290D01*
X61998185Y-61057294D01*
X62326686Y-61132272D01*
X62326702Y-61132274D01*
X62661519Y-61169999D01*
X62661521Y-61170000D01*
X62998479Y-61170000D01*
X62998480Y-61169999D01*
X63333297Y-61132274D01*
X63333313Y-61132272D01*
X63661814Y-61057294D01*
X63661826Y-61057290D01*
X63979862Y-60946004D01*
X64283440Y-60799808D01*
X64568747Y-60620538D01*
X64768048Y-60461600D01*
X63734902Y-59428455D01*
X63839757Y-59352274D01*
X64012274Y-59179757D01*
X64088455Y-59074902D01*
X65121600Y-60108048D01*
X65280538Y-59908747D01*
X65459808Y-59623440D01*
X65606004Y-59319862D01*
X65717290Y-59001826D01*
X65717294Y-59001814D01*
X65792272Y-58673313D01*
X65792274Y-58673297D01*
X65829999Y-58338480D01*
X65830000Y-58338478D01*
X65830000Y-58001521D01*
X65829999Y-58001519D01*
X65792274Y-57666702D01*
X65792272Y-57666686D01*
X65717294Y-57338185D01*
X65717290Y-57338173D01*
X65606004Y-57020137D01*
X65459808Y-56716559D01*
X65280538Y-56431252D01*
X65121601Y-56231950D01*
X64088454Y-57265096D01*
X64012274Y-57160243D01*
X63839757Y-56987726D01*
X63734901Y-56911543D01*
X64768048Y-55878397D01*
X64568747Y-55719461D01*
X64283440Y-55540191D01*
X63979862Y-55393995D01*
X63661826Y-55282709D01*
X63661814Y-55282705D01*
X63333313Y-55207727D01*
X63333297Y-55207725D01*
X62998480Y-55170000D01*
X62661519Y-55170000D01*
X62326702Y-55207725D01*
X62326686Y-55207727D01*
X61998185Y-55282705D01*
X61998173Y-55282709D01*
X61680137Y-55393995D01*
X61376559Y-55540191D01*
X61091252Y-55719461D01*
X60891950Y-55878397D01*
X61925097Y-56911544D01*
X61820243Y-56987726D01*
X61647726Y-57160243D01*
X61571544Y-57265097D01*
X60538397Y-56231950D01*
X60379461Y-56431252D01*
X60200191Y-56716559D01*
X60053995Y-57020137D01*
X59942709Y-57338173D01*
X59942705Y-57338185D01*
X59867727Y-57666686D01*
X59867725Y-57666702D01*
X59830000Y-58001519D01*
X55075500Y-58001519D01*
X55075500Y-50437805D01*
X56324500Y-50437805D01*
X56324500Y-50662194D01*
X56359599Y-50883805D01*
X56428938Y-51097206D01*
X56530805Y-51297128D01*
X56662683Y-51478644D01*
X56662687Y-51478649D01*
X56821350Y-51637312D01*
X56821355Y-51637316D01*
X56865759Y-51669577D01*
X57002875Y-51769197D01*
X57130264Y-51834105D01*
X57202793Y-51871061D01*
X57202795Y-51871061D01*
X57202798Y-51871063D01*
X57317184Y-51908229D01*
X57416194Y-51940400D01*
X57637806Y-51975500D01*
X57637811Y-51975500D01*
X57862194Y-51975500D01*
X58083805Y-51940400D01*
X58297202Y-51871063D01*
X58497125Y-51769197D01*
X58678651Y-51637311D01*
X58837311Y-51478651D01*
X58969197Y-51297125D01*
X59071063Y-51097202D01*
X59140400Y-50883805D01*
X59175500Y-50662194D01*
X59175500Y-50437805D01*
X59140400Y-50216194D01*
X59108229Y-50117184D01*
X59071063Y-50002798D01*
X59071061Y-50002795D01*
X59071061Y-50002793D01*
X59034105Y-49930264D01*
X58969197Y-49802875D01*
X58933329Y-49753507D01*
X58837316Y-49621355D01*
X58837312Y-49621350D01*
X58678649Y-49462687D01*
X58678644Y-49462683D01*
X58497128Y-49330805D01*
X58497127Y-49330804D01*
X58497125Y-49330803D01*
X58387498Y-49274945D01*
X58297206Y-49228938D01*
X58083805Y-49159599D01*
X57862194Y-49124500D01*
X57862189Y-49124500D01*
X57637811Y-49124500D01*
X57637806Y-49124500D01*
X57416194Y-49159599D01*
X57202793Y-49228938D01*
X57002871Y-49330805D01*
X56821355Y-49462683D01*
X56821350Y-49462687D01*
X56662687Y-49621350D01*
X56662683Y-49621355D01*
X56530805Y-49802871D01*
X56428938Y-50002793D01*
X56359599Y-50216194D01*
X56324500Y-50437805D01*
X55075500Y-50437805D01*
X55075500Y-47348958D01*
X55080346Y-47314630D01*
X55166423Y-47015851D01*
X55171016Y-47002727D01*
X55194728Y-46945479D01*
X55294430Y-46704775D01*
X55300452Y-46692269D01*
X55456467Y-46409983D01*
X55463854Y-46398228D01*
X55650482Y-46135201D01*
X55659128Y-46124358D01*
X55874049Y-45883861D01*
X55883861Y-45874049D01*
X56124358Y-45659128D01*
X56135201Y-45650482D01*
X56398228Y-45463854D01*
X56409983Y-45456467D01*
X56692269Y-45300452D01*
X56704775Y-45294430D01*
X57002727Y-45171016D01*
X57015847Y-45166424D01*
X57314630Y-45080345D01*
X57348958Y-45075500D01*
X212651042Y-45075500D01*
X212685370Y-45080346D01*
G37*
%TD.AperFunction*%
%TD*%
M02*
