%TF.GenerationSoftware,KiCad,Pcbnew,10.0.3*%
%TF.CreationDate,2026-07-01T10:53:49-04:00*%
%TF.ProjectId,pm22V,706d3232-562e-46b6-9963-61645f706362,rev?*%
%TF.SameCoordinates,Original*%
%TF.FileFunction,Legend,Top*%
%TF.FilePolarity,Positive*%
%FSLAX46Y46*%
G04 Gerber Fmt 4.6, Leading zero omitted, Abs format (unit mm)*
G04 Created by KiCad (PCBNEW 10.0.3) date 2026-07-01 10:53:49*
%MOMM*%
%LPD*%
G01*
G04 APERTURE LIST*
%ADD10C,0.150000*%
%ADD11C,0.120000*%
G04 APERTURE END LIST*
D10*
X159454819Y-116366666D02*
X158978628Y-116699999D01*
X159454819Y-116938094D02*
X158454819Y-116938094D01*
X158454819Y-116938094D02*
X158454819Y-116557142D01*
X158454819Y-116557142D02*
X158502438Y-116461904D01*
X158502438Y-116461904D02*
X158550057Y-116414285D01*
X158550057Y-116414285D02*
X158645295Y-116366666D01*
X158645295Y-116366666D02*
X158788152Y-116366666D01*
X158788152Y-116366666D02*
X158883390Y-116414285D01*
X158883390Y-116414285D02*
X158931009Y-116461904D01*
X158931009Y-116461904D02*
X158978628Y-116557142D01*
X158978628Y-116557142D02*
X158978628Y-116938094D01*
X158454819Y-115461904D02*
X158454819Y-115938094D01*
X158454819Y-115938094D02*
X158931009Y-115985713D01*
X158931009Y-115985713D02*
X158883390Y-115938094D01*
X158883390Y-115938094D02*
X158835771Y-115842856D01*
X158835771Y-115842856D02*
X158835771Y-115604761D01*
X158835771Y-115604761D02*
X158883390Y-115509523D01*
X158883390Y-115509523D02*
X158931009Y-115461904D01*
X158931009Y-115461904D02*
X159026247Y-115414285D01*
X159026247Y-115414285D02*
X159264342Y-115414285D01*
X159264342Y-115414285D02*
X159359580Y-115461904D01*
X159359580Y-115461904D02*
X159407200Y-115509523D01*
X159407200Y-115509523D02*
X159454819Y-115604761D01*
X159454819Y-115604761D02*
X159454819Y-115842856D01*
X159454819Y-115842856D02*
X159407200Y-115938094D01*
X159407200Y-115938094D02*
X159359580Y-115985713D01*
X146550057Y-68095238D02*
X146502438Y-68190476D01*
X146502438Y-68190476D02*
X146407200Y-68285714D01*
X146407200Y-68285714D02*
X146264342Y-68428571D01*
X146264342Y-68428571D02*
X146216723Y-68523809D01*
X146216723Y-68523809D02*
X146216723Y-68619047D01*
X146454819Y-68571428D02*
X146407200Y-68666666D01*
X146407200Y-68666666D02*
X146311961Y-68761904D01*
X146311961Y-68761904D02*
X146121485Y-68809523D01*
X146121485Y-68809523D02*
X145788152Y-68809523D01*
X145788152Y-68809523D02*
X145597676Y-68761904D01*
X145597676Y-68761904D02*
X145502438Y-68666666D01*
X145502438Y-68666666D02*
X145454819Y-68571428D01*
X145454819Y-68571428D02*
X145454819Y-68380952D01*
X145454819Y-68380952D02*
X145502438Y-68285714D01*
X145502438Y-68285714D02*
X145597676Y-68190476D01*
X145597676Y-68190476D02*
X145788152Y-68142857D01*
X145788152Y-68142857D02*
X146121485Y-68142857D01*
X146121485Y-68142857D02*
X146311961Y-68190476D01*
X146311961Y-68190476D02*
X146407200Y-68285714D01*
X146407200Y-68285714D02*
X146454819Y-68380952D01*
X146454819Y-68380952D02*
X146454819Y-68571428D01*
X146454819Y-67190476D02*
X146454819Y-67761904D01*
X146454819Y-67476190D02*
X145454819Y-67476190D01*
X145454819Y-67476190D02*
X145597676Y-67571428D01*
X145597676Y-67571428D02*
X145692914Y-67666666D01*
X145692914Y-67666666D02*
X145740533Y-67761904D01*
X199407142Y-113609580D02*
X199359523Y-113657200D01*
X199359523Y-113657200D02*
X199216666Y-113704819D01*
X199216666Y-113704819D02*
X199121428Y-113704819D01*
X199121428Y-113704819D02*
X198978571Y-113657200D01*
X198978571Y-113657200D02*
X198883333Y-113561961D01*
X198883333Y-113561961D02*
X198835714Y-113466723D01*
X198835714Y-113466723D02*
X198788095Y-113276247D01*
X198788095Y-113276247D02*
X198788095Y-113133390D01*
X198788095Y-113133390D02*
X198835714Y-112942914D01*
X198835714Y-112942914D02*
X198883333Y-112847676D01*
X198883333Y-112847676D02*
X198978571Y-112752438D01*
X198978571Y-112752438D02*
X199121428Y-112704819D01*
X199121428Y-112704819D02*
X199216666Y-112704819D01*
X199216666Y-112704819D02*
X199359523Y-112752438D01*
X199359523Y-112752438D02*
X199407142Y-112800057D01*
X200359523Y-113704819D02*
X199788095Y-113704819D01*
X200073809Y-113704819D02*
X200073809Y-112704819D01*
X200073809Y-112704819D02*
X199978571Y-112847676D01*
X199978571Y-112847676D02*
X199883333Y-112942914D01*
X199883333Y-112942914D02*
X199788095Y-112990533D01*
X200978571Y-112704819D02*
X201073809Y-112704819D01*
X201073809Y-112704819D02*
X201169047Y-112752438D01*
X201169047Y-112752438D02*
X201216666Y-112800057D01*
X201216666Y-112800057D02*
X201264285Y-112895295D01*
X201264285Y-112895295D02*
X201311904Y-113085771D01*
X201311904Y-113085771D02*
X201311904Y-113323866D01*
X201311904Y-113323866D02*
X201264285Y-113514342D01*
X201264285Y-113514342D02*
X201216666Y-113609580D01*
X201216666Y-113609580D02*
X201169047Y-113657200D01*
X201169047Y-113657200D02*
X201073809Y-113704819D01*
X201073809Y-113704819D02*
X200978571Y-113704819D01*
X200978571Y-113704819D02*
X200883333Y-113657200D01*
X200883333Y-113657200D02*
X200835714Y-113609580D01*
X200835714Y-113609580D02*
X200788095Y-113514342D01*
X200788095Y-113514342D02*
X200740476Y-113323866D01*
X200740476Y-113323866D02*
X200740476Y-113085771D01*
X200740476Y-113085771D02*
X200788095Y-112895295D01*
X200788095Y-112895295D02*
X200835714Y-112800057D01*
X200835714Y-112800057D02*
X200883333Y-112752438D01*
X200883333Y-112752438D02*
X200978571Y-112704819D01*
X140454819Y-72666666D02*
X139978628Y-72999999D01*
X140454819Y-73238094D02*
X139454819Y-73238094D01*
X139454819Y-73238094D02*
X139454819Y-72857142D01*
X139454819Y-72857142D02*
X139502438Y-72761904D01*
X139502438Y-72761904D02*
X139550057Y-72714285D01*
X139550057Y-72714285D02*
X139645295Y-72666666D01*
X139645295Y-72666666D02*
X139788152Y-72666666D01*
X139788152Y-72666666D02*
X139883390Y-72714285D01*
X139883390Y-72714285D02*
X139931009Y-72761904D01*
X139931009Y-72761904D02*
X139978628Y-72857142D01*
X139978628Y-72857142D02*
X139978628Y-73238094D01*
X139788152Y-71809523D02*
X140454819Y-71809523D01*
X139407200Y-72047618D02*
X140121485Y-72285713D01*
X140121485Y-72285713D02*
X140121485Y-71666666D01*
X155679580Y-111204166D02*
X155727200Y-111251785D01*
X155727200Y-111251785D02*
X155774819Y-111394642D01*
X155774819Y-111394642D02*
X155774819Y-111489880D01*
X155774819Y-111489880D02*
X155727200Y-111632737D01*
X155727200Y-111632737D02*
X155631961Y-111727975D01*
X155631961Y-111727975D02*
X155536723Y-111775594D01*
X155536723Y-111775594D02*
X155346247Y-111823213D01*
X155346247Y-111823213D02*
X155203390Y-111823213D01*
X155203390Y-111823213D02*
X155012914Y-111775594D01*
X155012914Y-111775594D02*
X154917676Y-111727975D01*
X154917676Y-111727975D02*
X154822438Y-111632737D01*
X154822438Y-111632737D02*
X154774819Y-111489880D01*
X154774819Y-111489880D02*
X154774819Y-111394642D01*
X154774819Y-111394642D02*
X154822438Y-111251785D01*
X154822438Y-111251785D02*
X154870057Y-111204166D01*
X154870057Y-110823213D02*
X154822438Y-110775594D01*
X154822438Y-110775594D02*
X154774819Y-110680356D01*
X154774819Y-110680356D02*
X154774819Y-110442261D01*
X154774819Y-110442261D02*
X154822438Y-110347023D01*
X154822438Y-110347023D02*
X154870057Y-110299404D01*
X154870057Y-110299404D02*
X154965295Y-110251785D01*
X154965295Y-110251785D02*
X155060533Y-110251785D01*
X155060533Y-110251785D02*
X155203390Y-110299404D01*
X155203390Y-110299404D02*
X155774819Y-110870832D01*
X155774819Y-110870832D02*
X155774819Y-110251785D01*
X113074819Y-73166666D02*
X112598628Y-73499999D01*
X113074819Y-73738094D02*
X112074819Y-73738094D01*
X112074819Y-73738094D02*
X112074819Y-73357142D01*
X112074819Y-73357142D02*
X112122438Y-73261904D01*
X112122438Y-73261904D02*
X112170057Y-73214285D01*
X112170057Y-73214285D02*
X112265295Y-73166666D01*
X112265295Y-73166666D02*
X112408152Y-73166666D01*
X112408152Y-73166666D02*
X112503390Y-73214285D01*
X112503390Y-73214285D02*
X112551009Y-73261904D01*
X112551009Y-73261904D02*
X112598628Y-73357142D01*
X112598628Y-73357142D02*
X112598628Y-73738094D01*
X112170057Y-72785713D02*
X112122438Y-72738094D01*
X112122438Y-72738094D02*
X112074819Y-72642856D01*
X112074819Y-72642856D02*
X112074819Y-72404761D01*
X112074819Y-72404761D02*
X112122438Y-72309523D01*
X112122438Y-72309523D02*
X112170057Y-72261904D01*
X112170057Y-72261904D02*
X112265295Y-72214285D01*
X112265295Y-72214285D02*
X112360533Y-72214285D01*
X112360533Y-72214285D02*
X112503390Y-72261904D01*
X112503390Y-72261904D02*
X113074819Y-72833332D01*
X113074819Y-72833332D02*
X113074819Y-72214285D01*
X195261905Y-73754819D02*
X195261905Y-72754819D01*
X195261905Y-72754819D02*
X195500000Y-72754819D01*
X195500000Y-72754819D02*
X195642857Y-72802438D01*
X195642857Y-72802438D02*
X195738095Y-72897676D01*
X195738095Y-72897676D02*
X195785714Y-72992914D01*
X195785714Y-72992914D02*
X195833333Y-73183390D01*
X195833333Y-73183390D02*
X195833333Y-73326247D01*
X195833333Y-73326247D02*
X195785714Y-73516723D01*
X195785714Y-73516723D02*
X195738095Y-73611961D01*
X195738095Y-73611961D02*
X195642857Y-73707200D01*
X195642857Y-73707200D02*
X195500000Y-73754819D01*
X195500000Y-73754819D02*
X195261905Y-73754819D01*
X196785714Y-73754819D02*
X196214286Y-73754819D01*
X196500000Y-73754819D02*
X196500000Y-72754819D01*
X196500000Y-72754819D02*
X196404762Y-72897676D01*
X196404762Y-72897676D02*
X196309524Y-72992914D01*
X196309524Y-72992914D02*
X196214286Y-73040533D01*
X173984819Y-113658094D02*
X172984819Y-113658094D01*
X172984819Y-113658094D02*
X172984819Y-113419999D01*
X172984819Y-113419999D02*
X173032438Y-113277142D01*
X173032438Y-113277142D02*
X173127676Y-113181904D01*
X173127676Y-113181904D02*
X173222914Y-113134285D01*
X173222914Y-113134285D02*
X173413390Y-113086666D01*
X173413390Y-113086666D02*
X173556247Y-113086666D01*
X173556247Y-113086666D02*
X173746723Y-113134285D01*
X173746723Y-113134285D02*
X173841961Y-113181904D01*
X173841961Y-113181904D02*
X173937200Y-113277142D01*
X173937200Y-113277142D02*
X173984819Y-113419999D01*
X173984819Y-113419999D02*
X173984819Y-113658094D01*
X173080057Y-112705713D02*
X173032438Y-112658094D01*
X173032438Y-112658094D02*
X172984819Y-112562856D01*
X172984819Y-112562856D02*
X172984819Y-112324761D01*
X172984819Y-112324761D02*
X173032438Y-112229523D01*
X173032438Y-112229523D02*
X173080057Y-112181904D01*
X173080057Y-112181904D02*
X173175295Y-112134285D01*
X173175295Y-112134285D02*
X173270533Y-112134285D01*
X173270533Y-112134285D02*
X173413390Y-112181904D01*
X173413390Y-112181904D02*
X173984819Y-112753332D01*
X173984819Y-112753332D02*
X173984819Y-112134285D01*
X174354819Y-118261904D02*
X173354819Y-118261904D01*
X174354819Y-117690476D02*
X173783390Y-118119047D01*
X173354819Y-117690476D02*
X173926247Y-118261904D01*
X86515553Y-103284819D02*
X86182220Y-102808628D01*
X85944125Y-103284819D02*
X85944125Y-102284819D01*
X85944125Y-102284819D02*
X86325077Y-102284819D01*
X86325077Y-102284819D02*
X86420315Y-102332438D01*
X86420315Y-102332438D02*
X86467934Y-102380057D01*
X86467934Y-102380057D02*
X86515553Y-102475295D01*
X86515553Y-102475295D02*
X86515553Y-102618152D01*
X86515553Y-102618152D02*
X86467934Y-102713390D01*
X86467934Y-102713390D02*
X86420315Y-102761009D01*
X86420315Y-102761009D02*
X86325077Y-102808628D01*
X86325077Y-102808628D02*
X85944125Y-102808628D01*
X86991744Y-103284819D02*
X87182220Y-103284819D01*
X87182220Y-103284819D02*
X87277458Y-103237200D01*
X87277458Y-103237200D02*
X87325077Y-103189580D01*
X87325077Y-103189580D02*
X87420315Y-103046723D01*
X87420315Y-103046723D02*
X87467934Y-102856247D01*
X87467934Y-102856247D02*
X87467934Y-102475295D01*
X87467934Y-102475295D02*
X87420315Y-102380057D01*
X87420315Y-102380057D02*
X87372696Y-102332438D01*
X87372696Y-102332438D02*
X87277458Y-102284819D01*
X87277458Y-102284819D02*
X87086982Y-102284819D01*
X87086982Y-102284819D02*
X86991744Y-102332438D01*
X86991744Y-102332438D02*
X86944125Y-102380057D01*
X86944125Y-102380057D02*
X86896506Y-102475295D01*
X86896506Y-102475295D02*
X86896506Y-102713390D01*
X86896506Y-102713390D02*
X86944125Y-102808628D01*
X86944125Y-102808628D02*
X86991744Y-102856247D01*
X86991744Y-102856247D02*
X87086982Y-102903866D01*
X87086982Y-102903866D02*
X87277458Y-102903866D01*
X87277458Y-102903866D02*
X87372696Y-102856247D01*
X87372696Y-102856247D02*
X87420315Y-102808628D01*
X87420315Y-102808628D02*
X87467934Y-102713390D01*
X134074819Y-85306666D02*
X133598628Y-85639999D01*
X134074819Y-85878094D02*
X133074819Y-85878094D01*
X133074819Y-85878094D02*
X133074819Y-85497142D01*
X133074819Y-85497142D02*
X133122438Y-85401904D01*
X133122438Y-85401904D02*
X133170057Y-85354285D01*
X133170057Y-85354285D02*
X133265295Y-85306666D01*
X133265295Y-85306666D02*
X133408152Y-85306666D01*
X133408152Y-85306666D02*
X133503390Y-85354285D01*
X133503390Y-85354285D02*
X133551009Y-85401904D01*
X133551009Y-85401904D02*
X133598628Y-85497142D01*
X133598628Y-85497142D02*
X133598628Y-85878094D01*
X133074819Y-84973332D02*
X133074819Y-84354285D01*
X133074819Y-84354285D02*
X133455771Y-84687618D01*
X133455771Y-84687618D02*
X133455771Y-84544761D01*
X133455771Y-84544761D02*
X133503390Y-84449523D01*
X133503390Y-84449523D02*
X133551009Y-84401904D01*
X133551009Y-84401904D02*
X133646247Y-84354285D01*
X133646247Y-84354285D02*
X133884342Y-84354285D01*
X133884342Y-84354285D02*
X133979580Y-84401904D01*
X133979580Y-84401904D02*
X134027200Y-84449523D01*
X134027200Y-84449523D02*
X134074819Y-84544761D01*
X134074819Y-84544761D02*
X134074819Y-84830475D01*
X134074819Y-84830475D02*
X134027200Y-84925713D01*
X134027200Y-84925713D02*
X133979580Y-84973332D01*
X142654819Y-70238094D02*
X141654819Y-70238094D01*
X142131009Y-70238094D02*
X142131009Y-69666666D01*
X142654819Y-69666666D02*
X141654819Y-69666666D01*
X142607200Y-69238094D02*
X142654819Y-69095237D01*
X142654819Y-69095237D02*
X142654819Y-68857142D01*
X142654819Y-68857142D02*
X142607200Y-68761904D01*
X142607200Y-68761904D02*
X142559580Y-68714285D01*
X142559580Y-68714285D02*
X142464342Y-68666666D01*
X142464342Y-68666666D02*
X142369104Y-68666666D01*
X142369104Y-68666666D02*
X142273866Y-68714285D01*
X142273866Y-68714285D02*
X142226247Y-68761904D01*
X142226247Y-68761904D02*
X142178628Y-68857142D01*
X142178628Y-68857142D02*
X142131009Y-69047618D01*
X142131009Y-69047618D02*
X142083390Y-69142856D01*
X142083390Y-69142856D02*
X142035771Y-69190475D01*
X142035771Y-69190475D02*
X141940533Y-69238094D01*
X141940533Y-69238094D02*
X141845295Y-69238094D01*
X141845295Y-69238094D02*
X141750057Y-69190475D01*
X141750057Y-69190475D02*
X141702438Y-69142856D01*
X141702438Y-69142856D02*
X141654819Y-69047618D01*
X141654819Y-69047618D02*
X141654819Y-68809523D01*
X141654819Y-68809523D02*
X141702438Y-68666666D01*
X142654819Y-67714285D02*
X142654819Y-68285713D01*
X142654819Y-67999999D02*
X141654819Y-67999999D01*
X141654819Y-67999999D02*
X141797676Y-68095237D01*
X141797676Y-68095237D02*
X141892914Y-68190475D01*
X141892914Y-68190475D02*
X141940533Y-68285713D01*
X99583333Y-119609580D02*
X99535714Y-119657200D01*
X99535714Y-119657200D02*
X99392857Y-119704819D01*
X99392857Y-119704819D02*
X99297619Y-119704819D01*
X99297619Y-119704819D02*
X99154762Y-119657200D01*
X99154762Y-119657200D02*
X99059524Y-119561961D01*
X99059524Y-119561961D02*
X99011905Y-119466723D01*
X99011905Y-119466723D02*
X98964286Y-119276247D01*
X98964286Y-119276247D02*
X98964286Y-119133390D01*
X98964286Y-119133390D02*
X99011905Y-118942914D01*
X99011905Y-118942914D02*
X99059524Y-118847676D01*
X99059524Y-118847676D02*
X99154762Y-118752438D01*
X99154762Y-118752438D02*
X99297619Y-118704819D01*
X99297619Y-118704819D02*
X99392857Y-118704819D01*
X99392857Y-118704819D02*
X99535714Y-118752438D01*
X99535714Y-118752438D02*
X99583333Y-118800057D01*
X100440476Y-119038152D02*
X100440476Y-119704819D01*
X100202381Y-118657200D02*
X99964286Y-119371485D01*
X99964286Y-119371485D02*
X100583333Y-119371485D01*
X156454819Y-74738094D02*
X155454819Y-74738094D01*
X155454819Y-74738094D02*
X155454819Y-74499999D01*
X155454819Y-74499999D02*
X155502438Y-74357142D01*
X155502438Y-74357142D02*
X155597676Y-74261904D01*
X155597676Y-74261904D02*
X155692914Y-74214285D01*
X155692914Y-74214285D02*
X155883390Y-74166666D01*
X155883390Y-74166666D02*
X156026247Y-74166666D01*
X156026247Y-74166666D02*
X156216723Y-74214285D01*
X156216723Y-74214285D02*
X156311961Y-74261904D01*
X156311961Y-74261904D02*
X156407200Y-74357142D01*
X156407200Y-74357142D02*
X156454819Y-74499999D01*
X156454819Y-74499999D02*
X156454819Y-74738094D01*
X155454819Y-73833332D02*
X155454819Y-73214285D01*
X155454819Y-73214285D02*
X155835771Y-73547618D01*
X155835771Y-73547618D02*
X155835771Y-73404761D01*
X155835771Y-73404761D02*
X155883390Y-73309523D01*
X155883390Y-73309523D02*
X155931009Y-73261904D01*
X155931009Y-73261904D02*
X156026247Y-73214285D01*
X156026247Y-73214285D02*
X156264342Y-73214285D01*
X156264342Y-73214285D02*
X156359580Y-73261904D01*
X156359580Y-73261904D02*
X156407200Y-73309523D01*
X156407200Y-73309523D02*
X156454819Y-73404761D01*
X156454819Y-73404761D02*
X156454819Y-73690475D01*
X156454819Y-73690475D02*
X156407200Y-73785713D01*
X156407200Y-73785713D02*
X156359580Y-73833332D01*
X161554819Y-69181904D02*
X160554819Y-69181904D01*
X161554819Y-68610476D02*
X160983390Y-69039047D01*
X160554819Y-68610476D02*
X161126247Y-69181904D01*
X161554819Y-65266666D02*
X161078628Y-65599999D01*
X161554819Y-65838094D02*
X160554819Y-65838094D01*
X160554819Y-65838094D02*
X160554819Y-65457142D01*
X160554819Y-65457142D02*
X160602438Y-65361904D01*
X160602438Y-65361904D02*
X160650057Y-65314285D01*
X160650057Y-65314285D02*
X160745295Y-65266666D01*
X160745295Y-65266666D02*
X160888152Y-65266666D01*
X160888152Y-65266666D02*
X160983390Y-65314285D01*
X160983390Y-65314285D02*
X161031009Y-65361904D01*
X161031009Y-65361904D02*
X161078628Y-65457142D01*
X161078628Y-65457142D02*
X161078628Y-65838094D01*
X160554819Y-64409523D02*
X160554819Y-64599999D01*
X160554819Y-64599999D02*
X160602438Y-64695237D01*
X160602438Y-64695237D02*
X160650057Y-64742856D01*
X160650057Y-64742856D02*
X160792914Y-64838094D01*
X160792914Y-64838094D02*
X160983390Y-64885713D01*
X160983390Y-64885713D02*
X161364342Y-64885713D01*
X161364342Y-64885713D02*
X161459580Y-64838094D01*
X161459580Y-64838094D02*
X161507200Y-64790475D01*
X161507200Y-64790475D02*
X161554819Y-64695237D01*
X161554819Y-64695237D02*
X161554819Y-64504761D01*
X161554819Y-64504761D02*
X161507200Y-64409523D01*
X161507200Y-64409523D02*
X161459580Y-64361904D01*
X161459580Y-64361904D02*
X161364342Y-64314285D01*
X161364342Y-64314285D02*
X161126247Y-64314285D01*
X161126247Y-64314285D02*
X161031009Y-64361904D01*
X161031009Y-64361904D02*
X160983390Y-64409523D01*
X160983390Y-64409523D02*
X160935771Y-64504761D01*
X160935771Y-64504761D02*
X160935771Y-64695237D01*
X160935771Y-64695237D02*
X160983390Y-64790475D01*
X160983390Y-64790475D02*
X161031009Y-64838094D01*
X161031009Y-64838094D02*
X161126247Y-64885713D01*
X194761905Y-74454819D02*
X194761905Y-73454819D01*
X194761905Y-73931009D02*
X195333333Y-73931009D01*
X195333333Y-74454819D02*
X195333333Y-73454819D01*
X195761905Y-74407200D02*
X195904762Y-74454819D01*
X195904762Y-74454819D02*
X196142857Y-74454819D01*
X196142857Y-74454819D02*
X196238095Y-74407200D01*
X196238095Y-74407200D02*
X196285714Y-74359580D01*
X196285714Y-74359580D02*
X196333333Y-74264342D01*
X196333333Y-74264342D02*
X196333333Y-74169104D01*
X196333333Y-74169104D02*
X196285714Y-74073866D01*
X196285714Y-74073866D02*
X196238095Y-74026247D01*
X196238095Y-74026247D02*
X196142857Y-73978628D01*
X196142857Y-73978628D02*
X195952381Y-73931009D01*
X195952381Y-73931009D02*
X195857143Y-73883390D01*
X195857143Y-73883390D02*
X195809524Y-73835771D01*
X195809524Y-73835771D02*
X195761905Y-73740533D01*
X195761905Y-73740533D02*
X195761905Y-73645295D01*
X195761905Y-73645295D02*
X195809524Y-73550057D01*
X195809524Y-73550057D02*
X195857143Y-73502438D01*
X195857143Y-73502438D02*
X195952381Y-73454819D01*
X195952381Y-73454819D02*
X196190476Y-73454819D01*
X196190476Y-73454819D02*
X196333333Y-73502438D01*
X196666667Y-73454819D02*
X197285714Y-73454819D01*
X197285714Y-73454819D02*
X196952381Y-73835771D01*
X196952381Y-73835771D02*
X197095238Y-73835771D01*
X197095238Y-73835771D02*
X197190476Y-73883390D01*
X197190476Y-73883390D02*
X197238095Y-73931009D01*
X197238095Y-73931009D02*
X197285714Y-74026247D01*
X197285714Y-74026247D02*
X197285714Y-74264342D01*
X197285714Y-74264342D02*
X197238095Y-74359580D01*
X197238095Y-74359580D02*
X197190476Y-74407200D01*
X197190476Y-74407200D02*
X197095238Y-74454819D01*
X197095238Y-74454819D02*
X196809524Y-74454819D01*
X196809524Y-74454819D02*
X196714286Y-74407200D01*
X196714286Y-74407200D02*
X196666667Y-74359580D01*
X81105553Y-108109580D02*
X81057934Y-108157200D01*
X81057934Y-108157200D02*
X80915077Y-108204819D01*
X80915077Y-108204819D02*
X80819839Y-108204819D01*
X80819839Y-108204819D02*
X80676982Y-108157200D01*
X80676982Y-108157200D02*
X80581744Y-108061961D01*
X80581744Y-108061961D02*
X80534125Y-107966723D01*
X80534125Y-107966723D02*
X80486506Y-107776247D01*
X80486506Y-107776247D02*
X80486506Y-107633390D01*
X80486506Y-107633390D02*
X80534125Y-107442914D01*
X80534125Y-107442914D02*
X80581744Y-107347676D01*
X80581744Y-107347676D02*
X80676982Y-107252438D01*
X80676982Y-107252438D02*
X80819839Y-107204819D01*
X80819839Y-107204819D02*
X80915077Y-107204819D01*
X80915077Y-107204819D02*
X81057934Y-107252438D01*
X81057934Y-107252438D02*
X81105553Y-107300057D01*
X82010315Y-107204819D02*
X81534125Y-107204819D01*
X81534125Y-107204819D02*
X81486506Y-107681009D01*
X81486506Y-107681009D02*
X81534125Y-107633390D01*
X81534125Y-107633390D02*
X81629363Y-107585771D01*
X81629363Y-107585771D02*
X81867458Y-107585771D01*
X81867458Y-107585771D02*
X81962696Y-107633390D01*
X81962696Y-107633390D02*
X82010315Y-107681009D01*
X82010315Y-107681009D02*
X82057934Y-107776247D01*
X82057934Y-107776247D02*
X82057934Y-108014342D01*
X82057934Y-108014342D02*
X82010315Y-108109580D01*
X82010315Y-108109580D02*
X81962696Y-108157200D01*
X81962696Y-108157200D02*
X81867458Y-108204819D01*
X81867458Y-108204819D02*
X81629363Y-108204819D01*
X81629363Y-108204819D02*
X81534125Y-108157200D01*
X81534125Y-108157200D02*
X81486506Y-108109580D01*
X86515553Y-133284819D02*
X86182220Y-132808628D01*
X85944125Y-133284819D02*
X85944125Y-132284819D01*
X85944125Y-132284819D02*
X86325077Y-132284819D01*
X86325077Y-132284819D02*
X86420315Y-132332438D01*
X86420315Y-132332438D02*
X86467934Y-132380057D01*
X86467934Y-132380057D02*
X86515553Y-132475295D01*
X86515553Y-132475295D02*
X86515553Y-132618152D01*
X86515553Y-132618152D02*
X86467934Y-132713390D01*
X86467934Y-132713390D02*
X86420315Y-132761009D01*
X86420315Y-132761009D02*
X86325077Y-132808628D01*
X86325077Y-132808628D02*
X85944125Y-132808628D01*
X87086982Y-132713390D02*
X86991744Y-132665771D01*
X86991744Y-132665771D02*
X86944125Y-132618152D01*
X86944125Y-132618152D02*
X86896506Y-132522914D01*
X86896506Y-132522914D02*
X86896506Y-132475295D01*
X86896506Y-132475295D02*
X86944125Y-132380057D01*
X86944125Y-132380057D02*
X86991744Y-132332438D01*
X86991744Y-132332438D02*
X87086982Y-132284819D01*
X87086982Y-132284819D02*
X87277458Y-132284819D01*
X87277458Y-132284819D02*
X87372696Y-132332438D01*
X87372696Y-132332438D02*
X87420315Y-132380057D01*
X87420315Y-132380057D02*
X87467934Y-132475295D01*
X87467934Y-132475295D02*
X87467934Y-132522914D01*
X87467934Y-132522914D02*
X87420315Y-132618152D01*
X87420315Y-132618152D02*
X87372696Y-132665771D01*
X87372696Y-132665771D02*
X87277458Y-132713390D01*
X87277458Y-132713390D02*
X87086982Y-132713390D01*
X87086982Y-132713390D02*
X86991744Y-132761009D01*
X86991744Y-132761009D02*
X86944125Y-132808628D01*
X86944125Y-132808628D02*
X86896506Y-132903866D01*
X86896506Y-132903866D02*
X86896506Y-133094342D01*
X86896506Y-133094342D02*
X86944125Y-133189580D01*
X86944125Y-133189580D02*
X86991744Y-133237200D01*
X86991744Y-133237200D02*
X87086982Y-133284819D01*
X87086982Y-133284819D02*
X87277458Y-133284819D01*
X87277458Y-133284819D02*
X87372696Y-133237200D01*
X87372696Y-133237200D02*
X87420315Y-133189580D01*
X87420315Y-133189580D02*
X87467934Y-133094342D01*
X87467934Y-133094342D02*
X87467934Y-132903866D01*
X87467934Y-132903866D02*
X87420315Y-132808628D01*
X87420315Y-132808628D02*
X87372696Y-132761009D01*
X87372696Y-132761009D02*
X87277458Y-132713390D01*
X100105553Y-121109580D02*
X100057934Y-121157200D01*
X100057934Y-121157200D02*
X99915077Y-121204819D01*
X99915077Y-121204819D02*
X99819839Y-121204819D01*
X99819839Y-121204819D02*
X99676982Y-121157200D01*
X99676982Y-121157200D02*
X99581744Y-121061961D01*
X99581744Y-121061961D02*
X99534125Y-120966723D01*
X99534125Y-120966723D02*
X99486506Y-120776247D01*
X99486506Y-120776247D02*
X99486506Y-120633390D01*
X99486506Y-120633390D02*
X99534125Y-120442914D01*
X99534125Y-120442914D02*
X99581744Y-120347676D01*
X99581744Y-120347676D02*
X99676982Y-120252438D01*
X99676982Y-120252438D02*
X99819839Y-120204819D01*
X99819839Y-120204819D02*
X99915077Y-120204819D01*
X99915077Y-120204819D02*
X100057934Y-120252438D01*
X100057934Y-120252438D02*
X100105553Y-120300057D01*
X100438887Y-120204819D02*
X101057934Y-120204819D01*
X101057934Y-120204819D02*
X100724601Y-120585771D01*
X100724601Y-120585771D02*
X100867458Y-120585771D01*
X100867458Y-120585771D02*
X100962696Y-120633390D01*
X100962696Y-120633390D02*
X101010315Y-120681009D01*
X101010315Y-120681009D02*
X101057934Y-120776247D01*
X101057934Y-120776247D02*
X101057934Y-121014342D01*
X101057934Y-121014342D02*
X101010315Y-121109580D01*
X101010315Y-121109580D02*
X100962696Y-121157200D01*
X100962696Y-121157200D02*
X100867458Y-121204819D01*
X100867458Y-121204819D02*
X100581744Y-121204819D01*
X100581744Y-121204819D02*
X100486506Y-121157200D01*
X100486506Y-121157200D02*
X100438887Y-121109580D01*
X159654819Y-113538094D02*
X158654819Y-113538094D01*
X159131009Y-113538094D02*
X159131009Y-112966666D01*
X159654819Y-112966666D02*
X158654819Y-112966666D01*
X159607200Y-112538094D02*
X159654819Y-112395237D01*
X159654819Y-112395237D02*
X159654819Y-112157142D01*
X159654819Y-112157142D02*
X159607200Y-112061904D01*
X159607200Y-112061904D02*
X159559580Y-112014285D01*
X159559580Y-112014285D02*
X159464342Y-111966666D01*
X159464342Y-111966666D02*
X159369104Y-111966666D01*
X159369104Y-111966666D02*
X159273866Y-112014285D01*
X159273866Y-112014285D02*
X159226247Y-112061904D01*
X159226247Y-112061904D02*
X159178628Y-112157142D01*
X159178628Y-112157142D02*
X159131009Y-112347618D01*
X159131009Y-112347618D02*
X159083390Y-112442856D01*
X159083390Y-112442856D02*
X159035771Y-112490475D01*
X159035771Y-112490475D02*
X158940533Y-112538094D01*
X158940533Y-112538094D02*
X158845295Y-112538094D01*
X158845295Y-112538094D02*
X158750057Y-112490475D01*
X158750057Y-112490475D02*
X158702438Y-112442856D01*
X158702438Y-112442856D02*
X158654819Y-112347618D01*
X158654819Y-112347618D02*
X158654819Y-112109523D01*
X158654819Y-112109523D02*
X158702438Y-111966666D01*
X158750057Y-111585713D02*
X158702438Y-111538094D01*
X158702438Y-111538094D02*
X158654819Y-111442856D01*
X158654819Y-111442856D02*
X158654819Y-111204761D01*
X158654819Y-111204761D02*
X158702438Y-111109523D01*
X158702438Y-111109523D02*
X158750057Y-111061904D01*
X158750057Y-111061904D02*
X158845295Y-111014285D01*
X158845295Y-111014285D02*
X158940533Y-111014285D01*
X158940533Y-111014285D02*
X159083390Y-111061904D01*
X159083390Y-111061904D02*
X159654819Y-111633332D01*
X159654819Y-111633332D02*
X159654819Y-111014285D01*
X203586666Y-70774819D02*
X203586666Y-71489104D01*
X203586666Y-71489104D02*
X203539047Y-71631961D01*
X203539047Y-71631961D02*
X203443809Y-71727200D01*
X203443809Y-71727200D02*
X203300952Y-71774819D01*
X203300952Y-71774819D02*
X203205714Y-71774819D01*
X204539047Y-70774819D02*
X204062857Y-70774819D01*
X204062857Y-70774819D02*
X204015238Y-71251009D01*
X204015238Y-71251009D02*
X204062857Y-71203390D01*
X204062857Y-71203390D02*
X204158095Y-71155771D01*
X204158095Y-71155771D02*
X204396190Y-71155771D01*
X204396190Y-71155771D02*
X204491428Y-71203390D01*
X204491428Y-71203390D02*
X204539047Y-71251009D01*
X204539047Y-71251009D02*
X204586666Y-71346247D01*
X204586666Y-71346247D02*
X204586666Y-71584342D01*
X204586666Y-71584342D02*
X204539047Y-71679580D01*
X204539047Y-71679580D02*
X204491428Y-71727200D01*
X204491428Y-71727200D02*
X204396190Y-71774819D01*
X204396190Y-71774819D02*
X204158095Y-71774819D01*
X204158095Y-71774819D02*
X204062857Y-71727200D01*
X204062857Y-71727200D02*
X204015238Y-71679580D01*
X167650057Y-112555238D02*
X167602438Y-112650476D01*
X167602438Y-112650476D02*
X167507200Y-112745714D01*
X167507200Y-112745714D02*
X167364342Y-112888571D01*
X167364342Y-112888571D02*
X167316723Y-112983809D01*
X167316723Y-112983809D02*
X167316723Y-113079047D01*
X167554819Y-113031428D02*
X167507200Y-113126666D01*
X167507200Y-113126666D02*
X167411961Y-113221904D01*
X167411961Y-113221904D02*
X167221485Y-113269523D01*
X167221485Y-113269523D02*
X166888152Y-113269523D01*
X166888152Y-113269523D02*
X166697676Y-113221904D01*
X166697676Y-113221904D02*
X166602438Y-113126666D01*
X166602438Y-113126666D02*
X166554819Y-113031428D01*
X166554819Y-113031428D02*
X166554819Y-112840952D01*
X166554819Y-112840952D02*
X166602438Y-112745714D01*
X166602438Y-112745714D02*
X166697676Y-112650476D01*
X166697676Y-112650476D02*
X166888152Y-112602857D01*
X166888152Y-112602857D02*
X167221485Y-112602857D01*
X167221485Y-112602857D02*
X167411961Y-112650476D01*
X167411961Y-112650476D02*
X167507200Y-112745714D01*
X167507200Y-112745714D02*
X167554819Y-112840952D01*
X167554819Y-112840952D02*
X167554819Y-113031428D01*
X166650057Y-112221904D02*
X166602438Y-112174285D01*
X166602438Y-112174285D02*
X166554819Y-112079047D01*
X166554819Y-112079047D02*
X166554819Y-111840952D01*
X166554819Y-111840952D02*
X166602438Y-111745714D01*
X166602438Y-111745714D02*
X166650057Y-111698095D01*
X166650057Y-111698095D02*
X166745295Y-111650476D01*
X166745295Y-111650476D02*
X166840533Y-111650476D01*
X166840533Y-111650476D02*
X166983390Y-111698095D01*
X166983390Y-111698095D02*
X167554819Y-112269523D01*
X167554819Y-112269523D02*
X167554819Y-111650476D01*
X70679580Y-67204166D02*
X70727200Y-67251785D01*
X70727200Y-67251785D02*
X70774819Y-67394642D01*
X70774819Y-67394642D02*
X70774819Y-67489880D01*
X70774819Y-67489880D02*
X70727200Y-67632737D01*
X70727200Y-67632737D02*
X70631961Y-67727975D01*
X70631961Y-67727975D02*
X70536723Y-67775594D01*
X70536723Y-67775594D02*
X70346247Y-67823213D01*
X70346247Y-67823213D02*
X70203390Y-67823213D01*
X70203390Y-67823213D02*
X70012914Y-67775594D01*
X70012914Y-67775594D02*
X69917676Y-67727975D01*
X69917676Y-67727975D02*
X69822438Y-67632737D01*
X69822438Y-67632737D02*
X69774819Y-67489880D01*
X69774819Y-67489880D02*
X69774819Y-67394642D01*
X69774819Y-67394642D02*
X69822438Y-67251785D01*
X69822438Y-67251785D02*
X69870057Y-67204166D01*
X70203390Y-66632737D02*
X70155771Y-66727975D01*
X70155771Y-66727975D02*
X70108152Y-66775594D01*
X70108152Y-66775594D02*
X70012914Y-66823213D01*
X70012914Y-66823213D02*
X69965295Y-66823213D01*
X69965295Y-66823213D02*
X69870057Y-66775594D01*
X69870057Y-66775594D02*
X69822438Y-66727975D01*
X69822438Y-66727975D02*
X69774819Y-66632737D01*
X69774819Y-66632737D02*
X69774819Y-66442261D01*
X69774819Y-66442261D02*
X69822438Y-66347023D01*
X69822438Y-66347023D02*
X69870057Y-66299404D01*
X69870057Y-66299404D02*
X69965295Y-66251785D01*
X69965295Y-66251785D02*
X70012914Y-66251785D01*
X70012914Y-66251785D02*
X70108152Y-66299404D01*
X70108152Y-66299404D02*
X70155771Y-66347023D01*
X70155771Y-66347023D02*
X70203390Y-66442261D01*
X70203390Y-66442261D02*
X70203390Y-66632737D01*
X70203390Y-66632737D02*
X70251009Y-66727975D01*
X70251009Y-66727975D02*
X70298628Y-66775594D01*
X70298628Y-66775594D02*
X70393866Y-66823213D01*
X70393866Y-66823213D02*
X70584342Y-66823213D01*
X70584342Y-66823213D02*
X70679580Y-66775594D01*
X70679580Y-66775594D02*
X70727200Y-66727975D01*
X70727200Y-66727975D02*
X70774819Y-66632737D01*
X70774819Y-66632737D02*
X70774819Y-66442261D01*
X70774819Y-66442261D02*
X70727200Y-66347023D01*
X70727200Y-66347023D02*
X70679580Y-66299404D01*
X70679580Y-66299404D02*
X70584342Y-66251785D01*
X70584342Y-66251785D02*
X70393866Y-66251785D01*
X70393866Y-66251785D02*
X70298628Y-66299404D01*
X70298628Y-66299404D02*
X70251009Y-66347023D01*
X70251009Y-66347023D02*
X70203390Y-66442261D01*
X70679580Y-80204166D02*
X70727200Y-80251785D01*
X70727200Y-80251785D02*
X70774819Y-80394642D01*
X70774819Y-80394642D02*
X70774819Y-80489880D01*
X70774819Y-80489880D02*
X70727200Y-80632737D01*
X70727200Y-80632737D02*
X70631961Y-80727975D01*
X70631961Y-80727975D02*
X70536723Y-80775594D01*
X70536723Y-80775594D02*
X70346247Y-80823213D01*
X70346247Y-80823213D02*
X70203390Y-80823213D01*
X70203390Y-80823213D02*
X70012914Y-80775594D01*
X70012914Y-80775594D02*
X69917676Y-80727975D01*
X69917676Y-80727975D02*
X69822438Y-80632737D01*
X69822438Y-80632737D02*
X69774819Y-80489880D01*
X69774819Y-80489880D02*
X69774819Y-80394642D01*
X69774819Y-80394642D02*
X69822438Y-80251785D01*
X69822438Y-80251785D02*
X69870057Y-80204166D01*
X69774819Y-79870832D02*
X69774819Y-79204166D01*
X69774819Y-79204166D02*
X70774819Y-79632737D01*
X142359580Y-76591666D02*
X142407200Y-76639285D01*
X142407200Y-76639285D02*
X142454819Y-76782142D01*
X142454819Y-76782142D02*
X142454819Y-76877380D01*
X142454819Y-76877380D02*
X142407200Y-77020237D01*
X142407200Y-77020237D02*
X142311961Y-77115475D01*
X142311961Y-77115475D02*
X142216723Y-77163094D01*
X142216723Y-77163094D02*
X142026247Y-77210713D01*
X142026247Y-77210713D02*
X141883390Y-77210713D01*
X141883390Y-77210713D02*
X141692914Y-77163094D01*
X141692914Y-77163094D02*
X141597676Y-77115475D01*
X141597676Y-77115475D02*
X141502438Y-77020237D01*
X141502438Y-77020237D02*
X141454819Y-76877380D01*
X141454819Y-76877380D02*
X141454819Y-76782142D01*
X141454819Y-76782142D02*
X141502438Y-76639285D01*
X141502438Y-76639285D02*
X141550057Y-76591666D01*
X142454819Y-75639285D02*
X142454819Y-76210713D01*
X142454819Y-75924999D02*
X141454819Y-75924999D01*
X141454819Y-75924999D02*
X141597676Y-76020237D01*
X141597676Y-76020237D02*
X141692914Y-76115475D01*
X141692914Y-76115475D02*
X141740533Y-76210713D01*
X147683333Y-116309580D02*
X147635714Y-116357200D01*
X147635714Y-116357200D02*
X147492857Y-116404819D01*
X147492857Y-116404819D02*
X147397619Y-116404819D01*
X147397619Y-116404819D02*
X147254762Y-116357200D01*
X147254762Y-116357200D02*
X147159524Y-116261961D01*
X147159524Y-116261961D02*
X147111905Y-116166723D01*
X147111905Y-116166723D02*
X147064286Y-115976247D01*
X147064286Y-115976247D02*
X147064286Y-115833390D01*
X147064286Y-115833390D02*
X147111905Y-115642914D01*
X147111905Y-115642914D02*
X147159524Y-115547676D01*
X147159524Y-115547676D02*
X147254762Y-115452438D01*
X147254762Y-115452438D02*
X147397619Y-115404819D01*
X147397619Y-115404819D02*
X147492857Y-115404819D01*
X147492857Y-115404819D02*
X147635714Y-115452438D01*
X147635714Y-115452438D02*
X147683333Y-115500057D01*
X148159524Y-116404819D02*
X148350000Y-116404819D01*
X148350000Y-116404819D02*
X148445238Y-116357200D01*
X148445238Y-116357200D02*
X148492857Y-116309580D01*
X148492857Y-116309580D02*
X148588095Y-116166723D01*
X148588095Y-116166723D02*
X148635714Y-115976247D01*
X148635714Y-115976247D02*
X148635714Y-115595295D01*
X148635714Y-115595295D02*
X148588095Y-115500057D01*
X148588095Y-115500057D02*
X148540476Y-115452438D01*
X148540476Y-115452438D02*
X148445238Y-115404819D01*
X148445238Y-115404819D02*
X148254762Y-115404819D01*
X148254762Y-115404819D02*
X148159524Y-115452438D01*
X148159524Y-115452438D02*
X148111905Y-115500057D01*
X148111905Y-115500057D02*
X148064286Y-115595295D01*
X148064286Y-115595295D02*
X148064286Y-115833390D01*
X148064286Y-115833390D02*
X148111905Y-115928628D01*
X148111905Y-115928628D02*
X148159524Y-115976247D01*
X148159524Y-115976247D02*
X148254762Y-116023866D01*
X148254762Y-116023866D02*
X148445238Y-116023866D01*
X148445238Y-116023866D02*
X148540476Y-115976247D01*
X148540476Y-115976247D02*
X148588095Y-115928628D01*
X148588095Y-115928628D02*
X148635714Y-115833390D01*
X81583333Y-94609580D02*
X81535714Y-94657200D01*
X81535714Y-94657200D02*
X81392857Y-94704819D01*
X81392857Y-94704819D02*
X81297619Y-94704819D01*
X81297619Y-94704819D02*
X81154762Y-94657200D01*
X81154762Y-94657200D02*
X81059524Y-94561961D01*
X81059524Y-94561961D02*
X81011905Y-94466723D01*
X81011905Y-94466723D02*
X80964286Y-94276247D01*
X80964286Y-94276247D02*
X80964286Y-94133390D01*
X80964286Y-94133390D02*
X81011905Y-93942914D01*
X81011905Y-93942914D02*
X81059524Y-93847676D01*
X81059524Y-93847676D02*
X81154762Y-93752438D01*
X81154762Y-93752438D02*
X81297619Y-93704819D01*
X81297619Y-93704819D02*
X81392857Y-93704819D01*
X81392857Y-93704819D02*
X81535714Y-93752438D01*
X81535714Y-93752438D02*
X81583333Y-93800057D01*
X82440476Y-93704819D02*
X82250000Y-93704819D01*
X82250000Y-93704819D02*
X82154762Y-93752438D01*
X82154762Y-93752438D02*
X82107143Y-93800057D01*
X82107143Y-93800057D02*
X82011905Y-93942914D01*
X82011905Y-93942914D02*
X81964286Y-94133390D01*
X81964286Y-94133390D02*
X81964286Y-94514342D01*
X81964286Y-94514342D02*
X82011905Y-94609580D01*
X82011905Y-94609580D02*
X82059524Y-94657200D01*
X82059524Y-94657200D02*
X82154762Y-94704819D01*
X82154762Y-94704819D02*
X82345238Y-94704819D01*
X82345238Y-94704819D02*
X82440476Y-94657200D01*
X82440476Y-94657200D02*
X82488095Y-94609580D01*
X82488095Y-94609580D02*
X82535714Y-94514342D01*
X82535714Y-94514342D02*
X82535714Y-94276247D01*
X82535714Y-94276247D02*
X82488095Y-94181009D01*
X82488095Y-94181009D02*
X82440476Y-94133390D01*
X82440476Y-94133390D02*
X82345238Y-94085771D01*
X82345238Y-94085771D02*
X82154762Y-94085771D01*
X82154762Y-94085771D02*
X82059524Y-94133390D01*
X82059524Y-94133390D02*
X82011905Y-94181009D01*
X82011905Y-94181009D02*
X81964286Y-94276247D01*
X179554819Y-110066666D02*
X179078628Y-110399999D01*
X179554819Y-110638094D02*
X178554819Y-110638094D01*
X178554819Y-110638094D02*
X178554819Y-110257142D01*
X178554819Y-110257142D02*
X178602438Y-110161904D01*
X178602438Y-110161904D02*
X178650057Y-110114285D01*
X178650057Y-110114285D02*
X178745295Y-110066666D01*
X178745295Y-110066666D02*
X178888152Y-110066666D01*
X178888152Y-110066666D02*
X178983390Y-110114285D01*
X178983390Y-110114285D02*
X179031009Y-110161904D01*
X179031009Y-110161904D02*
X179078628Y-110257142D01*
X179078628Y-110257142D02*
X179078628Y-110638094D01*
X178554819Y-109733332D02*
X178554819Y-109066666D01*
X178554819Y-109066666D02*
X179554819Y-109495237D01*
X60744819Y-139783333D02*
X61459104Y-139783333D01*
X61459104Y-139783333D02*
X61601961Y-139830952D01*
X61601961Y-139830952D02*
X61697200Y-139926190D01*
X61697200Y-139926190D02*
X61744819Y-140069047D01*
X61744819Y-140069047D02*
X61744819Y-140164285D01*
X60744819Y-138878571D02*
X60744819Y-139069047D01*
X60744819Y-139069047D02*
X60792438Y-139164285D01*
X60792438Y-139164285D02*
X60840057Y-139211904D01*
X60840057Y-139211904D02*
X60982914Y-139307142D01*
X60982914Y-139307142D02*
X61173390Y-139354761D01*
X61173390Y-139354761D02*
X61554342Y-139354761D01*
X61554342Y-139354761D02*
X61649580Y-139307142D01*
X61649580Y-139307142D02*
X61697200Y-139259523D01*
X61697200Y-139259523D02*
X61744819Y-139164285D01*
X61744819Y-139164285D02*
X61744819Y-138973809D01*
X61744819Y-138973809D02*
X61697200Y-138878571D01*
X61697200Y-138878571D02*
X61649580Y-138830952D01*
X61649580Y-138830952D02*
X61554342Y-138783333D01*
X61554342Y-138783333D02*
X61316247Y-138783333D01*
X61316247Y-138783333D02*
X61221009Y-138830952D01*
X61221009Y-138830952D02*
X61173390Y-138878571D01*
X61173390Y-138878571D02*
X61125771Y-138973809D01*
X61125771Y-138973809D02*
X61125771Y-139164285D01*
X61125771Y-139164285D02*
X61173390Y-139259523D01*
X61173390Y-139259523D02*
X61221009Y-139307142D01*
X61221009Y-139307142D02*
X61316247Y-139354761D01*
%TO.C,R5*%
D11*
X158265000Y-113427064D02*
X158265000Y-112972936D01*
X159735000Y-113427064D02*
X159735000Y-112972936D01*
%TO.C,Q1*%
X144640000Y-69350000D02*
X149260000Y-69350000D01*
X144640000Y-79570000D02*
X144640000Y-69350000D01*
X147880000Y-69350000D02*
X147880000Y-79570000D01*
X149260000Y-69350000D02*
X149260000Y-79570000D01*
X149260000Y-72610000D02*
X147880000Y-72610000D01*
X149260000Y-76310000D02*
X147880000Y-76310000D01*
X149260000Y-79570000D02*
X144640000Y-79570000D01*
%TO.C,C10*%
X190290560Y-118385000D02*
X192090560Y-118385000D01*
X191190560Y-117485000D02*
X191190560Y-119285000D01*
X200050000Y-114420000D02*
X200050000Y-132580000D01*
X200090000Y-114420000D02*
X200090000Y-132580000D01*
X200130000Y-114420000D02*
X200130000Y-132580000D01*
X200170000Y-114421000D02*
X200170000Y-132579000D01*
X200210000Y-114421000D02*
X200210000Y-132579000D01*
X200250000Y-114422000D02*
X200250000Y-132578000D01*
X200290000Y-114423000D02*
X200290000Y-132577000D01*
X200330000Y-114424000D02*
X200330000Y-132576000D01*
X200370000Y-114426000D02*
X200370000Y-132574000D01*
X200410000Y-114427000D02*
X200410000Y-132573000D01*
X200450000Y-114429000D02*
X200450000Y-132571000D01*
X200490000Y-114431000D02*
X200490000Y-132569000D01*
X200530000Y-114433000D02*
X200530000Y-132567000D01*
X200570000Y-114435000D02*
X200570000Y-132565000D01*
X200610000Y-114437000D02*
X200610000Y-132563000D01*
X200650000Y-114440000D02*
X200650000Y-132560000D01*
X200690000Y-114442000D02*
X200690000Y-132558000D01*
X200730000Y-114445000D02*
X200730000Y-132555000D01*
X200770000Y-114448000D02*
X200770000Y-132552000D01*
X200810000Y-114452000D02*
X200810000Y-132548000D01*
X200850000Y-114455000D02*
X200850000Y-132545000D01*
X200890000Y-114459000D02*
X200890000Y-132541000D01*
X200930000Y-114463000D02*
X200930000Y-132537000D01*
X200970000Y-114467000D02*
X200970000Y-132533000D01*
X201010000Y-114471000D02*
X201010000Y-132529000D01*
X201050000Y-114475000D02*
X201050000Y-132525000D01*
X201090000Y-114479000D02*
X201090000Y-132521000D01*
X201130000Y-114484000D02*
X201130000Y-132516000D01*
X201170000Y-114489000D02*
X201170000Y-132511000D01*
X201210000Y-114494000D02*
X201210000Y-132506000D01*
X201250000Y-114499000D02*
X201250000Y-132501000D01*
X201290000Y-114505000D02*
X201290000Y-132495000D01*
X201330000Y-114510000D02*
X201330000Y-132490000D01*
X201370000Y-114516000D02*
X201370000Y-132484000D01*
X201410000Y-114522000D02*
X201410000Y-132478000D01*
X201450000Y-114528000D02*
X201450000Y-132472000D01*
X201490000Y-114534000D02*
X201490000Y-132466000D01*
X201530000Y-114541000D02*
X201530000Y-132459000D01*
X201570000Y-114548000D02*
X201570000Y-132452000D01*
X201610000Y-114554000D02*
X201610000Y-132446000D01*
X201650000Y-114561000D02*
X201650000Y-132439000D01*
X201690000Y-114569000D02*
X201690000Y-132431000D01*
X201730000Y-114576000D02*
X201730000Y-132424000D01*
X201770000Y-114584000D02*
X201770000Y-132416000D01*
X201810000Y-114591000D02*
X201810000Y-132409000D01*
X201850000Y-114599000D02*
X201850000Y-132401000D01*
X201890000Y-114608000D02*
X201890000Y-132392000D01*
X201930000Y-114616000D02*
X201930000Y-132384000D01*
X201970000Y-114624000D02*
X201970000Y-132376000D01*
X202010000Y-114633000D02*
X202010000Y-132367000D01*
X202050000Y-114642000D02*
X202050000Y-132358000D01*
X202090000Y-114651000D02*
X202090000Y-132349000D01*
X202130000Y-114660000D02*
X202130000Y-132340000D01*
X202170000Y-114670000D02*
X202170000Y-132330000D01*
X202210000Y-114679000D02*
X202210000Y-132321000D01*
X202250000Y-114689000D02*
X202250000Y-132311000D01*
X202290000Y-114699000D02*
X202290000Y-132301000D01*
X202330000Y-114710000D02*
X202330000Y-132290000D01*
X202370000Y-114720000D02*
X202370000Y-122060000D01*
X202370000Y-124940000D02*
X202370000Y-132280000D01*
X202410000Y-114731000D02*
X202410000Y-122060000D01*
X202410000Y-124940000D02*
X202410000Y-132269000D01*
X202450000Y-114741000D02*
X202450000Y-122060000D01*
X202450000Y-124940000D02*
X202450000Y-132259000D01*
X202490000Y-114752000D02*
X202490000Y-122060000D01*
X202490000Y-124940000D02*
X202490000Y-132248000D01*
X202530000Y-114764000D02*
X202530000Y-122060000D01*
X202530000Y-124940000D02*
X202530000Y-132236000D01*
X202570000Y-114775000D02*
X202570000Y-122060000D01*
X202570000Y-124940000D02*
X202570000Y-132225000D01*
X202610000Y-114787000D02*
X202610000Y-122060000D01*
X202610000Y-124940000D02*
X202610000Y-132213000D01*
X202650000Y-114798000D02*
X202650000Y-122060000D01*
X202650000Y-124940000D02*
X202650000Y-132202000D01*
X202690000Y-114810000D02*
X202690000Y-122060000D01*
X202690000Y-124940000D02*
X202690000Y-132190000D01*
X202730000Y-114823000D02*
X202730000Y-122060000D01*
X202730000Y-124940000D02*
X202730000Y-132177000D01*
X202770000Y-114835000D02*
X202770000Y-122060000D01*
X202770000Y-124940000D02*
X202770000Y-132165000D01*
X202810000Y-114848000D02*
X202810000Y-122060000D01*
X202810000Y-124940000D02*
X202810000Y-132152000D01*
X202850000Y-114860000D02*
X202850000Y-122060000D01*
X202850000Y-124940000D02*
X202850000Y-132140000D01*
X202890000Y-114873000D02*
X202890000Y-122060000D01*
X202890000Y-124940000D02*
X202890000Y-132127000D01*
X202930000Y-114887000D02*
X202930000Y-122060000D01*
X202930000Y-124940000D02*
X202930000Y-132113000D01*
X202970000Y-114900000D02*
X202970000Y-122060000D01*
X202970000Y-124940000D02*
X202970000Y-132100000D01*
X203010000Y-114914000D02*
X203010000Y-122060000D01*
X203010000Y-124940000D02*
X203010000Y-132086000D01*
X203050000Y-114928000D02*
X203050000Y-122060000D01*
X203050000Y-124940000D02*
X203050000Y-132072000D01*
X203090000Y-114942000D02*
X203090000Y-122060000D01*
X203090000Y-124940000D02*
X203090000Y-132058000D01*
X203130000Y-114956000D02*
X203130000Y-122060000D01*
X203130000Y-124940000D02*
X203130000Y-132044000D01*
X203170000Y-114970000D02*
X203170000Y-122060000D01*
X203170000Y-124940000D02*
X203170000Y-132030000D01*
X203210000Y-114985000D02*
X203210000Y-122060000D01*
X203210000Y-124940000D02*
X203210000Y-132015000D01*
X203250000Y-115000000D02*
X203250000Y-122060000D01*
X203250000Y-124940000D02*
X203250000Y-132000000D01*
X203290000Y-115015000D02*
X203290000Y-122060000D01*
X203290000Y-124940000D02*
X203290000Y-131985000D01*
X203330000Y-115030000D02*
X203330000Y-122060000D01*
X203330000Y-124940000D02*
X203330000Y-131970000D01*
X203370000Y-115046000D02*
X203370000Y-122060000D01*
X203370000Y-124940000D02*
X203370000Y-131954000D01*
X203410000Y-115062000D02*
X203410000Y-122060000D01*
X203410000Y-124940000D02*
X203410000Y-131938000D01*
X203450000Y-115077000D02*
X203450000Y-122060000D01*
X203450000Y-124940000D02*
X203450000Y-131923000D01*
X203490000Y-115094000D02*
X203490000Y-122060000D01*
X203490000Y-124940000D02*
X203490000Y-131906000D01*
X203530000Y-115110000D02*
X203530000Y-122060000D01*
X203530000Y-124940000D02*
X203530000Y-131890000D01*
X203570000Y-115127000D02*
X203570000Y-122060000D01*
X203570000Y-124940000D02*
X203570000Y-131873000D01*
X203610000Y-115144000D02*
X203610000Y-122060000D01*
X203610000Y-124940000D02*
X203610000Y-131856000D01*
X203650000Y-115161000D02*
X203650000Y-122060000D01*
X203650000Y-124940000D02*
X203650000Y-131839000D01*
X203690000Y-115178000D02*
X203690000Y-122060000D01*
X203690000Y-124940000D02*
X203690000Y-131822000D01*
X203730000Y-115195000D02*
X203730000Y-122060000D01*
X203730000Y-124940000D02*
X203730000Y-131805000D01*
X203770000Y-115213000D02*
X203770000Y-122060000D01*
X203770000Y-124940000D02*
X203770000Y-131787000D01*
X203810000Y-115231000D02*
X203810000Y-122060000D01*
X203810000Y-124940000D02*
X203810000Y-131769000D01*
X203850000Y-115249000D02*
X203850000Y-122060000D01*
X203850000Y-124940000D02*
X203850000Y-131751000D01*
X203890000Y-115268000D02*
X203890000Y-122060000D01*
X203890000Y-124940000D02*
X203890000Y-131732000D01*
X203930000Y-115287000D02*
X203930000Y-122060000D01*
X203930000Y-124940000D02*
X203930000Y-131713000D01*
X203970000Y-115305000D02*
X203970000Y-122060000D01*
X203970000Y-124940000D02*
X203970000Y-131695000D01*
X204010000Y-115325000D02*
X204010000Y-122060000D01*
X204010000Y-124940000D02*
X204010000Y-131675000D01*
X204050000Y-115344000D02*
X204050000Y-122060000D01*
X204050000Y-124940000D02*
X204050000Y-131656000D01*
X204090000Y-115364000D02*
X204090000Y-122060000D01*
X204090000Y-124940000D02*
X204090000Y-131636000D01*
X204130000Y-115384000D02*
X204130000Y-122060000D01*
X204130000Y-124940000D02*
X204130000Y-131616000D01*
X204170000Y-115404000D02*
X204170000Y-122060000D01*
X204170000Y-124940000D02*
X204170000Y-131596000D01*
X204210000Y-115424000D02*
X204210000Y-122060000D01*
X204210000Y-124940000D02*
X204210000Y-131576000D01*
X204250000Y-115445000D02*
X204250000Y-122060000D01*
X204250000Y-124940000D02*
X204250000Y-131555000D01*
X204290000Y-115466000D02*
X204290000Y-122060000D01*
X204290000Y-124940000D02*
X204290000Y-131534000D01*
X204330000Y-115487000D02*
X204330000Y-122060000D01*
X204330000Y-124940000D02*
X204330000Y-131513000D01*
X204370000Y-115508000D02*
X204370000Y-122060000D01*
X204370000Y-124940000D02*
X204370000Y-131492000D01*
X204410000Y-115530000D02*
X204410000Y-122060000D01*
X204410000Y-124940000D02*
X204410000Y-131470000D01*
X204450000Y-115552000D02*
X204450000Y-122060000D01*
X204450000Y-124940000D02*
X204450000Y-131448000D01*
X204490000Y-115574000D02*
X204490000Y-122060000D01*
X204490000Y-124940000D02*
X204490000Y-131426000D01*
X204530000Y-115596000D02*
X204530000Y-122060000D01*
X204530000Y-124940000D02*
X204530000Y-131404000D01*
X204570000Y-115619000D02*
X204570000Y-122060000D01*
X204570000Y-124940000D02*
X204570000Y-131381000D01*
X204610000Y-115642000D02*
X204610000Y-122060000D01*
X204610000Y-124940000D02*
X204610000Y-131358000D01*
X204650000Y-115665000D02*
X204650000Y-122060000D01*
X204650000Y-124940000D02*
X204650000Y-131335000D01*
X204690000Y-115689000D02*
X204690000Y-122060000D01*
X204690000Y-124940000D02*
X204690000Y-131311000D01*
X204730000Y-115712000D02*
X204730000Y-122060000D01*
X204730000Y-124940000D02*
X204730000Y-131288000D01*
X204770000Y-115736000D02*
X204770000Y-122060000D01*
X204770000Y-124940000D02*
X204770000Y-131264000D01*
X204810000Y-115761000D02*
X204810000Y-122060000D01*
X204810000Y-124940000D02*
X204810000Y-131239000D01*
X204850000Y-115785000D02*
X204850000Y-122060000D01*
X204850000Y-124940000D02*
X204850000Y-131215000D01*
X204890000Y-115810000D02*
X204890000Y-122060000D01*
X204890000Y-124940000D02*
X204890000Y-131190000D01*
X204930000Y-115835000D02*
X204930000Y-122060000D01*
X204930000Y-124940000D02*
X204930000Y-131165000D01*
X204970000Y-115861000D02*
X204970000Y-122060000D01*
X204970000Y-124940000D02*
X204970000Y-131139000D01*
X205010000Y-115887000D02*
X205010000Y-122060000D01*
X205010000Y-124940000D02*
X205010000Y-131113000D01*
X205050000Y-115913000D02*
X205050000Y-122060000D01*
X205050000Y-124940000D02*
X205050000Y-131087000D01*
X205090000Y-115939000D02*
X205090000Y-122060000D01*
X205090000Y-124940000D02*
X205090000Y-131061000D01*
X205130000Y-115966000D02*
X205130000Y-122060000D01*
X205130000Y-124940000D02*
X205130000Y-131034000D01*
X205170000Y-115993000D02*
X205170000Y-122060000D01*
X205170000Y-124940000D02*
X205170000Y-131007000D01*
X205210000Y-116020000D02*
X205210000Y-122060000D01*
X205210000Y-124940000D02*
X205210000Y-130980000D01*
X205250000Y-116048000D02*
X205250000Y-130952000D01*
X205290000Y-116076000D02*
X205290000Y-130924000D01*
X205330000Y-116104000D02*
X205330000Y-130896000D01*
X205370000Y-116132000D02*
X205370000Y-130868000D01*
X205410000Y-116161000D02*
X205410000Y-130839000D01*
X205450000Y-116191000D02*
X205450000Y-130809000D01*
X205490000Y-116220000D02*
X205490000Y-130780000D01*
X205530000Y-116250000D02*
X205530000Y-130750000D01*
X205570000Y-116280000D02*
X205570000Y-130720000D01*
X205610000Y-116311000D02*
X205610000Y-130689000D01*
X205650000Y-116342000D02*
X205650000Y-130658000D01*
X205690000Y-116373000D02*
X205690000Y-130627000D01*
X205730000Y-116405000D02*
X205730000Y-130595000D01*
X205770000Y-116437000D02*
X205770000Y-130563000D01*
X205810000Y-116469000D02*
X205810000Y-130531000D01*
X205850000Y-116502000D02*
X205850000Y-130498000D01*
X205890000Y-116535000D02*
X205890000Y-130465000D01*
X205930000Y-116569000D02*
X205930000Y-130431000D01*
X205970000Y-116603000D02*
X205970000Y-130397000D01*
X206010000Y-116637000D02*
X206010000Y-130363000D01*
X206050000Y-116672000D02*
X206050000Y-130328000D01*
X206090000Y-116707000D02*
X206090000Y-130293000D01*
X206130000Y-116742000D02*
X206130000Y-130258000D01*
X206170000Y-116778000D02*
X206170000Y-130222000D01*
X206210000Y-116815000D02*
X206210000Y-130185000D01*
X206250000Y-116852000D02*
X206250000Y-130148000D01*
X206290000Y-116889000D02*
X206290000Y-130111000D01*
X206330000Y-116927000D02*
X206330000Y-130073000D01*
X206370000Y-116965000D02*
X206370000Y-130035000D01*
X206410000Y-117004000D02*
X206410000Y-129996000D01*
X206450000Y-117043000D02*
X206450000Y-129957000D01*
X206490000Y-117082000D02*
X206490000Y-129918000D01*
X206530000Y-117123000D02*
X206530000Y-129877000D01*
X206570000Y-117163000D02*
X206570000Y-129837000D01*
X206610000Y-117204000D02*
X206610000Y-129796000D01*
X206650000Y-117246000D02*
X206650000Y-129754000D01*
X206690000Y-117288000D02*
X206690000Y-129712000D01*
X206730000Y-117331000D02*
X206730000Y-129669000D01*
X206770000Y-117374000D02*
X206770000Y-129626000D01*
X206810000Y-117418000D02*
X206810000Y-129582000D01*
X206850000Y-117463000D02*
X206850000Y-129537000D01*
X206890000Y-117508000D02*
X206890000Y-129492000D01*
X206930000Y-117553000D02*
X206930000Y-129447000D01*
X206970000Y-117600000D02*
X206970000Y-129400000D01*
X207010000Y-117647000D02*
X207010000Y-129353000D01*
X207050000Y-117694000D02*
X207050000Y-129306000D01*
X207090000Y-117742000D02*
X207090000Y-129258000D01*
X207130000Y-117791000D02*
X207130000Y-129209000D01*
X207170000Y-117841000D02*
X207170000Y-129159000D01*
X207210000Y-117891000D02*
X207210000Y-129109000D01*
X207250000Y-117942000D02*
X207250000Y-129058000D01*
X207290000Y-117994000D02*
X207290000Y-129006000D01*
X207330000Y-118047000D02*
X207330000Y-128953000D01*
X207370000Y-118100000D02*
X207370000Y-128900000D01*
X207410000Y-118154000D02*
X207410000Y-128846000D01*
X207450000Y-118209000D02*
X207450000Y-128791000D01*
X207490000Y-118265000D02*
X207490000Y-128735000D01*
X207530000Y-118322000D02*
X207530000Y-128678000D01*
X207570000Y-118380000D02*
X207570000Y-128620000D01*
X207610000Y-118439000D02*
X207610000Y-128561000D01*
X207650000Y-118499000D02*
X207650000Y-128501000D01*
X207690000Y-118560000D02*
X207690000Y-128440000D01*
X207730000Y-118621000D02*
X207730000Y-128379000D01*
X207770000Y-118684000D02*
X207770000Y-128316000D01*
X207810000Y-118749000D02*
X207810000Y-128251000D01*
X207850000Y-118814000D02*
X207850000Y-128186000D01*
X207890000Y-118881000D02*
X207890000Y-128119000D01*
X207930000Y-118949000D02*
X207930000Y-128051000D01*
X207970000Y-119018000D02*
X207970000Y-127982000D01*
X208010000Y-119089000D02*
X208010000Y-127911000D01*
X208050000Y-119161000D02*
X208050000Y-127839000D01*
X208090000Y-119235000D02*
X208090000Y-127765000D01*
X208130000Y-119311000D02*
X208130000Y-127689000D01*
X208170000Y-119388000D02*
X208170000Y-127612000D01*
X208210000Y-119467000D02*
X208210000Y-127533000D01*
X208250000Y-119548000D02*
X208250000Y-127452000D01*
X208290000Y-119631000D02*
X208290000Y-127369000D01*
X208330000Y-119717000D02*
X208330000Y-127283000D01*
X208370000Y-119805000D02*
X208370000Y-127195000D01*
X208410000Y-119895000D02*
X208410000Y-127105000D01*
X208450000Y-119988000D02*
X208450000Y-127012000D01*
X208490000Y-120084000D02*
X208490000Y-126916000D01*
X208530000Y-120184000D02*
X208530000Y-126816000D01*
X208570000Y-120287000D02*
X208570000Y-126713000D01*
X208610000Y-120393000D02*
X208610000Y-126607000D01*
X208650000Y-120504000D02*
X208650000Y-126496000D01*
X208690000Y-120620000D02*
X208690000Y-126380000D01*
X208730000Y-120741000D02*
X208730000Y-126259000D01*
X208770000Y-120869000D02*
X208770000Y-126131000D01*
X208810000Y-121003000D02*
X208810000Y-125997000D01*
X208850000Y-121145000D02*
X208850000Y-125855000D01*
X208890000Y-121298000D02*
X208890000Y-125702000D01*
X208930000Y-121462000D02*
X208930000Y-125538000D01*
X208970000Y-121641000D02*
X208970000Y-125359000D01*
X209010000Y-121839000D02*
X209010000Y-125161000D01*
X209050000Y-122065000D02*
X209050000Y-124935000D01*
X209090000Y-122335000D02*
X209090000Y-124665000D01*
X209130000Y-122687000D02*
X209130000Y-124313000D01*
X209170000Y-123540000D02*
X209170000Y-123460000D01*
X209170000Y-123500000D02*
G75*
G02*
X190930000Y-123500000I-9120000J0D01*
G01*
X190930000Y-123500000D02*
G75*
G02*
X209170000Y-123500000I9120000J0D01*
G01*
%TO.C,R4*%
X139265000Y-75272936D02*
X139265000Y-75727064D01*
X140735000Y-75272936D02*
X140735000Y-75727064D01*
%TO.C,C2*%
X156265000Y-111298752D02*
X156265000Y-110776248D01*
X157735000Y-111298752D02*
X157735000Y-110776248D01*
%TO.C,R2*%
X107000000Y-51580000D02*
X107000000Y-53880000D01*
X107000000Y-94420000D02*
X107000000Y-92120000D01*
X102380000Y-53880000D02*
X111620000Y-53880000D01*
X111620000Y-92120000D01*
X102380000Y-92120000D01*
X102380000Y-53880000D01*
%TO.C,D1*%
X181600000Y-74600000D02*
X181600000Y-103400000D01*
X181600000Y-103400000D02*
X207400000Y-103400000D01*
X207400000Y-103400000D02*
X210400000Y-100400000D01*
X210400000Y-74600000D02*
X181600000Y-74600000D01*
X210400000Y-100400000D02*
X210400000Y-74600000D01*
%TO.C,D2*%
X174530000Y-114620000D02*
X177470000Y-114620000D01*
X174530000Y-114740000D02*
X177470000Y-114740000D01*
X174530000Y-114860000D02*
X177470000Y-114860000D01*
X176000000Y-109180000D02*
X176000000Y-110200000D01*
X176000000Y-116660000D02*
X176000000Y-115640000D01*
X174530000Y-110200000D02*
X177470000Y-110200000D01*
X177470000Y-115640000D01*
X174530000Y-115640000D01*
X174530000Y-110200000D01*
%TO.C,R9*%
X87409284Y-100090000D02*
X85955156Y-100090000D01*
X87409284Y-101910000D02*
X85955156Y-101910000D01*
%TO.C,R3*%
X128000000Y-63720000D02*
X128000000Y-66020000D01*
X128000000Y-106560000D02*
X128000000Y-104260000D01*
X123380000Y-66020000D02*
X132620000Y-66020000D01*
X132620000Y-104260000D01*
X123380000Y-104260000D01*
X123380000Y-66020000D01*
%TO.C,HS1*%
X143805194Y-57680278D02*
X145993062Y-60805804D01*
X143805194Y-90919722D02*
X145993062Y-87794196D01*
X143835197Y-61826369D02*
X146930449Y-64072892D01*
X143835197Y-86773631D02*
X146930449Y-84527108D01*
X144245194Y-61037778D02*
X145533124Y-61438880D01*
X144245194Y-87562222D02*
X145533124Y-87161120D01*
X144300000Y-66360000D02*
X149215009Y-66360000D01*
X144300000Y-82240000D02*
X149215009Y-82240000D01*
X144652953Y-57048678D02*
X146261514Y-59079505D01*
X144652953Y-91551322D02*
X146261514Y-89520495D01*
X146609985Y-65060000D02*
X144299995Y-65060000D01*
X146609985Y-83540000D02*
X144299995Y-83540000D01*
X146767756Y-57258609D02*
X147024675Y-58726715D01*
X146767756Y-91341391D02*
X147024675Y-89873285D01*
X148400000Y-58900000D02*
X147434964Y-57030786D01*
X148400000Y-89700000D02*
X147434964Y-91569214D01*
X149215009Y-66360000D02*
X149215009Y-74300000D01*
X149215009Y-82240000D02*
X149215009Y-74300000D01*
X150784991Y-66360000D02*
X150784991Y-74300000D01*
X150784991Y-82240000D02*
X150784991Y-74300000D01*
X151600000Y-58900000D02*
X152565036Y-57030786D01*
X151600000Y-89700000D02*
X152565036Y-91569214D01*
X153232244Y-57258609D02*
X152975325Y-58726715D01*
X153232244Y-91341391D02*
X152975325Y-89873285D01*
X153390015Y-65060000D02*
X155700005Y-65060000D01*
X153390015Y-83540000D02*
X155700005Y-83540000D01*
X155347047Y-57048678D02*
X153738486Y-59079505D01*
X155347047Y-91551322D02*
X153738486Y-89520495D01*
X155700000Y-66360000D02*
X150784991Y-66360000D01*
X155700000Y-82240000D02*
X150784991Y-82240000D01*
X155754806Y-61037778D02*
X154466876Y-61438880D01*
X155754806Y-87562222D02*
X154466876Y-87161120D01*
X156164803Y-61826369D02*
X153069551Y-64072892D01*
X156164803Y-86773631D02*
X153069551Y-84527108D01*
X156194806Y-57680278D02*
X154006938Y-60805804D01*
X156194806Y-90919722D02*
X154006938Y-87794196D01*
X143805194Y-57680278D02*
G75*
G02*
X144652961Y-57048672I427106J311478D01*
G01*
X143835197Y-61826369D02*
G75*
G02*
X144245193Y-61037780I263903J363669D01*
G01*
X144245194Y-87562222D02*
G75*
G02*
X143835197Y-86773631I-146059J424939D01*
G01*
X144299995Y-83540000D02*
G75*
G02*
X144300000Y-82240000I15J650000D01*
G01*
X144300000Y-66360000D02*
G75*
G02*
X144299995Y-65060000I0J650000D01*
G01*
X144652953Y-91551322D02*
G75*
G02*
X143805194Y-90919722I-420681J320093D01*
G01*
X145533124Y-87161120D02*
G75*
G02*
X145993062Y-87794196I120922J-395762D01*
G01*
X145993062Y-60805804D02*
G75*
G02*
X145533117Y-61438903I-339062J-237296D01*
G01*
X146261514Y-89520495D02*
G75*
G02*
X147024675Y-89873285I334700J-277808D01*
G01*
X146609985Y-83540000D02*
G75*
G02*
X146930449Y-84527108I17J-545568D01*
G01*
X146767756Y-57258609D02*
G75*
G02*
X147434876Y-57030832I351444J61509D01*
G01*
X146930449Y-64072892D02*
G75*
G02*
X146609985Y-65059943I-320449J-441508D01*
G01*
X147024675Y-58726715D02*
G75*
G02*
X146261493Y-59079522I-428475J-74985D01*
G01*
X147434964Y-91569214D02*
G75*
G02*
X146767756Y-91341391I-315712J166311D01*
G01*
X152565036Y-57030786D02*
G75*
G02*
X153232250Y-57258610I315714J-166314D01*
G01*
X152975325Y-89873285D02*
G75*
G02*
X153738486Y-89520495I428460J74984D01*
G01*
X153069551Y-84527108D02*
G75*
G02*
X153390015Y-83539999I320452J441539D01*
G01*
X153232244Y-91341391D02*
G75*
G02*
X152565036Y-91569214I-351496J-61512D01*
G01*
X153390015Y-65060000D02*
G75*
G02*
X153069550Y-64072890I-45J545560D01*
G01*
X153738486Y-59079505D02*
G75*
G02*
X152975351Y-58726720I-334686J277805D01*
G01*
X154006938Y-87794196D02*
G75*
G02*
X154466876Y-87161120I339016J237314D01*
G01*
X154466876Y-61438880D02*
G75*
G02*
X154006937Y-60805803I-120926J395760D01*
G01*
X155347047Y-57048678D02*
G75*
G02*
X156194798Y-57680272I420653J-320122D01*
G01*
X155700000Y-82240000D02*
G75*
G02*
X155700005Y-83540000I-10J-650000D01*
G01*
X155700005Y-65060000D02*
G75*
G02*
X155700000Y-66360000I-5J-650000D01*
G01*
X155754806Y-61037778D02*
G75*
G02*
X156164804Y-61826370I146054J-424942D01*
G01*
X156164803Y-86773631D02*
G75*
G02*
X155754806Y-87562222I-263938J-363652D01*
G01*
X156194806Y-90919722D02*
G75*
G02*
X155347047Y-91551322I-427078J-311507D01*
G01*
%TO.C,C4*%
X90630000Y-108960000D02*
X90630000Y-109040000D01*
X90670000Y-109813000D02*
X90670000Y-108187000D01*
X90710000Y-110165000D02*
X90710000Y-107835000D01*
X90750000Y-110435000D02*
X90750000Y-107565000D01*
X90790000Y-110661000D02*
X90790000Y-107339000D01*
X90830000Y-110859000D02*
X90830000Y-107141000D01*
X90870000Y-111038000D02*
X90870000Y-106962000D01*
X90910000Y-111202000D02*
X90910000Y-106798000D01*
X90950000Y-111355000D02*
X90950000Y-106645000D01*
X90990000Y-111497000D02*
X90990000Y-106503000D01*
X91030000Y-111631000D02*
X91030000Y-106369000D01*
X91070000Y-111759000D02*
X91070000Y-106241000D01*
X91110000Y-111880000D02*
X91110000Y-106120000D01*
X91150000Y-111996000D02*
X91150000Y-106004000D01*
X91190000Y-112107000D02*
X91190000Y-105893000D01*
X91230000Y-112213000D02*
X91230000Y-105787000D01*
X91270000Y-112316000D02*
X91270000Y-105684000D01*
X91310000Y-112416000D02*
X91310000Y-105584000D01*
X91350000Y-112512000D02*
X91350000Y-105488000D01*
X91390000Y-112605000D02*
X91390000Y-105395000D01*
X91430000Y-112695000D02*
X91430000Y-105305000D01*
X91470000Y-112783000D02*
X91470000Y-105217000D01*
X91510000Y-112869000D02*
X91510000Y-105131000D01*
X91550000Y-112952000D02*
X91550000Y-105048000D01*
X91590000Y-113033000D02*
X91590000Y-104967000D01*
X91630000Y-113112000D02*
X91630000Y-104888000D01*
X91670000Y-113189000D02*
X91670000Y-104811000D01*
X91710000Y-113265000D02*
X91710000Y-104735000D01*
X91750000Y-113339000D02*
X91750000Y-104661000D01*
X91790000Y-113411000D02*
X91790000Y-104589000D01*
X91830000Y-113482000D02*
X91830000Y-104518000D01*
X91870000Y-113551000D02*
X91870000Y-104449000D01*
X91910000Y-113619000D02*
X91910000Y-104381000D01*
X91950000Y-113686000D02*
X91950000Y-104314000D01*
X91990000Y-113751000D02*
X91990000Y-104249000D01*
X92030000Y-113816000D02*
X92030000Y-104184000D01*
X92070000Y-113879000D02*
X92070000Y-104121000D01*
X92110000Y-113940000D02*
X92110000Y-104060000D01*
X92150000Y-114001000D02*
X92150000Y-103999000D01*
X92190000Y-114061000D02*
X92190000Y-103939000D01*
X92230000Y-114120000D02*
X92230000Y-103880000D01*
X92270000Y-114178000D02*
X92270000Y-103822000D01*
X92310000Y-114235000D02*
X92310000Y-103765000D01*
X92350000Y-114291000D02*
X92350000Y-103709000D01*
X92390000Y-114346000D02*
X92390000Y-103654000D01*
X92430000Y-114400000D02*
X92430000Y-103600000D01*
X92470000Y-114453000D02*
X92470000Y-103547000D01*
X92510000Y-114506000D02*
X92510000Y-103494000D01*
X92550000Y-114558000D02*
X92550000Y-103442000D01*
X92590000Y-114609000D02*
X92590000Y-103391000D01*
X92630000Y-114659000D02*
X92630000Y-103341000D01*
X92670000Y-114709000D02*
X92670000Y-103291000D01*
X92710000Y-114758000D02*
X92710000Y-103242000D01*
X92750000Y-114806000D02*
X92750000Y-103194000D01*
X92790000Y-114853000D02*
X92790000Y-103147000D01*
X92830000Y-114900000D02*
X92830000Y-103100000D01*
X92870000Y-114947000D02*
X92870000Y-103053000D01*
X92910000Y-114992000D02*
X92910000Y-103008000D01*
X92950000Y-115037000D02*
X92950000Y-102963000D01*
X92990000Y-115082000D02*
X92990000Y-102918000D01*
X93030000Y-115126000D02*
X93030000Y-102874000D01*
X93070000Y-115169000D02*
X93070000Y-102831000D01*
X93110000Y-115212000D02*
X93110000Y-102788000D01*
X93150000Y-115254000D02*
X93150000Y-102746000D01*
X93190000Y-115296000D02*
X93190000Y-102704000D01*
X93230000Y-115337000D02*
X93230000Y-102663000D01*
X93270000Y-115377000D02*
X93270000Y-102623000D01*
X93310000Y-115418000D02*
X93310000Y-102582000D01*
X93350000Y-115457000D02*
X93350000Y-102543000D01*
X93390000Y-115496000D02*
X93390000Y-102504000D01*
X93430000Y-115535000D02*
X93430000Y-102465000D01*
X93470000Y-115573000D02*
X93470000Y-102427000D01*
X93510000Y-115611000D02*
X93510000Y-102389000D01*
X93550000Y-115648000D02*
X93550000Y-102352000D01*
X93590000Y-115685000D02*
X93590000Y-102315000D01*
X93630000Y-115722000D02*
X93630000Y-102278000D01*
X93670000Y-115758000D02*
X93670000Y-102242000D01*
X93710000Y-115793000D02*
X93710000Y-102207000D01*
X93750000Y-115828000D02*
X93750000Y-102172000D01*
X93790000Y-115863000D02*
X93790000Y-102137000D01*
X93830000Y-115897000D02*
X93830000Y-102103000D01*
X93870000Y-115931000D02*
X93870000Y-102069000D01*
X93910000Y-115965000D02*
X93910000Y-102035000D01*
X93950000Y-115998000D02*
X93950000Y-102002000D01*
X93990000Y-116031000D02*
X93990000Y-101969000D01*
X94030000Y-116063000D02*
X94030000Y-101937000D01*
X94070000Y-116095000D02*
X94070000Y-101905000D01*
X94110000Y-116127000D02*
X94110000Y-101873000D01*
X94150000Y-116158000D02*
X94150000Y-101842000D01*
X94190000Y-116189000D02*
X94190000Y-101811000D01*
X94230000Y-116220000D02*
X94230000Y-101780000D01*
X94270000Y-116250000D02*
X94270000Y-101750000D01*
X94310000Y-116280000D02*
X94310000Y-101720000D01*
X94350000Y-116309000D02*
X94350000Y-101691000D01*
X94390000Y-116339000D02*
X94390000Y-101661000D01*
X94430000Y-116368000D02*
X94430000Y-101632000D01*
X94470000Y-116396000D02*
X94470000Y-101604000D01*
X94510000Y-116424000D02*
X94510000Y-101576000D01*
X94550000Y-116452000D02*
X94550000Y-101548000D01*
X94590000Y-107560000D02*
X94590000Y-101520000D01*
X94590000Y-116480000D02*
X94590000Y-110440000D01*
X94630000Y-107560000D02*
X94630000Y-101493000D01*
X94630000Y-116507000D02*
X94630000Y-110440000D01*
X94670000Y-107560000D02*
X94670000Y-101466000D01*
X94670000Y-116534000D02*
X94670000Y-110440000D01*
X94710000Y-107560000D02*
X94710000Y-101439000D01*
X94710000Y-116561000D02*
X94710000Y-110440000D01*
X94750000Y-107560000D02*
X94750000Y-101413000D01*
X94750000Y-116587000D02*
X94750000Y-110440000D01*
X94790000Y-107560000D02*
X94790000Y-101387000D01*
X94790000Y-116613000D02*
X94790000Y-110440000D01*
X94830000Y-107560000D02*
X94830000Y-101361000D01*
X94830000Y-116639000D02*
X94830000Y-110440000D01*
X94870000Y-107560000D02*
X94870000Y-101335000D01*
X94870000Y-116665000D02*
X94870000Y-110440000D01*
X94910000Y-107560000D02*
X94910000Y-101310000D01*
X94910000Y-116690000D02*
X94910000Y-110440000D01*
X94950000Y-107560000D02*
X94950000Y-101285000D01*
X94950000Y-116715000D02*
X94950000Y-110440000D01*
X94990000Y-107560000D02*
X94990000Y-101261000D01*
X94990000Y-116739000D02*
X94990000Y-110440000D01*
X95030000Y-107560000D02*
X95030000Y-101236000D01*
X95030000Y-116764000D02*
X95030000Y-110440000D01*
X95070000Y-107560000D02*
X95070000Y-101212000D01*
X95070000Y-116788000D02*
X95070000Y-110440000D01*
X95110000Y-107560000D02*
X95110000Y-101189000D01*
X95110000Y-116811000D02*
X95110000Y-110440000D01*
X95150000Y-107560000D02*
X95150000Y-101165000D01*
X95150000Y-116835000D02*
X95150000Y-110440000D01*
X95190000Y-107560000D02*
X95190000Y-101142000D01*
X95190000Y-116858000D02*
X95190000Y-110440000D01*
X95230000Y-107560000D02*
X95230000Y-101119000D01*
X95230000Y-116881000D02*
X95230000Y-110440000D01*
X95270000Y-107560000D02*
X95270000Y-101096000D01*
X95270000Y-116904000D02*
X95270000Y-110440000D01*
X95310000Y-107560000D02*
X95310000Y-101074000D01*
X95310000Y-116926000D02*
X95310000Y-110440000D01*
X95350000Y-107560000D02*
X95350000Y-101052000D01*
X95350000Y-116948000D02*
X95350000Y-110440000D01*
X95390000Y-107560000D02*
X95390000Y-101030000D01*
X95390000Y-116970000D02*
X95390000Y-110440000D01*
X95430000Y-107560000D02*
X95430000Y-101008000D01*
X95430000Y-116992000D02*
X95430000Y-110440000D01*
X95470000Y-107560000D02*
X95470000Y-100987000D01*
X95470000Y-117013000D02*
X95470000Y-110440000D01*
X95510000Y-107560000D02*
X95510000Y-100966000D01*
X95510000Y-117034000D02*
X95510000Y-110440000D01*
X95550000Y-107560000D02*
X95550000Y-100945000D01*
X95550000Y-117055000D02*
X95550000Y-110440000D01*
X95590000Y-107560000D02*
X95590000Y-100924000D01*
X95590000Y-117076000D02*
X95590000Y-110440000D01*
X95630000Y-107560000D02*
X95630000Y-100904000D01*
X95630000Y-117096000D02*
X95630000Y-110440000D01*
X95670000Y-107560000D02*
X95670000Y-100884000D01*
X95670000Y-117116000D02*
X95670000Y-110440000D01*
X95710000Y-107560000D02*
X95710000Y-100864000D01*
X95710000Y-117136000D02*
X95710000Y-110440000D01*
X95750000Y-107560000D02*
X95750000Y-100844000D01*
X95750000Y-117156000D02*
X95750000Y-110440000D01*
X95790000Y-107560000D02*
X95790000Y-100825000D01*
X95790000Y-117175000D02*
X95790000Y-110440000D01*
X95830000Y-107560000D02*
X95830000Y-100805000D01*
X95830000Y-117195000D02*
X95830000Y-110440000D01*
X95870000Y-107560000D02*
X95870000Y-100787000D01*
X95870000Y-117213000D02*
X95870000Y-110440000D01*
X95910000Y-107560000D02*
X95910000Y-100768000D01*
X95910000Y-117232000D02*
X95910000Y-110440000D01*
X95950000Y-107560000D02*
X95950000Y-100749000D01*
X95950000Y-117251000D02*
X95950000Y-110440000D01*
X95990000Y-107560000D02*
X95990000Y-100731000D01*
X95990000Y-117269000D02*
X95990000Y-110440000D01*
X96030000Y-107560000D02*
X96030000Y-100713000D01*
X96030000Y-117287000D02*
X96030000Y-110440000D01*
X96070000Y-107560000D02*
X96070000Y-100695000D01*
X96070000Y-117305000D02*
X96070000Y-110440000D01*
X96110000Y-107560000D02*
X96110000Y-100678000D01*
X96110000Y-117322000D02*
X96110000Y-110440000D01*
X96150000Y-107560000D02*
X96150000Y-100661000D01*
X96150000Y-117339000D02*
X96150000Y-110440000D01*
X96190000Y-107560000D02*
X96190000Y-100644000D01*
X96190000Y-117356000D02*
X96190000Y-110440000D01*
X96230000Y-107560000D02*
X96230000Y-100627000D01*
X96230000Y-117373000D02*
X96230000Y-110440000D01*
X96270000Y-107560000D02*
X96270000Y-100610000D01*
X96270000Y-117390000D02*
X96270000Y-110440000D01*
X96310000Y-107560000D02*
X96310000Y-100594000D01*
X96310000Y-117406000D02*
X96310000Y-110440000D01*
X96350000Y-107560000D02*
X96350000Y-100577000D01*
X96350000Y-117423000D02*
X96350000Y-110440000D01*
X96390000Y-107560000D02*
X96390000Y-100562000D01*
X96390000Y-117438000D02*
X96390000Y-110440000D01*
X96430000Y-107560000D02*
X96430000Y-100546000D01*
X96430000Y-117454000D02*
X96430000Y-110440000D01*
X96470000Y-107560000D02*
X96470000Y-100530000D01*
X96470000Y-117470000D02*
X96470000Y-110440000D01*
X96510000Y-107560000D02*
X96510000Y-100515000D01*
X96510000Y-117485000D02*
X96510000Y-110440000D01*
X96550000Y-107560000D02*
X96550000Y-100500000D01*
X96550000Y-117500000D02*
X96550000Y-110440000D01*
X96590000Y-107560000D02*
X96590000Y-100485000D01*
X96590000Y-117515000D02*
X96590000Y-110440000D01*
X96630000Y-107560000D02*
X96630000Y-100470000D01*
X96630000Y-117530000D02*
X96630000Y-110440000D01*
X96670000Y-107560000D02*
X96670000Y-100456000D01*
X96670000Y-117544000D02*
X96670000Y-110440000D01*
X96710000Y-107560000D02*
X96710000Y-100442000D01*
X96710000Y-117558000D02*
X96710000Y-110440000D01*
X96750000Y-107560000D02*
X96750000Y-100428000D01*
X96750000Y-117572000D02*
X96750000Y-110440000D01*
X96790000Y-107560000D02*
X96790000Y-100414000D01*
X96790000Y-117586000D02*
X96790000Y-110440000D01*
X96830000Y-107560000D02*
X96830000Y-100400000D01*
X96830000Y-117600000D02*
X96830000Y-110440000D01*
X96870000Y-107560000D02*
X96870000Y-100387000D01*
X96870000Y-117613000D02*
X96870000Y-110440000D01*
X96910000Y-107560000D02*
X96910000Y-100373000D01*
X96910000Y-117627000D02*
X96910000Y-110440000D01*
X96950000Y-107560000D02*
X96950000Y-100360000D01*
X96950000Y-117640000D02*
X96950000Y-110440000D01*
X96990000Y-107560000D02*
X96990000Y-100348000D01*
X96990000Y-117652000D02*
X96990000Y-110440000D01*
X97030000Y-107560000D02*
X97030000Y-100335000D01*
X97030000Y-117665000D02*
X97030000Y-110440000D01*
X97070000Y-107560000D02*
X97070000Y-100323000D01*
X97070000Y-117677000D02*
X97070000Y-110440000D01*
X97110000Y-107560000D02*
X97110000Y-100310000D01*
X97110000Y-117690000D02*
X97110000Y-110440000D01*
X97150000Y-107560000D02*
X97150000Y-100298000D01*
X97150000Y-117702000D02*
X97150000Y-110440000D01*
X97190000Y-107560000D02*
X97190000Y-100287000D01*
X97190000Y-117713000D02*
X97190000Y-110440000D01*
X97230000Y-107560000D02*
X97230000Y-100275000D01*
X97230000Y-117725000D02*
X97230000Y-110440000D01*
X97270000Y-107560000D02*
X97270000Y-100264000D01*
X97270000Y-117736000D02*
X97270000Y-110440000D01*
X97310000Y-107560000D02*
X97310000Y-100252000D01*
X97310000Y-117748000D02*
X97310000Y-110440000D01*
X97350000Y-107560000D02*
X97350000Y-100241000D01*
X97350000Y-117759000D02*
X97350000Y-110440000D01*
X97390000Y-107560000D02*
X97390000Y-100231000D01*
X97390000Y-117769000D02*
X97390000Y-110440000D01*
X97430000Y-107560000D02*
X97430000Y-100220000D01*
X97430000Y-117780000D02*
X97430000Y-110440000D01*
X97470000Y-117790000D02*
X97470000Y-100210000D01*
X97510000Y-117801000D02*
X97510000Y-100199000D01*
X97550000Y-117811000D02*
X97550000Y-100189000D01*
X97590000Y-117821000D02*
X97590000Y-100179000D01*
X97630000Y-117830000D02*
X97630000Y-100170000D01*
X97670000Y-117840000D02*
X97670000Y-100160000D01*
X97710000Y-117849000D02*
X97710000Y-100151000D01*
X97750000Y-117858000D02*
X97750000Y-100142000D01*
X97790000Y-117867000D02*
X97790000Y-100133000D01*
X97830000Y-117876000D02*
X97830000Y-100124000D01*
X97870000Y-117884000D02*
X97870000Y-100116000D01*
X97910000Y-117892000D02*
X97910000Y-100108000D01*
X97950000Y-117901000D02*
X97950000Y-100099000D01*
X97990000Y-117909000D02*
X97990000Y-100091000D01*
X98030000Y-117916000D02*
X98030000Y-100084000D01*
X98070000Y-117924000D02*
X98070000Y-100076000D01*
X98110000Y-117931000D02*
X98110000Y-100069000D01*
X98150000Y-117939000D02*
X98150000Y-100061000D01*
X98190000Y-117946000D02*
X98190000Y-100054000D01*
X98230000Y-117952000D02*
X98230000Y-100048000D01*
X98270000Y-117959000D02*
X98270000Y-100041000D01*
X98310000Y-117966000D02*
X98310000Y-100034000D01*
X98350000Y-117972000D02*
X98350000Y-100028000D01*
X98390000Y-117978000D02*
X98390000Y-100022000D01*
X98430000Y-117984000D02*
X98430000Y-100016000D01*
X98470000Y-117990000D02*
X98470000Y-100010000D01*
X98510000Y-117995000D02*
X98510000Y-100005000D01*
X98550000Y-118001000D02*
X98550000Y-99999000D01*
X98590000Y-118006000D02*
X98590000Y-99994000D01*
X98630000Y-118011000D02*
X98630000Y-99989000D01*
X98670000Y-118016000D02*
X98670000Y-99984000D01*
X98710000Y-118021000D02*
X98710000Y-99979000D01*
X98750000Y-118025000D02*
X98750000Y-99975000D01*
X98790000Y-118029000D02*
X98790000Y-99971000D01*
X98830000Y-118033000D02*
X98830000Y-99967000D01*
X98870000Y-118037000D02*
X98870000Y-99963000D01*
X98910000Y-118041000D02*
X98910000Y-99959000D01*
X98950000Y-118045000D02*
X98950000Y-99955000D01*
X98990000Y-118048000D02*
X98990000Y-99952000D01*
X99030000Y-118052000D02*
X99030000Y-99948000D01*
X99070000Y-118055000D02*
X99070000Y-99945000D01*
X99110000Y-118058000D02*
X99110000Y-99942000D01*
X99150000Y-118060000D02*
X99150000Y-99940000D01*
X99190000Y-118063000D02*
X99190000Y-99937000D01*
X99230000Y-118065000D02*
X99230000Y-99935000D01*
X99270000Y-118067000D02*
X99270000Y-99933000D01*
X99310000Y-118069000D02*
X99310000Y-99931000D01*
X99350000Y-118071000D02*
X99350000Y-99929000D01*
X99390000Y-118073000D02*
X99390000Y-99927000D01*
X99430000Y-118074000D02*
X99430000Y-99926000D01*
X99470000Y-118076000D02*
X99470000Y-99924000D01*
X99510000Y-118077000D02*
X99510000Y-99923000D01*
X99550000Y-118078000D02*
X99550000Y-99922000D01*
X99590000Y-118079000D02*
X99590000Y-99921000D01*
X99630000Y-118079000D02*
X99630000Y-99921000D01*
X99670000Y-118080000D02*
X99670000Y-99920000D01*
X99710000Y-118080000D02*
X99710000Y-99920000D01*
X99750000Y-118080000D02*
X99750000Y-99920000D01*
X108609440Y-115015000D02*
X108609440Y-113215000D01*
X109509440Y-114115000D02*
X107709440Y-114115000D01*
X108870000Y-109000000D02*
G75*
G02*
X90630000Y-109000000I-9120000J0D01*
G01*
X90630000Y-109000000D02*
G75*
G02*
X108870000Y-109000000I9120000J0D01*
G01*
%TO.C,D3*%
X159000000Y-70260000D02*
X159000000Y-71280000D01*
X159000000Y-77740000D02*
X159000000Y-76720000D01*
X160470000Y-72060000D02*
X157530000Y-72060000D01*
X160470000Y-72180000D02*
X157530000Y-72180000D01*
X160470000Y-72300000D02*
X157530000Y-72300000D01*
X157530000Y-71280000D02*
X160470000Y-71280000D01*
X160470000Y-76720000D01*
X157530000Y-76720000D01*
X157530000Y-71280000D01*
%TO.C,R6*%
X158265000Y-64872936D02*
X158265000Y-65327064D01*
X159735000Y-64872936D02*
X159735000Y-65327064D01*
%TO.C,HS3*%
D10*
X182540000Y-75540000D02*
X209460000Y-75540000D01*
X209460000Y-102460000D01*
X182540000Y-102460000D01*
X182540000Y-75540000D01*
%TO.C,C5*%
D11*
X72582729Y-112445000D02*
X74182729Y-112445000D01*
X73382729Y-111645000D02*
X73382729Y-113245000D01*
X81272220Y-108920000D02*
X81272220Y-125080000D01*
X81312220Y-108920000D02*
X81312220Y-125080000D01*
X81352220Y-108920000D02*
X81352220Y-125080000D01*
X81392220Y-108921000D02*
X81392220Y-125079000D01*
X81432220Y-108922000D02*
X81432220Y-125078000D01*
X81472220Y-108922000D02*
X81472220Y-125078000D01*
X81512220Y-108924000D02*
X81512220Y-125076000D01*
X81552220Y-108925000D02*
X81552220Y-125075000D01*
X81592220Y-108926000D02*
X81592220Y-125074000D01*
X81632220Y-108928000D02*
X81632220Y-125072000D01*
X81672220Y-108930000D02*
X81672220Y-125070000D01*
X81712220Y-108932000D02*
X81712220Y-125068000D01*
X81752220Y-108934000D02*
X81752220Y-125066000D01*
X81792220Y-108937000D02*
X81792220Y-125063000D01*
X81832220Y-108939000D02*
X81832220Y-125061000D01*
X81872220Y-108942000D02*
X81872220Y-125058000D01*
X81912220Y-108945000D02*
X81912220Y-125055000D01*
X81952220Y-108949000D02*
X81952220Y-125051000D01*
X81992220Y-108952000D02*
X81992220Y-125048000D01*
X82032220Y-108956000D02*
X82032220Y-125044000D01*
X82072220Y-108960000D02*
X82072220Y-125040000D01*
X82112220Y-108964000D02*
X82112220Y-125036000D01*
X82152220Y-108968000D02*
X82152220Y-125032000D01*
X82192220Y-108972000D02*
X82192220Y-125028000D01*
X82232220Y-108977000D02*
X82232220Y-125023000D01*
X82272220Y-108982000D02*
X82272220Y-125018000D01*
X82312220Y-108987000D02*
X82312220Y-125013000D01*
X82352220Y-108992000D02*
X82352220Y-125008000D01*
X82392220Y-108998000D02*
X82392220Y-125002000D01*
X82432220Y-109003000D02*
X82432220Y-124997000D01*
X82472220Y-109009000D02*
X82472220Y-124991000D01*
X82512220Y-109015000D02*
X82512220Y-124985000D01*
X82552220Y-109022000D02*
X82552220Y-124978000D01*
X82592220Y-109028000D02*
X82592220Y-124972000D01*
X82632220Y-109035000D02*
X82632220Y-124965000D01*
X82672220Y-109042000D02*
X82672220Y-124958000D01*
X82712220Y-109049000D02*
X82712220Y-124951000D01*
X82752220Y-109056000D02*
X82752220Y-124944000D01*
X82792220Y-109064000D02*
X82792220Y-124936000D01*
X82832220Y-109071000D02*
X82832220Y-124929000D01*
X82872220Y-109079000D02*
X82872220Y-124921000D01*
X82912220Y-109087000D02*
X82912220Y-124913000D01*
X82952220Y-109096000D02*
X82952220Y-124904000D01*
X82992220Y-109104000D02*
X82992220Y-124896000D01*
X83032220Y-109113000D02*
X83032220Y-124887000D01*
X83072220Y-109122000D02*
X83072220Y-124878000D01*
X83112220Y-109131000D02*
X83112220Y-124869000D01*
X83152220Y-109141000D02*
X83152220Y-124859000D01*
X83192220Y-109150000D02*
X83192220Y-124850000D01*
X83232220Y-109160000D02*
X83232220Y-124840000D01*
X83272220Y-109170000D02*
X83272220Y-124830000D01*
X83312220Y-109180000D02*
X83312220Y-124820000D01*
X83352220Y-109191000D02*
X83352220Y-124809000D01*
X83392220Y-109202000D02*
X83392220Y-124798000D01*
X83432220Y-109213000D02*
X83432220Y-124787000D01*
X83472220Y-109224000D02*
X83472220Y-124776000D01*
X83512220Y-109235000D02*
X83512220Y-124765000D01*
X83552220Y-109247000D02*
X83552220Y-124753000D01*
X83592220Y-109258000D02*
X83592220Y-115560000D01*
X83592220Y-118440000D02*
X83592220Y-124742000D01*
X83632220Y-109271000D02*
X83632220Y-115560000D01*
X83632220Y-118440000D02*
X83632220Y-124729000D01*
X83672220Y-109283000D02*
X83672220Y-115560000D01*
X83672220Y-118440000D02*
X83672220Y-124717000D01*
X83712220Y-109295000D02*
X83712220Y-115560000D01*
X83712220Y-118440000D02*
X83712220Y-124705000D01*
X83752220Y-109308000D02*
X83752220Y-115560000D01*
X83752220Y-118440000D02*
X83752220Y-124692000D01*
X83792220Y-109321000D02*
X83792220Y-115560000D01*
X83792220Y-118440000D02*
X83792220Y-124679000D01*
X83832220Y-109334000D02*
X83832220Y-115560000D01*
X83832220Y-118440000D02*
X83832220Y-124666000D01*
X83872220Y-109348000D02*
X83872220Y-115560000D01*
X83872220Y-118440000D02*
X83872220Y-124652000D01*
X83912220Y-109361000D02*
X83912220Y-115560000D01*
X83912220Y-118440000D02*
X83912220Y-124639000D01*
X83952220Y-109375000D02*
X83952220Y-115560000D01*
X83952220Y-118440000D02*
X83952220Y-124625000D01*
X83992220Y-109389000D02*
X83992220Y-115560000D01*
X83992220Y-118440000D02*
X83992220Y-124611000D01*
X84032220Y-109403000D02*
X84032220Y-115560000D01*
X84032220Y-118440000D02*
X84032220Y-124597000D01*
X84072220Y-109418000D02*
X84072220Y-115560000D01*
X84072220Y-118440000D02*
X84072220Y-124582000D01*
X84112220Y-109433000D02*
X84112220Y-115560000D01*
X84112220Y-118440000D02*
X84112220Y-124567000D01*
X84152220Y-109448000D02*
X84152220Y-115560000D01*
X84152220Y-118440000D02*
X84152220Y-124552000D01*
X84192220Y-109463000D02*
X84192220Y-115560000D01*
X84192220Y-118440000D02*
X84192220Y-124537000D01*
X84232220Y-109479000D02*
X84232220Y-115560000D01*
X84232220Y-118440000D02*
X84232220Y-124521000D01*
X84272220Y-109495000D02*
X84272220Y-115560000D01*
X84272220Y-118440000D02*
X84272220Y-124505000D01*
X84312220Y-109511000D02*
X84312220Y-115560000D01*
X84312220Y-118440000D02*
X84312220Y-124489000D01*
X84352220Y-109527000D02*
X84352220Y-115560000D01*
X84352220Y-118440000D02*
X84352220Y-124473000D01*
X84392220Y-109543000D02*
X84392220Y-115560000D01*
X84392220Y-118440000D02*
X84392220Y-124457000D01*
X84432220Y-109560000D02*
X84432220Y-115560000D01*
X84432220Y-118440000D02*
X84432220Y-124440000D01*
X84472220Y-109577000D02*
X84472220Y-115560000D01*
X84472220Y-118440000D02*
X84472220Y-124423000D01*
X84512220Y-109594000D02*
X84512220Y-115560000D01*
X84512220Y-118440000D02*
X84512220Y-124406000D01*
X84552220Y-109612000D02*
X84552220Y-115560000D01*
X84552220Y-118440000D02*
X84552220Y-124388000D01*
X84592220Y-109630000D02*
X84592220Y-115560000D01*
X84592220Y-118440000D02*
X84592220Y-124370000D01*
X84632220Y-109648000D02*
X84632220Y-115560000D01*
X84632220Y-118440000D02*
X84632220Y-124352000D01*
X84672220Y-109666000D02*
X84672220Y-115560000D01*
X84672220Y-118440000D02*
X84672220Y-124334000D01*
X84712220Y-109685000D02*
X84712220Y-115560000D01*
X84712220Y-118440000D02*
X84712220Y-124315000D01*
X84752220Y-109704000D02*
X84752220Y-115560000D01*
X84752220Y-118440000D02*
X84752220Y-124296000D01*
X84792220Y-109723000D02*
X84792220Y-115560000D01*
X84792220Y-118440000D02*
X84792220Y-124277000D01*
X84832220Y-109742000D02*
X84832220Y-115560000D01*
X84832220Y-118440000D02*
X84832220Y-124258000D01*
X84872220Y-109762000D02*
X84872220Y-115560000D01*
X84872220Y-118440000D02*
X84872220Y-124238000D01*
X84912220Y-109782000D02*
X84912220Y-115560000D01*
X84912220Y-118440000D02*
X84912220Y-124218000D01*
X84952220Y-109802000D02*
X84952220Y-115560000D01*
X84952220Y-118440000D02*
X84952220Y-124198000D01*
X84992220Y-109822000D02*
X84992220Y-115560000D01*
X84992220Y-118440000D02*
X84992220Y-124178000D01*
X85032220Y-109843000D02*
X85032220Y-115560000D01*
X85032220Y-118440000D02*
X85032220Y-124157000D01*
X85072220Y-109864000D02*
X85072220Y-115560000D01*
X85072220Y-118440000D02*
X85072220Y-124136000D01*
X85112220Y-109885000D02*
X85112220Y-115560000D01*
X85112220Y-118440000D02*
X85112220Y-124115000D01*
X85152220Y-109907000D02*
X85152220Y-115560000D01*
X85152220Y-118440000D02*
X85152220Y-124093000D01*
X85192220Y-109929000D02*
X85192220Y-115560000D01*
X85192220Y-118440000D02*
X85192220Y-124071000D01*
X85232220Y-109951000D02*
X85232220Y-115560000D01*
X85232220Y-118440000D02*
X85232220Y-124049000D01*
X85272220Y-109974000D02*
X85272220Y-115560000D01*
X85272220Y-118440000D02*
X85272220Y-124026000D01*
X85312220Y-109996000D02*
X85312220Y-115560000D01*
X85312220Y-118440000D02*
X85312220Y-124004000D01*
X85352220Y-110019000D02*
X85352220Y-115560000D01*
X85352220Y-118440000D02*
X85352220Y-123981000D01*
X85392220Y-110043000D02*
X85392220Y-115560000D01*
X85392220Y-118440000D02*
X85392220Y-123957000D01*
X85432220Y-110067000D02*
X85432220Y-115560000D01*
X85432220Y-118440000D02*
X85432220Y-123933000D01*
X85472220Y-110091000D02*
X85472220Y-115560000D01*
X85472220Y-118440000D02*
X85472220Y-123909000D01*
X85512220Y-110115000D02*
X85512220Y-115560000D01*
X85512220Y-118440000D02*
X85512220Y-123885000D01*
X85552220Y-110140000D02*
X85552220Y-115560000D01*
X85552220Y-118440000D02*
X85552220Y-123860000D01*
X85592220Y-110165000D02*
X85592220Y-115560000D01*
X85592220Y-118440000D02*
X85592220Y-123835000D01*
X85632220Y-110190000D02*
X85632220Y-115560000D01*
X85632220Y-118440000D02*
X85632220Y-123810000D01*
X85672220Y-110215000D02*
X85672220Y-115560000D01*
X85672220Y-118440000D02*
X85672220Y-123785000D01*
X85712220Y-110241000D02*
X85712220Y-115560000D01*
X85712220Y-118440000D02*
X85712220Y-123759000D01*
X85752220Y-110268000D02*
X85752220Y-115560000D01*
X85752220Y-118440000D02*
X85752220Y-123732000D01*
X85792220Y-110294000D02*
X85792220Y-115560000D01*
X85792220Y-118440000D02*
X85792220Y-123706000D01*
X85832220Y-110321000D02*
X85832220Y-115560000D01*
X85832220Y-118440000D02*
X85832220Y-123679000D01*
X85872220Y-110349000D02*
X85872220Y-115560000D01*
X85872220Y-118440000D02*
X85872220Y-123651000D01*
X85912220Y-110376000D02*
X85912220Y-115560000D01*
X85912220Y-118440000D02*
X85912220Y-123624000D01*
X85952220Y-110404000D02*
X85952220Y-115560000D01*
X85952220Y-118440000D02*
X85952220Y-123596000D01*
X85992220Y-110433000D02*
X85992220Y-115560000D01*
X85992220Y-118440000D02*
X85992220Y-123567000D01*
X86032220Y-110461000D02*
X86032220Y-115560000D01*
X86032220Y-118440000D02*
X86032220Y-123539000D01*
X86072220Y-110491000D02*
X86072220Y-115560000D01*
X86072220Y-118440000D02*
X86072220Y-123509000D01*
X86112220Y-110520000D02*
X86112220Y-115560000D01*
X86112220Y-118440000D02*
X86112220Y-123480000D01*
X86152220Y-110550000D02*
X86152220Y-115560000D01*
X86152220Y-118440000D02*
X86152220Y-123450000D01*
X86192220Y-110580000D02*
X86192220Y-115560000D01*
X86192220Y-118440000D02*
X86192220Y-123420000D01*
X86232220Y-110611000D02*
X86232220Y-115560000D01*
X86232220Y-118440000D02*
X86232220Y-123389000D01*
X86272220Y-110642000D02*
X86272220Y-115560000D01*
X86272220Y-118440000D02*
X86272220Y-123358000D01*
X86312220Y-110673000D02*
X86312220Y-115560000D01*
X86312220Y-118440000D02*
X86312220Y-123327000D01*
X86352220Y-110705000D02*
X86352220Y-115560000D01*
X86352220Y-118440000D02*
X86352220Y-123295000D01*
X86392220Y-110738000D02*
X86392220Y-115560000D01*
X86392220Y-118440000D02*
X86392220Y-123262000D01*
X86432220Y-110770000D02*
X86432220Y-115560000D01*
X86432220Y-118440000D02*
X86432220Y-123230000D01*
X86472220Y-110803000D02*
X86472220Y-123197000D01*
X86512220Y-110837000D02*
X86512220Y-123163000D01*
X86552220Y-110871000D02*
X86552220Y-123129000D01*
X86592220Y-110906000D02*
X86592220Y-123094000D01*
X86632220Y-110940000D02*
X86632220Y-123060000D01*
X86672220Y-110976000D02*
X86672220Y-123024000D01*
X86712220Y-111012000D02*
X86712220Y-122988000D01*
X86752220Y-111048000D02*
X86752220Y-122952000D01*
X86792220Y-111085000D02*
X86792220Y-122915000D01*
X86832220Y-111122000D02*
X86832220Y-122878000D01*
X86872220Y-111160000D02*
X86872220Y-122840000D01*
X86912220Y-111198000D02*
X86912220Y-122802000D01*
X86952220Y-111237000D02*
X86952220Y-122763000D01*
X86992220Y-111277000D02*
X86992220Y-122723000D01*
X87032220Y-111317000D02*
X87032220Y-122683000D01*
X87072220Y-111357000D02*
X87072220Y-122643000D01*
X87112220Y-111398000D02*
X87112220Y-122602000D01*
X87152220Y-111440000D02*
X87152220Y-122560000D01*
X87192220Y-111482000D02*
X87192220Y-122518000D01*
X87232220Y-111525000D02*
X87232220Y-122475000D01*
X87272220Y-111569000D02*
X87272220Y-122431000D01*
X87312220Y-111613000D02*
X87312220Y-122387000D01*
X87352220Y-111658000D02*
X87352220Y-122342000D01*
X87392220Y-111703000D02*
X87392220Y-122297000D01*
X87432220Y-111750000D02*
X87432220Y-122250000D01*
X87472220Y-111796000D02*
X87472220Y-122204000D01*
X87512220Y-111844000D02*
X87512220Y-122156000D01*
X87552220Y-111893000D02*
X87552220Y-122107000D01*
X87592220Y-111942000D02*
X87592220Y-122058000D01*
X87632220Y-111992000D02*
X87632220Y-122008000D01*
X87672220Y-112043000D02*
X87672220Y-121957000D01*
X87712220Y-112094000D02*
X87712220Y-121906000D01*
X87752220Y-112147000D02*
X87752220Y-121853000D01*
X87792220Y-112200000D02*
X87792220Y-121800000D01*
X87832220Y-112255000D02*
X87832220Y-121745000D01*
X87872220Y-112310000D02*
X87872220Y-121690000D01*
X87912220Y-112366000D02*
X87912220Y-121634000D01*
X87952220Y-112424000D02*
X87952220Y-121576000D01*
X87992220Y-112482000D02*
X87992220Y-121518000D01*
X88032220Y-112541000D02*
X88032220Y-121459000D01*
X88072220Y-112602000D02*
X88072220Y-121398000D01*
X88112220Y-112664000D02*
X88112220Y-121336000D01*
X88152220Y-112727000D02*
X88152220Y-121273000D01*
X88192220Y-112792000D02*
X88192220Y-121208000D01*
X88232220Y-112858000D02*
X88232220Y-121142000D01*
X88272220Y-112925000D02*
X88272220Y-121075000D01*
X88312220Y-112994000D02*
X88312220Y-121006000D01*
X88352220Y-113064000D02*
X88352220Y-120936000D01*
X88392220Y-113136000D02*
X88392220Y-120864000D01*
X88432220Y-113210000D02*
X88432220Y-120790000D01*
X88472220Y-113286000D02*
X88472220Y-120714000D01*
X88512220Y-113363000D02*
X88512220Y-120637000D01*
X88552220Y-113443000D02*
X88552220Y-120557000D01*
X88592220Y-113525000D02*
X88592220Y-120475000D01*
X88632220Y-113610000D02*
X88632220Y-120390000D01*
X88672220Y-113697000D02*
X88672220Y-120303000D01*
X88712220Y-113787000D02*
X88712220Y-120213000D01*
X88752220Y-113880000D02*
X88752220Y-120120000D01*
X88792220Y-113977000D02*
X88792220Y-120023000D01*
X88832220Y-114077000D02*
X88832220Y-119923000D01*
X88872220Y-114181000D02*
X88872220Y-119819000D01*
X88912220Y-114290000D02*
X88912220Y-119710000D01*
X88952220Y-114403000D02*
X88952220Y-119597000D01*
X88992220Y-114523000D02*
X88992220Y-119477000D01*
X89032220Y-114649000D02*
X89032220Y-119351000D01*
X89072220Y-114783000D02*
X89072220Y-119217000D01*
X89112220Y-114926000D02*
X89112220Y-119074000D01*
X89152220Y-115080000D02*
X89152220Y-118920000D01*
X89192220Y-115249000D02*
X89192220Y-118751000D01*
X89232220Y-115436000D02*
X89232220Y-118564000D01*
X89272220Y-115649000D02*
X89272220Y-118351000D01*
X89312220Y-115903000D02*
X89312220Y-118097000D01*
X89352220Y-116235000D02*
X89352220Y-117765000D01*
X89392220Y-117000000D02*
G75*
G02*
X73152220Y-117000000I-8120000J0D01*
G01*
X73152220Y-117000000D02*
G75*
G02*
X89392220Y-117000000I8120000J0D01*
G01*
%TO.C,R8*%
X87409284Y-130090000D02*
X85955156Y-130090000D01*
X87409284Y-131910000D02*
X85955156Y-131910000D01*
%TO.C,C3*%
X90512780Y-125885000D02*
X92312780Y-125885000D01*
X91412780Y-124985000D02*
X91412780Y-126785000D01*
X100272220Y-121920000D02*
X100272220Y-140080000D01*
X100312220Y-121920000D02*
X100312220Y-140080000D01*
X100352220Y-121920000D02*
X100352220Y-140080000D01*
X100392220Y-121921000D02*
X100392220Y-140079000D01*
X100432220Y-121921000D02*
X100432220Y-140079000D01*
X100472220Y-121922000D02*
X100472220Y-140078000D01*
X100512220Y-121923000D02*
X100512220Y-140077000D01*
X100552220Y-121924000D02*
X100552220Y-140076000D01*
X100592220Y-121926000D02*
X100592220Y-140074000D01*
X100632220Y-121927000D02*
X100632220Y-140073000D01*
X100672220Y-121929000D02*
X100672220Y-140071000D01*
X100712220Y-121931000D02*
X100712220Y-140069000D01*
X100752220Y-121933000D02*
X100752220Y-140067000D01*
X100792220Y-121935000D02*
X100792220Y-140065000D01*
X100832220Y-121937000D02*
X100832220Y-140063000D01*
X100872220Y-121940000D02*
X100872220Y-140060000D01*
X100912220Y-121942000D02*
X100912220Y-140058000D01*
X100952220Y-121945000D02*
X100952220Y-140055000D01*
X100992220Y-121948000D02*
X100992220Y-140052000D01*
X101032220Y-121952000D02*
X101032220Y-140048000D01*
X101072220Y-121955000D02*
X101072220Y-140045000D01*
X101112220Y-121959000D02*
X101112220Y-140041000D01*
X101152220Y-121963000D02*
X101152220Y-140037000D01*
X101192220Y-121967000D02*
X101192220Y-140033000D01*
X101232220Y-121971000D02*
X101232220Y-140029000D01*
X101272220Y-121975000D02*
X101272220Y-140025000D01*
X101312220Y-121979000D02*
X101312220Y-140021000D01*
X101352220Y-121984000D02*
X101352220Y-140016000D01*
X101392220Y-121989000D02*
X101392220Y-140011000D01*
X101432220Y-121994000D02*
X101432220Y-140006000D01*
X101472220Y-121999000D02*
X101472220Y-140001000D01*
X101512220Y-122005000D02*
X101512220Y-139995000D01*
X101552220Y-122010000D02*
X101552220Y-139990000D01*
X101592220Y-122016000D02*
X101592220Y-139984000D01*
X101632220Y-122022000D02*
X101632220Y-139978000D01*
X101672220Y-122028000D02*
X101672220Y-139972000D01*
X101712220Y-122034000D02*
X101712220Y-139966000D01*
X101752220Y-122041000D02*
X101752220Y-139959000D01*
X101792220Y-122048000D02*
X101792220Y-139952000D01*
X101832220Y-122054000D02*
X101832220Y-139946000D01*
X101872220Y-122061000D02*
X101872220Y-139939000D01*
X101912220Y-122069000D02*
X101912220Y-139931000D01*
X101952220Y-122076000D02*
X101952220Y-139924000D01*
X101992220Y-122084000D02*
X101992220Y-139916000D01*
X102032220Y-122091000D02*
X102032220Y-139909000D01*
X102072220Y-122099000D02*
X102072220Y-139901000D01*
X102112220Y-122108000D02*
X102112220Y-139892000D01*
X102152220Y-122116000D02*
X102152220Y-139884000D01*
X102192220Y-122124000D02*
X102192220Y-139876000D01*
X102232220Y-122133000D02*
X102232220Y-139867000D01*
X102272220Y-122142000D02*
X102272220Y-139858000D01*
X102312220Y-122151000D02*
X102312220Y-139849000D01*
X102352220Y-122160000D02*
X102352220Y-139840000D01*
X102392220Y-122170000D02*
X102392220Y-139830000D01*
X102432220Y-122179000D02*
X102432220Y-139821000D01*
X102472220Y-122189000D02*
X102472220Y-139811000D01*
X102512220Y-122199000D02*
X102512220Y-139801000D01*
X102552220Y-122210000D02*
X102552220Y-139790000D01*
X102592220Y-122220000D02*
X102592220Y-129560000D01*
X102592220Y-132440000D02*
X102592220Y-139780000D01*
X102632220Y-122231000D02*
X102632220Y-129560000D01*
X102632220Y-132440000D02*
X102632220Y-139769000D01*
X102672220Y-122241000D02*
X102672220Y-129560000D01*
X102672220Y-132440000D02*
X102672220Y-139759000D01*
X102712220Y-122252000D02*
X102712220Y-129560000D01*
X102712220Y-132440000D02*
X102712220Y-139748000D01*
X102752220Y-122264000D02*
X102752220Y-129560000D01*
X102752220Y-132440000D02*
X102752220Y-139736000D01*
X102792220Y-122275000D02*
X102792220Y-129560000D01*
X102792220Y-132440000D02*
X102792220Y-139725000D01*
X102832220Y-122287000D02*
X102832220Y-129560000D01*
X102832220Y-132440000D02*
X102832220Y-139713000D01*
X102872220Y-122298000D02*
X102872220Y-129560000D01*
X102872220Y-132440000D02*
X102872220Y-139702000D01*
X102912220Y-122310000D02*
X102912220Y-129560000D01*
X102912220Y-132440000D02*
X102912220Y-139690000D01*
X102952220Y-122323000D02*
X102952220Y-129560000D01*
X102952220Y-132440000D02*
X102952220Y-139677000D01*
X102992220Y-122335000D02*
X102992220Y-129560000D01*
X102992220Y-132440000D02*
X102992220Y-139665000D01*
X103032220Y-122348000D02*
X103032220Y-129560000D01*
X103032220Y-132440000D02*
X103032220Y-139652000D01*
X103072220Y-122360000D02*
X103072220Y-129560000D01*
X103072220Y-132440000D02*
X103072220Y-139640000D01*
X103112220Y-122373000D02*
X103112220Y-129560000D01*
X103112220Y-132440000D02*
X103112220Y-139627000D01*
X103152220Y-122387000D02*
X103152220Y-129560000D01*
X103152220Y-132440000D02*
X103152220Y-139613000D01*
X103192220Y-122400000D02*
X103192220Y-129560000D01*
X103192220Y-132440000D02*
X103192220Y-139600000D01*
X103232220Y-122414000D02*
X103232220Y-129560000D01*
X103232220Y-132440000D02*
X103232220Y-139586000D01*
X103272220Y-122428000D02*
X103272220Y-129560000D01*
X103272220Y-132440000D02*
X103272220Y-139572000D01*
X103312220Y-122442000D02*
X103312220Y-129560000D01*
X103312220Y-132440000D02*
X103312220Y-139558000D01*
X103352220Y-122456000D02*
X103352220Y-129560000D01*
X103352220Y-132440000D02*
X103352220Y-139544000D01*
X103392220Y-122470000D02*
X103392220Y-129560000D01*
X103392220Y-132440000D02*
X103392220Y-139530000D01*
X103432220Y-122485000D02*
X103432220Y-129560000D01*
X103432220Y-132440000D02*
X103432220Y-139515000D01*
X103472220Y-122500000D02*
X103472220Y-129560000D01*
X103472220Y-132440000D02*
X103472220Y-139500000D01*
X103512220Y-122515000D02*
X103512220Y-129560000D01*
X103512220Y-132440000D02*
X103512220Y-139485000D01*
X103552220Y-122530000D02*
X103552220Y-129560000D01*
X103552220Y-132440000D02*
X103552220Y-139470000D01*
X103592220Y-122546000D02*
X103592220Y-129560000D01*
X103592220Y-132440000D02*
X103592220Y-139454000D01*
X103632220Y-122562000D02*
X103632220Y-129560000D01*
X103632220Y-132440000D02*
X103632220Y-139438000D01*
X103672220Y-122577000D02*
X103672220Y-129560000D01*
X103672220Y-132440000D02*
X103672220Y-139423000D01*
X103712220Y-122594000D02*
X103712220Y-129560000D01*
X103712220Y-132440000D02*
X103712220Y-139406000D01*
X103752220Y-122610000D02*
X103752220Y-129560000D01*
X103752220Y-132440000D02*
X103752220Y-139390000D01*
X103792220Y-122627000D02*
X103792220Y-129560000D01*
X103792220Y-132440000D02*
X103792220Y-139373000D01*
X103832220Y-122644000D02*
X103832220Y-129560000D01*
X103832220Y-132440000D02*
X103832220Y-139356000D01*
X103872220Y-122661000D02*
X103872220Y-129560000D01*
X103872220Y-132440000D02*
X103872220Y-139339000D01*
X103912220Y-122678000D02*
X103912220Y-129560000D01*
X103912220Y-132440000D02*
X103912220Y-139322000D01*
X103952220Y-122695000D02*
X103952220Y-129560000D01*
X103952220Y-132440000D02*
X103952220Y-139305000D01*
X103992220Y-122713000D02*
X103992220Y-129560000D01*
X103992220Y-132440000D02*
X103992220Y-139287000D01*
X104032220Y-122731000D02*
X104032220Y-129560000D01*
X104032220Y-132440000D02*
X104032220Y-139269000D01*
X104072220Y-122749000D02*
X104072220Y-129560000D01*
X104072220Y-132440000D02*
X104072220Y-139251000D01*
X104112220Y-122768000D02*
X104112220Y-129560000D01*
X104112220Y-132440000D02*
X104112220Y-139232000D01*
X104152220Y-122787000D02*
X104152220Y-129560000D01*
X104152220Y-132440000D02*
X104152220Y-139213000D01*
X104192220Y-122805000D02*
X104192220Y-129560000D01*
X104192220Y-132440000D02*
X104192220Y-139195000D01*
X104232220Y-122825000D02*
X104232220Y-129560000D01*
X104232220Y-132440000D02*
X104232220Y-139175000D01*
X104272220Y-122844000D02*
X104272220Y-129560000D01*
X104272220Y-132440000D02*
X104272220Y-139156000D01*
X104312220Y-122864000D02*
X104312220Y-129560000D01*
X104312220Y-132440000D02*
X104312220Y-139136000D01*
X104352220Y-122884000D02*
X104352220Y-129560000D01*
X104352220Y-132440000D02*
X104352220Y-139116000D01*
X104392220Y-122904000D02*
X104392220Y-129560000D01*
X104392220Y-132440000D02*
X104392220Y-139096000D01*
X104432220Y-122924000D02*
X104432220Y-129560000D01*
X104432220Y-132440000D02*
X104432220Y-139076000D01*
X104472220Y-122945000D02*
X104472220Y-129560000D01*
X104472220Y-132440000D02*
X104472220Y-139055000D01*
X104512220Y-122966000D02*
X104512220Y-129560000D01*
X104512220Y-132440000D02*
X104512220Y-139034000D01*
X104552220Y-122987000D02*
X104552220Y-129560000D01*
X104552220Y-132440000D02*
X104552220Y-139013000D01*
X104592220Y-123008000D02*
X104592220Y-129560000D01*
X104592220Y-132440000D02*
X104592220Y-138992000D01*
X104632220Y-123030000D02*
X104632220Y-129560000D01*
X104632220Y-132440000D02*
X104632220Y-138970000D01*
X104672220Y-123052000D02*
X104672220Y-129560000D01*
X104672220Y-132440000D02*
X104672220Y-138948000D01*
X104712220Y-123074000D02*
X104712220Y-129560000D01*
X104712220Y-132440000D02*
X104712220Y-138926000D01*
X104752220Y-123096000D02*
X104752220Y-129560000D01*
X104752220Y-132440000D02*
X104752220Y-138904000D01*
X104792220Y-123119000D02*
X104792220Y-129560000D01*
X104792220Y-132440000D02*
X104792220Y-138881000D01*
X104832220Y-123142000D02*
X104832220Y-129560000D01*
X104832220Y-132440000D02*
X104832220Y-138858000D01*
X104872220Y-123165000D02*
X104872220Y-129560000D01*
X104872220Y-132440000D02*
X104872220Y-138835000D01*
X104912220Y-123189000D02*
X104912220Y-129560000D01*
X104912220Y-132440000D02*
X104912220Y-138811000D01*
X104952220Y-123212000D02*
X104952220Y-129560000D01*
X104952220Y-132440000D02*
X104952220Y-138788000D01*
X104992220Y-123236000D02*
X104992220Y-129560000D01*
X104992220Y-132440000D02*
X104992220Y-138764000D01*
X105032220Y-123261000D02*
X105032220Y-129560000D01*
X105032220Y-132440000D02*
X105032220Y-138739000D01*
X105072220Y-123285000D02*
X105072220Y-129560000D01*
X105072220Y-132440000D02*
X105072220Y-138715000D01*
X105112220Y-123310000D02*
X105112220Y-129560000D01*
X105112220Y-132440000D02*
X105112220Y-138690000D01*
X105152220Y-123335000D02*
X105152220Y-129560000D01*
X105152220Y-132440000D02*
X105152220Y-138665000D01*
X105192220Y-123361000D02*
X105192220Y-129560000D01*
X105192220Y-132440000D02*
X105192220Y-138639000D01*
X105232220Y-123387000D02*
X105232220Y-129560000D01*
X105232220Y-132440000D02*
X105232220Y-138613000D01*
X105272220Y-123413000D02*
X105272220Y-129560000D01*
X105272220Y-132440000D02*
X105272220Y-138587000D01*
X105312220Y-123439000D02*
X105312220Y-129560000D01*
X105312220Y-132440000D02*
X105312220Y-138561000D01*
X105352220Y-123466000D02*
X105352220Y-129560000D01*
X105352220Y-132440000D02*
X105352220Y-138534000D01*
X105392220Y-123493000D02*
X105392220Y-129560000D01*
X105392220Y-132440000D02*
X105392220Y-138507000D01*
X105432220Y-123520000D02*
X105432220Y-129560000D01*
X105432220Y-132440000D02*
X105432220Y-138480000D01*
X105472220Y-123548000D02*
X105472220Y-138452000D01*
X105512220Y-123576000D02*
X105512220Y-138424000D01*
X105552220Y-123604000D02*
X105552220Y-138396000D01*
X105592220Y-123632000D02*
X105592220Y-138368000D01*
X105632220Y-123661000D02*
X105632220Y-138339000D01*
X105672220Y-123691000D02*
X105672220Y-138309000D01*
X105712220Y-123720000D02*
X105712220Y-138280000D01*
X105752220Y-123750000D02*
X105752220Y-138250000D01*
X105792220Y-123780000D02*
X105792220Y-138220000D01*
X105832220Y-123811000D02*
X105832220Y-138189000D01*
X105872220Y-123842000D02*
X105872220Y-138158000D01*
X105912220Y-123873000D02*
X105912220Y-138127000D01*
X105952220Y-123905000D02*
X105952220Y-138095000D01*
X105992220Y-123937000D02*
X105992220Y-138063000D01*
X106032220Y-123969000D02*
X106032220Y-138031000D01*
X106072220Y-124002000D02*
X106072220Y-137998000D01*
X106112220Y-124035000D02*
X106112220Y-137965000D01*
X106152220Y-124069000D02*
X106152220Y-137931000D01*
X106192220Y-124103000D02*
X106192220Y-137897000D01*
X106232220Y-124137000D02*
X106232220Y-137863000D01*
X106272220Y-124172000D02*
X106272220Y-137828000D01*
X106312220Y-124207000D02*
X106312220Y-137793000D01*
X106352220Y-124242000D02*
X106352220Y-137758000D01*
X106392220Y-124278000D02*
X106392220Y-137722000D01*
X106432220Y-124315000D02*
X106432220Y-137685000D01*
X106472220Y-124352000D02*
X106472220Y-137648000D01*
X106512220Y-124389000D02*
X106512220Y-137611000D01*
X106552220Y-124427000D02*
X106552220Y-137573000D01*
X106592220Y-124465000D02*
X106592220Y-137535000D01*
X106632220Y-124504000D02*
X106632220Y-137496000D01*
X106672220Y-124543000D02*
X106672220Y-137457000D01*
X106712220Y-124582000D02*
X106712220Y-137418000D01*
X106752220Y-124623000D02*
X106752220Y-137377000D01*
X106792220Y-124663000D02*
X106792220Y-137337000D01*
X106832220Y-124704000D02*
X106832220Y-137296000D01*
X106872220Y-124746000D02*
X106872220Y-137254000D01*
X106912220Y-124788000D02*
X106912220Y-137212000D01*
X106952220Y-124831000D02*
X106952220Y-137169000D01*
X106992220Y-124874000D02*
X106992220Y-137126000D01*
X107032220Y-124918000D02*
X107032220Y-137082000D01*
X107072220Y-124963000D02*
X107072220Y-137037000D01*
X107112220Y-125008000D02*
X107112220Y-136992000D01*
X107152220Y-125053000D02*
X107152220Y-136947000D01*
X107192220Y-125100000D02*
X107192220Y-136900000D01*
X107232220Y-125147000D02*
X107232220Y-136853000D01*
X107272220Y-125194000D02*
X107272220Y-136806000D01*
X107312220Y-125242000D02*
X107312220Y-136758000D01*
X107352220Y-125291000D02*
X107352220Y-136709000D01*
X107392220Y-125341000D02*
X107392220Y-136659000D01*
X107432220Y-125391000D02*
X107432220Y-136609000D01*
X107472220Y-125442000D02*
X107472220Y-136558000D01*
X107512220Y-125494000D02*
X107512220Y-136506000D01*
X107552220Y-125547000D02*
X107552220Y-136453000D01*
X107592220Y-125600000D02*
X107592220Y-136400000D01*
X107632220Y-125654000D02*
X107632220Y-136346000D01*
X107672220Y-125709000D02*
X107672220Y-136291000D01*
X107712220Y-125765000D02*
X107712220Y-136235000D01*
X107752220Y-125822000D02*
X107752220Y-136178000D01*
X107792220Y-125880000D02*
X107792220Y-136120000D01*
X107832220Y-125939000D02*
X107832220Y-136061000D01*
X107872220Y-125999000D02*
X107872220Y-136001000D01*
X107912220Y-126060000D02*
X107912220Y-135940000D01*
X107952220Y-126121000D02*
X107952220Y-135879000D01*
X107992220Y-126184000D02*
X107992220Y-135816000D01*
X108032220Y-126249000D02*
X108032220Y-135751000D01*
X108072220Y-126314000D02*
X108072220Y-135686000D01*
X108112220Y-126381000D02*
X108112220Y-135619000D01*
X108152220Y-126449000D02*
X108152220Y-135551000D01*
X108192220Y-126518000D02*
X108192220Y-135482000D01*
X108232220Y-126589000D02*
X108232220Y-135411000D01*
X108272220Y-126661000D02*
X108272220Y-135339000D01*
X108312220Y-126735000D02*
X108312220Y-135265000D01*
X108352220Y-126811000D02*
X108352220Y-135189000D01*
X108392220Y-126888000D02*
X108392220Y-135112000D01*
X108432220Y-126967000D02*
X108432220Y-135033000D01*
X108472220Y-127048000D02*
X108472220Y-134952000D01*
X108512220Y-127131000D02*
X108512220Y-134869000D01*
X108552220Y-127217000D02*
X108552220Y-134783000D01*
X108592220Y-127305000D02*
X108592220Y-134695000D01*
X108632220Y-127395000D02*
X108632220Y-134605000D01*
X108672220Y-127488000D02*
X108672220Y-134512000D01*
X108712220Y-127584000D02*
X108712220Y-134416000D01*
X108752220Y-127684000D02*
X108752220Y-134316000D01*
X108792220Y-127787000D02*
X108792220Y-134213000D01*
X108832220Y-127893000D02*
X108832220Y-134107000D01*
X108872220Y-128004000D02*
X108872220Y-133996000D01*
X108912220Y-128120000D02*
X108912220Y-133880000D01*
X108952220Y-128241000D02*
X108952220Y-133759000D01*
X108992220Y-128369000D02*
X108992220Y-133631000D01*
X109032220Y-128503000D02*
X109032220Y-133497000D01*
X109072220Y-128645000D02*
X109072220Y-133355000D01*
X109112220Y-128798000D02*
X109112220Y-133202000D01*
X109152220Y-128962000D02*
X109152220Y-133038000D01*
X109192220Y-129141000D02*
X109192220Y-132859000D01*
X109232220Y-129339000D02*
X109232220Y-132661000D01*
X109272220Y-129565000D02*
X109272220Y-132435000D01*
X109312220Y-129835000D02*
X109312220Y-132165000D01*
X109352220Y-130187000D02*
X109352220Y-131813000D01*
X109392220Y-131040000D02*
X109392220Y-130960000D01*
X109392220Y-131000000D02*
G75*
G02*
X91152220Y-131000000I-9120000J0D01*
G01*
X91152220Y-131000000D02*
G75*
G02*
X109392220Y-131000000I9120000J0D01*
G01*
%TO.C,HS2*%
X160805194Y-95680278D02*
X162993062Y-98805804D01*
X160805194Y-128919722D02*
X162993062Y-125794196D01*
X160835197Y-99826369D02*
X163930449Y-102072892D01*
X160835197Y-124773631D02*
X163930449Y-122527108D01*
X161245194Y-99037778D02*
X162533124Y-99438880D01*
X161245194Y-125562222D02*
X162533124Y-125161120D01*
X161300000Y-104360000D02*
X166215009Y-104360000D01*
X161300000Y-120240000D02*
X166215009Y-120240000D01*
X161652953Y-95048678D02*
X163261514Y-97079505D01*
X161652953Y-129551322D02*
X163261514Y-127520495D01*
X163609985Y-103060000D02*
X161299995Y-103060000D01*
X163609985Y-121540000D02*
X161299995Y-121540000D01*
X163767756Y-95258609D02*
X164024675Y-96726715D01*
X163767756Y-129341391D02*
X164024675Y-127873285D01*
X165400000Y-96900000D02*
X164434964Y-95030786D01*
X165400000Y-127700000D02*
X164434964Y-129569214D01*
X166215009Y-104360000D02*
X166215009Y-112300000D01*
X166215009Y-120240000D02*
X166215009Y-112300000D01*
X167784991Y-104360000D02*
X167784991Y-112300000D01*
X167784991Y-120240000D02*
X167784991Y-112300000D01*
X168600000Y-96900000D02*
X169565036Y-95030786D01*
X168600000Y-127700000D02*
X169565036Y-129569214D01*
X170232244Y-95258609D02*
X169975325Y-96726715D01*
X170232244Y-129341391D02*
X169975325Y-127873285D01*
X170390015Y-103060000D02*
X172700005Y-103060000D01*
X170390015Y-121540000D02*
X172700005Y-121540000D01*
X172347047Y-95048678D02*
X170738486Y-97079505D01*
X172347047Y-129551322D02*
X170738486Y-127520495D01*
X172700000Y-104360000D02*
X167784991Y-104360000D01*
X172700000Y-120240000D02*
X167784991Y-120240000D01*
X172754806Y-99037778D02*
X171466876Y-99438880D01*
X172754806Y-125562222D02*
X171466876Y-125161120D01*
X173164803Y-99826369D02*
X170069551Y-102072892D01*
X173164803Y-124773631D02*
X170069551Y-122527108D01*
X173194806Y-95680278D02*
X171006938Y-98805804D01*
X173194806Y-128919722D02*
X171006938Y-125794196D01*
X160805194Y-95680278D02*
G75*
G02*
X161652961Y-95048672I427106J311478D01*
G01*
X160835197Y-99826369D02*
G75*
G02*
X161245193Y-99037780I263903J363669D01*
G01*
X161245194Y-125562222D02*
G75*
G02*
X160835197Y-124773631I-146059J424939D01*
G01*
X161299995Y-121540000D02*
G75*
G02*
X161300000Y-120240000I15J650000D01*
G01*
X161300000Y-104360000D02*
G75*
G02*
X161299995Y-103060000I0J650000D01*
G01*
X161652953Y-129551322D02*
G75*
G02*
X160805194Y-128919722I-420681J320093D01*
G01*
X162533124Y-125161120D02*
G75*
G02*
X162993062Y-125794196I120922J-395762D01*
G01*
X162993062Y-98805804D02*
G75*
G02*
X162533117Y-99438903I-339062J-237296D01*
G01*
X163261514Y-127520495D02*
G75*
G02*
X164024675Y-127873285I334700J-277808D01*
G01*
X163609985Y-121540000D02*
G75*
G02*
X163930449Y-122527108I17J-545568D01*
G01*
X163767756Y-95258609D02*
G75*
G02*
X164434876Y-95030832I351444J61509D01*
G01*
X163930449Y-102072892D02*
G75*
G02*
X163609985Y-103059943I-320449J-441508D01*
G01*
X164024675Y-96726715D02*
G75*
G02*
X163261493Y-97079522I-428475J-74985D01*
G01*
X164434964Y-129569214D02*
G75*
G02*
X163767756Y-129341391I-315712J166311D01*
G01*
X169565036Y-95030786D02*
G75*
G02*
X170232250Y-95258610I315714J-166314D01*
G01*
X169975325Y-127873285D02*
G75*
G02*
X170738486Y-127520495I428460J74984D01*
G01*
X170069551Y-122527108D02*
G75*
G02*
X170390015Y-121539999I320452J441539D01*
G01*
X170232244Y-129341391D02*
G75*
G02*
X169565036Y-129569214I-351496J-61512D01*
G01*
X170390015Y-103060000D02*
G75*
G02*
X170069550Y-102072890I-45J545560D01*
G01*
X170738486Y-97079505D02*
G75*
G02*
X169975351Y-96726720I-334686J277805D01*
G01*
X171006938Y-125794196D02*
G75*
G02*
X171466876Y-125161120I339016J237314D01*
G01*
X171466876Y-99438880D02*
G75*
G02*
X171006937Y-98805803I-120926J395760D01*
G01*
X172347047Y-95048678D02*
G75*
G02*
X173194798Y-95680272I420653J-320122D01*
G01*
X172700000Y-120240000D02*
G75*
G02*
X172700005Y-121540000I-10J-650000D01*
G01*
X172700005Y-103060000D02*
G75*
G02*
X172700000Y-104360000I-5J-650000D01*
G01*
X172754806Y-99037778D02*
G75*
G02*
X173164804Y-99826370I146054J-424942D01*
G01*
X173164803Y-124773631D02*
G75*
G02*
X172754806Y-125562222I-263938J-363652D01*
G01*
X173194806Y-128919722D02*
G75*
G02*
X172347047Y-129551322I-427078J-311507D01*
G01*
%TO.C,J5*%
X196180000Y-60280000D02*
X208700000Y-60280000D01*
X196180000Y-70320000D02*
X196180000Y-60280000D01*
X209300000Y-60280000D02*
X211660000Y-60280000D01*
X211660000Y-60280000D02*
X211660000Y-70320000D01*
X211660000Y-60900000D02*
X196180000Y-60900000D01*
X211660000Y-62400000D02*
X196180000Y-62400000D01*
X211660000Y-67300000D02*
X196180000Y-67300000D01*
X211660000Y-70320000D02*
X196180000Y-70320000D01*
X209000000Y-60280000D02*
X208560000Y-59670000D01*
X209440000Y-59670000D01*
X209000000Y-60280000D01*
G36*
X209000000Y-60280000D02*
G01*
X208560000Y-59670000D01*
X209440000Y-59670000D01*
X209000000Y-60280000D01*
G37*
%TO.C,Q2*%
X161640000Y-107350000D02*
X166260000Y-107350000D01*
X161640000Y-117570000D02*
X161640000Y-107350000D01*
X164880000Y-107350000D02*
X164880000Y-117570000D01*
X166260000Y-107350000D02*
X166260000Y-117570000D01*
X166260000Y-110610000D02*
X164880000Y-110610000D01*
X166260000Y-114310000D02*
X164880000Y-114310000D01*
X166260000Y-117570000D02*
X161640000Y-117570000D01*
%TO.C,C8*%
X71265000Y-67298752D02*
X71265000Y-66776248D01*
X72735000Y-67298752D02*
X72735000Y-66776248D01*
%TO.C,C7*%
X71265000Y-80298752D02*
X71265000Y-79776248D01*
X72735000Y-80298752D02*
X72735000Y-79776248D01*
%TO.C,C1*%
X141265000Y-73723752D02*
X141265000Y-73201248D01*
X142735000Y-73723752D02*
X142735000Y-73201248D01*
%TO.C,C9*%
X138090560Y-121085000D02*
X139890560Y-121085000D01*
X138990560Y-120185000D02*
X138990560Y-121985000D01*
X147850000Y-117120000D02*
X147850000Y-135280000D01*
X147890000Y-117120000D02*
X147890000Y-135280000D01*
X147930000Y-117120000D02*
X147930000Y-135280000D01*
X147970000Y-117121000D02*
X147970000Y-135279000D01*
X148010000Y-117121000D02*
X148010000Y-135279000D01*
X148050000Y-117122000D02*
X148050000Y-135278000D01*
X148090000Y-117123000D02*
X148090000Y-135277000D01*
X148130000Y-117124000D02*
X148130000Y-135276000D01*
X148170000Y-117126000D02*
X148170000Y-135274000D01*
X148210000Y-117127000D02*
X148210000Y-135273000D01*
X148250000Y-117129000D02*
X148250000Y-135271000D01*
X148290000Y-117131000D02*
X148290000Y-135269000D01*
X148330000Y-117133000D02*
X148330000Y-135267000D01*
X148370000Y-117135000D02*
X148370000Y-135265000D01*
X148410000Y-117137000D02*
X148410000Y-135263000D01*
X148450000Y-117140000D02*
X148450000Y-135260000D01*
X148490000Y-117142000D02*
X148490000Y-135258000D01*
X148530000Y-117145000D02*
X148530000Y-135255000D01*
X148570000Y-117148000D02*
X148570000Y-135252000D01*
X148610000Y-117152000D02*
X148610000Y-135248000D01*
X148650000Y-117155000D02*
X148650000Y-135245000D01*
X148690000Y-117159000D02*
X148690000Y-135241000D01*
X148730000Y-117163000D02*
X148730000Y-135237000D01*
X148770000Y-117167000D02*
X148770000Y-135233000D01*
X148810000Y-117171000D02*
X148810000Y-135229000D01*
X148850000Y-117175000D02*
X148850000Y-135225000D01*
X148890000Y-117179000D02*
X148890000Y-135221000D01*
X148930000Y-117184000D02*
X148930000Y-135216000D01*
X148970000Y-117189000D02*
X148970000Y-135211000D01*
X149010000Y-117194000D02*
X149010000Y-135206000D01*
X149050000Y-117199000D02*
X149050000Y-135201000D01*
X149090000Y-117205000D02*
X149090000Y-135195000D01*
X149130000Y-117210000D02*
X149130000Y-135190000D01*
X149170000Y-117216000D02*
X149170000Y-135184000D01*
X149210000Y-117222000D02*
X149210000Y-135178000D01*
X149250000Y-117228000D02*
X149250000Y-135172000D01*
X149290000Y-117234000D02*
X149290000Y-135166000D01*
X149330000Y-117241000D02*
X149330000Y-135159000D01*
X149370000Y-117248000D02*
X149370000Y-135152000D01*
X149410000Y-117254000D02*
X149410000Y-135146000D01*
X149450000Y-117261000D02*
X149450000Y-135139000D01*
X149490000Y-117269000D02*
X149490000Y-135131000D01*
X149530000Y-117276000D02*
X149530000Y-135124000D01*
X149570000Y-117284000D02*
X149570000Y-135116000D01*
X149610000Y-117291000D02*
X149610000Y-135109000D01*
X149650000Y-117299000D02*
X149650000Y-135101000D01*
X149690000Y-117308000D02*
X149690000Y-135092000D01*
X149730000Y-117316000D02*
X149730000Y-135084000D01*
X149770000Y-117324000D02*
X149770000Y-135076000D01*
X149810000Y-117333000D02*
X149810000Y-135067000D01*
X149850000Y-117342000D02*
X149850000Y-135058000D01*
X149890000Y-117351000D02*
X149890000Y-135049000D01*
X149930000Y-117360000D02*
X149930000Y-135040000D01*
X149970000Y-117370000D02*
X149970000Y-135030000D01*
X150010000Y-117379000D02*
X150010000Y-135021000D01*
X150050000Y-117389000D02*
X150050000Y-135011000D01*
X150090000Y-117399000D02*
X150090000Y-135001000D01*
X150130000Y-117410000D02*
X150130000Y-134990000D01*
X150170000Y-117420000D02*
X150170000Y-124760000D01*
X150170000Y-127640000D02*
X150170000Y-134980000D01*
X150210000Y-117431000D02*
X150210000Y-124760000D01*
X150210000Y-127640000D02*
X150210000Y-134969000D01*
X150250000Y-117441000D02*
X150250000Y-124760000D01*
X150250000Y-127640000D02*
X150250000Y-134959000D01*
X150290000Y-117452000D02*
X150290000Y-124760000D01*
X150290000Y-127640000D02*
X150290000Y-134948000D01*
X150330000Y-117464000D02*
X150330000Y-124760000D01*
X150330000Y-127640000D02*
X150330000Y-134936000D01*
X150370000Y-117475000D02*
X150370000Y-124760000D01*
X150370000Y-127640000D02*
X150370000Y-134925000D01*
X150410000Y-117487000D02*
X150410000Y-124760000D01*
X150410000Y-127640000D02*
X150410000Y-134913000D01*
X150450000Y-117498000D02*
X150450000Y-124760000D01*
X150450000Y-127640000D02*
X150450000Y-134902000D01*
X150490000Y-117510000D02*
X150490000Y-124760000D01*
X150490000Y-127640000D02*
X150490000Y-134890000D01*
X150530000Y-117523000D02*
X150530000Y-124760000D01*
X150530000Y-127640000D02*
X150530000Y-134877000D01*
X150570000Y-117535000D02*
X150570000Y-124760000D01*
X150570000Y-127640000D02*
X150570000Y-134865000D01*
X150610000Y-117548000D02*
X150610000Y-124760000D01*
X150610000Y-127640000D02*
X150610000Y-134852000D01*
X150650000Y-117560000D02*
X150650000Y-124760000D01*
X150650000Y-127640000D02*
X150650000Y-134840000D01*
X150690000Y-117573000D02*
X150690000Y-124760000D01*
X150690000Y-127640000D02*
X150690000Y-134827000D01*
X150730000Y-117587000D02*
X150730000Y-124760000D01*
X150730000Y-127640000D02*
X150730000Y-134813000D01*
X150770000Y-117600000D02*
X150770000Y-124760000D01*
X150770000Y-127640000D02*
X150770000Y-134800000D01*
X150810000Y-117614000D02*
X150810000Y-124760000D01*
X150810000Y-127640000D02*
X150810000Y-134786000D01*
X150850000Y-117628000D02*
X150850000Y-124760000D01*
X150850000Y-127640000D02*
X150850000Y-134772000D01*
X150890000Y-117642000D02*
X150890000Y-124760000D01*
X150890000Y-127640000D02*
X150890000Y-134758000D01*
X150930000Y-117656000D02*
X150930000Y-124760000D01*
X150930000Y-127640000D02*
X150930000Y-134744000D01*
X150970000Y-117670000D02*
X150970000Y-124760000D01*
X150970000Y-127640000D02*
X150970000Y-134730000D01*
X151010000Y-117685000D02*
X151010000Y-124760000D01*
X151010000Y-127640000D02*
X151010000Y-134715000D01*
X151050000Y-117700000D02*
X151050000Y-124760000D01*
X151050000Y-127640000D02*
X151050000Y-134700000D01*
X151090000Y-117715000D02*
X151090000Y-124760000D01*
X151090000Y-127640000D02*
X151090000Y-134685000D01*
X151130000Y-117730000D02*
X151130000Y-124760000D01*
X151130000Y-127640000D02*
X151130000Y-134670000D01*
X151170000Y-117746000D02*
X151170000Y-124760000D01*
X151170000Y-127640000D02*
X151170000Y-134654000D01*
X151210000Y-117762000D02*
X151210000Y-124760000D01*
X151210000Y-127640000D02*
X151210000Y-134638000D01*
X151250000Y-117777000D02*
X151250000Y-124760000D01*
X151250000Y-127640000D02*
X151250000Y-134623000D01*
X151290000Y-117794000D02*
X151290000Y-124760000D01*
X151290000Y-127640000D02*
X151290000Y-134606000D01*
X151330000Y-117810000D02*
X151330000Y-124760000D01*
X151330000Y-127640000D02*
X151330000Y-134590000D01*
X151370000Y-117827000D02*
X151370000Y-124760000D01*
X151370000Y-127640000D02*
X151370000Y-134573000D01*
X151410000Y-117844000D02*
X151410000Y-124760000D01*
X151410000Y-127640000D02*
X151410000Y-134556000D01*
X151450000Y-117861000D02*
X151450000Y-124760000D01*
X151450000Y-127640000D02*
X151450000Y-134539000D01*
X151490000Y-117878000D02*
X151490000Y-124760000D01*
X151490000Y-127640000D02*
X151490000Y-134522000D01*
X151530000Y-117895000D02*
X151530000Y-124760000D01*
X151530000Y-127640000D02*
X151530000Y-134505000D01*
X151570000Y-117913000D02*
X151570000Y-124760000D01*
X151570000Y-127640000D02*
X151570000Y-134487000D01*
X151610000Y-117931000D02*
X151610000Y-124760000D01*
X151610000Y-127640000D02*
X151610000Y-134469000D01*
X151650000Y-117949000D02*
X151650000Y-124760000D01*
X151650000Y-127640000D02*
X151650000Y-134451000D01*
X151690000Y-117968000D02*
X151690000Y-124760000D01*
X151690000Y-127640000D02*
X151690000Y-134432000D01*
X151730000Y-117987000D02*
X151730000Y-124760000D01*
X151730000Y-127640000D02*
X151730000Y-134413000D01*
X151770000Y-118005000D02*
X151770000Y-124760000D01*
X151770000Y-127640000D02*
X151770000Y-134395000D01*
X151810000Y-118025000D02*
X151810000Y-124760000D01*
X151810000Y-127640000D02*
X151810000Y-134375000D01*
X151850000Y-118044000D02*
X151850000Y-124760000D01*
X151850000Y-127640000D02*
X151850000Y-134356000D01*
X151890000Y-118064000D02*
X151890000Y-124760000D01*
X151890000Y-127640000D02*
X151890000Y-134336000D01*
X151930000Y-118084000D02*
X151930000Y-124760000D01*
X151930000Y-127640000D02*
X151930000Y-134316000D01*
X151970000Y-118104000D02*
X151970000Y-124760000D01*
X151970000Y-127640000D02*
X151970000Y-134296000D01*
X152010000Y-118124000D02*
X152010000Y-124760000D01*
X152010000Y-127640000D02*
X152010000Y-134276000D01*
X152050000Y-118145000D02*
X152050000Y-124760000D01*
X152050000Y-127640000D02*
X152050000Y-134255000D01*
X152090000Y-118166000D02*
X152090000Y-124760000D01*
X152090000Y-127640000D02*
X152090000Y-134234000D01*
X152130000Y-118187000D02*
X152130000Y-124760000D01*
X152130000Y-127640000D02*
X152130000Y-134213000D01*
X152170000Y-118208000D02*
X152170000Y-124760000D01*
X152170000Y-127640000D02*
X152170000Y-134192000D01*
X152210000Y-118230000D02*
X152210000Y-124760000D01*
X152210000Y-127640000D02*
X152210000Y-134170000D01*
X152250000Y-118252000D02*
X152250000Y-124760000D01*
X152250000Y-127640000D02*
X152250000Y-134148000D01*
X152290000Y-118274000D02*
X152290000Y-124760000D01*
X152290000Y-127640000D02*
X152290000Y-134126000D01*
X152330000Y-118296000D02*
X152330000Y-124760000D01*
X152330000Y-127640000D02*
X152330000Y-134104000D01*
X152370000Y-118319000D02*
X152370000Y-124760000D01*
X152370000Y-127640000D02*
X152370000Y-134081000D01*
X152410000Y-118342000D02*
X152410000Y-124760000D01*
X152410000Y-127640000D02*
X152410000Y-134058000D01*
X152450000Y-118365000D02*
X152450000Y-124760000D01*
X152450000Y-127640000D02*
X152450000Y-134035000D01*
X152490000Y-118389000D02*
X152490000Y-124760000D01*
X152490000Y-127640000D02*
X152490000Y-134011000D01*
X152530000Y-118412000D02*
X152530000Y-124760000D01*
X152530000Y-127640000D02*
X152530000Y-133988000D01*
X152570000Y-118436000D02*
X152570000Y-124760000D01*
X152570000Y-127640000D02*
X152570000Y-133964000D01*
X152610000Y-118461000D02*
X152610000Y-124760000D01*
X152610000Y-127640000D02*
X152610000Y-133939000D01*
X152650000Y-118485000D02*
X152650000Y-124760000D01*
X152650000Y-127640000D02*
X152650000Y-133915000D01*
X152690000Y-118510000D02*
X152690000Y-124760000D01*
X152690000Y-127640000D02*
X152690000Y-133890000D01*
X152730000Y-118535000D02*
X152730000Y-124760000D01*
X152730000Y-127640000D02*
X152730000Y-133865000D01*
X152770000Y-118561000D02*
X152770000Y-124760000D01*
X152770000Y-127640000D02*
X152770000Y-133839000D01*
X152810000Y-118587000D02*
X152810000Y-124760000D01*
X152810000Y-127640000D02*
X152810000Y-133813000D01*
X152850000Y-118613000D02*
X152850000Y-124760000D01*
X152850000Y-127640000D02*
X152850000Y-133787000D01*
X152890000Y-118639000D02*
X152890000Y-124760000D01*
X152890000Y-127640000D02*
X152890000Y-133761000D01*
X152930000Y-118666000D02*
X152930000Y-124760000D01*
X152930000Y-127640000D02*
X152930000Y-133734000D01*
X152970000Y-118693000D02*
X152970000Y-124760000D01*
X152970000Y-127640000D02*
X152970000Y-133707000D01*
X153010000Y-118720000D02*
X153010000Y-124760000D01*
X153010000Y-127640000D02*
X153010000Y-133680000D01*
X153050000Y-118748000D02*
X153050000Y-133652000D01*
X153090000Y-118776000D02*
X153090000Y-133624000D01*
X153130000Y-118804000D02*
X153130000Y-133596000D01*
X153170000Y-118832000D02*
X153170000Y-133568000D01*
X153210000Y-118861000D02*
X153210000Y-133539000D01*
X153250000Y-118891000D02*
X153250000Y-133509000D01*
X153290000Y-118920000D02*
X153290000Y-133480000D01*
X153330000Y-118950000D02*
X153330000Y-133450000D01*
X153370000Y-118980000D02*
X153370000Y-133420000D01*
X153410000Y-119011000D02*
X153410000Y-133389000D01*
X153450000Y-119042000D02*
X153450000Y-133358000D01*
X153490000Y-119073000D02*
X153490000Y-133327000D01*
X153530000Y-119105000D02*
X153530000Y-133295000D01*
X153570000Y-119137000D02*
X153570000Y-133263000D01*
X153610000Y-119169000D02*
X153610000Y-133231000D01*
X153650000Y-119202000D02*
X153650000Y-133198000D01*
X153690000Y-119235000D02*
X153690000Y-133165000D01*
X153730000Y-119269000D02*
X153730000Y-133131000D01*
X153770000Y-119303000D02*
X153770000Y-133097000D01*
X153810000Y-119337000D02*
X153810000Y-133063000D01*
X153850000Y-119372000D02*
X153850000Y-133028000D01*
X153890000Y-119407000D02*
X153890000Y-132993000D01*
X153930000Y-119442000D02*
X153930000Y-132958000D01*
X153970000Y-119478000D02*
X153970000Y-132922000D01*
X154010000Y-119515000D02*
X154010000Y-132885000D01*
X154050000Y-119552000D02*
X154050000Y-132848000D01*
X154090000Y-119589000D02*
X154090000Y-132811000D01*
X154130000Y-119627000D02*
X154130000Y-132773000D01*
X154170000Y-119665000D02*
X154170000Y-132735000D01*
X154210000Y-119704000D02*
X154210000Y-132696000D01*
X154250000Y-119743000D02*
X154250000Y-132657000D01*
X154290000Y-119782000D02*
X154290000Y-132618000D01*
X154330000Y-119823000D02*
X154330000Y-132577000D01*
X154370000Y-119863000D02*
X154370000Y-132537000D01*
X154410000Y-119904000D02*
X154410000Y-132496000D01*
X154450000Y-119946000D02*
X154450000Y-132454000D01*
X154490000Y-119988000D02*
X154490000Y-132412000D01*
X154530000Y-120031000D02*
X154530000Y-132369000D01*
X154570000Y-120074000D02*
X154570000Y-132326000D01*
X154610000Y-120118000D02*
X154610000Y-132282000D01*
X154650000Y-120163000D02*
X154650000Y-132237000D01*
X154690000Y-120208000D02*
X154690000Y-132192000D01*
X154730000Y-120253000D02*
X154730000Y-132147000D01*
X154770000Y-120300000D02*
X154770000Y-132100000D01*
X154810000Y-120347000D02*
X154810000Y-132053000D01*
X154850000Y-120394000D02*
X154850000Y-132006000D01*
X154890000Y-120442000D02*
X154890000Y-131958000D01*
X154930000Y-120491000D02*
X154930000Y-131909000D01*
X154970000Y-120541000D02*
X154970000Y-131859000D01*
X155010000Y-120591000D02*
X155010000Y-131809000D01*
X155050000Y-120642000D02*
X155050000Y-131758000D01*
X155090000Y-120694000D02*
X155090000Y-131706000D01*
X155130000Y-120747000D02*
X155130000Y-131653000D01*
X155170000Y-120800000D02*
X155170000Y-131600000D01*
X155210000Y-120854000D02*
X155210000Y-131546000D01*
X155250000Y-120909000D02*
X155250000Y-131491000D01*
X155290000Y-120965000D02*
X155290000Y-131435000D01*
X155330000Y-121022000D02*
X155330000Y-131378000D01*
X155370000Y-121080000D02*
X155370000Y-131320000D01*
X155410000Y-121139000D02*
X155410000Y-131261000D01*
X155450000Y-121199000D02*
X155450000Y-131201000D01*
X155490000Y-121260000D02*
X155490000Y-131140000D01*
X155530000Y-121321000D02*
X155530000Y-131079000D01*
X155570000Y-121384000D02*
X155570000Y-131016000D01*
X155610000Y-121449000D02*
X155610000Y-130951000D01*
X155650000Y-121514000D02*
X155650000Y-130886000D01*
X155690000Y-121581000D02*
X155690000Y-130819000D01*
X155730000Y-121649000D02*
X155730000Y-130751000D01*
X155770000Y-121718000D02*
X155770000Y-130682000D01*
X155810000Y-121789000D02*
X155810000Y-130611000D01*
X155850000Y-121861000D02*
X155850000Y-130539000D01*
X155890000Y-121935000D02*
X155890000Y-130465000D01*
X155930000Y-122011000D02*
X155930000Y-130389000D01*
X155970000Y-122088000D02*
X155970000Y-130312000D01*
X156010000Y-122167000D02*
X156010000Y-130233000D01*
X156050000Y-122248000D02*
X156050000Y-130152000D01*
X156090000Y-122331000D02*
X156090000Y-130069000D01*
X156130000Y-122417000D02*
X156130000Y-129983000D01*
X156170000Y-122505000D02*
X156170000Y-129895000D01*
X156210000Y-122595000D02*
X156210000Y-129805000D01*
X156250000Y-122688000D02*
X156250000Y-129712000D01*
X156290000Y-122784000D02*
X156290000Y-129616000D01*
X156330000Y-122884000D02*
X156330000Y-129516000D01*
X156370000Y-122987000D02*
X156370000Y-129413000D01*
X156410000Y-123093000D02*
X156410000Y-129307000D01*
X156450000Y-123204000D02*
X156450000Y-129196000D01*
X156490000Y-123320000D02*
X156490000Y-129080000D01*
X156530000Y-123441000D02*
X156530000Y-128959000D01*
X156570000Y-123569000D02*
X156570000Y-128831000D01*
X156610000Y-123703000D02*
X156610000Y-128697000D01*
X156650000Y-123845000D02*
X156650000Y-128555000D01*
X156690000Y-123998000D02*
X156690000Y-128402000D01*
X156730000Y-124162000D02*
X156730000Y-128238000D01*
X156770000Y-124341000D02*
X156770000Y-128059000D01*
X156810000Y-124539000D02*
X156810000Y-127861000D01*
X156850000Y-124765000D02*
X156850000Y-127635000D01*
X156890000Y-125035000D02*
X156890000Y-127365000D01*
X156930000Y-125387000D02*
X156930000Y-127013000D01*
X156970000Y-126240000D02*
X156970000Y-126160000D01*
X156970000Y-126200000D02*
G75*
G02*
X138730000Y-126200000I-9120000J0D01*
G01*
X138730000Y-126200000D02*
G75*
G02*
X156970000Y-126200000I9120000J0D01*
G01*
%TO.C,C6*%
X73670000Y-85765000D02*
X73670000Y-84235000D01*
X73710000Y-86097000D02*
X73710000Y-83903000D01*
X73750000Y-86351000D02*
X73750000Y-83649000D01*
X73790000Y-86564000D02*
X73790000Y-83436000D01*
X73830000Y-86751000D02*
X73830000Y-83249000D01*
X73870000Y-86920000D02*
X73870000Y-83080000D01*
X73910000Y-87074000D02*
X73910000Y-82926000D01*
X73950000Y-87217000D02*
X73950000Y-82783000D01*
X73990000Y-87351000D02*
X73990000Y-82649000D01*
X74030000Y-87477000D02*
X74030000Y-82523000D01*
X74070000Y-87597000D02*
X74070000Y-82403000D01*
X74110000Y-87710000D02*
X74110000Y-82290000D01*
X74150000Y-87819000D02*
X74150000Y-82181000D01*
X74190000Y-87923000D02*
X74190000Y-82077000D01*
X74230000Y-88023000D02*
X74230000Y-81977000D01*
X74270000Y-88120000D02*
X74270000Y-81880000D01*
X74310000Y-88213000D02*
X74310000Y-81787000D01*
X74350000Y-88303000D02*
X74350000Y-81697000D01*
X74390000Y-88390000D02*
X74390000Y-81610000D01*
X74430000Y-88475000D02*
X74430000Y-81525000D01*
X74470000Y-88557000D02*
X74470000Y-81443000D01*
X74510000Y-88637000D02*
X74510000Y-81363000D01*
X74550000Y-88714000D02*
X74550000Y-81286000D01*
X74590000Y-88790000D02*
X74590000Y-81210000D01*
X74630000Y-88864000D02*
X74630000Y-81136000D01*
X74670000Y-88936000D02*
X74670000Y-81064000D01*
X74710000Y-89006000D02*
X74710000Y-80994000D01*
X74750000Y-89075000D02*
X74750000Y-80925000D01*
X74790000Y-89142000D02*
X74790000Y-80858000D01*
X74830000Y-89208000D02*
X74830000Y-80792000D01*
X74870000Y-89273000D02*
X74870000Y-80727000D01*
X74910000Y-89336000D02*
X74910000Y-80664000D01*
X74950000Y-89398000D02*
X74950000Y-80602000D01*
X74990000Y-89459000D02*
X74990000Y-80541000D01*
X75030000Y-89518000D02*
X75030000Y-80482000D01*
X75070000Y-89576000D02*
X75070000Y-80424000D01*
X75110000Y-89634000D02*
X75110000Y-80366000D01*
X75150000Y-89690000D02*
X75150000Y-80310000D01*
X75190000Y-89745000D02*
X75190000Y-80255000D01*
X75230000Y-89800000D02*
X75230000Y-80200000D01*
X75270000Y-89853000D02*
X75270000Y-80147000D01*
X75310000Y-89906000D02*
X75310000Y-80094000D01*
X75350000Y-89957000D02*
X75350000Y-80043000D01*
X75390000Y-90008000D02*
X75390000Y-79992000D01*
X75430000Y-90058000D02*
X75430000Y-79942000D01*
X75470000Y-90107000D02*
X75470000Y-79893000D01*
X75510000Y-90156000D02*
X75510000Y-79844000D01*
X75550000Y-90204000D02*
X75550000Y-79796000D01*
X75590000Y-90250000D02*
X75590000Y-79750000D01*
X75630000Y-90297000D02*
X75630000Y-79703000D01*
X75670000Y-90342000D02*
X75670000Y-79658000D01*
X75710000Y-90387000D02*
X75710000Y-79613000D01*
X75750000Y-90431000D02*
X75750000Y-79569000D01*
X75790000Y-90475000D02*
X75790000Y-79525000D01*
X75830000Y-90518000D02*
X75830000Y-79482000D01*
X75870000Y-90560000D02*
X75870000Y-79440000D01*
X75910000Y-90602000D02*
X75910000Y-79398000D01*
X75950000Y-90643000D02*
X75950000Y-79357000D01*
X75990000Y-90683000D02*
X75990000Y-79317000D01*
X76030000Y-90723000D02*
X76030000Y-79277000D01*
X76070000Y-90763000D02*
X76070000Y-79237000D01*
X76110000Y-90802000D02*
X76110000Y-79198000D01*
X76150000Y-90840000D02*
X76150000Y-79160000D01*
X76190000Y-90878000D02*
X76190000Y-79122000D01*
X76230000Y-90915000D02*
X76230000Y-79085000D01*
X76270000Y-90952000D02*
X76270000Y-79048000D01*
X76310000Y-90988000D02*
X76310000Y-79012000D01*
X76350000Y-91024000D02*
X76350000Y-78976000D01*
X76390000Y-91060000D02*
X76390000Y-78940000D01*
X76430000Y-91094000D02*
X76430000Y-78906000D01*
X76470000Y-91129000D02*
X76470000Y-78871000D01*
X76510000Y-91163000D02*
X76510000Y-78837000D01*
X76550000Y-91197000D02*
X76550000Y-78803000D01*
X76590000Y-83560000D02*
X76590000Y-78770000D01*
X76590000Y-91230000D02*
X76590000Y-86440000D01*
X76630000Y-83560000D02*
X76630000Y-78738000D01*
X76630000Y-91262000D02*
X76630000Y-86440000D01*
X76670000Y-83560000D02*
X76670000Y-78705000D01*
X76670000Y-91295000D02*
X76670000Y-86440000D01*
X76710000Y-83560000D02*
X76710000Y-78673000D01*
X76710000Y-91327000D02*
X76710000Y-86440000D01*
X76750000Y-83560000D02*
X76750000Y-78642000D01*
X76750000Y-91358000D02*
X76750000Y-86440000D01*
X76790000Y-83560000D02*
X76790000Y-78611000D01*
X76790000Y-91389000D02*
X76790000Y-86440000D01*
X76830000Y-83560000D02*
X76830000Y-78580000D01*
X76830000Y-91420000D02*
X76830000Y-86440000D01*
X76870000Y-83560000D02*
X76870000Y-78550000D01*
X76870000Y-91450000D02*
X76870000Y-86440000D01*
X76910000Y-83560000D02*
X76910000Y-78520000D01*
X76910000Y-91480000D02*
X76910000Y-86440000D01*
X76950000Y-83560000D02*
X76950000Y-78491000D01*
X76950000Y-91509000D02*
X76950000Y-86440000D01*
X76990000Y-83560000D02*
X76990000Y-78461000D01*
X76990000Y-91539000D02*
X76990000Y-86440000D01*
X77030000Y-83560000D02*
X77030000Y-78433000D01*
X77030000Y-91567000D02*
X77030000Y-86440000D01*
X77070000Y-83560000D02*
X77070000Y-78404000D01*
X77070000Y-91596000D02*
X77070000Y-86440000D01*
X77110000Y-83560000D02*
X77110000Y-78376000D01*
X77110000Y-91624000D02*
X77110000Y-86440000D01*
X77150000Y-83560000D02*
X77150000Y-78349000D01*
X77150000Y-91651000D02*
X77150000Y-86440000D01*
X77190000Y-83560000D02*
X77190000Y-78321000D01*
X77190000Y-91679000D02*
X77190000Y-86440000D01*
X77230000Y-83560000D02*
X77230000Y-78294000D01*
X77230000Y-91706000D02*
X77230000Y-86440000D01*
X77270000Y-83560000D02*
X77270000Y-78268000D01*
X77270000Y-91732000D02*
X77270000Y-86440000D01*
X77310000Y-83560000D02*
X77310000Y-78241000D01*
X77310000Y-91759000D02*
X77310000Y-86440000D01*
X77350000Y-83560000D02*
X77350000Y-78215000D01*
X77350000Y-91785000D02*
X77350000Y-86440000D01*
X77390000Y-83560000D02*
X77390000Y-78190000D01*
X77390000Y-91810000D02*
X77390000Y-86440000D01*
X77430000Y-83560000D02*
X77430000Y-78165000D01*
X77430000Y-91835000D02*
X77430000Y-86440000D01*
X77470000Y-83560000D02*
X77470000Y-78140000D01*
X77470000Y-91860000D02*
X77470000Y-86440000D01*
X77510000Y-83560000D02*
X77510000Y-78115000D01*
X77510000Y-91885000D02*
X77510000Y-86440000D01*
X77550000Y-83560000D02*
X77550000Y-78091000D01*
X77550000Y-91909000D02*
X77550000Y-86440000D01*
X77590000Y-83560000D02*
X77590000Y-78067000D01*
X77590000Y-91933000D02*
X77590000Y-86440000D01*
X77630000Y-83560000D02*
X77630000Y-78043000D01*
X77630000Y-91957000D02*
X77630000Y-86440000D01*
X77670000Y-83560000D02*
X77670000Y-78019000D01*
X77670000Y-91981000D02*
X77670000Y-86440000D01*
X77710000Y-83560000D02*
X77710000Y-77996000D01*
X77710000Y-92004000D02*
X77710000Y-86440000D01*
X77750000Y-83560000D02*
X77750000Y-77974000D01*
X77750000Y-92026000D02*
X77750000Y-86440000D01*
X77790000Y-83560000D02*
X77790000Y-77951000D01*
X77790000Y-92049000D02*
X77790000Y-86440000D01*
X77830000Y-83560000D02*
X77830000Y-77929000D01*
X77830000Y-92071000D02*
X77830000Y-86440000D01*
X77870000Y-83560000D02*
X77870000Y-77907000D01*
X77870000Y-92093000D02*
X77870000Y-86440000D01*
X77910000Y-83560000D02*
X77910000Y-77885000D01*
X77910000Y-92115000D02*
X77910000Y-86440000D01*
X77950000Y-83560000D02*
X77950000Y-77864000D01*
X77950000Y-92136000D02*
X77950000Y-86440000D01*
X77990000Y-83560000D02*
X77990000Y-77843000D01*
X77990000Y-92157000D02*
X77990000Y-86440000D01*
X78030000Y-83560000D02*
X78030000Y-77822000D01*
X78030000Y-92178000D02*
X78030000Y-86440000D01*
X78070000Y-83560000D02*
X78070000Y-77802000D01*
X78070000Y-92198000D02*
X78070000Y-86440000D01*
X78110000Y-83560000D02*
X78110000Y-77782000D01*
X78110000Y-92218000D02*
X78110000Y-86440000D01*
X78150000Y-83560000D02*
X78150000Y-77762000D01*
X78150000Y-92238000D02*
X78150000Y-86440000D01*
X78190000Y-83560000D02*
X78190000Y-77742000D01*
X78190000Y-92258000D02*
X78190000Y-86440000D01*
X78230000Y-83560000D02*
X78230000Y-77723000D01*
X78230000Y-92277000D02*
X78230000Y-86440000D01*
X78270000Y-83560000D02*
X78270000Y-77704000D01*
X78270000Y-92296000D02*
X78270000Y-86440000D01*
X78310000Y-83560000D02*
X78310000Y-77685000D01*
X78310000Y-92315000D02*
X78310000Y-86440000D01*
X78350000Y-83560000D02*
X78350000Y-77666000D01*
X78350000Y-92334000D02*
X78350000Y-86440000D01*
X78390000Y-83560000D02*
X78390000Y-77648000D01*
X78390000Y-92352000D02*
X78390000Y-86440000D01*
X78430000Y-83560000D02*
X78430000Y-77630000D01*
X78430000Y-92370000D02*
X78430000Y-86440000D01*
X78470000Y-83560000D02*
X78470000Y-77612000D01*
X78470000Y-92388000D02*
X78470000Y-86440000D01*
X78510000Y-83560000D02*
X78510000Y-77594000D01*
X78510000Y-92406000D02*
X78510000Y-86440000D01*
X78550000Y-83560000D02*
X78550000Y-77577000D01*
X78550000Y-92423000D02*
X78550000Y-86440000D01*
X78590000Y-83560000D02*
X78590000Y-77560000D01*
X78590000Y-92440000D02*
X78590000Y-86440000D01*
X78630000Y-83560000D02*
X78630000Y-77543000D01*
X78630000Y-92457000D02*
X78630000Y-86440000D01*
X78670000Y-83560000D02*
X78670000Y-77527000D01*
X78670000Y-92473000D02*
X78670000Y-86440000D01*
X78710000Y-83560000D02*
X78710000Y-77511000D01*
X78710000Y-92489000D02*
X78710000Y-86440000D01*
X78750000Y-83560000D02*
X78750000Y-77495000D01*
X78750000Y-92505000D02*
X78750000Y-86440000D01*
X78790000Y-83560000D02*
X78790000Y-77479000D01*
X78790000Y-92521000D02*
X78790000Y-86440000D01*
X78830000Y-83560000D02*
X78830000Y-77463000D01*
X78830000Y-92537000D02*
X78830000Y-86440000D01*
X78870000Y-83560000D02*
X78870000Y-77448000D01*
X78870000Y-92552000D02*
X78870000Y-86440000D01*
X78910000Y-83560000D02*
X78910000Y-77433000D01*
X78910000Y-92567000D02*
X78910000Y-86440000D01*
X78950000Y-83560000D02*
X78950000Y-77418000D01*
X78950000Y-92582000D02*
X78950000Y-86440000D01*
X78990000Y-83560000D02*
X78990000Y-77403000D01*
X78990000Y-92597000D02*
X78990000Y-86440000D01*
X79030000Y-83560000D02*
X79030000Y-77389000D01*
X79030000Y-92611000D02*
X79030000Y-86440000D01*
X79070000Y-83560000D02*
X79070000Y-77375000D01*
X79070000Y-92625000D02*
X79070000Y-86440000D01*
X79110000Y-83560000D02*
X79110000Y-77361000D01*
X79110000Y-92639000D02*
X79110000Y-86440000D01*
X79150000Y-83560000D02*
X79150000Y-77348000D01*
X79150000Y-92652000D02*
X79150000Y-86440000D01*
X79190000Y-83560000D02*
X79190000Y-77334000D01*
X79190000Y-92666000D02*
X79190000Y-86440000D01*
X79230000Y-83560000D02*
X79230000Y-77321000D01*
X79230000Y-92679000D02*
X79230000Y-86440000D01*
X79270000Y-83560000D02*
X79270000Y-77308000D01*
X79270000Y-92692000D02*
X79270000Y-86440000D01*
X79310000Y-83560000D02*
X79310000Y-77295000D01*
X79310000Y-92705000D02*
X79310000Y-86440000D01*
X79350000Y-83560000D02*
X79350000Y-77283000D01*
X79350000Y-92717000D02*
X79350000Y-86440000D01*
X79390000Y-83560000D02*
X79390000Y-77271000D01*
X79390000Y-92729000D02*
X79390000Y-86440000D01*
X79430000Y-83560000D02*
X79430000Y-77258000D01*
X79430000Y-92742000D02*
X79430000Y-86440000D01*
X79470000Y-92753000D02*
X79470000Y-77247000D01*
X79510000Y-92765000D02*
X79510000Y-77235000D01*
X79550000Y-92776000D02*
X79550000Y-77224000D01*
X79590000Y-92787000D02*
X79590000Y-77213000D01*
X79630000Y-92798000D02*
X79630000Y-77202000D01*
X79670000Y-92809000D02*
X79670000Y-77191000D01*
X79710000Y-92820000D02*
X79710000Y-77180000D01*
X79750000Y-92830000D02*
X79750000Y-77170000D01*
X79790000Y-92840000D02*
X79790000Y-77160000D01*
X79830000Y-92850000D02*
X79830000Y-77150000D01*
X79870000Y-92859000D02*
X79870000Y-77141000D01*
X79910000Y-92869000D02*
X79910000Y-77131000D01*
X79950000Y-92878000D02*
X79950000Y-77122000D01*
X79990000Y-92887000D02*
X79990000Y-77113000D01*
X80030000Y-92896000D02*
X80030000Y-77104000D01*
X80070000Y-92904000D02*
X80070000Y-77096000D01*
X80110000Y-92913000D02*
X80110000Y-77087000D01*
X80150000Y-92921000D02*
X80150000Y-77079000D01*
X80190000Y-92929000D02*
X80190000Y-77071000D01*
X80230000Y-92936000D02*
X80230000Y-77064000D01*
X80270000Y-92944000D02*
X80270000Y-77056000D01*
X80310000Y-92951000D02*
X80310000Y-77049000D01*
X80350000Y-92958000D02*
X80350000Y-77042000D01*
X80390000Y-92965000D02*
X80390000Y-77035000D01*
X80430000Y-92972000D02*
X80430000Y-77028000D01*
X80470000Y-92978000D02*
X80470000Y-77022000D01*
X80510000Y-92985000D02*
X80510000Y-77015000D01*
X80550000Y-92991000D02*
X80550000Y-77009000D01*
X80590000Y-92997000D02*
X80590000Y-77003000D01*
X80630000Y-93002000D02*
X80630000Y-76998000D01*
X80670000Y-93008000D02*
X80670000Y-76992000D01*
X80710000Y-93013000D02*
X80710000Y-76987000D01*
X80750000Y-93018000D02*
X80750000Y-76982000D01*
X80790000Y-93023000D02*
X80790000Y-76977000D01*
X80830000Y-93028000D02*
X80830000Y-76972000D01*
X80870000Y-93032000D02*
X80870000Y-76968000D01*
X80910000Y-93036000D02*
X80910000Y-76964000D01*
X80950000Y-93040000D02*
X80950000Y-76960000D01*
X80990000Y-93044000D02*
X80990000Y-76956000D01*
X81030000Y-93048000D02*
X81030000Y-76952000D01*
X81070000Y-93051000D02*
X81070000Y-76949000D01*
X81110000Y-93055000D02*
X81110000Y-76945000D01*
X81150000Y-93058000D02*
X81150000Y-76942000D01*
X81190000Y-93061000D02*
X81190000Y-76939000D01*
X81230000Y-93063000D02*
X81230000Y-76937000D01*
X81270000Y-93066000D02*
X81270000Y-76934000D01*
X81310000Y-93068000D02*
X81310000Y-76932000D01*
X81350000Y-93070000D02*
X81350000Y-76930000D01*
X81390000Y-93072000D02*
X81390000Y-76928000D01*
X81430000Y-93074000D02*
X81430000Y-76926000D01*
X81470000Y-93075000D02*
X81470000Y-76925000D01*
X81510000Y-93076000D02*
X81510000Y-76924000D01*
X81550000Y-93078000D02*
X81550000Y-76922000D01*
X81590000Y-93078000D02*
X81590000Y-76922000D01*
X81630000Y-93079000D02*
X81630000Y-76921000D01*
X81670000Y-93080000D02*
X81670000Y-76920000D01*
X81710000Y-93080000D02*
X81710000Y-76920000D01*
X81750000Y-93080000D02*
X81750000Y-76920000D01*
X89639491Y-90355000D02*
X89639491Y-88755000D01*
X90439491Y-89555000D02*
X88839491Y-89555000D01*
X89870000Y-85000000D02*
G75*
G02*
X73630000Y-85000000I-8120000J0D01*
G01*
X73630000Y-85000000D02*
G75*
G02*
X89870000Y-85000000I8120000J0D01*
G01*
%TO.C,R7*%
X178365000Y-106672936D02*
X178365000Y-107127064D01*
X179835000Y-106672936D02*
X179835000Y-107127064D01*
%TO.C,J6*%
X55490000Y-47740000D02*
X60550000Y-47740000D01*
X55490000Y-142260000D02*
X60550000Y-142260000D01*
X59550000Y-85303000D02*
X59550000Y-53260000D01*
X59550000Y-87843000D02*
X59550000Y-86917000D01*
X59550000Y-90383000D02*
X59550000Y-89457000D01*
X59550000Y-92923000D02*
X59550000Y-91997000D01*
X59550000Y-95463000D02*
X59550000Y-94537000D01*
X59550000Y-98003000D02*
X59550000Y-97077000D01*
X59550000Y-100543000D02*
X59550000Y-99617000D01*
X59550000Y-102795000D02*
X59550000Y-102157000D01*
X59550000Y-136740000D02*
X59550000Y-104985000D01*
X59990000Y-105585000D02*
X60590000Y-105585000D01*
X60290000Y-104985000D02*
X59990000Y-105585000D01*
X60550000Y-47740000D02*
X60550000Y-53260000D01*
X60550000Y-53260000D02*
X59550000Y-53260000D01*
X60550000Y-136740000D02*
X59550000Y-136740000D01*
X60550000Y-142260000D02*
X60550000Y-136740000D01*
X60590000Y-105585000D02*
X60290000Y-104985000D01*
%TD*%
M02*
