M48
; DRILL file KiCad 10.0.3 date 2026-07-01T10:53:55
; FORMAT={-:-/ absolute / metric / decimal}
; #@! TF.CreationDate,2026-07-01T10:53:55-04:00
; #@! TF.GenerationSoftware,Kicad,Pcbnew,10.0.3
; #@! TF.FileFunction,Plated,1,2,PTH
FMAT,2
METRIC
; #@! TA.AperFunction,Plated,PTH,ViaDrill
T1C0.400
; #@! TA.AperFunction,Plated,PTH,ComponentDrill
T2C1.000
; #@! TA.AperFunction,Plated,PTH,ComponentDrill
T3C1.100
; #@! TA.AperFunction,Plated,PTH,ComponentDrill
T4C1.200
; #@! TA.AperFunction,Plated,PTH,ComponentDrill
T5C1.300
; #@! TA.AperFunction,Plated,PTH,ComponentDrill
T6C1.400
; #@! TA.AperFunction,Plated,PTH,ComponentDrill
T7C2.500
; #@! TA.AperFunction,Plated,PTH,ComponentDrill
T8C3.100
%
G90
G05
T1
X66.5Y-49.6
X66.5Y-54.6
X66.7Y-61.6
X73.3Y-127.1
X74.3Y-139.5
X77.9Y-105.7
X81.2Y-55.3
X81.2Y-63.2
X81.4Y-74.3
X82.3Y-50.2
X83.0Y-95.2
X93.1Y-140.5
X93.3Y-119.1
X96.9Y-75.6
X97.3Y-89.2
X97.3Y-98.5
X97.4Y-63.4
X97.5Y-56.6
X97.7Y-50.4
X113.3Y-121.3
X113.5Y-141.3
X116.7Y-64.5
X117.1Y-94.8
X117.5Y-78.3
X131.2Y-140.2
X131.4Y-126.0
X134.3Y-52.2
X137.3Y-91.7
X141.3Y-105.7
X154.2Y-53.5
X157.8Y-140.5
X158.0Y-122.6
X165.4Y-66.8
X175.1Y-54.0
X176.2Y-66.9
X184.5Y-140.9
X185.2Y-127.5
X186.3Y-110.9
X190.3Y-67.1
X190.7Y-85.6
X192.0Y-100.4
X196.1Y-83.7
X201.0Y-89.5
X203.2Y-52.1
X208.3Y-110.8
X208.9Y-128.6
X209.1Y-141.1
X212.0Y-96.9
T2
X60.29Y-86.11
X60.29Y-88.65
X60.29Y-91.19
X60.29Y-93.73
X60.29Y-96.27
X60.29Y-98.81
X60.29Y-101.35
X60.29Y-103.89
X62.83Y-86.11
X62.83Y-88.65
X62.83Y-91.19
X62.83Y-93.73
X62.83Y-96.27
X62.83Y-98.81
X62.83Y-101.35
X62.83Y-103.89
X65.37Y-86.11
X65.37Y-88.65
X65.37Y-91.19
X65.37Y-93.73
X65.37Y-96.27
X65.37Y-98.81
X65.37Y-101.35
X65.37Y-103.89
T3
X146.0Y-71.92
X146.0Y-74.46
X146.0Y-77.0
X159.0Y-68.92
X159.0Y-79.08
X163.0Y-109.92
X163.0Y-112.46
X163.0Y-115.0
X176.0Y-107.84
X176.0Y-118.0
T4
X77.522Y-117.0
X78.0Y-85.0
X85.022Y-117.0
X85.5Y-85.0
X96.0Y-109.0
X96.522Y-131.0
X103.5Y-109.0
X104.022Y-131.0
X107.0Y-50.14
X107.0Y-95.86
X128.0Y-62.28
X128.0Y-108.0
X144.1Y-126.2
X151.6Y-126.2
X196.3Y-123.5
X203.8Y-123.5
T5
X198.84Y-65.0
X203.92Y-65.0
X209.0Y-65.0
T6
X187.0Y-80.0
X187.0Y-98.0
X205.0Y-80.0
X205.0Y-91.6
T7
X150.0Y-61.6
X150.0Y-87.0
X167.0Y-99.6
X167.0Y-125.0
T8
X62.83Y-58.17
X62.83Y-65.79
X62.83Y-73.41
X62.83Y-81.03
X62.83Y-108.97
X62.83Y-116.59
X62.83Y-124.21
X62.83Y-131.83
M30
