%TF.GenerationSoftware,KiCad,Pcbnew,10.0.3*%
%TF.CreationDate,2026-07-01T10:53:49-04:00*%
%TF.ProjectId,pm22V,706d3232-562e-46b6-9963-61645f706362,rev?*%
%TF.SameCoordinates,Original*%
%TF.FileFunction,Soldermask,Top*%
%TF.FilePolarity,Negative*%
%FSLAX46Y46*%
G04 Gerber Fmt 4.6, Leading zero omitted, Abs format (unit mm)*
G04 Created by KiCad (PCBNEW 10.0.3) date 2026-07-01 10:53:49*
%MOMM*%
%LPD*%
G01*
G04 APERTURE LIST*
G04 Aperture macros list*
%AMRoundRect*
0 Rectangle with rounded corners*
0 $1 Rounding radius*
0 $2 $3 $4 $5 $6 $7 $8 $9 X,Y pos of 4 corners*
0 Add a 4 corners polygon primitive as box body*
4,1,4,$2,$3,$4,$5,$6,$7,$8,$9,$2,$3,0*
0 Add four circle primitives for the rounded corners*
1,1,$1+$1,$2,$3*
1,1,$1+$1,$4,$5*
1,1,$1+$1,$6,$7*
1,1,$1+$1,$8,$9*
0 Add four rect primitives between the rounded corners*
20,1,$1+$1,$2,$3,$4,$5,0*
20,1,$1+$1,$4,$5,$6,$7,0*
20,1,$1+$1,$6,$7,$8,$9,0*
20,1,$1+$1,$8,$9,$2,$3,0*%
G04 Aperture macros list end*
%ADD10RoundRect,0.250000X0.450000X-0.350000X0.450000X0.350000X-0.450000X0.350000X-0.450000X-0.350000X0*%
%ADD11R,2.000000X1.905000*%
%ADD12O,2.000000X1.905000*%
%ADD13RoundRect,0.250001X-0.949999X-0.949999X0.949999X-0.949999X0.949999X0.949999X-0.949999X0.949999X0*%
%ADD14C,2.400000*%
%ADD15RoundRect,0.250000X-0.450000X0.350000X-0.450000X-0.350000X0.450000X-0.350000X0.450000X0.350000X0*%
%ADD16RoundRect,0.250000X0.475000X-0.337500X0.475000X0.337500X-0.475000X0.337500X-0.475000X-0.337500X0*%
%ADD17R,2.800000X2.800000*%
%ADD18C,2.800000*%
%ADD19RoundRect,0.249999X0.850001X-0.850001X0.850001X0.850001X-0.850001X0.850001X-0.850001X-0.850001X0*%
%ADD20C,2.200000*%
%ADD21RoundRect,0.250000X0.400000X0.625000X-0.400000X0.625000X-0.400000X-0.625000X0.400000X-0.625000X0*%
%ADD22C,6.000000*%
%ADD23RoundRect,0.250001X0.949999X0.949999X-0.949999X0.949999X-0.949999X-0.949999X0.949999X-0.949999X0*%
%ADD24RoundRect,0.249999X-0.850001X0.850001X-0.850001X-0.850001X0.850001X-0.850001X0.850001X0.850001X0*%
%ADD25RoundRect,0.250000X1.050000X1.050000X-1.050000X1.050000X-1.050000X-1.050000X1.050000X-1.050000X0*%
%ADD26C,2.600000*%
%ADD27C,2.850000*%
%ADD28C,5.000000*%
%ADD29RoundRect,0.249999X0.525001X-0.525001X0.525001X0.525001X-0.525001X0.525001X-0.525001X-0.525001X0*%
%ADD30C,1.550000*%
G04 APERTURE END LIST*
D10*
%TO.C,R5*%
X159000000Y-114200000D03*
X159000000Y-112200000D03*
%TD*%
D11*
%TO.C,Q1*%
X146000000Y-71920000D03*
D12*
X146000000Y-74460000D03*
X146000000Y-77000000D03*
%TD*%
D13*
%TO.C,C10*%
X196300000Y-123500000D03*
D14*
X203800000Y-123500000D03*
%TD*%
D15*
%TO.C,R4*%
X140000000Y-74500000D03*
X140000000Y-76500000D03*
%TD*%
D16*
%TO.C,C2*%
X157000000Y-112075000D03*
X157000000Y-110000000D03*
%TD*%
D14*
%TO.C,R2*%
X107000000Y-50140000D03*
X107000000Y-95860000D03*
%TD*%
D17*
%TO.C,D1*%
X205000000Y-91600000D03*
D18*
X205000000Y-80000000D03*
X187000000Y-80000000D03*
X187000000Y-98000000D03*
%TD*%
D19*
%TO.C,D2*%
X176000000Y-118000000D03*
D20*
X176000000Y-107840000D03*
%TD*%
D21*
%TO.C,R9*%
X88232220Y-101000000D03*
X85132220Y-101000000D03*
%TD*%
D14*
%TO.C,R3*%
X128000000Y-62280000D03*
X128000000Y-108000000D03*
%TD*%
D22*
%TO.C,HS1*%
X150000000Y-87000000D03*
X150000000Y-61600000D03*
%TD*%
D23*
%TO.C,C4*%
X103500000Y-109000000D03*
D14*
X96000000Y-109000000D03*
%TD*%
D24*
%TO.C,D3*%
X159000000Y-68920000D03*
D20*
X159000000Y-79080000D03*
%TD*%
D15*
%TO.C,R6*%
X159000000Y-64100000D03*
X159000000Y-66100000D03*
%TD*%
D13*
%TO.C,C5*%
X77522220Y-117000000D03*
D14*
X85022220Y-117000000D03*
%TD*%
D21*
%TO.C,R8*%
X88232220Y-131000000D03*
X85132220Y-131000000D03*
%TD*%
D13*
%TO.C,C3*%
X96522220Y-131000000D03*
D14*
X104022220Y-131000000D03*
%TD*%
D22*
%TO.C,HS2*%
X167000000Y-125000000D03*
X167000000Y-99600000D03*
%TD*%
D25*
%TO.C,J5*%
X209000000Y-65000000D03*
D26*
X203920000Y-65000000D03*
X198840000Y-65000000D03*
%TD*%
D11*
%TO.C,Q2*%
X163000000Y-109920000D03*
D12*
X163000000Y-112460000D03*
X163000000Y-115000000D03*
%TD*%
D16*
%TO.C,C8*%
X72000000Y-68075000D03*
X72000000Y-66000000D03*
%TD*%
%TO.C,C7*%
X72000000Y-81075000D03*
X72000000Y-79000000D03*
%TD*%
%TO.C,C1*%
X142000000Y-74500000D03*
X142000000Y-72425000D03*
%TD*%
D13*
%TO.C,C9*%
X144100000Y-126200000D03*
D14*
X151600000Y-126200000D03*
%TD*%
D23*
%TO.C,C6*%
X85500000Y-85000000D03*
D14*
X78000000Y-85000000D03*
%TD*%
D15*
%TO.C,R7*%
X179100000Y-105900000D03*
X179100000Y-107900000D03*
%TD*%
D27*
%TO.C,J6*%
X57750000Y-139450000D03*
X57750000Y-50550000D03*
D28*
X62830000Y-131830000D03*
X62830000Y-124210000D03*
X62830000Y-116590000D03*
X62830000Y-108970000D03*
X62830000Y-81030000D03*
X62830000Y-73410000D03*
X62830000Y-65790000D03*
X62830000Y-58170000D03*
D29*
X60290000Y-103890000D03*
D30*
X60290000Y-101350000D03*
X60290000Y-98810000D03*
X60290000Y-96270000D03*
X60290000Y-93730000D03*
X60290000Y-91190000D03*
X60290000Y-88650000D03*
X60290000Y-86110000D03*
X62830000Y-103890000D03*
X62830000Y-101350000D03*
X62830000Y-98810000D03*
X62830000Y-96270000D03*
X62830000Y-93730000D03*
X62830000Y-91190000D03*
X62830000Y-88650000D03*
X62830000Y-86110000D03*
X65370000Y-103890000D03*
X65370000Y-101350000D03*
X65370000Y-98810000D03*
X65370000Y-96270000D03*
X65370000Y-93730000D03*
X65370000Y-91190000D03*
X65370000Y-88650000D03*
X65370000Y-86110000D03*
%TD*%
M02*
