%TF.GenerationSoftware,KiCad,Pcbnew,10.0.3*%
%TF.CreationDate,2026-07-01T10:48:48-04:00*%
%TF.ProjectId,AC_Board,41435f42-6f61-4726-942e-6b696361645f,rev?*%
%TF.SameCoordinates,Original*%
%TF.FileFunction,Legend,Top*%
%TF.FilePolarity,Positive*%
%FSLAX46Y46*%
G04 Gerber Fmt 4.6, Leading zero omitted, Abs format (unit mm)*
G04 Created by KiCad (PCBNEW 10.0.3) date 2026-07-01 10:48:48*
%MOMM*%
%LPD*%
G01*
G04 APERTURE LIST*
%ADD10C,0.150000*%
%ADD11C,0.120000*%
G04 APERTURE END LIST*
D10*
X72384819Y-55985713D02*
X72384819Y-55414285D01*
X73384819Y-55699999D02*
X72384819Y-55699999D01*
X73384819Y-55080951D02*
X72384819Y-55080951D01*
X72861009Y-55080951D02*
X72861009Y-54509523D01*
X73384819Y-54509523D02*
X72384819Y-54509523D01*
X73384819Y-53509523D02*
X73384819Y-54080951D01*
X73384819Y-53795237D02*
X72384819Y-53795237D01*
X72384819Y-53795237D02*
X72527676Y-53890475D01*
X72527676Y-53890475D02*
X72622914Y-53985713D01*
X72622914Y-53985713D02*
X72670533Y-54080951D01*
X105238095Y-36704819D02*
X105238095Y-35704819D01*
X105238095Y-36181009D02*
X105809523Y-36181009D01*
X105809523Y-36704819D02*
X105809523Y-35704819D01*
X106238095Y-35800057D02*
X106285714Y-35752438D01*
X106285714Y-35752438D02*
X106380952Y-35704819D01*
X106380952Y-35704819D02*
X106619047Y-35704819D01*
X106619047Y-35704819D02*
X106714285Y-35752438D01*
X106714285Y-35752438D02*
X106761904Y-35800057D01*
X106761904Y-35800057D02*
X106809523Y-35895295D01*
X106809523Y-35895295D02*
X106809523Y-35990533D01*
X106809523Y-35990533D02*
X106761904Y-36133390D01*
X106761904Y-36133390D02*
X106190476Y-36704819D01*
X106190476Y-36704819D02*
X106809523Y-36704819D01*
X99604819Y-56366666D02*
X99128628Y-56699999D01*
X99604819Y-56938094D02*
X98604819Y-56938094D01*
X98604819Y-56938094D02*
X98604819Y-56557142D01*
X98604819Y-56557142D02*
X98652438Y-56461904D01*
X98652438Y-56461904D02*
X98700057Y-56414285D01*
X98700057Y-56414285D02*
X98795295Y-56366666D01*
X98795295Y-56366666D02*
X98938152Y-56366666D01*
X98938152Y-56366666D02*
X99033390Y-56414285D01*
X99033390Y-56414285D02*
X99081009Y-56461904D01*
X99081009Y-56461904D02*
X99128628Y-56557142D01*
X99128628Y-56557142D02*
X99128628Y-56938094D01*
X99604819Y-55414285D02*
X99604819Y-55985713D01*
X99604819Y-55699999D02*
X98604819Y-55699999D01*
X98604819Y-55699999D02*
X98747676Y-55795237D01*
X98747676Y-55795237D02*
X98842914Y-55890475D01*
X98842914Y-55890475D02*
X98890533Y-55985713D01*
X82441666Y-56672319D02*
X82441666Y-57386604D01*
X82441666Y-57386604D02*
X82394047Y-57529461D01*
X82394047Y-57529461D02*
X82298809Y-57624700D01*
X82298809Y-57624700D02*
X82155952Y-57672319D01*
X82155952Y-57672319D02*
X82060714Y-57672319D01*
X83441666Y-57672319D02*
X82870238Y-57672319D01*
X83155952Y-57672319D02*
X83155952Y-56672319D01*
X83155952Y-56672319D02*
X83060714Y-56815176D01*
X83060714Y-56815176D02*
X82965476Y-56910414D01*
X82965476Y-56910414D02*
X82870238Y-56958033D01*
X66191666Y-58727319D02*
X66191666Y-59441604D01*
X66191666Y-59441604D02*
X66144047Y-59584461D01*
X66144047Y-59584461D02*
X66048809Y-59679700D01*
X66048809Y-59679700D02*
X65905952Y-59727319D01*
X65905952Y-59727319D02*
X65810714Y-59727319D01*
X66620238Y-58822557D02*
X66667857Y-58774938D01*
X66667857Y-58774938D02*
X66763095Y-58727319D01*
X66763095Y-58727319D02*
X67001190Y-58727319D01*
X67001190Y-58727319D02*
X67096428Y-58774938D01*
X67096428Y-58774938D02*
X67144047Y-58822557D01*
X67144047Y-58822557D02*
X67191666Y-58917795D01*
X67191666Y-58917795D02*
X67191666Y-59013033D01*
X67191666Y-59013033D02*
X67144047Y-59155890D01*
X67144047Y-59155890D02*
X66572619Y-59727319D01*
X66572619Y-59727319D02*
X67191666Y-59727319D01*
X105238095Y-69304819D02*
X105238095Y-68304819D01*
X105238095Y-68781009D02*
X105809523Y-68781009D01*
X105809523Y-69304819D02*
X105809523Y-68304819D01*
X106714285Y-68638152D02*
X106714285Y-69304819D01*
X106476190Y-68257200D02*
X106238095Y-68971485D01*
X106238095Y-68971485D02*
X106857142Y-68971485D01*
X52238095Y-36704819D02*
X52238095Y-35704819D01*
X52238095Y-36181009D02*
X52809523Y-36181009D01*
X52809523Y-36704819D02*
X52809523Y-35704819D01*
X53809523Y-36704819D02*
X53238095Y-36704819D01*
X53523809Y-36704819D02*
X53523809Y-35704819D01*
X53523809Y-35704819D02*
X53428571Y-35847676D01*
X53428571Y-35847676D02*
X53333333Y-35942914D01*
X53333333Y-35942914D02*
X53238095Y-35990533D01*
X92586666Y-58894819D02*
X92586666Y-59609104D01*
X92586666Y-59609104D02*
X92539047Y-59751961D01*
X92539047Y-59751961D02*
X92443809Y-59847200D01*
X92443809Y-59847200D02*
X92300952Y-59894819D01*
X92300952Y-59894819D02*
X92205714Y-59894819D01*
X92967619Y-58894819D02*
X93586666Y-58894819D01*
X93586666Y-58894819D02*
X93253333Y-59275771D01*
X93253333Y-59275771D02*
X93396190Y-59275771D01*
X93396190Y-59275771D02*
X93491428Y-59323390D01*
X93491428Y-59323390D02*
X93539047Y-59371009D01*
X93539047Y-59371009D02*
X93586666Y-59466247D01*
X93586666Y-59466247D02*
X93586666Y-59704342D01*
X93586666Y-59704342D02*
X93539047Y-59799580D01*
X93539047Y-59799580D02*
X93491428Y-59847200D01*
X93491428Y-59847200D02*
X93396190Y-59894819D01*
X93396190Y-59894819D02*
X93110476Y-59894819D01*
X93110476Y-59894819D02*
X93015238Y-59847200D01*
X93015238Y-59847200D02*
X92967619Y-59799580D01*
X52238095Y-69304819D02*
X52238095Y-68304819D01*
X52238095Y-68781009D02*
X52809523Y-68781009D01*
X52809523Y-69304819D02*
X52809523Y-68304819D01*
X53190476Y-68304819D02*
X53809523Y-68304819D01*
X53809523Y-68304819D02*
X53476190Y-68685771D01*
X53476190Y-68685771D02*
X53619047Y-68685771D01*
X53619047Y-68685771D02*
X53714285Y-68733390D01*
X53714285Y-68733390D02*
X53761904Y-68781009D01*
X53761904Y-68781009D02*
X53809523Y-68876247D01*
X53809523Y-68876247D02*
X53809523Y-69114342D01*
X53809523Y-69114342D02*
X53761904Y-69209580D01*
X53761904Y-69209580D02*
X53714285Y-69257200D01*
X53714285Y-69257200D02*
X53619047Y-69304819D01*
X53619047Y-69304819D02*
X53333333Y-69304819D01*
X53333333Y-69304819D02*
X53238095Y-69257200D01*
X53238095Y-69257200D02*
X53190476Y-69209580D01*
%TO.C,TH1*%
D11*
X70010000Y-52810000D02*
X70010000Y-57010000D01*
X71930000Y-50890000D02*
G75*
G02*
X68090000Y-50890000I-1920000J0D01*
G01*
X68090000Y-50890000D02*
G75*
G02*
X71930000Y-50890000I1920000J0D01*
G01*
%TO.C,R1*%
X96765000Y-55972936D02*
X96765000Y-56427064D01*
X98235000Y-55972936D02*
X98235000Y-56427064D01*
%TO.C,J1*%
X75035000Y-46177500D02*
X87555000Y-46177500D01*
X75035000Y-56217500D02*
X75035000Y-46177500D01*
X88155000Y-46177500D02*
X90515000Y-46177500D01*
X90515000Y-46177500D02*
X90515000Y-56217500D01*
X90515000Y-46797500D02*
X75035000Y-46797500D01*
X90515000Y-48297500D02*
X75035000Y-48297500D01*
X90515000Y-53197500D02*
X75035000Y-53197500D01*
X90515000Y-56217500D02*
X75035000Y-56217500D01*
X87855000Y-46177500D02*
X87415000Y-45567500D01*
X88295000Y-45567500D01*
X87855000Y-46177500D01*
G36*
X87855000Y-46177500D02*
G01*
X87415000Y-45567500D01*
X88295000Y-45567500D01*
X87855000Y-46177500D01*
G37*
%TO.C,J2*%
X58785000Y-60272500D02*
X74265000Y-60272500D01*
X58785000Y-63292500D02*
X74265000Y-63292500D01*
X58785000Y-68192500D02*
X74265000Y-68192500D01*
X58785000Y-69692500D02*
X74265000Y-69692500D01*
X58785000Y-70312500D02*
X58785000Y-60272500D01*
X61145000Y-70312500D02*
X58785000Y-70312500D01*
X74265000Y-60272500D02*
X74265000Y-70312500D01*
X74265000Y-70312500D02*
X61745000Y-70312500D01*
X61445000Y-70312500D02*
X61885000Y-70922500D01*
X61005000Y-70922500D01*
X61445000Y-70312500D01*
G36*
X61885000Y-70922500D02*
G01*
X61005000Y-70922500D01*
X61445000Y-70312500D01*
X61885000Y-70922500D01*
G37*
%TO.C,J3*%
X85180000Y-60440000D02*
X100660000Y-60440000D01*
X85180000Y-63460000D02*
X100660000Y-63460000D01*
X85180000Y-68360000D02*
X100660000Y-68360000D01*
X85180000Y-69860000D02*
X100660000Y-69860000D01*
X85180000Y-70480000D02*
X85180000Y-60440000D01*
X87540000Y-70480000D02*
X85180000Y-70480000D01*
X100660000Y-60440000D02*
X100660000Y-70480000D01*
X100660000Y-70480000D02*
X88140000Y-70480000D01*
X87840000Y-70480000D02*
X88280000Y-71090000D01*
X87400000Y-71090000D01*
X87840000Y-70480000D01*
G36*
X88280000Y-71090000D02*
G01*
X87400000Y-71090000D01*
X87840000Y-70480000D01*
X88280000Y-71090000D01*
G37*
%TD*%
M02*
