%TF.GenerationSoftware,KiCad,Pcbnew,10.0.3*%
%TF.CreationDate,2026-07-01T10:48:48-04:00*%
%TF.ProjectId,AC_Board,41435f42-6f61-4726-942e-6b696361645f,rev?*%
%TF.SameCoordinates,Original*%
%TF.FileFunction,Copper,L2,Bot*%
%TF.FilePolarity,Positive*%
%FSLAX46Y46*%
G04 Gerber Fmt 4.6, Leading zero omitted, Abs format (unit mm)*
G04 Created by KiCad (PCBNEW 10.0.3) date 2026-07-01 10:48:48*
%MOMM*%
%LPD*%
G01*
G04 APERTURE LIST*
G04 Aperture macros list*
%AMRoundRect*
0 Rectangle with rounded corners*
0 $1 Rounding radius*
0 $2 $3 $4 $5 $6 $7 $8 $9 X,Y pos of 4 corners*
0 Add a 4 corners polygon primitive as box body*
4,1,4,$2,$3,$4,$5,$6,$7,$8,$9,$2,$3,0*
0 Add four circle primitives for the rounded corners*
1,1,$1+$1,$2,$3*
1,1,$1+$1,$4,$5*
1,1,$1+$1,$6,$7*
1,1,$1+$1,$8,$9*
0 Add four rect primitives between the rounded corners*
20,1,$1+$1,$2,$3,$4,$5,0*
20,1,$1+$1,$4,$5,$6,$7,0*
20,1,$1+$1,$6,$7,$8,$9,0*
20,1,$1+$1,$8,$9,$2,$3,0*%
G04 Aperture macros list end*
%TA.AperFunction,ComponentPad*%
%ADD10C,2.400000*%
%TD*%
%TA.AperFunction,ComponentPad*%
%ADD11C,3.600000*%
%TD*%
%TA.AperFunction,ConnectorPad*%
%ADD12C,5.600000*%
%TD*%
%TA.AperFunction,ComponentPad*%
%ADD13RoundRect,0.250000X1.050000X1.050000X-1.050000X1.050000X-1.050000X-1.050000X1.050000X-1.050000X0*%
%TD*%
%TA.AperFunction,ComponentPad*%
%ADD14C,2.600000*%
%TD*%
%TA.AperFunction,ComponentPad*%
%ADD15RoundRect,0.250000X-1.050000X-1.050000X1.050000X-1.050000X1.050000X1.050000X-1.050000X1.050000X0*%
%TD*%
%TA.AperFunction,ViaPad*%
%ADD16C,0.600000*%
%TD*%
%TA.AperFunction,Conductor*%
%ADD17C,2.500000*%
%TD*%
%TA.AperFunction,Conductor*%
%ADD18C,3.000000*%
%TD*%
G04 APERTURE END LIST*
D10*
%TO.P,TH1,1*%
%TO.N,120Vac*%
X70010000Y-50890000D03*
%TO.P,TH1,2*%
%TO.N,/Line_TH*%
X70010000Y-58510000D03*
%TD*%
D11*
%TO.P,H2,1,1_1*%
%TO.N,Earth*%
X106000000Y-40000000D03*
D12*
X106000000Y-40000000D03*
%TD*%
D13*
%TO.P,J1,1,Pin_1_1*%
%TO.N,Earth*%
X87855000Y-50897500D03*
D14*
%TO.P,J1,2,Pin_2_2*%
%TO.N,Neutral*%
X82775000Y-50897500D03*
%TO.P,J1,3,Pin_3_3*%
%TO.N,120Vac*%
X77695000Y-50897500D03*
%TD*%
D15*
%TO.P,J2,1,Pin_1_1*%
%TO.N,Neutral*%
X61445000Y-65592500D03*
D14*
%TO.P,J2,2,Pin_2_2*%
%TO.N,Net-(J2-Pin_2)*%
X66525000Y-65592500D03*
%TO.P,J2,3,Pin_3_3*%
%TO.N,/Line_TH*%
X71605000Y-65592500D03*
%TD*%
D11*
%TO.P,H1,1,1_1*%
%TO.N,Earth*%
X53000000Y-40000000D03*
D12*
X53000000Y-40000000D03*
%TD*%
D15*
%TO.P,J3,1,Pin_1_1*%
%TO.N,Neutral*%
X87840000Y-65760000D03*
D14*
%TO.P,J3,2,Pin_2_2*%
%TO.N,Net-(J2-Pin_2)*%
X92920000Y-65760000D03*
%TO.P,J3,3,Pin_3_3*%
%TO.N,/Line_TH*%
X98000000Y-65760000D03*
%TD*%
D16*
%TO.N,Earth*%
X61280000Y-38340000D03*
X106890000Y-54700000D03*
X101670000Y-54670000D03*
X102090000Y-47480000D03*
X63290000Y-50050000D03*
X95800000Y-45900000D03*
X106580000Y-49450000D03*
X52370000Y-54050000D03*
X95690000Y-51770000D03*
X57050000Y-54870000D03*
X89680000Y-38340000D03*
X69150000Y-38310000D03*
X53950000Y-48240000D03*
X99050000Y-42910000D03*
X65030000Y-55180000D03*
X79280000Y-38310000D03*
X58860000Y-43730000D03*
X97660000Y-39410000D03*
X69970000Y-43450000D03*
%TD*%
%TO.N,120Vac*%
D17*
X77687500Y-50890000D02*
X77695000Y-50897500D01*
X70010000Y-50890000D02*
X77687500Y-50890000D01*
%TO.N,/Line_TH*%
D18*
X98000000Y-65760000D02*
X98000000Y-60560000D01*
X70010000Y-58510000D02*
X70020000Y-58500000D01*
X71605000Y-60105000D02*
X70010000Y-58510000D01*
X70020000Y-58500000D02*
X95940000Y-58500000D01*
X71605000Y-65592500D02*
X71605000Y-60105000D01*
X98000000Y-60560000D02*
X95940000Y-58500000D01*
%TO.N,Earth*%
D17*
X87855000Y-50897500D02*
X87855000Y-47845000D01*
X95700000Y-40000000D02*
X106000000Y-40000000D01*
X87855000Y-47845000D02*
X95700000Y-40000000D01*
%TO.N,Net-(J2-Pin_2)*%
D18*
X70540000Y-73210000D02*
X88990000Y-73210000D01*
X66525000Y-65592500D02*
X66525000Y-69195000D01*
X88990000Y-73210000D02*
X92460000Y-69740000D01*
X66525000Y-69195000D02*
X70540000Y-73210000D01*
X92460000Y-69740000D02*
X92460000Y-65760000D01*
%TD*%
%TA.AperFunction,Conductor*%
%TO.N,Earth*%
G36*
X108822539Y-37240185D02*
G01*
X108868294Y-37292989D01*
X108879500Y-37344500D01*
X108879500Y-55998731D01*
X108859815Y-56065770D01*
X108807011Y-56111525D01*
X108756316Y-56122728D01*
X104133257Y-56153164D01*
X104066090Y-56133922D01*
X104033176Y-56103479D01*
X103843924Y-55850668D01*
X103493075Y-55445766D01*
X103493065Y-55445756D01*
X103493053Y-55445743D01*
X101054256Y-53006946D01*
X101054243Y-53006934D01*
X101054234Y-53006925D01*
X100931222Y-52900335D01*
X100649324Y-52656068D01*
X100220436Y-52335007D01*
X100220412Y-52334990D01*
X99769731Y-52045356D01*
X99769718Y-52045348D01*
X99299488Y-51788584D01*
X99299481Y-51788580D01*
X98812160Y-51566029D01*
X98488554Y-51445330D01*
X98310165Y-51378794D01*
X98310162Y-51378793D01*
X97796107Y-51227852D01*
X97796097Y-51227849D01*
X97272593Y-51113968D01*
X96742278Y-51037721D01*
X96207883Y-50999500D01*
X96207881Y-50999500D01*
X88497445Y-50999500D01*
X88505000Y-50961519D01*
X88505000Y-50833481D01*
X88480021Y-50707902D01*
X88455001Y-50647500D01*
X89654999Y-50647500D01*
X89654999Y-49797528D01*
X89654998Y-49797513D01*
X89644505Y-49694802D01*
X89589358Y-49528380D01*
X89589356Y-49528375D01*
X89497315Y-49379154D01*
X89373345Y-49255184D01*
X89224124Y-49163143D01*
X89224119Y-49163141D01*
X89057697Y-49107994D01*
X89057690Y-49107993D01*
X88954986Y-49097500D01*
X88105000Y-49097500D01*
X88105000Y-50297498D01*
X88044598Y-50272479D01*
X87919019Y-50247500D01*
X87790981Y-50247500D01*
X87665402Y-50272479D01*
X87605000Y-50297498D01*
X87605000Y-49097500D01*
X86759720Y-49097500D01*
X86692681Y-49077815D01*
X86647338Y-49025905D01*
X86593228Y-48909867D01*
X86593220Y-48909851D01*
X86416659Y-48604040D01*
X86405460Y-48584642D01*
X86405452Y-48584631D01*
X86405448Y-48584624D01*
X86190065Y-48277025D01*
X85970760Y-48015668D01*
X85948682Y-47989356D01*
X85683144Y-47723818D01*
X85433854Y-47514639D01*
X85395474Y-47482434D01*
X85087875Y-47267051D01*
X85087864Y-47267044D01*
X85087858Y-47267040D01*
X84826548Y-47116172D01*
X84762648Y-47079279D01*
X84762633Y-47079271D01*
X84422293Y-46920568D01*
X84069410Y-46792130D01*
X83706692Y-46694941D01*
X83706695Y-46694941D01*
X83706685Y-46694939D01*
X83575736Y-46671849D01*
X83336865Y-46629729D01*
X82962767Y-46597000D01*
X82962764Y-46597000D01*
X82587236Y-46597000D01*
X82587232Y-46597000D01*
X82213134Y-46629729D01*
X81843320Y-46694938D01*
X81843317Y-46694938D01*
X81843315Y-46694939D01*
X81843310Y-46694940D01*
X81843307Y-46694941D01*
X81480589Y-46792130D01*
X81127706Y-46920568D01*
X80787366Y-47079271D01*
X80787351Y-47079279D01*
X80462150Y-47267035D01*
X80462124Y-47267051D01*
X80306123Y-47376285D01*
X80239917Y-47398612D01*
X80172150Y-47381602D01*
X80163877Y-47376285D01*
X80007875Y-47267051D01*
X80007864Y-47267044D01*
X80007858Y-47267040D01*
X79746548Y-47116172D01*
X79682648Y-47079279D01*
X79682633Y-47079271D01*
X79342293Y-46920568D01*
X78989410Y-46792130D01*
X78626692Y-46694941D01*
X78626695Y-46694941D01*
X78626685Y-46694939D01*
X78495736Y-46671849D01*
X78256865Y-46629729D01*
X77882767Y-46597000D01*
X77882764Y-46597000D01*
X77507236Y-46597000D01*
X77507232Y-46597000D01*
X77133134Y-46629729D01*
X77088408Y-46637616D01*
X77066875Y-46639500D01*
X69824415Y-46639500D01*
X69454667Y-46671849D01*
X69089152Y-46736300D01*
X69089149Y-46736300D01*
X69089147Y-46736301D01*
X69089142Y-46736302D01*
X69089139Y-46736303D01*
X68730638Y-46832362D01*
X68381859Y-46959306D01*
X68045477Y-47116164D01*
X68045461Y-47116172D01*
X67724040Y-47301745D01*
X67724014Y-47301761D01*
X67419993Y-47514639D01*
X67135665Y-47753219D01*
X66873219Y-48015665D01*
X66634639Y-48299993D01*
X66421761Y-48604014D01*
X66421745Y-48604040D01*
X66236172Y-48925461D01*
X66236164Y-48925477D01*
X66079306Y-49261859D01*
X65952362Y-49610638D01*
X65856303Y-49969139D01*
X65856300Y-49969152D01*
X65791849Y-50334667D01*
X65759500Y-50704415D01*
X65759500Y-51075584D01*
X65791849Y-51445332D01*
X65856300Y-51810847D01*
X65856303Y-51810860D01*
X65935532Y-52106548D01*
X65933869Y-52176397D01*
X65894706Y-52234260D01*
X65882797Y-52242956D01*
X65739560Y-52335010D01*
X65310669Y-52656074D01*
X64905769Y-53006922D01*
X64905745Y-53006944D01*
X64895770Y-53016921D01*
X64895766Y-53016925D01*
X64516946Y-53395743D01*
X64516922Y-53395769D01*
X64166068Y-53800675D01*
X63845007Y-54229563D01*
X63844990Y-54229587D01*
X63555356Y-54680268D01*
X63555348Y-54680281D01*
X63298584Y-55150511D01*
X63298580Y-55150518D01*
X63076029Y-55637839D01*
X62899603Y-56110855D01*
X62857731Y-56166788D01*
X62792267Y-56191205D01*
X62783542Y-56191521D01*
X50574621Y-56203407D01*
X50507562Y-56183788D01*
X50461756Y-56131028D01*
X50450500Y-56079407D01*
X50450500Y-37344500D01*
X50470185Y-37277461D01*
X50522989Y-37231706D01*
X50574500Y-37220500D01*
X108755500Y-37220500D01*
X108822539Y-37240185D01*
G37*
%TD.AperFunction*%
%TD*%
M02*
