%TF.GenerationSoftware,KiCad,Pcbnew,10.0.3*%
%TF.CreationDate,2026-07-01T10:48:48-04:00*%
%TF.ProjectId,AC_Board,41435f42-6f61-4726-942e-6b696361645f,rev?*%
%TF.SameCoordinates,Original*%
%TF.FileFunction,Copper,L1,Top*%
%TF.FilePolarity,Positive*%
%FSLAX46Y46*%
G04 Gerber Fmt 4.6, Leading zero omitted, Abs format (unit mm)*
G04 Created by KiCad (PCBNEW 10.0.3) date 2026-07-01 10:48:48*
%MOMM*%
%LPD*%
G01*
G04 APERTURE LIST*
G04 Aperture macros list*
%AMRoundRect*
0 Rectangle with rounded corners*
0 $1 Rounding radius*
0 $2 $3 $4 $5 $6 $7 $8 $9 X,Y pos of 4 corners*
0 Add a 4 corners polygon primitive as box body*
4,1,4,$2,$3,$4,$5,$6,$7,$8,$9,$2,$3,0*
0 Add four circle primitives for the rounded corners*
1,1,$1+$1,$2,$3*
1,1,$1+$1,$4,$5*
1,1,$1+$1,$6,$7*
1,1,$1+$1,$8,$9*
0 Add four rect primitives between the rounded corners*
20,1,$1+$1,$2,$3,$4,$5,0*
20,1,$1+$1,$4,$5,$6,$7,0*
20,1,$1+$1,$6,$7,$8,$9,0*
20,1,$1+$1,$8,$9,$2,$3,0*%
G04 Aperture macros list end*
%TA.AperFunction,ComponentPad*%
%ADD10C,2.400000*%
%TD*%
%TA.AperFunction,ComponentPad*%
%ADD11C,3.600000*%
%TD*%
%TA.AperFunction,ConnectorPad*%
%ADD12C,5.600000*%
%TD*%
%TA.AperFunction,SMDPad,CuDef*%
%ADD13RoundRect,0.250000X-0.450000X0.350000X-0.450000X-0.350000X0.450000X-0.350000X0.450000X0.350000X0*%
%TD*%
%TA.AperFunction,ComponentPad*%
%ADD14RoundRect,0.250000X1.050000X1.050000X-1.050000X1.050000X-1.050000X-1.050000X1.050000X-1.050000X0*%
%TD*%
%TA.AperFunction,ComponentPad*%
%ADD15C,2.600000*%
%TD*%
%TA.AperFunction,ComponentPad*%
%ADD16RoundRect,0.250000X-1.050000X-1.050000X1.050000X-1.050000X1.050000X1.050000X-1.050000X1.050000X0*%
%TD*%
%TA.AperFunction,ViaPad*%
%ADD17C,0.600000*%
%TD*%
%TA.AperFunction,Conductor*%
%ADD18C,2.500000*%
%TD*%
%TA.AperFunction,Conductor*%
%ADD19C,1.500000*%
%TD*%
%TA.AperFunction,Conductor*%
%ADD20C,3.000000*%
%TD*%
G04 APERTURE END LIST*
D10*
%TO.P,TH1,1*%
%TO.N,120Vac*%
X70010000Y-50890000D03*
%TO.P,TH1,2*%
%TO.N,/Line_TH*%
X70010000Y-58510000D03*
%TD*%
D11*
%TO.P,H2,1,1_1*%
%TO.N,Earth*%
X106000000Y-40000000D03*
D12*
X106000000Y-40000000D03*
%TD*%
D13*
%TO.P,R1,1*%
%TO.N,Earth*%
X97500000Y-55200000D03*
%TO.P,R1,2*%
%TO.N,Net-(J2-Pin_2)*%
X97500000Y-57200000D03*
%TD*%
D14*
%TO.P,J1,1,Pin_1_1*%
%TO.N,Earth*%
X87855000Y-50897500D03*
D15*
%TO.P,J1,2,Pin_2_2*%
%TO.N,Neutral*%
X82775000Y-50897500D03*
%TO.P,J1,3,Pin_3_3*%
%TO.N,120Vac*%
X77695000Y-50897500D03*
%TD*%
D16*
%TO.P,J2,1,Pin_1_1*%
%TO.N,Neutral*%
X61445000Y-65592500D03*
D15*
%TO.P,J2,2,Pin_2_2*%
%TO.N,Net-(J2-Pin_2)*%
X66525000Y-65592500D03*
%TO.P,J2,3,Pin_3_3*%
%TO.N,/Line_TH*%
X71605000Y-65592500D03*
%TD*%
D11*
%TO.P,H1,1,1_1*%
%TO.N,Earth*%
X53000000Y-40000000D03*
D12*
X53000000Y-40000000D03*
%TD*%
D16*
%TO.P,J3,1,Pin_1_1*%
%TO.N,Neutral*%
X87840000Y-65760000D03*
D15*
%TO.P,J3,2,Pin_2_2*%
%TO.N,Net-(J2-Pin_2)*%
X92920000Y-65760000D03*
%TO.P,J3,3,Pin_3_3*%
%TO.N,/Line_TH*%
X98000000Y-65760000D03*
%TD*%
D17*
%TO.N,Earth*%
X61280000Y-38340000D03*
X106890000Y-54700000D03*
X101670000Y-54670000D03*
X102090000Y-47480000D03*
X63290000Y-50050000D03*
X95800000Y-45900000D03*
X106580000Y-49450000D03*
X52370000Y-54050000D03*
X95690000Y-51770000D03*
X57050000Y-54870000D03*
X89680000Y-38340000D03*
X69150000Y-38310000D03*
X53950000Y-48240000D03*
X99050000Y-42910000D03*
X65030000Y-55180000D03*
X79280000Y-38310000D03*
X58860000Y-43730000D03*
X97660000Y-39410000D03*
X69970000Y-43450000D03*
%TD*%
%TO.N,120Vac*%
D18*
X70017500Y-50897500D02*
X70010000Y-50890000D01*
%TO.N,Earth*%
D19*
X97500000Y-55200000D02*
X101140000Y-55200000D01*
X97500000Y-53580000D02*
X95690000Y-51770000D01*
X97500000Y-55200000D02*
X97500000Y-53580000D01*
X101140000Y-55200000D02*
X101670000Y-54670000D01*
%TO.N,Net-(J2-Pin_2)*%
X97170209Y-57529791D02*
X97500000Y-57200000D01*
X94529791Y-57529791D02*
X97170209Y-57529791D01*
D20*
X92920000Y-59139582D02*
X94529791Y-57529791D01*
X92920000Y-65760000D02*
X92920000Y-59139582D01*
%TO.N,Neutral*%
X64155949Y-74820000D02*
X84010000Y-74820000D01*
X61445000Y-72109051D02*
X64155949Y-74820000D01*
X82775000Y-60695000D02*
X87840000Y-65760000D01*
X87840000Y-70990000D02*
X87840000Y-65760000D01*
X84010000Y-74820000D02*
X87840000Y-70990000D01*
X82775000Y-50897500D02*
X82775000Y-60695000D01*
X61445000Y-65592500D02*
X61445000Y-72109051D01*
%TD*%
%TA.AperFunction,Conductor*%
%TO.N,Earth*%
G36*
X108822539Y-37240185D02*
G01*
X108868294Y-37292989D01*
X108879500Y-37344500D01*
X108879500Y-55998731D01*
X108859815Y-56065770D01*
X108807011Y-56111525D01*
X108756316Y-56122728D01*
X101228751Y-56172284D01*
X101161584Y-56153042D01*
X101115482Y-56100540D01*
X101107325Y-56077080D01*
X101070106Y-55921104D01*
X101009692Y-55752717D01*
X100948983Y-55583505D01*
X100948979Y-55583497D01*
X100791455Y-55261277D01*
X100725265Y-55156852D01*
X100599438Y-54958338D01*
X100375259Y-54678359D01*
X100121641Y-54424741D01*
X100091708Y-54400774D01*
X100052869Y-54369675D01*
X99841662Y-54200562D01*
X99751709Y-54143545D01*
X99538722Y-54008544D01*
X99216502Y-53851020D01*
X99216499Y-53851018D01*
X99146405Y-53825870D01*
X99129829Y-53818514D01*
X99105480Y-53805499D01*
X99105473Y-53805496D01*
X98765031Y-53664480D01*
X98412386Y-53557507D01*
X98412375Y-53557504D01*
X98050975Y-53485618D01*
X97774773Y-53458415D01*
X97684251Y-53449500D01*
X97315749Y-53449500D01*
X97232108Y-53457737D01*
X96949024Y-53485618D01*
X96678371Y-53539454D01*
X96608779Y-53533227D01*
X96601776Y-53530219D01*
X96253711Y-53367915D01*
X96253700Y-53367911D01*
X96253698Y-53367910D01*
X95884407Y-53233498D01*
X95643751Y-53169014D01*
X95504807Y-53131784D01*
X95504796Y-53131782D01*
X95117788Y-53063542D01*
X94726291Y-53029291D01*
X94726287Y-53029291D01*
X94333295Y-53029291D01*
X94333290Y-53029291D01*
X93941795Y-53063542D01*
X93941791Y-53063542D01*
X93554785Y-53131782D01*
X93554774Y-53131784D01*
X93351346Y-53186293D01*
X93175175Y-53233498D01*
X93175172Y-53233499D01*
X93175171Y-53233499D01*
X92805870Y-53367915D01*
X92449728Y-53533986D01*
X92449704Y-53533998D01*
X92109378Y-53730486D01*
X92109363Y-53730495D01*
X91787443Y-53955906D01*
X91486397Y-54208515D01*
X89598730Y-56096182D01*
X89598708Y-56096206D01*
X89506763Y-56205781D01*
X89448591Y-56244483D01*
X89412590Y-56250072D01*
X87400316Y-56263320D01*
X87333149Y-56244078D01*
X87287047Y-56191576D01*
X87275500Y-56139323D01*
X87275500Y-52821499D01*
X87295185Y-52754460D01*
X87347989Y-52708705D01*
X87399500Y-52697499D01*
X87605000Y-52697499D01*
X87605000Y-51497501D01*
X87665402Y-51522521D01*
X87790981Y-51547500D01*
X87919019Y-51547500D01*
X88044598Y-51522521D01*
X88105000Y-51497501D01*
X88105000Y-52697499D01*
X88954972Y-52697499D01*
X88954986Y-52697498D01*
X89057697Y-52687005D01*
X89224119Y-52631858D01*
X89224124Y-52631856D01*
X89373345Y-52539815D01*
X89497315Y-52415845D01*
X89589356Y-52266624D01*
X89589358Y-52266619D01*
X89644505Y-52100197D01*
X89644506Y-52100190D01*
X89654999Y-51997486D01*
X89655000Y-51997473D01*
X89655000Y-51147500D01*
X88455001Y-51147500D01*
X88480021Y-51087098D01*
X88505000Y-50961519D01*
X88505000Y-50833481D01*
X88480021Y-50707902D01*
X88455001Y-50647500D01*
X89654999Y-50647500D01*
X89654999Y-49797528D01*
X89654998Y-49797513D01*
X89644505Y-49694802D01*
X89589358Y-49528380D01*
X89589356Y-49528375D01*
X89497315Y-49379154D01*
X89373345Y-49255184D01*
X89224124Y-49163143D01*
X89224119Y-49163141D01*
X89057697Y-49107994D01*
X89057690Y-49107993D01*
X88954986Y-49097500D01*
X88105000Y-49097500D01*
X88105000Y-50297498D01*
X88044598Y-50272479D01*
X87919019Y-50247500D01*
X87790981Y-50247500D01*
X87665402Y-50272479D01*
X87605000Y-50297498D01*
X87605000Y-49097500D01*
X86980396Y-49097500D01*
X86913357Y-49077815D01*
X86868014Y-49025904D01*
X86770804Y-48817437D01*
X86770792Y-48817413D01*
X86758455Y-48796046D01*
X86574300Y-48477079D01*
X86348889Y-48155159D01*
X86348888Y-48155158D01*
X86348884Y-48155152D01*
X86096275Y-47854106D01*
X85818393Y-47576224D01*
X85517347Y-47323615D01*
X85195427Y-47098204D01*
X85195424Y-47098202D01*
X85195421Y-47098200D01*
X84887759Y-46920571D01*
X84855086Y-46901707D01*
X84855062Y-46901695D01*
X84498921Y-46735624D01*
X84498910Y-46735620D01*
X84498908Y-46735619D01*
X84129616Y-46601207D01*
X83888960Y-46536723D01*
X83750016Y-46499493D01*
X83750005Y-46499491D01*
X83362997Y-46431251D01*
X82971500Y-46397000D01*
X82971496Y-46397000D01*
X82578504Y-46397000D01*
X82578499Y-46397000D01*
X82187004Y-46431251D01*
X82187000Y-46431251D01*
X81799994Y-46499491D01*
X81799983Y-46499493D01*
X81596555Y-46554002D01*
X81420384Y-46601207D01*
X81420381Y-46601208D01*
X81420380Y-46601208D01*
X81051078Y-46735624D01*
X80694937Y-46901695D01*
X80694913Y-46901707D01*
X80354587Y-47098195D01*
X80354561Y-47098212D01*
X80130440Y-47255142D01*
X80064234Y-47277469D01*
X79997317Y-47260954D01*
X79682648Y-47079279D01*
X79682633Y-47079271D01*
X79342293Y-46920568D01*
X78989410Y-46792130D01*
X78626692Y-46694941D01*
X78626695Y-46694941D01*
X78626685Y-46694939D01*
X78495736Y-46671849D01*
X78256865Y-46629729D01*
X77882767Y-46597000D01*
X77882764Y-46597000D01*
X77507236Y-46597000D01*
X77507232Y-46597000D01*
X77133134Y-46629729D01*
X76763320Y-46694938D01*
X76763317Y-46694938D01*
X76763315Y-46694939D01*
X76763310Y-46694940D01*
X76763307Y-46694941D01*
X76400589Y-46792130D01*
X76047706Y-46920568D01*
X75707366Y-47079271D01*
X75707351Y-47079279D01*
X75382150Y-47267035D01*
X75382124Y-47267051D01*
X75074525Y-47482434D01*
X74786853Y-47723820D01*
X74521320Y-47989353D01*
X74279934Y-48277025D01*
X74064551Y-48584624D01*
X74064535Y-48584650D01*
X73934769Y-48809411D01*
X73884202Y-48857627D01*
X73815595Y-48870849D01*
X73750730Y-48844881D01*
X73719995Y-48809411D01*
X73693962Y-48764321D01*
X73605750Y-48611533D01*
X73605742Y-48611522D01*
X73605738Y-48611515D01*
X73392860Y-48307493D01*
X73154280Y-48023165D01*
X72884334Y-47753219D01*
X72849295Y-47723818D01*
X72805518Y-47687084D01*
X72600007Y-47514639D01*
X72295984Y-47301762D01*
X72295967Y-47301750D01*
X72200469Y-47246614D01*
X71974537Y-47116172D01*
X71974521Y-47116164D01*
X71638151Y-46959310D01*
X71638141Y-46959306D01*
X71289361Y-46832362D01*
X70930859Y-46736303D01*
X70930862Y-46736303D01*
X70930852Y-46736301D01*
X70879241Y-46727200D01*
X70565333Y-46671849D01*
X70195584Y-46639500D01*
X70195581Y-46639500D01*
X69824419Y-46639500D01*
X69824415Y-46639500D01*
X69454666Y-46671849D01*
X69089153Y-46736300D01*
X69089150Y-46736300D01*
X69089148Y-46736301D01*
X69089143Y-46736302D01*
X69089140Y-46736303D01*
X68730638Y-46832362D01*
X68381858Y-46959306D01*
X68381848Y-46959310D01*
X68045478Y-47116164D01*
X68045462Y-47116172D01*
X67724041Y-47301745D01*
X67724015Y-47301762D01*
X67419992Y-47514639D01*
X67135665Y-47753219D01*
X66873219Y-48015665D01*
X66634639Y-48299992D01*
X66421762Y-48604015D01*
X66421745Y-48604041D01*
X66236172Y-48925462D01*
X66236164Y-48925478D01*
X66079310Y-49261848D01*
X66079306Y-49261858D01*
X65952362Y-49610638D01*
X65856303Y-49969140D01*
X65856300Y-49969153D01*
X65791849Y-50334666D01*
X65759500Y-50704415D01*
X65759500Y-51075584D01*
X65791849Y-51445333D01*
X65856300Y-51810846D01*
X65856303Y-51810859D01*
X65952362Y-52169361D01*
X66033228Y-52391540D01*
X66037659Y-52461269D01*
X66003688Y-52522324D01*
X65983747Y-52538265D01*
X65900760Y-52591598D01*
X65489030Y-52899815D01*
X65100325Y-53236630D01*
X65100299Y-53236654D01*
X64736654Y-53600299D01*
X64736630Y-53600325D01*
X64399815Y-53989030D01*
X64091591Y-54400769D01*
X64091574Y-54400793D01*
X63813525Y-54833447D01*
X63813517Y-54833460D01*
X63567023Y-55284881D01*
X63567019Y-55284888D01*
X63353369Y-55752717D01*
X63219905Y-56110543D01*
X63178033Y-56166477D01*
X63112568Y-56190893D01*
X63103844Y-56191209D01*
X50574621Y-56203407D01*
X50507562Y-56183788D01*
X50461756Y-56131028D01*
X50450500Y-56079407D01*
X50450500Y-37344500D01*
X50470185Y-37277461D01*
X50522989Y-37231706D01*
X50574500Y-37220500D01*
X108755500Y-37220500D01*
X108822539Y-37240185D01*
G37*
%TD.AperFunction*%
%TD*%
M02*
